<svg width="28" height="28" viewBox="0 0 28 28" fill="none"
  xmlns="http://www.w3.org/2000/svg">
  <rect width="28" height="28" rx="5.25" fill="#873EFF"/>
  <path d="M6.18217 16.7236C6.79589 16.7236 7.28838 16.4205 7.65964 15.7234L8.4855 14.1778V15.4886C8.4855 16.2614 8.98557 16.7236 9.7584 16.7236C10.3645 16.7236 10.8116 16.4584 11.2434 15.7234L13.1452 12.5109C13.5619 11.8063 13.2664 11.2759 12.3496 11.2759C11.8572 11.2759 11.5389 11.435 11.251 11.9729L9.94024 14.4354V12.2457C9.94024 11.5941 9.62959 11.2759 9.05376 11.2759C8.59915 11.2759 8.23547 11.4729 7.95513 12.0184L6.72012 14.4354V12.2684C6.72012 11.5714 6.4322 11.2759 5.73514 11.2759H4.31071C3.77276 11.2759 3.5 11.5259 3.5 11.9881C3.5 12.4503 3.78792 12.7155 4.31071 12.7155H4.89412V15.481C4.89412 16.2614 5.41692 16.7236 6.18217 16.7236Z" fill="white"/>
  <path fill-rule="evenodd" clip-rule="evenodd" d="M15.9263 11.2759C14.373 11.2759 13.1835 12.4351 13.1835 14.0035C13.1835 15.5719 14.3806 16.7236 15.9263 16.7236C17.4719 16.7236 18.6539 15.5643 18.6615 14.0035C18.6615 12.4351 17.4719 11.2759 15.9263 11.2759ZM15.9263 15.0491C15.3429 15.0491 14.9413 14.6097 14.9413 14.0035C14.9413 13.3974 15.3429 12.9503 15.9263 12.9503C16.5097 12.9503 16.9113 13.3974 16.9113 14.0035C16.9113 14.6097 16.5173 15.0491 15.9263 15.0491Z" fill="white"/>
  <path fill-rule="evenodd" clip-rule="evenodd" d="M19.0474 14.0035C19.0474 12.4351 20.2369 11.2759 21.7826 11.2759C23.3282 11.2759 24.5178 12.4427 24.5178 14.0035C24.5178 15.5643 23.3282 16.7236 21.7826 16.7236C20.2369 16.7236 19.0474 15.5719 19.0474 14.0035ZM20.8052 14.0035C20.8052 14.6097 21.1916 15.0491 21.7826 15.0491C22.366 15.0491 22.7675 14.6097 22.7675 14.0035C22.7675 13.3974 22.366 12.9503 21.7826 12.9503C21.1992 12.9503 20.8052 13.3974 20.8052 14.0035Z" fill="white"/>
</svg>
