<svg width="95" height="26" viewBox="0 0 95 26" fill="none" xmlns="http://www.w3.org/2000/svg">
<path d="M12.0825 24.9194C14.8471 24.9194 17.0657 23.5541 18.7381 20.414L22.4584 13.4512V19.3559C22.4584 22.8373 24.7111 24.9194 28.1925 24.9194C30.923 24.9194 32.9368 23.7248 34.8822 20.414L43.4492 5.94232C45.3264 2.7681 43.9953 0.378906 39.8654 0.378906C37.6469 0.378906 36.2134 1.09566 34.9164 3.51899L29.0117 14.6117V4.74772C29.0117 1.81242 27.6123 0.378906 25.0183 0.378906C22.9704 0.378906 21.3321 1.26632 20.0692 3.72378L14.5058 14.6117V4.85011C14.5058 1.71003 13.2088 0.378906 10.0687 0.378906H3.65205C1.22873 0.378906 0 1.50524 0 3.58725C0 5.66927 1.29699 6.86386 3.65205 6.86386H6.28017V19.3218C6.28017 22.8373 8.63523 24.9194 12.0825 24.9194Z" fill="#873EFF"/>
<path fill-rule="evenodd" clip-rule="evenodd" d="M55.9772 0.378906C48.9803 0.378906 43.6217 5.601 43.6217 12.6662C43.6217 19.7314 49.0144 24.9194 55.9772 24.9194C62.94 24.9194 68.2645 19.6973 68.2986 12.6662C68.2986 5.601 62.94 0.378906 55.9772 0.378906ZM55.9772 17.3763C53.3491 17.3763 51.5401 15.3967 51.5401 12.6662C51.5401 9.93569 53.3491 7.92194 55.9772 7.92194C58.6053 7.92194 60.4143 9.93569 60.4143 12.6662C60.4143 15.3967 58.6395 17.3763 55.9772 17.3763Z" fill="#873EFF"/>
<path fill-rule="evenodd" clip-rule="evenodd" d="M70.0369 12.6662C70.0369 5.601 75.3955 0.378906 82.3583 0.378906C89.3211 0.378906 94.6797 5.63514 94.6797 12.6662C94.6797 19.6973 89.3211 24.9194 82.3583 24.9194C75.3955 24.9194 70.0369 19.7314 70.0369 12.6662ZM77.9554 12.6662C77.9554 15.3967 79.6961 17.3763 82.3583 17.3763C84.9864 17.3763 86.7954 15.3967 86.7954 12.6662C86.7954 9.93569 84.9864 7.92194 82.3583 7.92194C79.7302 7.92194 77.9554 9.93569 77.9554 12.6662Z" fill="#873EFF"/>
</svg>
