<svg width="150" height="125" viewBox="0 0 150 125" fill="none" xmlns="http://www.w3.org/2000/svg">
    <g clip-path="url(#clip0_3295_3539)">
        <path d="M99.9722 12.1042C99.9722 4.375 95.654 0 87.9478 0H12.0244C4.31824 0 0 4.375 0 12.1042V112.889C0 120.618 4.31824 124.993 12.0244 124.993H87.9547C95.6609 124.993 99.9792 120.618 99.9792 112.889V12.1042H99.9722Z" fill="#B999FF"/>
        <path d="M150 50H74.9793V125H150V50Z" fill="#D1C1FF"/>
        <path d="M47.4383 28.6043C47.4383 25.9515 50.8887 25.0626 50.8887 22.3334C50.8887 19.6043 47.4383 18.7154 47.4383 16.0557C47.4383 13.3959 50.0973 10.8751 48.1881 8.96539C46.2789 7.05566 43.7657 9.69455 41.1067 9.69455C38.4477 9.69455 37.566 6.24316 34.8307 6.24316C32.0953 6.24316 31.2275 9.69455 28.5685 9.69455C25.9095 9.69455 25.0348 6.24316 22.3064 6.24316C19.578 6.24316 18.6893 9.69455 16.0303 9.69455C13.3713 9.69455 10.8512 7.05566 8.94896 8.96539C7.04671 10.8751 9.69875 13.389 9.69875 16.0557C9.69875 18.7223 6.24832 19.5973 6.24832 22.3334C6.24832 25.0696 9.69181 25.9446 9.69875 28.6043C9.69875 31.2571 6.24832 32.1459 6.24832 34.8751C6.24832 37.6043 9.69875 38.4932 9.69875 41.1529C9.69875 43.8126 7.03977 46.3334 8.94896 48.2432C10.8582 50.1529 13.3713 47.514 16.0303 47.514C18.6893 47.514 19.571 50.9654 22.3064 50.9654C25.0417 50.9654 25.9095 47.514 28.5685 47.514C31.2275 47.514 32.1022 50.9654 34.8307 50.9654C37.5591 50.9654 38.4477 47.514 41.1067 47.514C43.7657 47.514 46.2858 50.1529 48.1881 48.2432C50.0973 46.3334 47.4383 43.8196 47.4383 41.1529C47.4383 38.4862 50.8887 37.6112 50.8887 34.8751C50.8887 32.139 47.4452 31.264 47.4383 28.6043Z" fill="white"/>
        <path d="M112.469 50H99.9722V70.3611C99.9722 74.0625 101.881 75 103.485 75C106.227 75 109.81 71.5486 112.469 71.5486C115.128 71.5486 118.703 75 121.452 75C123.063 75 124.965 74.0625 124.965 70.3611V50H112.469Z" fill="#873EFF"/>
        <path d="M74.9793 50V125H45.8971L74.9793 50Z" fill="#5007AA"/>
        <rect x="113.194" y="100.694" width="31.25" height="18.0556" fill="white"/>
        <rect x="122.917" y="104.168" width="1.38889" height="11.8056" fill="#3C087E"/>
        <rect x="116.667" y="104.168" width="2.08333" height="11.8056" fill="#3C087E"/>
        <rect x="133.333" y="104.168" width="2.08333" height="11.8056" fill="#3C087E"/>
        <rect x="120.139" y="104.168" width="1.38889" height="11.8056" fill="#3C087E"/>
        <rect x="136.806" y="104.168" width="1.38889" height="11.8056" fill="#3C087E"/>
        <rect x="139.583" y="104.168" width="1.38889" height="11.8056" fill="#3C087E"/>
        <rect x="125.694" y="104.168" width="3.47222" height="11.8056" fill="#3C087E"/>
        <rect x="130.556" y="104.168" width="1.38889" height="11.8056" fill="#3C087E"/>
        <rect x="23.25" y="29" width="1.38889" height="11.8056" fill="#3C087E"/>
        <rect x="17" y="29" width="2.08333" height="11.8056" fill="#3C087E"/>
        <rect x="33.6667" y="29" width="2.08333" height="11.8056" fill="#3C087E"/>
        <rect x="20.4722" y="29" width="1.38889" height="11.8056" fill="#3C087E"/>
        <rect x="37.1389" y="29" width="1.38889" height="11.8056" fill="#3C087E"/>
        <rect x="39.9167" y="29" width="1.38889" height="11.8056" fill="#3C087E"/>
        <rect x="26.0278" y="29" width="3.47222" height="11.8056" fill="#3C087E"/>
        <rect x="30.8889" y="29" width="1.38889" height="11.8056" fill="#3C087E"/>
        <rect x="41" y="16" width="3" height="24" transform="rotate(90 41 16)" fill="#F1EEEB"/>
        <rect x="31" y="22" width="3" height="14" transform="rotate(90 31 22)" fill="#F1EEEB"/>
    </g>
    <defs>
        <clipPath id="clip0_3295_3539">
            <rect width="150" height="125" fill="white"/>
        </clipPath>
    </defs>
</svg>
