<svg viewBox="0 0 49 48" xmlns="http://www.w3.org/2000/svg"><path d="M48.333 24c0-13.255-10.745-24-24-24s-24 10.745-24 24 10.745 24 24 24 24-10.745 24-24Z" fill="#fcf1ea"/><path d="m35.648 22.588-9.89-9.89c-.423-.423-.985-.704-1.595-.704h-9.562a2.25 2.25 0 0 0-2.25 2.25v9.61c0 .609.234 1.171.656 1.593l9.89 9.89c.891.891 2.345.891 3.188 0l9.563-9.562c.89-.843.89-2.296 0-3.187Zm-1.032 2.156-9.562 9.563c-.328.28-.797.28-1.078 0l-9.938-9.938a.753.753 0 0 1-.234-.515h.047v-9.61c0-.375.328-.75.75-.75h9.562c.188 0 .375.094.516.235l9.938 9.937c.28.281.28.75 0 1.078Zm-15.515-8.25a2.25 2.25 0 0 0-2.25 2.25 2.22 2.22 0 0 0 2.25 2.25 2.25 2.25 0 0 0 2.25-2.25c0-1.219-1.031-2.25-2.25-2.25Z" fill="#e27730"/></svg>
