<svg viewBox="0 0 49 48" xmlns="http://www.w3.org/2000/svg"><path d="M48 24C48 10.745 37.255 0 24 0S0 10.745 0 24s10.745 24 24 24 24-10.745 24-24Z" fill="#fcf1ea"/><path d="M14.531 27.352c-.656-.938-1.031-2.11-1.031-3.375 0-3.282 2.672-6 6-6H27v3c0 1.406 1.688 2.062 2.578 1.03l3.375-3.75a1.506 1.506 0 0 0 0-2.015l-3.375-3.75c-.89-1.03-2.578-.375-2.578 1.032v2.953h-7.5a7.492 7.492 0 0 0-7.5 7.5c0 1.593.469 3.093 1.313 4.312.234.281.656.328.89.047l.235-.281a.568.568 0 0 0 .093-.703Zm20.11-7.64c-.235-.282-.657-.33-.891-.048l-.234.281a.568.568 0 0 0-.094.704c.656.937 1.078 2.109 1.078 3.328 0 3.328-2.719 6-6 6H21v-2.953c0-1.407-1.734-2.063-2.625-1.032L15 29.742a1.507 1.507 0 0 0 0 2.016l3.375 3.75c.89 1.031 2.625.375 2.625-1.031v-3h7.5c4.125 0 7.5-3.328 7.5-7.5 0-1.547-.516-3.047-1.36-4.266Z" fill="#e27730"/></svg>
