<svg viewBox="0 0 48 49" xmlns="http://www.w3.org/2000/svg"><rect width="48" height="48" rx="24" fill="#ebebec"/><path d="m14.765 12.643 2.344 2.343c1.969-1.5 4.453-2.437 7.125-2.437 6.375.047 11.625 5.25 11.578 11.672 0 6.421-5.203 11.578-11.625 11.578a11.778 11.778 0 0 1-7.78-2.953.594.594 0 0 1 0-.844l.327-.328c.188-.188.563-.235.75 0 1.828 1.64 4.219 2.531 6.703 2.531A10.013 10.013 0 0 0 34.22 24.174a10.013 10.013 0 0 0-10.032-10.031c-2.156 0-4.218.703-5.953 1.968l2.531 2.531c.938.938.282 2.532-1.078 2.532h-6a1.51 1.51 0 0 1-1.5-1.5v-6c0-1.313 1.641-1.969 2.579-1.031Z" fill="#50575e"/></svg>
