<svg viewBox="0 0 25 25" xmlns="http://www.w3.org/2000/svg"><path d="M21 .5H4A3.5 3.5 0 0 0 .5 4v17A3.5 3.5 0 0 0 4 24.5h17a3.5 3.5 0 0 0 3.5-3.5V4A3.5 3.5 0 0 0 21 .5Z" fill="#fcf1ea"/><path d="M1 4a3 3 0 0 1 3-3h17a3 3 0 0 1 3 3v17a3 3 0 0 1-3 3H4a3 3 0 0 1-3-3V4Zm3-4a4 4 0 0 0-4 4v17a4 4 0 0 0 4 4h17a4 4 0 0 0 4-4V4a4 4 0 0 0-4-4H4Zm4.987 18.543 3.308-1.749 3.295 1.749.008.004a.808.808 0 0 0 .848-.072.818.818 0 0 0 .342-.779l-.001-.011-.636-3.686 2.664-2.612.007-.008a.83.83 0 0 0 .208-.836.792.792 0 0 0-.636-.554l-3.715-.535-1.675-3.374-.003-.006a.791.791 0 0 0-.712-.444.791.791 0 0 0-.713.444l-.003.006L9.9 9.454l-3.715.535a.792.792 0 0 0-.636.554.83.83 0 0 0 .207.836l.008.008 2.663 2.612-.635 3.686-.002.011c-.042.316.1.604.342.779a.809.809 0 0 0 .848.072l.008-.004Z" fill="#e27730"/></svg>
