<svg fill="none" height="40" width="40" xmlns="http://www.w3.org/2000/svg" xmlns:xlink="http://www.w3.org/1999/xlink"><clipPath id="a"><path d="m0 0h28v20.525h-28z" transform="translate(6 9)"/></clipPath><path d="m0 0h40v40h-40z" fill="#f6f7f7"/><g clip-path="url(#a)"><path d="m10.58 29.159a11.26 11.26 0 1 1 18.837 0h3.152a14 14 0 1 0 -25.138 0h3.148z" fill="#4a4af4"/><path d="m20.188 16.347c-2.05 0-4.41.968-5.692 1.988l1.169 2.463c1.027-.94 2.689-1.743 4.186-1.743 1.424 0 2.208.474 2.208 1.435 0 .641-.52 1.009-1.506 1.098-3.692.34-6.563 1.495-6.563 4.33 0 2.248 1.621 3.607 4.289 3.607a4.516 4.516 0 0 0 3.94-2.3v1.932h3.328v-8.103c0-3.346-2.328-4.698-5.359-4.698zm-.971 10.578c-1.068 0-1.669-.46-1.669-1.217 0-1.58 1.923-1.96 4.443-1.96 0 1.653-1.107 3.177-2.777 3.177z" fill="#060809"/></g></svg>