<svg width="40" height="40" fill="none" xmlns="http://www.w3.org/2000/svg"><path fill="#B2FCE4" d="M0 0H40V40H0z"/><path d="M30.02 13.823l-3.244-1.856-3.29-1.885c-2.175-1.246-4.893.32-4.893 2.831v.422c0 .235.122.45.328.563l1.528.871a.633.633 0 0 0 .946-.553v-1.003c0-.496.535-.806.966-.562l3 1.725 2.99 1.715a.643.643 0 0 1 0 1.116l-2.99 1.715-3 1.725a.646.646 0 0 1-.966-.563v-.497c0-2.512-2.718-4.086-4.893-2.83l-3.28 1.893-3.244 1.856c-2.184 1.256-2.184 4.415 0 5.671l3.243 1.856 3.29 1.884c2.175 1.247 4.894-.318 4.894-2.83v-.422a.635.635 0 0 0-.328-.563l-1.528-.871a.633.633 0 0 0-.947.553v1.003a.646.646 0 0 1-.965.562l-3-1.725-2.99-1.715a.643.643 0 0 1 0-1.116l2.99-1.715 3-1.725a.646.646 0 0 1 .965.563v.496c0 2.513 2.718 4.087 4.893 2.831l3.29-1.884 3.244-1.856c2.175-1.265 2.175-4.424-.01-5.68z" fill="#000"/></svg>