<svg fill="none" height="40" width="40" xmlns="http://www.w3.org/2000/svg" xmlns:xlink="http://www.w3.org/1999/xlink"><linearGradient id="a" gradientUnits="userSpaceOnUse" x1="4.363" x2="20.363" y1="11.395" y2="35.395"><stop offset="0" stop-color="#ff4244"/><stop offset="1" stop-color="#ff8e3c"/></linearGradient><clipPath id="b"><path d="m0 0h26v17.333h-26z" transform="translate(7 11)"/></clipPath><path d="m0 0h40v40h-40z" fill="#f6f7f7"/><g clip-path="url(#b)"><path clip-rule="evenodd" d="m32.03 17.81a3.202 3.202 0 0 1 .76 3.449l-1.698 4.607c-.443 1.212-1.466 2.15-2.71 2.393a3.517 3.517 0 0 1 -3.416-1.223l-10.185-12.188a.231.231 0 0 0 -.316-.031.154.154 0 0 0 -.063.095l-3.31 8.95a.228.228 0 0 0 .294.296l4.06-1.655a1.806 1.806 0 0 1 2.34.99.591.591 0 0 1 .042.127c.296.918-.2 1.92-1.096 2.278l-5.303 2.172c-.981.4-2.11.326-2.995-.264a3.23 3.23 0 0 1 -1.233-3.806l3.911-10.575a3.671 3.671 0 0 1 2.826-2.372 3.635 3.635 0 0 1 3.447 1.265l5.841 7 5.367-2.192a3.136 3.136 0 0 1 3.427.685h.01zm-3.1 3.512c.064-.19-.116-.37-.295-.285l-2.962 1.213 1.781 2.13a.231.231 0 0 0 .317.031.19.19 0 0 0 .063-.095l1.096-2.984z" fill="url(#a)" fill-rule="evenodd"/></g></svg>