<svg fill="none" height="40" width="40" xmlns="http://www.w3.org/2000/svg"><path d="m0 0h40v40h-40z" fill="#f6f7f7"/><g clip-rule="evenodd" fill-rule="evenodd"><path d="m32.49 27.726c-3.368 2.485-8.25 3.807-12.454 3.807-5.892 0-11.198-2.178-15.212-5.804-.315-.284-.035-.673.344-.452 4.332 2.52 9.689 4.038 15.222 4.038 3.732 0 7.835-.774 11.61-2.375.569-.243 1.047.374.49.786zm1.4-1.6c.432.552-.479 2.825-.885 3.84-.123.307.14.43.42.198 1.805-1.511 2.272-4.678 1.903-5.135-.367-.454-3.525-.844-5.453.51-.297.207-.246.495.083.455 1.086-.13 3.502-.42 3.933.132z" fill="#f90"/><path d="m29.015 22.057 3.505-8.921c.073-.181.11-.308.11-.383 0-.127-.074-.19-.222-.19h-.892c-.17 0-.286.026-.351.08-.064.053-.127.17-.191.35l-2.151 6.181-2.23-6.18c-.064-.181-.128-.298-.192-.352-.064-.053-.18-.08-.35-.08h-.957c-.149 0-.223.064-.223.191 0 .075.037.202.111.383l3.075 7.583-.302.813c-.181.51-.383.86-.606 1.051-.223.192-.537.287-.94.287-.18 0-.324-.011-.43-.032a1.396 1.396 0 0 0 -.238-.032c-.16 0-.24.1-.24.302v.415c0 .148.027.257.08.326s.138.12.256.151c.264.074.567.112.907.112.606 0 1.097-.16 1.474-.478.378-.318.71-.844.997-1.577zm-13.085-7.302a3.868 3.868 0 0 0 -.661-1.315 2.851 2.851 0 0 0 -1.051-.828 3.265 3.265 0 0 0 -1.386-.287c-.478 0-.946.09-1.402.27a4.49 4.49 0 0 0 -1.29.797l-.08-.51c-.032-.212-.154-.318-.367-.318h-.7c-.213 0-.32.106-.32.318v10.722c0 .213.107.318.32.318h.94c.212 0 .317-.106.317-.318v-3.727c.69.626 1.514.94 2.47.94a3.2 3.2 0 0 0 1.417-.311 3.126 3.126 0 0 0 1.083-.869c.298-.37.529-.822.693-1.354a6.01 6.01 0 0 0 .247-1.785 6.046 6.046 0 0 0 -.23-1.743zm-3.576 4.786c-.723 0-1.424-.254-2.103-.764v-4.445c.669-.488 1.38-.732 2.135-.732 1.445 0 2.167.993 2.167 2.978 0 1.976-.733 2.963-2.199 2.963zm10.76-6.59c-.477-.414-1.22-.62-2.23-.62-.498 0-.997.045-1.497.134-.5.09-.919.21-1.259.359-.127.053-.212.108-.255.167-.042.058-.064.162-.064.31v.43c0 .191.069.287.207.287a.432.432 0 0 0 .136-.024l.12-.04a8.192 8.192 0 0 1 2.342-.366c.636 0 1.083.116 1.338.35s.382.637.382 1.211v1.051c-.743-.18-1.412-.27-2.008-.27-.934 0-1.677.23-2.23.692-.552.462-.828 1.081-.828 1.856 0 .723.223 1.298.67 1.729.445.43 1.05.645 1.815.645.457 0 .916-.09 1.378-.27s.884-.437 1.266-.765l.08.525c.032.202.15.302.351.302h.685c.212 0 .32-.106.32-.318v-5.447c-.001-.871-.24-1.514-.718-1.928zm-.78 5.895a4.16 4.16 0 0 1 -1.099.606 3.225 3.225 0 0 1 -1.099.207c-.414 0-.733-.109-.956-.326-.223-.218-.334-.528-.334-.932 0-.924.6-1.387 1.8-1.387.276 0 .56.02.851.056.292.038.572.088.837.152z" fill="#232f3e"/></g></svg>