<svg width="40" height="40" fill="none" xmlns="http://www.w3.org/2000/svg"><path fill="#1677FF" d="M0 0h40v40H0z"/><g clip-path="url(#clip0_5354_67593)"><path d="M15.743 20.316v2.723c0 .063-.05.114-.114.114h-1.165a.114.114 0 0 1-.114-.114v-2.696c0-.795-.634-1.456-1.413-1.473a1.43 1.43 0 0 0-1.043.412c-.28.275-.434.642-.434 1.034v2.723c0 .063-.05.114-.113.114H10.18a.114.114 0 0 1-.113-.114v-2.723a2.84 2.84 0 0 1 2.837-2.837 2.84 2.84 0 0 1 2.837 2.837M36 19.736v3.303c0 .063-.05.114-.113.114h-1.153a.114.114 0 0 1-.114-.114v-3.305a.867.867 0 0 0-.54-.806.977.977 0 0 0-.36-.07.902.902 0 0 0-.901.9v3.155a.114.114 0 0 1-.114.114h-1.153a.114.114 0 0 1-.113-.114v-3.18a.866.866 0 0 0-.54-.806.993.993 0 0 0-.36-.07.903.903 0 0 0-.902.901v3.281c0 .063-.05.114-.113.114h-1.153a.114.114 0 0 1-.113-.114v-3.303c0-1.024.681-1.919 1.657-2.176a2.46 2.46 0 0 1 .623-.081c.582 0 1.136.218 1.559.616a.046.046 0 0 0 .063 0c.422-.397.98-.618 1.559-.616.206 0 .416.027.622.081a2.242 2.242 0 0 1 1.657 2.176M25.04 17.478h-.013a2.79 2.79 0 0 0-1.926.756c-.799.737-3.083 3.081-3.105 3.104a1.435 1.435 0 0 1-1.023.423 1.447 1.447 0 0 1-1.445-1.445V19.6c0-.025.02-.046.046-.046h2.136a.114.114 0 0 0 .113-.114v-1.165a.114.114 0 0 0-.113-.114h-2.136a.046.046 0 0 1-.046-.046v-1.003a.114.114 0 0 0-.114-.113H16.25a.114.114 0 0 0-.114.113v3.263c.014.632.238 1.241.637 1.732a2.846 2.846 0 0 0 2.199 1.044 2.82 2.82 0 0 0 2.006-.83l.912-.913a.343.343 0 0 1 .306-.096c.113.02.206.091.256.198a2.849 2.849 0 0 0 2.573 1.642 2.838 2.838 0 0 0 2.836-2.885 2.852 2.852 0 0 0-2.824-2.79m.946 3.923a1.447 1.447 0 0 1-2.04-2.04l.01-.01.005-.005a1.443 1.443 0 0 1 1.071-.475 1.447 1.447 0 0 1 .954 2.531M6.805 17.48c-1.419 0-2.764 1.212-2.804 2.788-.042 1.633 1.245 2.886 2.737 2.886.511 0 1.189-.143 1.545-.498v.385c0 .063.05.114.113.114h1.166a.113.113 0 0 0 .113-.114v-2.723c0-.771-.29-1.492-.841-2.03-.551-.539-1.256-.807-2.028-.807m1.478 2.836a1.447 1.447 0 0 1-2.89 0 1.446 1.446 0 1 1 2.89 0z" fill="#fff"/></g><defs><clipPath id="clip0_5354_67593"><path fill="#fff" transform="translate(4 17)" d="M0 0h32v6.153H0z"/></clipPath></defs></svg>