<svg xmlns="http://www.w3.org/2000/svg" width="160" height="160"><path d="M106.25 37.813C118.281 48.037 128.166 61.927 130 78c1.301 19.865-1.737 37.233-14.778 52.865-11.705 13.124-27.734 21.016-45.308 22.373-20.01.452-36.369-6.688-51.031-20.187C6.447 120.349 1.472 103.243 1.58 85.909c.472-16.948 7.357-32.077 19.33-44.112A66.915 66.915 0 0 1 49 26l2.41-.676c19.232-4.597 39.305.613 54.84 12.488Z" fill="#2B6AFD"/><path d="M87.563 56.125c6.66 6.816 8.028 15.098 7.976 24.3l.036 2.881c.035 3.003.044 6.004.05 9.007.016 3.02.038 6.04.072 9.06.02 1.869.029 3.739.027 5.609.037 4.515.313 7.87 2.276 12.018v3H79l-2-4-2.168 1.094c-8.932 4.16-17.7 5.937-27.27 2.656-8.047-3.953-12.59-8.166-15.562-16.75-.908-7.063-.357-13.227 4-19 5.357-5.776 11.25-10.012 19.305-10.363a193.26 193.26 0 0 1 4.57.05l2.396.026c5.473.113 10.46.726 15.729 2.287l-.688-3.75-.386-2.11C75.575 69.017 73.868 67.794 71 66c-3.172-.629-3.172-.629-6.5-.5l-3.344-.031C57.382 66.104 55.72 67.359 53 70l-1 2H35c1.144-8.005 3.007-11.663 9.117-16.77 12.733-9.054 30.932-8.944 43.446.895Z" fill="#FBFCFE"/><path d="M148.695 10.367C153.232 13.581 156.25 17.75 158 23c.662 7.324.761 14.058-4 20-5.846 5.468-11.512 8.537-19.598 8.309-5.877-.755-10.716-3.185-14.777-7.496-3.98-5.2-5.998-10.803-5.625-17.376 1.012-6.234 4.288-11.128 8.938-15.312 8.441-5.858 16.93-5.57 25.757-.758Z" fill="#FEC300"/><path d="m76 92 2 1c.486 2.675.337 4.43-1.055 6.785-4.155 5.29-8.425 7.535-15.023 8.528-5.12.312-8.04-1.095-11.922-4.313-1.564-3.129-1.356-5.556-1-9 7.408-7.408 17.61-5.828 27-3Z" fill="#306DFD"/></svg>
