<svg xmlns="http://www.w3.org/2000/svg" width="150" height="150"><path fill="none" d="M0 0h150v150H0V0z"/><path d="M85.95 140.73H30.64V49.3c0-11.17 4.64-21.97 12.72-29.61 8.21-7.76 18.93-11.64 30.2-10.93 20.79 1.32 37.71 19.07 37.71 39.57 0 6.52-.91 13.23-2.13 18.56 10.36 7.36 17.13 19.51 17.13 33.22 0 22.4-18.09 40.62-40.32 40.62zm-18.14-16.95h18.14c12.96 0 23.49-10.63 23.49-23.67 0-6.5-2.61-12.39-6.83-16.68-8 15.33-19.39 28.56-34.8 40.35zM47.46 76.43v41.01c18.56-11.91 31.29-25.04 39.78-40.96-.43-.02-.87-.03-1.3-.03H47.45zm0-16.96h38.49c2.53 0 4.99.24 7.38.69.62-3.44 1.11-7.61 1.11-11.83 0-11.73-9.85-21.89-21.95-22.65-6.59-.43-12.85 1.84-17.62 6.37-4.78 4.53-7.42 10.66-7.42 17.26v10.18z"/></svg>