<svg xmlns="http://www.w3.org/2000/svg" width="160" height="160"><path d="M0 0h160v160H0V0Z" fill="#FEFDFE"/><path d="M127 57c3.313 2 3.313 2 6 4-2.676 3.232-6.155 4.599-9.875 6.313C107.577 74.788 93.405 85.207 80 96c-3.402-1.614-6.103-3.586-9-6 1.338-3.11 2.62-4.763 5.387-6.7l2.07-1.461 2.23-1.526L83 78.712c10.004-6.856 20.194-13.006 31.125-18.275l2.154-1.051C119.955 57.67 122.927 56.375 127 57Z" fill="#E71F3D"/><path d="M112 49c1.355.97 2.693 1.966 4 3l-3.41 1.469C96.38 60.514 81.93 68.32 67.663 78.799c-4.46 3.221-4.46 3.221-6.538 3.013C58.511 80.814 56.298 79.597 54 78v-2c1.658-1.37 1.658-1.37 3.996-2.941l2.608-1.757 2.834-1.865 2.884-1.906C100.662 45.141 100.662 45.141 112 49Z" fill="#E7203F"/><path d="M71 55v2l-1.95.996c-6.847 3.605-12.947 7.691-19.105 12.344C47 72 47 72 44.305 71.94 41.899 70.96 40.643 69.99 39 68c5.618-4.257 11.322-8.344 17.313-12.063l2.863-1.785C63.544 52.37 66.669 53.556 71 55Z" fill="#0C2B71"/><path d="M56 49v2l-1.573.854a2524.491 2524.491 0 0 0-7.114 3.896l-2.475 1.344c-3.49 1.922-6.63 3.735-9.713 6.281L33 65c-3.313-.75-3.313-.75-6-2v-3c2.916-1.626 5.833-3.25 8.75-4.875l2.5-1.395 2.422-1.347 2.222-1.238L45 50l2.036-1.172c3.083-1.3 5.76-.444 8.964.172Z" fill="#0F2E74"/><path d="M69 42c3.058.803 5.984 1.876 8.938 3l2.36.867c1.905.701 3.804 1.416 5.702 2.133-2.61 2.784-4.099 3.759-8 4-3.121-.926-3.121-.926-6.438-2.313C67.409 47.975 63.28 46.376 59 45c2.738-3.866 5.538-3.319 10-3Z" fill="#EA2644"/><path d="m91.875 40.438 2.047.658C98.876 42.752 98.876 42.752 100 45c-7.306 3.653-19.756-2.591-27-5v-2c6.228-2.242 12.89.41 18.875 2.438Z" fill="#EC2B49"/><path d="M59 110.75c3 .25 3 .25 5 2.25.313 3 .313 3 0 6-3 2-3 2-6.188 1.625L55 120c-.625-3.375-.625-3.375-1-7 2-2 2-2 5-2.25Z" fill="#133279"/><path d="M92 111c4 1 4 1 6 3l2-3h3v10h-2l-1-4-3 3-1-2-1 3h-3v-10Z" fill="#36518C"/><path d="M3 111h6c.95 3.695.95 6.305 0 10H3v-10Z" fill="#02226B"/><path d="M118 111h6l2 10h-3l-1-2-1 2h-3v-10Z" fill="#13337A"/><path d="M26 111c4 1 4 1 5.25 3.063L32 116l1-5h2v10h-3c-1.688-2.5-1.688-2.5-3-5l-1 5h-2v-10Z" fill="#18367A"/><path d="M150 111h3l3 10h-3v-2h-4v2h-3c.476-1.48.956-2.96 1.438-4.438l.808-2.496C149 112 149 112 150 111Z" fill="#435C92"/><path d="M82 111h4l3 10h-3v-2h-4v2h-3l3-10Z" fill="#38528D"/><path d="m16 111 4 1c1.783 3.298 2 5.177 2 9h-2v-2h-4v2h-3l3-10Z" fill="#465E94"/><path d="M40 111h2l1 2 4-2-.625 2.75c-.388 3.36-.18 4.49 1.625 7.25-1.938-.375-1.938-.375-4-1l-1-2-1 3h-2v-10Z" fill="#1B3A7D"/><path d="M108 111h6v2h-4v2h4v2h-4v2h4v2h-6v-10Z" fill="#1B397C"/><path d="M140.625 110.875 143 111v2l-4 1v4l5 1-1 2c-2.375.125-2.375.125-5 0-2-2-2-2-2.25-5 .32-3.85.934-4.937 4.875-5.125Z" fill="#123178"/><path d="M68 111h6v2h-4v2h3v2h-3v4h-2v-10Z" fill="#133277"/><path d="M129 111h3v10h-3v-10Z" fill="#3D5791"/><path d="m8 111 2 1-1 7H5v-7l3-1Z" fill="#6579A6"/><path d="m57 113 5 1-1 5-4-1v-5Z" fill="#E7EAF1"/><path d="m118 111 2 2h3c-.523 2.763-1.109 5.326-2 8h-3v-10Z" fill="#6A7DA7"/><path d="M56 111c2.875-.188 2.875-.188 6 0l2 3-7-1-1 4v-2h-2l2-4Z" fill="#274484"/><path d="M100 111h3v10h-2l-1-10Z" fill="#0D2C72"/><path d="m82 37-2 4-7-1v-2c3.073-.91 5.801-1.089 9-1Z" fill="#EE4E66"/><path d="m16 111 4 1v2h-3l1 4h-3l1-7Z" fill="#16357A"/><path d="m4 117 1 2h4l1-2-1 4H3l1-4Z" fill="#1B397D"/><path d="M150 111h3v5l-1-2h-2v2h-2l2-5Z" fill="#1F3D80"/><path d="m80 38 7 1v2h-7v-3Z" fill="#EB1C3C"/></svg>
