<svg xmlns="http://www.w3.org/2000/svg" width="160" height="160"><path d="M0 0h160v160H0V0Z" fill="#06182C"/><path d="m58 66 8.25-.125 2.58-.055C75.97 65.767 75.97 65.767 79 68c1.4 2.799 1.253 4.905 1 8-1.5 1.875-1.5 1.875-3 3l2 1.563c2 2.437 2 2.437 2.438 6C81 90 81 90 79.75 91.813c-4.66 3.162-8.425 3.44-14 3.312L58 95V66Z" fill="#F2F3F4"/><path d="m93.938 72.75 2.59-.016c2.659.286 4.235.816 6.472 2.266 2.963 4.444 2.77 8.789 2 14-2.202 2.897-3.786 4.393-7 6-5.691.547-8.561-.407-13-4-1.225-2.45-1.167-4.142-1.188-6.875l-.042-2.617c.248-2.7.756-4.246 2.23-6.508 3.227-2.152 4.205-2.272 7.938-2.25Z" fill="#F5F5F6"/><path d="M31 67h1v9h18c-1.62 4.05-3.236 7.184-5.563 10.813L42.56 89.77 41 92h-1v-8H21c6.683-12.454 6.683-12.454 10-17Z" fill="#0065ED"/><path d="M120 68h6v5h5v5h-4v12h3l1 5c-6.323.486-6.323.486-9.219-1.594-2.372-3.204-2.189-5.215-2.031-9.156l.11-3.547L120 78h-3v-5h3v-5Z" fill="#E5E7E9"/><path d="M109 66h6v29h-6V66Z" fill="#F5F6F7"/><path d="M95.063 77.188C97 78 97 78 99 80c.315 4.336.449 6.327-2 10-2.5.375-2.5.375-5 0-2.463-3.695-2.39-5.633-2-10 1.548-2.477 2.126-3.08 5.063-2.813Z" fill="#0C1E31"/><path d="M64 82c1.458-.054 2.916-.093 4.375-.125l2.46-.07C73 82 73 82 75 84v4c-3.657 2.438-5.69 2.24-10 2-1-1-1-1-1.063-4.563L64 82Z" fill="#243345"/><path d="M65 70c2.69.176 5.329.618 8 1l1 5c-3.644 2.43-5.712 2.162-10 2-.042-2.333-.04-4.667 0-7l1-1Z" fill="#2B3A4B"/></svg>
