<svg xmlns="http://www.w3.org/2000/svg" width="160" height="160"><path d="m109 35 3.313 1.875C120.921 43.682 127.895 53.455 131 64l.621 1.973c3.712 13.697 1.534 28.131-4.746 40.715-7.654 12.584-18.45 21.332-32.582 25.39-14.348 3.482-29.438 1.565-42.227-5.758-4.873-3.259-9.185-6.928-13.066-11.32v-2h-2a1134.08 1134.08 0 0 1-3.875-7.5l-1.105-2.11c-6.222-12.215-6.862-25.608-3.395-38.828C31.6 55.428 36.381 47.92 43 41h2v-2c18.99-14.913 43.358-15.813 64-4Z" fill="#0153FF"/><path d="M99.36 48.426c1.977 1.438 3.812 2.951 5.64 4.574l2.625 2.125c5.463 6.613 8.17 13.434 9.375 21.875H98l-4-8c-5.433-5.212-9.2-6.317-16.5-6.21-5.05.425-8.1 2.54-11.313 6.273C62.154 74.48 62.261 79.368 63 86c2.025 5.302 4.864 8.528 10 11 5.821.809 11.217.845 16.563-1.688C93.727 91.362 95.838 88.403 98 83h19c-1.729 11.16-6.079 20.447-15.063 27.625C93.25 116.423 83.266 118.228 73 117c-10.155-2.273-18.773-8.075-24.715-16.648-5.103-9.339-6.947-19.79-4.66-30.196 3.515-11.172 10.328-18.38 20.563-23.816 11.58-5.517 24.167-4.564 35.171 2.086Z" fill="#F9FBFF"/></svg>
