<svg xmlns="http://www.w3.org/2000/svg" width="80" height="80"><path d="m59 4 2.352 1.285c8.626 5.179 15.407 13.824 18.179 23.583 2.488 11.301 1.064 23.763-5.039 33.55C68.152 71.221 59.766 77.837 49 80c-12.417 1.338-23.389.275-33.75-7.188C7.135 65.975 1.015 57.718-.24 46.945c-1.057-13.477 1.436-24.394 10.299-34.98C13.352 8.632 16.9 6.24 21 4l2.164-1.254C33.818-2.508 48.79-1.916 59 4Z" fill="#FEFEFD"/><path d="M40.563 8.438C44.005 9.232 45.523 10.46 48 13c7.855 12.731 8.683 27.899 5.438 42.234L53 57h7c-.284-1.44-.577-2.876-.875-4.313l-.492-2.425C58.055 47.747 58.055 47.747 56 45a141.4 141.4 0 0 1 5-5h2c2.837 4.328 4.978 7.606 5.063 12.875-1.17 3.437-1.9 4.45-5.063 6.125-2.882.96-4.699 1.106-7.688 1.063l-2.449-.028L51 60l-.75 2.188C48.823 65.397 47.527 67.54 45 70c-3.375 1.125-3.375 1.125-7 1-3.99-2.532-5.565-3.81-7.188-8.25-1.508-2.989-1.508-2.989-4.296-3.281a101.23 101.23 0 0 0-5.825-.266c-2.813-.212-4.35-.66-6.691-2.203-2.27-3.405-2.151-4.967-1.559-8.926C13.317 44.821 14.947 42.65 17 40c1.523 3.045.48 5.704 0 9 1.583 1.583 3.38 1.347 5.563 1.563l2.503.253L27 51c-.28-2.647-.574-5.292-.875-7.938l-.238-2.287c-.226-1.934-.55-3.857-.887-5.775l-2-1 1.438-1.313c1.799-1.71 1.799-1.71 2.562-4.687l-11 1v7c-2-1-2-1-3-4-.67-7.042-.67-7.042 1.75-10.5 4.978-2.298 9.855-1.81 15.25-1.5l.625-2.688c1.958-4.716 4.724-7.73 9.938-8.875Z" fill="#E63F81"/><path d="M44.938 14.813c3.954 1.533 4.61 3.245 6.3 6.984 2.039 5.896 1.979 11.723 2.012 17.89l.063 2.858C53.36 51.22 52.252 59.53 46 66c-2.25-.063-2.25-.063-5-1-5.464-7.806-6.39-15.423-6.375-24.75l.003-2.956c.125-7.629.79-14.96 5.825-21.052C42 15 42 15 44.937 14.812Z" fill="#FEFCFD"/><path d="M40.563 8.438c4.094.944 6.424 2.974 8.675 6.503C50.318 16.957 51.31 18.818 52 21l-1 3c-3-5.75-3-5.75-3-8-2.83-.502-2.83-.502-6 0-3.49 3.975-4.794 7.973-6 13h-2v2l-6 1-1-4-11 1v7c-2-1-2-1-3-4-.67-7.042-.67-7.042 1.75-10.5 4.978-2.298 9.855-1.81 15.25-1.5l.625-2.688c1.958-4.716 4.724-7.73 9.938-8.875Z" fill="#FD6CA9"/><path d="M51 20c1.916-.081 3.833-.14 5.75-.188l3.234-.105c3.376.328 4.7.84 7.016 3.293 1.231 3.981.636 7.732-1.21 11.414A91.995 91.995 0 0 1 61 41l-2.375 3.063L57 46l1.5 1.563c1.996 3.244 1.716 5.7 1.5 9.437-2.709 1.354-5.01 1.065-8 1l.438-1.984C54.974 43.54 54.151 32.267 51 20Z" fill="#FAE33E"/><path d="m22.625 27.938 2.477.027L27 28c-.506 2.169-1 4-2 6h1l1 17c-6.836.195-6.836.195-9 0l-2-2c.059-2.348.059-2.348.438-5.063.223-1.64.42-3.287.562-4.937l-1-1a74.456 74.456 0 0 1-.063-4.563l.028-2.503L16 29c2.405-1.203 3.95-1.1 6.625-1.063Z" fill="#FEFCFB"/><path d="M63 40c2.837 4.328 4.978 7.606 5.063 12.875-1.17 3.437-1.9 4.45-5.063 6.125-2.75.917-4.36 1.109-7.188 1.063L52 60v-2l8-1c-.284-1.44-.577-2.876-.875-4.313l-.492-2.425C58.055 47.747 58.055 47.747 56 45c4.75-5 4.75-5 7-5Z" fill="#4578B1"/><path d="M17 40c1.523 3.045.48 5.704 0 9 1.583 1.583 3.38 1.347 5.563 1.563l2.503.253L27 51c1.257 2.906 2 4.796 2 8-1.75.054-3.5.093-5.25.125l-2.953.07c-2.879-.2-4.415-.603-6.797-2.195-2.27-3.405-2.151-4.967-1.559-8.926C13.317 44.821 14.947 42.65 17 40Z" fill="#D8C12D"/><path d="M29 20c-.875 6.875-.875 6.875-2 8-1.849.234-3.705.413-5.563.563l-3.066.253L16 29v7c-2-1-2-1-3-4-.673-7.071-.673-7.071 1.813-10.5C19.5 19.294 23.904 19.679 29 20Z" fill="#4C83BF"/><path d="m22.625 27.938 2.477.027L27 28c-.585 3.66-2.083 5.545-4.563 8.25l-1.94 2.14L19 40l-3-2c-.293-2.164-.293-2.164-.188-4.625l.083-2.477L16 29c2.405-1.203 3.95-1.1 6.625-1.063Z" fill="#F0F0E5"/><path d="M52 21c6 0 6 0 9 2-.474 4.979-1.91 8.067-5 12h-2l-2-14Z" fill="#FEFBF6"/><path d="M55 46c3.875 1.75 3.875 1.75 5 4 .04 2.333.043 4.667 0 7-2.709 1.354-5.01 1.065-8 1 .308-1.813.621-3.626.938-5.438l.527-3.058C54 47 54 47 55 46Z" fill="#FAFAFC"/><path d="m61 53 5 2c-1 3-1 3-3.063 4.188-3.792 1.048-7.008.945-10.937.812v-2l8-1 1-4Z" fill="#3E6794"/><path d="m63 21 4 2c.027 1.458.046 2.917.063 4.375l.035 2.46C67 32 67 32 66 34h-2l-1-13Z" fill="#FEE74B"/><path d="m24 51 4 1 1 7h-3l-2-8Z" fill="#A98D29"/><path d="M13 25c2.063 1.563 2.063 1.563 4 4-.25 3.75-.25 3.75-1 7-2-1-2-1-3-4-.04-2.333-.044-4.667 0-7Z" fill="#3F6DA0"/><path d="M26 21h3l-2 7h-2l1-7Z" fill="#375B8A"/></svg>
