<svg xmlns="http://www.w3.org/2000/svg" width="160" height="160"><path d="M0 0h160v160H0V0Z" fill="#FDFDFD"/><path d="M109 68c3.098 2.191 3.804 3.41 5 7 .373 5.034.03 7.92-3 12-2.49 2.49-3.432 2.324-6.875 2.375-3.562-.062-4.75-.1-7.688-2.25C93.362 82.579 93.29 78.385 94 73c3.549-5.914 8.655-6.179 15-5Z" fill="#1E1F1D"/><path d="M107.625 32c2.375 1 2.375 1 3.509 2.753.986 2.56 1.11 4.466 1.096 7.204l-.005 2.873-.037 2.983-.002 2.947c-.032 5.18-.296 10.135-1.186 15.24l-6-1 .402-2.125c1.046-5.615 1.955-11.2 2.598-16.875-7.559.164-13.498 1.696-20.371 4.844-2.23.98-4.254 1.662-6.629 2.156 2.536-2.982 5.32-4.14 8.875-5.688 5.92-2.86 8.215-5.6 11.125-11.312 3.122-4 3.122-4 6.625-4Z" fill="#2464B4"/><path d="m62.438 67.688 2.933-.051C68 68 68 68 69.836 69.039c1.82 3.065 1.477 6.199 1.352 9.648l-.042 2.127c-.035 1.73-.089 3.458-.146 5.186h2l-1 4h-4v-3l-1.71.984c-2.504 1.111-4.193 1.284-6.915 1.266l-2.352.016C55 89 55 89 53 87c-.672-6.16-.672-6.16 1.5-8.875C58.005 76.548 61.171 76.319 65 76c.59-1.946.59-1.946 1-4l-1-1c-3.517.252-3.517.252-7 1l-1 2h-3c1.095-5.475 3.01-6.29 8.438-6.313Z" fill="#0F0F0F"/><path d="M21 60h20v3H25v9h15v4H25v10h16v3H21V60Z" fill="#2D2D2D"/><path d="M127.875 66.5c4.28.685 5.495 2.084 8.125 5.5.593 2.968.477 5.802.313 8.813l-.069 2.388A301.053 301.053 0 0 1 136 89h-4l-1-17h-7c-2.425 3.637-2.387 5.857-2.625 10.188l-.227 3.855L121 89h-3V68h3l1 2 1.125-1.5c1.875-1.5 1.875-1.5 4.75-2Z" fill="#232323"/><path d="M103.5 70.563c3.5.437 3.5.437 5.195 1.683 1.65 2.218 1.707 3.511 1.68 6.254l.023 2.344C109.904 83.519 109.176 84.4 107 86c-3.5.438-3.5.438-7 0-2.87-2.314-2.982-3.83-3.375-7.5C97 75 97 75 98.063 72.562 100 71 100 71 103.5 70.563Z" fill="#F3F3F3"/><path d="M74 68c1.86.133 1.86.133 4 1 1.266 2.617 1.266 2.617 2.25 5.875l1.016 3.242C82 81 82 81 82 84h2l.371-2.137c.663-3.018 1.61-5.782 2.692-8.675l1.097-2.958L89 68h3l-6 20-5 1c-7-15.75-7-15.75-7-21Z" fill="#202020"/><path d="M45 60h4v29h-4V60Z" fill="#2E2E2E"/><path d="M111 40h1c.027 3.02.047 6.042.063 9.063l.025 2.568c.019 4.905-.255 9.533-1.088 14.369l-6-1c3.901-22.901 3.901-22.901 6-25Z" fill="#1356AD"/><path d="M21 63h1v24l2-1c2.884-.072 5.742-.093 8.625-.063l2.43.014c1.981.012 3.963.03 5.945.049v3H21V63Z" fill="#020202"/><path d="M108 68c-2 2-2 2-5.563 3.5-3.499 1.09-3.499 1.09-4.437 3.5-.236 4.24-.328 7.362 2 11l-4 1c-2.622-4.56-2.781-8.855-2-14 3.606-5.816 7.761-5.612 14-5Z" fill="#111"/><path d="M67 78c.25 2.813.25 2.813 0 6-2.15 2.39-3.438 2.933-6.625 3.313C58 87 58 87 56 85c.367-2.935.864-3.864 3-6 2.7-.563 5.239-1 8-1Z" fill="#DFDFDF"/><path d="M118 68h3v3h2l-.465 1.547c-.704 3.228-.884 6.407-1.097 9.703l-.254 3.828L121 89h-3V68Z" fill="#090909"/><path d="M65 77v2l-7 2-1 4 6 2v2c-6.055.195-6.055.195-8 0-2-2-2-2-2.375-5.438C53 80 53 80 54.5 78.063 58.122 76.523 61.08 76.805 65 77ZM21 60h20v3c-2.77.027-5.542.047-8.313.063l-2.38.025-2.295.01-2.11.016C24 63 24 63 21 62v-2Z" fill="#080808"/><path d="m59.531 67.734 2.969.016 2.969-.016C68 68 68 68 70 70c.145 2.91.186 5.72.125 8.625l-.027 2.43c-.024 1.982-.06 3.963-.098 5.945h-1l-1-16c-3.97-1.323-6.117-.366-10 1l-1 2h-3c.75-3.754 1.361-5.828 5.531-6.266Z" fill="#030303"/><path d="M114 42c3.374 1.185 5.76 2.171 8 5 .363 2.156.363 2.156.313 4.5l-.012 2.344C122 56 122 56 120 59l-.297-1.863c-.746-5.073-.746-5.073-3.828-8.887L114 47c-.25-2.688-.25-2.688 0-5Z" fill="#151754"/><path d="m112 56-1 10-6-1c.348-5.398.348-5.398 1-8 2.428-1.958 3.17-2.415 6-1Z" fill="#2862AF"/><path d="M110 82h2c-1.875 5.875-1.875 5.875-3 7-1.643.099-3.291.13-4.938.125l-2.714.008C99 89 99 89 97 88v-2l12-1 1-3Z" fill="#1E1E1E"/><path d="m107 43 1 2-2.676.48c-7.283 1.417-13.608 3.228-20.215 6.63L83 53l-2-1c2.038-1.131 4.08-2.255 6.125-3.375l3.445-1.898C96.267 43.859 100.61 42.744 107 43Z" fill="#131544"/><path d="M103 37c2.625.375 2.625.375 5 1v4l-10 2c1.522-2.629 2.844-4.844 5-7Z" fill="#DAE6F7"/><path d="M89 68h3c-3.075 10.558-3.075 10.558-5 15l-2-1c.99-4.836 1.957-9.476 4-14Z" fill="#0B0B0B"/><path d="m81 81 1 3h2l1-3 2 3c-.875 2.688-.875 2.688-2 5h-4c-1.125-2.313-1.125-2.313-2-5l2-3Z" fill="#242424"/><path d="m104 36 5 1v3l2 1-2 7-1-2h-7v-1l6-1-3-2h4c-.276-1.94-.276-1.94-1-4l-3-2Z" fill="#3A65AD"/><path d="M65 77v2l-3.375.938c-3.42.885-3.42.885-5.625 2.062-1.134 2.017-1.134 2.017-2 4l-1-6c3.76-3.76 6.973-3.251 12-3Z" fill="#1B1B1B"/><path d="M70 71h1v15h2l-1 4h-4v-3h2V71Z" fill="#717171"/><path d="m104 33 2 1v2a309.619 309.619 0 0 1-4.531 3.691C99.713 41.255 98.814 42.803 98 45l-2-1a618.203 618.203 0 0 1 2.313-3.813l1.3-2.144c1.312-1.933 2.681-3.457 4.387-5.043Z" fill="#265599"/><path d="m110 75 3 1c1.23 5.415 1.23 5.415.063 8.375L112 86l-1-2 1-2h-2v-7Z" fill="#333434"/><path d="M57 68h2l1 3c-1.313 1.5-1.313 1.5-3 3h-3c.573-2.867.861-3.861 3-6Z" fill="#121212"/><path d="m65 69 4 2v7l-1-2-2-1c-.625-3.063-.625-3.063-1-6Z" fill="#191919"/><path d="M128.125 66.875 131 67v1l-5 1 4 2-7 1c0-4.269.9-4.956 5.125-5.125Z" fill="#545454"/><path d="m78 77 3 1v5l-2 1-2-6 1-1Z" fill="#141414"/><path d="M119 50h3l-1 9h-1l-1-9Z" fill="#0D0E46"/></svg>
