<svg xmlns="http://www.w3.org/2000/svg" width="256" height="256"><g fill="none" stroke-miterlimit="10" stroke-width="0"><path fill="#fdba12" d="M0 0h719.36v719.36H0z"/><path fill="#25262B" d="M55.233 99.98c-11.088 0-20.108 10.015-20.108 22.322s9.02 22.323 20.108 22.323c6.247 0 12.03-3.133 15.868-8.601a3.321 3.321 0 0 0-5.434-3.816c-2.577 3.67-6.379 5.774-10.43 5.774-7.425 0-13.466-7.033-13.466-15.682 0-8.647 6.041-15.683 13.465-15.683 6.446 0 11.836 5.305 13.151 12.361H50.088a3.321 3.321 0 1 0 0 6.643h21.938a3.32 3.32 0 0 0 3.321-3.321c-.002-12.305-9.025-22.32-20.114-22.32zm98.041 25.048h8.52a3.321 3.321 0 1 0 0-6.643l-8.745.009c-3.074.205-7.5.87-10.413 4.27-2.147 2.507-3.038 6.056-2.633 10.69 1.452 11.274 12.501 11.274 17.217 11.274 11.088 0 20.108-10.015 20.108-22.323s-9.02-22.322-20.108-22.322c-5.087 0-9.937 2.107-13.666 5.934a3.322 3.322 0 0 0 4.76 4.634c2.465-2.532 5.632-3.928 8.906-3.928 7.424 0 13.465 7.033 13.465 15.682 0 8.647-6.041 15.683-13.465 15.683-8.34 0-10.17-1.928-10.614-5.348-.23-2.65.13-4.552 1.074-5.653.963-1.127 2.866-1.77 5.594-1.959zm-19.481-22.221a3.324 3.324 0 0 0-4.232 2.037l-9.29 26.583-9.698-26.622c-.02-.054-.064-.088-.084-.14-.093-.217-.227-.403-.365-.597-.115-.165-.214-.337-.354-.475-.14-.14-.315-.236-.483-.35-.197-.133-.383-.268-.602-.358-.05-.02-.084-.061-.135-.081-.137-.048-.278-.028-.418-.056-.236-.05-.464-.102-.711-.099-.228.003-.439.054-.66.101-.15.031-.299.015-.445.068-.053.02-.087.062-.14.084-.217.093-.402.228-.593.363-.166.115-.337.213-.478.357-.14.14-.236.314-.351.483-.132.194-.264.38-.354.596-.023.05-.065.087-.084.14l-9.287 26.583-9.7-26.622a3.321 3.321 0 0 0-6.242 2.273l12.884 35.367a3.323 3.323 0 0 0 3.12 2.183h.022a3.316 3.316 0 0 0 3.11-2.225l9.29-26.583 9.698 26.622a3.322 3.322 0 0 0 3.119 2.186h.02a3.322 3.322 0 0 0 3.113-2.225l12.361-35.367a3.307 3.307 0 0 0-2.031-4.226z"/><path fill="#25262B" d="M214.454 99.98a3.32 3.32 0 0 0-3.322 3.321v21.752a10.316 10.316 0 0 1-10.304 10.305 10.313 10.313 0 0 1-10.299-10.305v-20.397a3.321 3.321 0 1 0-6.643 0v20.397a16.961 16.961 0 0 0 16.942 16.945c3.608 0 6.94-1.155 9.694-3.086-3.065 20.131-17.93 35.463-35.788 35.463-13.9 0-26.391-9.175-32.601-23.944a3.324 3.324 0 0 0-6.123 2.576c7.263 17.276 22.1 28.01 38.724 28.01 23.27 0 42.235-21.476 42.97-48.183.015-.118.071-.219.071-.342v-29.19a3.323 3.323 0 0 0-3.321-3.322z"/></g></svg>