<svg xmlns="http://www.w3.org/2000/svg" width="160" height="160"><path d="M0 0h160v160H0V0Z" fill="#002B4B"/><path d="m54.79 29.87 3.75-.009 4.085.006 4.159-.003c2.908-.001 5.817.001 8.726.006 3.736.005 7.472.002 11.208-.004 2.864-.004 5.727-.002 8.59 0 1.379 0 2.757 0 4.135-.002 1.922-.003 3.845.002 5.768.007l3.322.002C111 30 111 30 112 31c.098 1.56.128 3.124.13 4.687l.009 3.024-.006 3.289.003 3.352c0 2.343-.001 4.687-.006 7.03-.005 3.602 0 7.204.007 10.805 0 2.271-.002 4.542-.004 6.813l.006 3.29-.01 3.022-.002 2.676C112 81 112 81 111 82a84.87 84.87 0 0 1-4.979.114h-3.215l-3.497-.016-3.56-.005c-3.771-.005-7.541-.018-11.311-.03-2.55-.006-5.098-.01-7.647-.014C70.527 82.038 64.264 82.02 58 82a957184341.485 957184341.485 0 0 0 1.443 8.296c1.535 7.45 6.151 13.246 12.393 17.407L74 109l2.102 1.297C86.678 116.185 99.262 118.473 111 121c.625 3.375.625 3.375 1 7-2 2-2 2-4.04 2.117-17.756-1.663-38.195-7.266-50.624-20.949-8.75-10.928-9.492-21.536-9.469-35.066l-.003-3.73c0-2.59.001-5.18.006-7.77.003-2.662.004-5.324 0-7.985-.007-3.839-.006-7.677-.003-11.515l-.006-3.63.01-3.329.002-2.944c.255-4.417 3.128-3.326 6.916-3.328Z" fill="#D54027"/><path d="M159 147h1v13h-13l5-4c3.015-2.804 5.435-5.158 7-9ZM0 147l4 5a69.421 69.421 0 0 0 9 8H0v-13ZM147 0h13v13l-4-5a69.421 69.421 0 0 0-9-8ZM0 0h13L8 4a69.421 69.421 0 0 0-8 9V0Z" fill="#FFF"/></svg>
