<svg xmlns="http://www.w3.org/2000/svg" width="160" height="160"><path d="M0 0h160v160H0V0Z" fill="#F0F151"/><path d="m81.563 38.813 3.816.019L89 39l2.998.122C95 40 95 40 96.966 42.684l1.682 3.539.916 1.879a411.393 411.393 0 0 1 2.811 5.96c.645 1.346 1.292 2.69 1.941 4.034A850.73 850.73 0 0 1 109 68l-2 1c-2.088-1-2.088-1-4.656-2.57l-2.852-1.72c-.987-.605-1.975-1.21-2.992-1.835C80.465 52.323 80.465 52.323 62 50c-3.623 2.159-5.393 4.16-7 8-1.934 10.636 2.525 21.839 8.273 30.668C68.102 95.521 73.678 100.825 81 105l1.793 1.156c3.328 1.272 6.633 1.173 10.144 1.156l2.131.05c4.556.004 7.22-.771 10.932-3.362h2c-4.192-4.886-8.5-9.653-12.875-14.375A1786.395 1786.395 0 0 1 83.75 77.25l-2.203-2.422C80 73 80 73 80 72h39c0 15.741-1.592 27.15-12.25 38.813-8.375 7.856-19.174 10.706-30.402 10.5-11.664-1.09-20.456-7.404-27.813-16.168C46.055 101.679 44.447 97.992 43 94l-1.086-2.89c-2.948-10.03-.94-21.428 3.305-30.801 5.622-10.23 14.107-16.75 25.05-20.399 3.912-.954 7.274-1.143 11.293-1.097Z" fill="#1C1B17"/><path d="m63 44 2 1-2 1v-2Zm-3 2 11 1v1h-9l-1 2-2-1 1-3Z" fill="#262519"/><path d="M104 106h5c-1.049 2.622-1.65 3.794-4.125 5.25L103 112c0-4 0-4 1-6Z" fill="#101014"/><path d="M109 102h2l-1 5-5-1 1-2h3v-2Z" fill="#2C2B19"/></svg>
