<svg xmlns="http://www.w3.org/2000/svg" width="40" height="40" fill="none"><g clip-path="url(#a)"><path fill="#FFE600" d="M0 0h40v40H0z"/><g clip-path="url(#b)"><path fill="#FFE600" d="M-35-35H75V75H-35z"/><path fill="#00BCFF" d="M20.004 10.39c-8.13 0-14.72 4.215-14.72 9.416 0 5.2 6.59 9.824 14.72 9.824 8.129 0 14.718-4.624 14.718-9.824s-6.59-9.416-14.718-9.416Z"/><path fill="#fff" d="M15.214 16.895c-.007.015-.15.163-.058.283.228.29.93.457 1.642.298.423-.095.966-.527 1.491-.944a5.974 5.974 0 0 1 1.703-1.085c.399-.146.835-.158 1.241-.033.413.154.796.377 1.132.66.987.743 4.955 4.206 5.64 4.805a38.12 38.12 0 0 1 6.518-2.048c-.29-1.777-1.36-3.472-3-4.804-2.286.96-5.267 1.536-7.999.202a7.559 7.559 0 0 0-2.95-.671c-2.168.05-3.107.988-4.101 1.98l-1.259 1.357Z"/><path fill="#fff" d="M27.845 21.256c-.047-.042-4.666-4.084-5.712-4.87a2.562 2.562 0 0 0-1.296-.615 1.775 1.775 0 0 0-.617.059 5.57 5.57 0 0 0-1.688 1.006c-.585.466-1.137.905-1.65 1.02a2.667 2.667 0 0 1-1.817-.274.804.804 0 0 1-.301-.33.56.56 0 0 1 .154-.604l1.275-1.378c.148-.148.297-.296.45-.442a8.25 8.25 0 0 0-1.161.262c-.439.146-.895.23-1.356.253-.465-.047-.926-.12-1.383-.216a22.704 22.704 0 0 1-3.974-1.33c-1.812 1.349-2.992 3.005-3.342 4.863.26.069.943.224 1.119.264 4.101.911 5.378 1.85 5.61 2.047a1.357 1.357 0 0 1 2.128.125c.276-.224.622-.345.977-.344.2.002.398.037.587.103a1.349 1.349 0 0 1 .825.746c.18-.081.374-.123.57-.122.236.003.468.055.683.15a1.456 1.456 0 0 1 .805 1.628 1.628 1.628 0 0 1 1.789 1.618c0 .267-.067.531-.195.767.425.26.915.39 1.412.378a.9.9 0 0 0 .66-.288c.042-.057.084-.125.045-.174l-1.157-1.285s-.19-.18-.128-.25c.065-.07.183.032.266.102a20.777 20.777 0 0 1 1.308 1.233c.012.008.06.103.326.15a1.202 1.202 0 0 0 .914-.213 1.44 1.44 0 0 0 .201-.206.076.076 0 0 1-.013.01.614.614 0 0 0-.033-.761l-1.351-1.517s-.193-.18-.127-.25c.059-.063.183.031.268.102.427.357 1.031.963 1.61 1.531a1.101 1.101 0 0 0 1.297-.045.929.929 0 0 0 .48-.846.966.966 0 0 0-.286-.564l-1.845-1.856s-.195-.166-.126-.25c.057-.071.183.03.266.1.588.492 2.179 1.951 2.179 1.951a1.12 1.12 0 0 0 1.252-.025.834.834 0 0 0 .41-.662.975.975 0 0 0-.308-.751Z"/><path fill="#fff" d="M18.894 23.607a4.17 4.17 0 0 0-.64.142c-.023-.015.018-.13.044-.196.028-.066.405-1.2-.514-1.593a1.084 1.084 0 0 0-1.28.19c-.039.04-.056.037-.06-.013a1.014 1.014 0 0 0-.713-.942 1.39 1.39 0 0 0-1.566.558 1.002 1.002 0 1 0-.298.853c.006.006.008.015.005.034a1.323 1.323 0 0 0 .827 1.522.986.986 0 0 0 .97-.15c.08-.056.093-.033.082.042-.034.233.01.731.708 1.014a.896.896 0 0 0 1.051-.196c.09-.081.115-.068.12.058a1.267 1.267 0 1 0 1.264-1.323Z"/><path fill="#0A0080" d="M20.001 10c-8.284 0-15 4.406-15 9.81L5 20.386c0 5.734 5.87 10.377 15 10.377 9.184 0 15-4.642 15-10.376v-.575C35 14.406 28.285 10 20.001 10Zm14.323 8.723a34.377 34.377 0 0 0-6.301 2.049c-1.423-1.242-4.711-4.101-5.602-4.77a3.917 3.917 0 0 0-1.16-.675 1.925 1.925 0 0 0-.57-.09c-.246.004-.49.045-.724.123a5.929 5.929 0 0 0-1.704 1.079l-.029.022c-.516.411-1.05.836-1.454.926a2.46 2.46 0 0 1-.539.06 1.382 1.382 0 0 1-1.012-.325c-.025-.033-.009-.085.05-.16l.008-.01 1.252-1.348c.98-.98 1.906-1.906 4.038-1.955l.106-.002c.968.04 1.92.265 2.802.664a8.68 8.68 0 0 0 3.82.915 9.967 9.967 0 0 0 4.183-1c1.52 1.279 2.53 2.82 2.836 4.497Zm-14.32-8.144c4.397 0 8.331 1.26 10.976 3.246a9.226 9.226 0 0 1-3.673.832 8.129 8.129 0 0 1-3.573-.86 8.038 8.038 0 0 0-3.05-.72l-.12.001a5.297 5.297 0 0 0-3.478 1.235c-.59.03-1.173.137-1.735.316-.395.132-.807.211-1.223.235-.156 0-.438-.015-.464-.016a23.788 23.788 0 0 1-4.382-1.212c2.64-1.876 6.465-3.057 10.722-3.057Zm-11.24 3.448c1.829.748 4.048 1.326 4.75 1.372.196.013.405.035.613.035.47-.023.934-.109 1.38-.256.266-.075.559-.156.867-.215l-.247.245-1.271 1.376a.639.639 0 0 0-.175.703.89.89 0 0 0 .335.37c.411.233.877.351 1.35.343.18.001.361-.018.538-.056.533-.12 1.093-.566 1.685-1.036a5.603 5.603 0 0 1 1.656-.991c.15-.04.306-.062.461-.064.04 0 .08.002.12.008.466.076.9.283 1.252.597 1.045.785 5.664 4.826 5.71 4.866a.89.89 0 0 1 .277.678.74.74 0 0 1-.37.59c-.18.12-.39.186-.606.19a.998.998 0 0 1-.535-.156c-.017-.014-1.6-1.465-2.183-1.953a.488.488 0 0 0-.273-.146.151.151 0 0 0-.121.057c-.092.113.01.27.132.372l1.849 1.86c.138.134.227.31.255.5a.843.843 0 0 1-.439.767 1.19 1.19 0 0 1-.655.216.948.948 0 0 1-.527-.16l-.265-.26c-.485-.478-.986-.971-1.352-1.277a.492.492 0 0 0-.276-.143.155.155 0 0 0-.116.05c-.042.046-.071.13.034.268.028.037.059.072.093.104l1.348 1.516a.518.518 0 0 1 .031.646l-.048.06c-.04.043-.081.084-.125.122-.191.14-.423.213-.66.209-.06 0-.122-.005-.182-.016a.459.459 0 0 1-.266-.112l-.017-.017c-.073-.076-.753-.77-1.316-1.24a.466.466 0 0 0-.262-.14.16.16 0 0 0-.122.054c-.111.122.056.304.127.37l1.15 1.27a.258.258 0 0 1-.043.077c-.041.058-.18.197-.598.25-.05.006-.102.01-.153.009a2.642 2.642 0 0 1-1.127-.334 1.717 1.717 0 0 0-1.613-2.447 1.524 1.524 0 0 0-.87-1.612 1.807 1.807 0 0 0-.718-.158c-.18 0-.359.032-.527.096a1.445 1.445 0 0 0-.84-.714 1.888 1.888 0 0 0-.616-.108 1.622 1.622 0 0 0-.96.307 1.444 1.444 0 0 0-2.154-.121c-.358-.274-1.779-1.177-5.582-2.04a19.87 19.87 0 0 1-.854-.236c.357-1.707 1.442-3.266 3.05-4.545Zm7.054 9.9-.041-.037h-.042a.206.206 0 0 0-.116.047.976.976 0 0 1-.569.203.882.882 0 0 1-.317-.062 1.23 1.23 0 0 1-.769-1.426.12.12 0 0 0-.038-.116l-.063-.051-.058.055a.915.915 0 1 1 .271-.775l.032.246.135-.208a1.273 1.273 0 0 1 1.463-.52.926.926 0 0 1 .648.861c.01.12.095.125.111.125a.149.149 0 0 0 .106-.055.923.923 0 0 1 .674-.285c.174.004.346.043.505.114.861.37.47 1.465.466 1.476-.074.182-.077.262-.008.308l.035.016h.025a.602.602 0 0 0 .167-.043c.147-.058.302-.093.46-.102a1.177 1.177 0 0 1 1.085 1.626 1.175 1.175 0 0 1-1.086.725 1.167 1.167 0 0 1-1.173-1.121c-.001-.054-.007-.197-.128-.197a.223.223 0 0 0-.143.075.827.827 0 0 1-.576.26c-.13-.003-.26-.03-.38-.082-.67-.272-.679-.732-.652-.917a.167.167 0 0 0-.024-.14Zm4.185 5.105c-7.965 0-14.422-4.13-14.422-9.226.001-.204.013-.407.035-.61.063.015.696.166.827.196 3.885.863 5.169 1.76 5.386 1.93a1.455 1.455 0 0 0 1.61 1.991 1.697 1.697 0 0 0 1.098 1.268c.165.065.341.1.519.1.112.001.223-.012.331-.04a1.689 1.689 0 0 0 1.476.963c.151 0 .302-.027.444-.08a1.712 1.712 0 0 0 2.817.544c.443.258.941.407 1.453.434.074 0 .147-.005.22-.014a1.33 1.33 0 0 0 .985-.482.771.771 0 0 0 .061-.099c.151.046.308.07.466.073a1.57 1.57 0 0 0 .939-.336 1.294 1.294 0 0 0 .555-.817c.104.02.209.031.315.031.344-.004.68-.11.964-.305a1.39 1.39 0 0 0 .692-1.24c.105.021.212.033.32.033.32-.004.635-.1.903-.278a1.322 1.322 0 0 0 .629-1.023 1.39 1.39 0 0 0-.2-.826 37.336 37.336 0 0 1 5.982-1.873c.011.152.018.306.018.46 0 5.095-6.457 9.226-14.423 9.226Z"/></g></g><defs><clipPath id="a"><path fill="#fff" d="M0 0h40v40H0z"/></clipPath><clipPath id="b"><rect width="40" height="40" fill="#fff" rx="20"/></clipPath></defs></svg>