<svg fill="none" height="40" width="40" xmlns="http://www.w3.org/2000/svg" xmlns:xlink="http://www.w3.org/1999/xlink"><clipPath id="a"><path d="m0 0h30v8.875h-30z" transform="translate(5 15)"/></clipPath><path d="m0 0h40v40h-40z" fill="#000"/><g clip-path="url(#a)" fill="#fff"><path d="m27.616 16.864a.931.931 0 1 0 0-1.863.931.931 0 0 0 0 1.863z"/><path clip-rule="evenodd" d="m17.69 17.898a2.99 2.99 0 0 0 -2.985 2.989 2.992 2.992 0 0 0 2.985 2.988 2.992 2.992 0 0 0 2.984-2.988 2.99 2.99 0 0 0 -2.984-2.989zm0 4.564a1.573 1.573 0 0 1 0-3.144 1.573 1.573 0 0 1 0 3.144z" fill-rule="evenodd"/><path d="m11.366 17.892a2.544 2.544 0 0 1 1.917.857c.438.488.68 1.12.68 1.774v3.23h-1.427v-3.27a1.18 1.18 0 0 0 -1.18-1.168c-.037 0-.077.003-.117.006-.577.059-1.061.606-1.061 1.196v3.237h-1.428v-3.262a1.181 1.181 0 0 0 -1.176-1.174c-.037 0-.078.003-.118.006-.574.06-1.06.606-1.06 1.2v3.23h-1.396v-3.271a2.594 2.594 0 0 1 2.59-2.591c.714 0 1.393.298 1.884.817a2.59 2.59 0 0 1 1.892-.817zm11.504-2.752h-1.427v8.62h1.427zm1.303 0h1.427v8.62h-1.427zm2.73 2.901v5.716h1.427v-5.716z"/><path clip-rule="evenodd" d="m34.17 18.737c.535.544.83 1.258.83 2.016v.655h-4.341a1.603 1.603 0 0 0 2.92.398l.058-.096 1.18.58-.07.116a3.002 3.002 0 0 1 -2.568 1.466h-.003c-.8 0-1.551-.317-2.119-.892a2.968 2.968 0 0 1 -.865-2.134c.009-.786.32-1.522.871-2.078a2.956 2.956 0 0 1 2.073-.876h.037a2.79 2.79 0 0 1 1.998.845zm-.613 1.491a1.531 1.531 0 0 0 -1.44-1.037c-.651 0-1.235.428-1.436 1.037z" fill-rule="evenodd"/></g></svg>