<svg xmlns="http://www.w3.org/2000/svg" width="128" height="128"><path d="M0 0h128v128H0V0Z" fill="#08BDF0"/><path d="M56 54c2.938 1.5 2.938 1.5 5 3l1-2h7v27h-7v-3l-2.563 2c-3.994 2.324-5.892 2.65-10.437 2-4.875-2.438-7.273-4.82-9-10-.667-5.058-.581-8.816 1.688-13.438C46.091 54.682 49.377 53.29 56 54Z" fill="#F7FDFE"/><path d="M28 54c3.894 1.322 5.653 2.607 8.375 5.688C38 63 38 63 38 71H18l3 4c2.197.267 2.197.267 4.5-.25 2.6-.433 4.849-.75 7.5-.75 1.688 2 1.688 2 3 4-5.204 4.245-7.793 5.364-14.46 5.277-5.095-.556-7.692-3.296-10.915-7.027C8.623 72.246 8.281 69.386 9 65c3.394-9.288 9.818-11.836 19-11Z" fill="#F6FCFE"/><path d="M86 54c3.438 1.934 4.693 2.96 5.813 6.75L92 63h-7l-1-2h-4v3l2.336.77 3.039 1.043 3.023 1.019C91 68 91 68 93 71c.438 2.875.438 2.875 0 6-2.173 2.573-3.98 4.49-7 6-4.755.396-7.118.433-11.438-1.688C71.78 78.802 71.204 77.677 71 74h7v2h7l-1-3c-1.971-.842-1.971-.842-4.313-1.375C75.41 70.31 73.19 69.092 71 65c-.625-3-.625-3 0-6 4.315-5.09 8.437-6.305 15-5Z" fill="#F4FCFE"/><path d="M111 55h8c-.993 5.883-3.43 11.002-5.813 16.438l-1.33 3.103C106.08 87.803 106.08 87.803 101 92c-2.75.917-4.36 1.109-7.188 1.063L90 93v-8h3.188c4.776-1.253 5.163-2.519 7.53-6.563 2.297-4.367 4.206-8.881 6.094-13.437l1.233-2.926c.991-2.355 1.976-4.713 2.955-7.074Z" fill="#F6FCFE"/><path d="M55.063 61.063c4.421 1.41 4.421 1.41 5.937 3.937.365 3.41.614 5.88-1.063 8.938C56.88 75.614 54.41 75.365 51 75c-1.938-1.063-1.938-1.063-3-3-.503-3.956-.572-6.12 1.625-9.5C52 61 52 61 55.063 61.062Z" fill="#0CBEF0"/><path d="M91 55h8c5.023 8.794 5.023 8.794 4.938 13.313-.908 2.601-1.826 5.166-2.938 7.687-2.574-1.287-2.796-2.36-3.945-4.965l-1.075-2.424-1.105-2.549-1.129-2.537C91 57.274 91 57.274 91 55Z" fill="#F4FCFE"/><path d="M34 37h2v3h12v2h-5l-1 2 6 1c.625 1.875.625 1.875 1 4-2 2-2 2-4.531 2.266L41.5 51.25l-2.969.016C36 51 36 51 34 49c-.195-2.82-.195-2.82-.125-6.125l.055-3.32L34 37Z" fill="#19C2F1"/><path d="M69 55h1l.008 2.012c.211 4.823.352 7.257 3.617 10.988 3.573 2.117 6.352 3.115 10.375 4l1 4c-4.75 1.125-4.75 1.125-7 0v-2h-7l-1 8h-1V55Z" fill="#27C5F2"/><path d="M27.5 39.75C30 40 30 40 32 42v4h-7l1 2h6v2c-3.375.625-3.375.625-7 1-2-2-2-2-2.25-5.5.288-4.035.598-5.335 4.75-5.75Z" fill="#DDF6FD"/><path d="M26.09 60.77C28 61 28 61 30 63v3H18c1.476-5.904 2.244-5.114 8.09-5.23Z" fill="#17C1F1"/><path d="M42 40h6v2h-5l-1 2 6 1c.625 1.875.625 1.875 1 4l-2 2c-3.625-.375-3.625-.375-7-1v-2l7 1c-1.392-2.784-3.156-2.979-6-4l1-5Z" fill="#D2F3FC"/><path d="M34 37h2v3l3 1h-3v8h3v2c-3.875-.875-3.875-.875-5-2-.072-2.02-.084-4.042-.063-6.063l.028-3.347L34 37Z" fill="#DBF5FC"/><path d="m26 41 4 1v3h-5l1-4Z" fill="#33C9F2"/><path d="m53 36 3 1v4h-4l1-5Z" fill="#E9F9FD"/></svg>
