<svg width="40" height="40" fill="none" xmlns="http://www.w3.org/2000/svg"><path fill="#F6F7F7" d="M0 0H40V40H0z"/><path d="M25.85 13.399h-3.574l6.15 7.346L22.35 28h3.573L32 20.745l-6.15-7.346z" fill="#E54360"/><path d="M19.687 14.754c.45.533.785 1.16.999 1.879v-.004c.216.72.323 1.492.323 2.313v9.056h-2.89v-8.103c0-.594-.046-1.16-.138-1.693a4.078 4.078 0 0 0-.507-1.417 2.78 2.78 0 0 0-1.015-.985c-.43-.247-.983-.37-1.66-.37-1.15 0-2.087.437-2.813 1.31-.73.873-1.093 2.038-1.093 3.498V28H8V13.4h2.737s-.186 2.792 0 2.401c.186-.388.53-.755.847-1.094.317-.34.682-.636 1.091-.893A5.444 5.444 0 0 1 15.566 13c.945 0 1.752.158 2.43.475.676.32 1.24.747 1.69 1.279z" fill="#016EAF"/></svg>
