<svg width="40" height="40" fill="none" xmlns="http://www.w3.org/2000/svg"><path fill="#0080F9" d="M0 0H40V40H0z"/><path fill-rule="evenodd" clip-rule="evenodd" d="M32.3 16.025a1.096 1.096 0 0 0-.51.26c-.208.197-.231.275-.474 1.638-.21 1.185-.457 2.567-.6 3.362l-.064.354h1.344c1.425 0 1.524-.007 1.797-.133.285-.132.533-.453.58-.75l.018-.117h-1.255c-1.163 0-1.256-.004-1.256-.048 0-.026.184-1.063.408-2.305.224-1.241.408-2.264.408-2.273 0-.022-.237-.015-.396.012zM5.488 17.619c-.24.085-.465.286-.562.504C4.88 18.225 4 23.024 4 23.172c0 .048.032.052.504.052h.505l.03-.146c.037-.188.255-1.401.255-1.423 0-.009.384-.016.852-.016.91 0 1.042-.015 1.312-.147.257-.127.499-.456.55-.75l.018-.104H6.758c-1.081 0-1.267-.005-1.267-.04 0-.021.03-.206.068-.41.038-.203.115-.626.171-.94l.199-1.103c.053-.294.097-.54.097-.549 0-.03-.44-.011-.538.023zm1.283.012c-.406.139-.637.392-.734.802l-.034.149h1.135c.683 0 1.164.01 1.208.027.043.016.09.068.114.124.044.103.03.2-.256 1.791-.053.297-.097.549-.097.561 0 .012.115-.016.255-.062.493-.163.789-.438.922-.857.018-.053.076-.391.13-.75l.128-.823c.07-.415 0-.702-.208-.859-.195-.147-.229-.15-1.367-.15-.929-.001-1.072.005-1.196.047zm4.938.007c-.261.067-.63.24-.858.4-.23.163-.595.548-.726.768a2.505 2.505 0 0 0-.304.808c-.043.273-.018.688.055.915.152.47.548.86 1.045 1.028.275.094.747.108 1.003.031a1.47 1.47 0 0 0 .579-.332c.057-.055.113-.092.123-.082.01.01-.001.118-.024.241l-.042.224h1.029l.016-.076c.087-.41.58-3.256.579-3.348a.733.733 0 0 0-.228-.48c-.182-.151-.204-.154-1.156-.152-.78 0-.905.007-1.091.055zm3.08.006c-.008.034-.098.512-.2 1.063-.209 1.12-.23 1.41-.137 1.779.14.55.527.942 1.07 1.08.578.148 1.088.036 1.46-.32.091-.09.173-.155.181-.147.031.03-.062.368-.143.52-.277.513-.862.693-1.736.532a1.683 1.683 0 0 0-.214-.032c-.002.004-.033.224-.068.489-.043.319-.055.49-.036.51.015.014.172.052.347.082.526.092 1.12.037 1.544-.142.36-.151.693-.424.926-.76.129-.188.293-.546.379-.826.04-.13.218-1.036.397-2.015.18-.978.332-1.8.34-1.827.014-.045-.023-.049-.52-.049-.296 0-.537.007-.537.016 0 .092-.35 1.874-.385 1.963-.114.288-.404.618-.654.744a2.016 2.016 0 0 1-.715.168c-.378 0-.609-.254-.61-.669 0-.07.083-.581.183-1.138.1-.556.183-1.028.183-1.048 0-.028-.112-.036-.52-.036-.516 0-.52 0-.534.063zm4.98-.042a.81.81 0 0 0-.175.095c-.231.156-.226.14-.569 2.066-.171.963-.318 1.78-.326 1.814l-.014.062h.52c.287 0 .522-.008.522-.019 0-.094.517-2.89.542-2.93.061-.096.166-.114.63-.104.42.009.454.014.605.087.3.146.449.382.467.743.01.2-.014.38-.16 1.184-.094.521-.171.968-.171.993 0 .041.055.046.505.046.502 0 .506 0 .52-.062.015-.063.215-1.166.325-1.786.072-.406.172-.628.377-.83.255-.25.647-.408.885-.355.392.086.655.439.654.877 0 .115-.064.548-.154 1.044-.084.467-.162.907-.173.98l-.02.132h.51c.504 0 .508 0 .523-.062.015-.061.302-1.635.354-1.94.04-.23.03-.686-.017-.886a1.511 1.511 0 0 0-.977-1.093c-.151-.054-.23-.063-.57-.062-.332 0-.426.01-.604.065-.336.104-.687.294-.89.483l-.09.082-.192-.194a1.55 1.55 0 0 0-.764-.42c-.148-.03-1.957-.04-2.073-.01zm13.385.019c-.389.122-.693.47-.76.87l-.015.09h2.319l.086.086c.08.078.085.096.07.229a93.338 93.338 0 0 1-.372 2.15c-.014.062-.014.062.218-.016.313-.104.434-.169.607-.323.158-.14.258-.288.33-.486.07-.197.328-1.911.306-2.042a.668.668 0 0 0-.363-.524c-.11-.058-.145-.06-1.21-.066-.852-.004-1.124.003-1.216.032zm-4.587.017a2.698 2.698 0 0 0-1.469.683c-.713.653-.957 1.641-.585 2.377.115.228.424.547.64.66.304.16.464.202.841.218.767.033 1.362-.197 1.92-.743.453-.444.665-.884.693-1.438.018-.36-.021-.567-.164-.86-.306-.63-1.08-1-1.876-.897zm-16.733.972a1.4 1.4 0 0 0-.607.326c-.386.354-.504.93-.269 1.317.114.187.263.29.508.349.554.133 1.18-.22 1.395-.786.057-.151.17-.745.17-.89-.001-.114-.056-.208-.167-.28-.088-.06-.122-.064-.506-.061a4.699 4.699 0 0 0-.524.025zm16.544.037c-.238.06-.401.148-.562.298a1.227 1.227 0 0 0-.364.552c-.139.467.045.877.462 1.033.696.261 1.508-.217 1.63-.96.086-.517-.263-.918-.824-.948a1.361 1.361 0 0 0-.342.025z" fill="#fff"/><path d="M35.978 21.139c-.074 0-.117-.034-.084-.066a.742.742 0 0 1 .21-.018c.152 0 .192.01.192.042 0 .028-.028.042-.082.042-.09 0-.099.016-.128.222-.032.223-.047.278-.077.278-.018 0-.023-.04-.013-.104.06-.388.06-.396-.018-.396zm.386.493c-.015-.015.03-.368.064-.514.018-.075.111-.084.132-.014.008.027.03.127.048.222.018.096.041.174.05.174.01 0 .065-.1.121-.223.081-.173.117-.222.162-.222.032 0 .058.016.058.035 0 .071-.083.53-.097.544-.042.04-.047-.043-.017-.233a.854.854 0 0 0 .02-.226c-.008-.008-.068.093-.134.225s-.129.24-.14.24c-.026 0-.039-.045-.082-.287-.02-.104-.042-.181-.052-.172a1.06 1.06 0 0 0-.05.226c-.033.207-.051.256-.083.225z" fill="#fff"/></svg>