<svg width="40" height="40" fill="none" xmlns="http://www.w3.org/2000/svg"><path fill="#F6F7F7" d="M0 0h40v40H0z"/><path d="M27.574 14.565c-.022.13-.046.262-.074.399-.943 4.61-4.17 6.202-8.29 6.202h-2.1c-.504 0-.929.348-1.007.822l-1.074 6.485-.305 1.839c-.05.31.2.59.53.59h3.722c.44 0 .815-.304.884-.718l.037-.18.7-4.233.046-.232c.068-.415.443-.72.884-.72h.557c3.605 0 6.428-1.394 7.253-5.426.345-1.685.166-3.091-.746-4.08a3.543 3.543 0 0 0-1.018-.748z" fill="#179BD7"/><path d="M26.587 14.19a7.793 7.793 0 0 0-.918-.194 12.23 12.23 0 0 0-1.85-.128h-5.605c-.138 0-.27.03-.387.083a.857.857 0 0 0-.497.637l-1.192 7.19-.035.21c.079-.474.504-.822 1.008-.822h2.098c4.121 0 7.348-1.593 8.291-6.202.028-.137.052-.27.073-.4a5.167 5.167 0 0 0-.986-.374z" fill="#222D65"/><path d="M17.33 14.588a.854.854 0 0 1 .497-.636.93.93 0 0 1 .387-.083h5.606c.664 0 1.284.041 1.85.128a7.71 7.71 0 0 1 1.13.256c.277.088.535.192.774.312.28-1.704-.002-2.864-.97-3.914C25.538 9.495 23.612 9 21.15 9h-7.152c-.503 0-.933.348-1.01.822l-2.98 17.975c-.058.356.23.676.607.676h4.415l1.109-6.695 1.192-7.19z" fill="#253B80"/></svg>