<svg width="40" height="40" fill="none" xmlns="http://www.w3.org/2000/svg"><path fill="#F6F7F7" d="M0 0h40v40H0z"/><path d="M28.694 9h-18.54C9.524 9 9 9.534 9 10.175v2.104c0 .656.524 1.175 1.153 1.175h18.54c.643 0 1.153-.535 1.168-1.175V10.19A1.18 1.18 0 0 0 28.694 9zm0 11.71h-18.54a1.142 1.142 0 0 0-.816.343c-.217.222-.338.52-.338.83v2.104c0 .657.524 1.174 1.153 1.174h18.54c.644 0 1.153-.518 1.168-1.173v-2.105c0-.656-.524-1.174-1.167-1.174zm-8.102 5.84H10.154c-.306 0-.6.122-.815.342-.217.222-.338.52-.338.83v2.104A1.162 1.162 0 0 0 10.154 31h10.423c.644 0 1.153-.532 1.153-1.173v-2.105a1.152 1.152 0 0 0-.696-1.084c-.14-.06-.29-.089-.442-.089zm9.27-11.696H10.154c-.306 0-.6.124-.815.344a1.18 1.18 0 0 0-.338.83v2.104c0 .656.524 1.174 1.153 1.174h19.694c.644 0 1.152-.533 1.152-1.174v-2.104a1.16 1.16 0 0 0-.698-1.081 1.131 1.131 0 0 0-.44-.093z" fill="#00C3F7"/></svg>