<svg xmlns="http://www.w3.org/2000/svg" width="367" height="367"><path fill="#e50695" d="M.15 366.73h366.51V.22H.15z"/><path fill="#fff" d="M93.82 60.94c8.43 0 15.27-6.68 15.27-14.91s-6.84-14.91-15.27-14.91-15.27 6.68-15.27 14.91 6.84 14.91 15.27 14.91m180.25.36c8.43 0 15.27-6.84 15.27-15.27s-6.84-15.27-15.27-15.27-15.27 6.84-15.27 15.27 6.84 15.27 15.27 15.27"/><path fill="none" stroke="#fff" stroke-width="10.18" d="M93.54 47.11c0 49.76 40.34 90.1 90.1 90.1s90.1-40.34 90.1-90.1"/><path fill="#fff" d="M86.71 249.8c-.92 2.33-2.33 4.37-4.24 6.11-1.9 1.74-4.07 3.01-6.52 3.83-2.44.81-5.13 1.22-8.06 1.22H57.87v22.81h-17.1v-8.88h7.33v-42.76h-7.33v-8.88h26.31c3.09 0 5.93.39 8.51 1.18s4.85 2.05 6.8 3.79 3.39 3.76 4.32 6.07c.92 2.31 1.38 4.93 1.38 7.86 0 2.77-.46 5.32-1.38 7.66m-9.12-12.27c-.49-1.28-1.11-2.27-1.87-2.97-.81-.76-1.98-1.36-3.5-1.79s-3.5-.65-5.95-.65h-8.39v19.95h8.39c2.23 0 4.08-.22 5.58-.65 1.49-.43 2.73-1.03 3.71-1.79.87-.71 1.55-1.62 2.04-2.73s.73-2.54.73-4.28c0-2.12-.24-3.81-.73-5.09m36.15 46.22v-2.93c-1.68 1.03-3.49 1.87-5.42 2.52s-3.9.98-5.9.98c-4.18 0-7.66-1.38-10.43-4.15-2.77-2.66-4.15-5.95-4.15-9.86 0-4.24 1.63-7.74 4.89-10.51 1.57-1.41 3.38-2.43 5.42-3.05s4.28-.94 6.72-.94c1.9 0 3.91.27 6.03.81.43.11.9.23 1.38.37.49.14.98.31 1.47.53v-5.05c0-1.09-.15-1.93-.45-2.52-.3-.6-.69-1.06-1.18-1.38-.65-.43-1.47-.77-2.44-1.02-.98-.24-2.17-.37-3.58-.37-.71 0-1.52.09-2.44.29-.92.19-1.86.43-2.81.73s-1.85.6-2.69.9-1.56.56-2.16.77l-2.93-7.25c1.9-.76 3.53-1.37 4.89-1.83s2.79-.88 4.32-1.26c1.52-.38 2.85-.57 3.99-.57 2.5 0 4.76.26 6.8.77 2.04.52 3.84 1.32 5.42 2.4 1.63 1.25 2.82 2.74 3.58 4.48s1.14 3.69 1.14 5.86v22.4h6.43v8.88h-15.88zm0-17.27c-1.14-.6-2.26-1.09-3.34-1.47-1.47-.54-3.07-.81-4.81-.81-1.52 0-2.78.18-3.79.53s-1.81.83-2.4 1.43c-1.36 1.19-2.04 2.69-2.04 4.48 0 1.36.51 2.58 1.55 3.67.49.49 1.08.87 1.79 1.14.7.27 1.6.41 2.69.41 1.79 0 3.72-.52 5.78-1.55 1.74-.87 3.26-1.95 4.56-3.26v-4.56zm56.12-17.59l-19.71 52.13h-9.2l7.41-20.85-12.79-31.28h-7.25v-8.88h13.52l2.04 5.29 9.2 22.56 7.17-18.98h-4.97v-8.88h21.26v8.88h-6.68zm27.77 35.75c-1.52 0-2.89-.2-4.11-.61s-2.29-1.1-3.22-2.08c-.92-.92-1.56-2-1.91-3.22s-.53-2.54-.53-3.95v-25.9h-6.84v-8.88h6.84v-8.55l9.45-.24v8.8h8.06v8.88h-8.06v25.09c0 .87.08 1.41.24 1.63h.41l7.41-1.22v8.96l-7.74 1.3zm42.02-35.91c-2.61 0-4.76.3-6.48.9-1.71.6-3.08 1.36-4.11 2.28-.98.87-1.74 1.9-2.28 3.09s-.81 2.93-.81 5.21v14.66h7.9v8.88h-17.35V248.9h-7.33v-8.88h16.78v4.56c.22-.11.71-.42 1.47-.94s1.52-.96 2.28-1.34c1.79-.87 3.43-1.47 4.93-1.79 1.49-.33 3.19-.46 5.09-.41l4.07.08v8.55h-4.15zm29.16 35.02v-2.93c-1.68 1.03-3.49 1.87-5.42 2.52s-3.9.98-5.9.98c-4.18 0-7.66-1.38-10.43-4.15-2.77-2.66-4.15-5.95-4.15-9.86 0-4.24 1.63-7.74 4.89-10.51 1.57-1.41 3.38-2.43 5.41-3.05 2.04-.62 4.28-.94 6.72-.94 1.9 0 3.91.27 6.03.81.43.11.9.23 1.38.37.49.14.98.31 1.47.53v-5.05c0-1.09-.15-1.93-.45-2.52-.3-.6-.69-1.06-1.18-1.38-.65-.43-1.46-.77-2.44-1.02-.98-.24-2.17-.37-3.58-.37-.71 0-1.52.09-2.44.29-.92.19-1.86.43-2.81.73s-1.85.6-2.69.9-1.56.56-2.16.77l-2.93-7.25c1.9-.76 3.53-1.37 4.89-1.83s2.79-.88 4.32-1.26c1.52-.38 2.85-.57 3.99-.57 2.5 0 4.76.26 6.8.77 2.04.52 3.84 1.32 5.42 2.4 1.63 1.25 2.82 2.74 3.58 4.48s1.14 3.69 1.14 5.86v22.4h6.43v8.88h-15.88zm0-17.27c-1.14-.6-2.26-1.09-3.34-1.47-1.46-.54-3.07-.81-4.8-.81-1.52 0-2.78.18-3.79.53s-1.81.83-2.4 1.43c-1.36 1.19-2.04 2.69-2.04 4.48 0 1.36.51 2.58 1.55 3.67.49.49 1.08.87 1.79 1.14.7.27 1.6.41 2.69.41 1.79 0 3.72-.52 5.78-1.55 1.74-.87 3.26-1.95 4.56-3.26v-4.56zm28.42-34.04c-1.25 1.14-2.63 1.71-4.15 1.71s-2.9-.57-4.15-1.71c-1.14-1.25-1.71-2.63-1.71-4.15 0-1.68.57-3.09 1.71-4.24 1.25-1.14 2.63-1.71 4.15-1.71s2.9.57 4.15 1.71c1.14 1.25 1.71 2.63 1.71 4.15 0 1.68-.57 3.09-1.71 4.24m-7.57 51.31l-.16-3.67V248.9h-6.76v-8.88h16.21v34.86h6.6v8.88h-15.88zm20.61 0v-51.64h-7v-8.88h16.45v51.64h6.92v8.88zm-108.5 40.21v-4.9c0-3.35-1.81-4.81-4.99-4.81-1.67 0-3.13.44-4.24 1.15v13.02c1.06.44 2.65.62 4.15.62 3.18 0 5.08-1.32 5.08-5.07zm-4.45-14.25c5.56 0 9.66 3.62 9.66 9.35v4.85c0 6.71-4.33 9.71-10.15 9.71-2.87 0-6.27-.62-8.87-1.59-.4-.13-.53-.35-.53-.75v-29.07c0-.44.22-.66.66-.66h3.79c.44 0 .66.22.66.66v8.47c1.37-.57 3-.97 4.77-.97zm28.32 1.14c0-.4.22-.62.66-.62h3.79c.44 0 .66.22.66.62v20.78c0 6.79-3.09 10.28-9.84 10.28-3.75 0-6.35-.88-8.65-2.78-.35-.26-.35-.53-.13-.88l1.9-2.69c.22-.35.53-.44.84-.22 1.68 1.15 3.62 2.03 6 2.03 3.04 0 4.98-1.32 4.81-5.74-1.41.44-3.09.79-4.72.79-4.59 0-9.44-2.91-9.44-9v-12.57c0-.4.26-.62.66-.62h3.84c.4 0 .62.22.62.62v12.35c0 3.4 2.38 4.59 5.03 4.59 1.5.04 3-.35 3.97-.88zm20.86 22.24c-.44 0-.66-.22-.66-.66v-20.21c0-.35.13-.62.49-.79 2.56-1.1 5.65-1.72 8.78-1.72 6.09 0 10.24 2.82 10.24 9.88v12.84c0 .44-.22.66-.62.66h-3.84c-.4 0-.66-.22-.66-.66v-12.75c0-4.15-1.9-5.38-5.12-5.38-1.5 0-3.13.22-4.15.49v17.65c0 .44-.22.66-.66.66h-3.79zm33.18-18.89c-2.6 0-4.55 1.24-4.55 4.5v1.15h9.09v-1.15c0-3.22-2.07-4.5-4.54-4.5zm9.53 9.01c0 .4-.22.62-.66.62h-13.41v1.24c0 2.69 1.85 4.06 4.68 4.06s4.59-.93 6.22-2.03c.31-.22.66-.18.88.13l1.81 2.43c.26.31.22.66-.13.93-2.34 1.85-5.21 3.04-8.96 3.04-4.98 0-9.66-2.74-9.66-8.6v-6.26c0-6.49 4.85-9.04 9.71-9.04s9.53 2.56 9.53 9.04v4.46zm13.06 5.73c.4 0 1.1-.04 1.81-.09.44 0 .71.22.71.62v3.35c0 .35-.18.66-.62.71-.75.04-1.67.09-2.34.09-4.59 0-8.16-2.34-8.16-8.16v-20.16c0-.4.22-.62.66-.62h3.35c.35 0 .62.22.66.57l.4 5.29h4.72c.4 0 .66.22.66.62v3.22c0 .4-.26.62-.66.62h-4.67v10.1c0 2.43 1.23 3.84 3.48 3.84zm14.07 4.68c-3 0-6.18-.84-8.96-2.87-.4-.22-.4-.53-.18-.88l1.68-2.87c.22-.4.49-.44.88-.18 1.99 1.46 4.37 2.25 6.66 2.25s4.1-.88 4.1-2.56c0-1.76-2.12-2.25-4.1-2.6-3.31-.62-8.91-1.99-8.91-7.33 0-4.9 4.63-6.93 9.35-6.93 2.51 0 5.07.62 7.68 2.03.35.17.44.53.22.88l-1.68 2.82c-.22.31-.53.4-.88.22-1.63-.88-3.62-1.45-5.6-1.45-2.6 0-4.01.97-4.01 2.42 0 1.81 1.99 2.25 4.9 2.82 3.62.66 8.21 1.81 8.21 6.88s-4.06 7.32-9.35 7.32z"/></svg>