<svg width="40" height="40" fill="none" xmlns="http://www.w3.org/2000/svg"><path fill="#A6C307" d="M0 0H40V40H0z"/><path d="M29.934 11.528l-3.779-.001a.74.74 0 0 0-.746.735v.519h.262c1.706 0 2.34.277 2.34 1.807v2.175h1.92a.74.74 0 0 0 .747-.734l.002-3.766a.74.74 0 0 0-.746-.735zm.368-3.886l-1.906-.001a.374.374 0 0 1-.377-.37l.001-1.9c0-.205.169-.371.377-.371h1.906c.207 0 .376.167.376.371v1.9c0 .205-.17.37-.377.37zm3.74 3.889l-2.807-.001a.55.55 0 0 1-.554-.546V8.187a.55.55 0 0 1 .555-.546l2.807.001a.55.55 0 0 1 .554.546l-.001 2.797a.55.55 0 0 1-.555.546zm-7.889 5.231a.74.74 0 0 1-.745-.734V12.78h-.274c-1.707 0-2.341.277-2.341 1.807v3.58l-.001.023v.785c0 .027-.003.052-.003.08v5.003c0 .61-.12 1.097-.366 1.475-.465.706-1.386 1.027-2.86 1.029-1.473-.002-2.394-.323-2.859-1.028-.247-.378-.367-.865-.367-1.476v-5.003l-.002-.08v-.785l-.001-.023v-3.58c0-1.53-.635-1.807-2.34-1.807h-.538c-1.706 0-2.34.277-2.34 1.807v9.47c0 1.524.348 2.814 1.023 3.854C13.44 29.927 15.963 31 19.55 31h.027c3.586 0 6.109-1.073 7.411-3.088.674-1.04 1.023-2.33 1.023-3.853v-7.296h-1.858z" fill="#fff"/></svg>