<svg xmlns="http://www.w3.org/2000/svg" width="160" height="160"><path d="M0 0h160v160H0V0Z" fill="#071724"/><path d="M73 72c2.398-.136 4.788-.234 7.188-.313l2.04-.126c3.936-.096 5.59.297 8.725 2.748C93 77 93 77 93.563 80.375 92.897 84.666 91.79 87.664 89 91c-4.178 2.786-8.043 3.504-13 4l-1 6h-6c-.285-6.342.803-12.223 2-18.438l.578-3.083c.468-2.494.943-4.987 1.422-7.479Z" fill="#F3F4F4"/><path d="M133 65h7c-1.586 9.681-3.283 19.341-5 29-2.418.108-4.83.187-7.25.25l-2.066.102c-3.443.066-5.315-.077-8.11-2.16-2.243-3.123-2.51-5.363-2.574-9.192 1.214-4.213 2.41-6.452 5.625-9.438 4.293-1.987 7.729-1.934 12.375-1.562v-7Z" fill="#F2F3F3"/><path d="M25 65c2.564-.108 5.123-.187 7.688-.25l2.185-.102c3.81-.07 5.735.124 9.107 2.09 2.821 3.16 2.73 4.992 2.528 9.067C45.714 79.235 43.709 80.9 41 83l3 11h-7a4352.287 4352.287 0 0 1-3-6.938l-.867-1.998C31 80.114 31 80.114 31 79l8-1 1-6-10-1 .188 3.063C30.224 80.805 28.433 87.442 27 94h-7c1.586-9.681 3.283-19.341 5-29Z" fill="#F3F4F4"/><path d="m62.25 71.875 3.828.055L69 72c-.488 7.478-1.334 14.69-3 22-2.228.109-4.458.186-6.688.25l-3.761.14C51.43 93.938 49.892 92.898 47 90c-1.748-3.495-.836-7.281 0-11 4.005-6.491 7.881-7.261 15.25-7.125Z" fill="#F1F1F2"/><path d="M95 72h7l2 10 5-10h7c-1.859 5.058-4.342 9.784-6.813 14.563l-1.29 2.576c-2.38 4.589-4.36 8.087-8.897 10.861-3.313.75-3.313.75-6 1v-6l5-2c-.515-7.134-1.44-14.018-3-21Z" fill="#F0F1F1"/><path d="M78 78c3.375-.125 3.375-.125 7 0l2 2c-.188 3-.188 3-1 6-3.435 2.29-4.985 2.178-9 2l1-10Z" fill="#242D34"/><path d="m69 72 2 1v2h2c-.283 2.397-.576 4.792-.875 7.188l-.238 2.04C71.395 88.104 70.64 91.452 69 95l-3-1c.31-2.542.624-5.083.938-7.625l.263-2.16A246.09 246.09 0 0 1 69 72Z" fill="#1A212A"/><path d="m131 78-1 10c-3.375.125-3.375.125-7 0l-2-2c.188-3 .188-3 1-6 3.435-2.29 4.985-2.178 9-2Z" fill="#152029"/><path d="M30 71c7.75-.125 7.75-.125 10 1l-1 6-7 2v2l-3 1 1-12Z" fill="#131F29"/><path d="m46 71 .313 1.938L47 75l3 1-1.5 2.625C46.92 82.178 46.584 84.171 47 88c.898 2.302.898 2.302 2 4h-3l-2 2a327.09 327.09 0 0 1-2.063-4.313l-1.16-2.425C40 85 40 85 41 82l2-1.75c2.636-2.965 2.701-5.368 3-9.25Z" fill="#16212A"/><path d="m62 78-1 10c-2.333.042-4.667.04-7 0-1-1-1-1-1.25-3.875.25-3.125.25-3.125 1.375-5C56.78 77.532 58.968 77.798 62 78Z" fill="#1D272E"/><path d="m46 71 .313 1.938L47 75l3 1-3 6h-2l-2 3h-3c1-3 1-3 3-4.75 2.636-2.965 2.701-5.368 3-9.25Z" fill="#32383E"/><path d="M30 71h8v1h-7v6h6v1l-5 1v2l-3 1 1-12Z" fill="#5B6168"/><path d="M94 72c2.296 3.445 2.54 5.938 3 10l-1-2h-2l-1 3-1-8h2v-3Z" fill="#252B32"/><path d="M86 92v3l-3.813.313c-2.792.336-3.931.487-6.187 2.25L75 99l1-5 10-2Z" fill="#2E333A"/><path d="m121 82 2 1v2h2v2h4l1-3v4c-3.375.125-3.375.125-7 0l-2-2v-4Z" fill="#4C5055"/><path d="m69 72 2 1v2h2l-1 3-2-1-1 5c-1.238-3.576-.75-6.337 0-10Z" fill="#2E343C"/><path d="M70 77h2v7l-4 1 2-8Z" fill="#172029"/><path d="M67 84h4v6l-4-2v-4Z" fill="#282F37"/></svg>
