<svg width="40" height="40" fill="none" xmlns="http://www.w3.org/2000/svg"><path fill="#F6F7F7" d="M0 0H40V40H0z"/><path fill-rule="evenodd" clip-rule="evenodd" d="M11.344 7h17.31A4.344 4.344 0 0 1 33 11.344v17.31c0 2.4-1.946 4.345-4.346 4.345h-17.31A4.346 4.346 0 0 1 7 28.653V11.344C7 8.945 8.945 7 11.344 7zm15.56 21.272c.758 0 1.372-.614 1.372-1.371l-.004-13.802c0-.757-.614-1.371-1.37-1.371H13.1A1.371 1.371 0 0 0 11.73 13.1v13.801c0 .757.614 1.371 1.371 1.371h13.805z" fill="#000"/><path d="M17.242 23.524a.787.787 0 0 1-.781-.787v-5.51a.787.787 0 0 1 .787-.79h5.517a.788.788 0 0 1 .787.79v5.509a.788.788 0 0 1-.787.79l-5.523-.002z" fill="#000"/></svg>