<svg width="40" height="40" fill="none" xmlns="http://www.w3.org/2000/svg"><path fill="#635BFF" d="M0 0H40V40H0z"/><path fill-rule="evenodd" clip-rule="evenodd" d="M18.394 15.506c0-.95.778-1.324 2.07-1.324 1.86 0 4.203.566 6.061 1.566v-5.737a16.06 16.06 0 0 0-6.05-1.121c-4.96 0-8.252 2.585-8.252 6.909 0 6.737 9.282 5.666 9.282 8.575 0 1.121-.98 1.485-2.343 1.485-2.03 0-4.616-.829-6.667-1.95v5.808a16.88 16.88 0 0 0 6.667 1.394c5.08 0 8.575-2.515 8.575-6.889-.04-7.272-9.343-5.98-9.343-8.716z" fill="#fff"/></svg>