<svg width="40" height="40" fill="none" xmlns="http://www.w3.org/2000/svg"><path fill="#0F1219" d="M0 0H40V40H0z"/><path d="M23.751 30.166c-1.488 0-2.848-.853-3.71-2.307-.861 1.451-2.222 2.307-3.71 2.307h-.026c-1.624-.011-3.083-1.037-3.91-2.746v-.012L6 13.804 14.154 10l5.879 12.462L25.849 10 34 13.8l-6.31 13.622c-.827 1.71-2.286 2.735-3.91 2.747h-.026m-1.837-3.713c.445.887 1.117 1.394 1.837 1.394h.008c.729-.005 1.4-.524 1.837-1.43l5.329-11.494-3.954-1.845-5.652 12.11.598 1.265h-.003zm-7.428-.037c.439.907 1.108 1.428 1.834 1.431h.01c.724 0 1.393-.507 1.84-1.391l.587-1.259-5.72-12.122-3.95 1.842 5.396 11.493.003.006z" fill="#fff"/></svg>