<svg fill="none" height="40" viewBox="0 0 40 40" width="40" xmlns="http://www.w3.org/2000/svg" xmlns:xlink="http://www.w3.org/1999/xlink"><clipPath id="a"><path d="m4.39684 15.9727h30.3745v7.88379h-30.3745z"/></clipPath><rect fill="#873eff" height="40" rx="4" width="40"/><g clip-path="url(#a)" fill="#fff"><path d="m8.27309 23.8455c.88693 0 1.59866-.438 2.13521-1.4454l1.1935-2.2337v1.8943c0 1.1169.7227 1.7848 1.8396 1.7848.8759 0 1.522-.3832 2.1461-1.4454l2.7484-4.6426c.6022-1.0184.1752-1.7848-1.1497-1.7848-.7118 0-1.1717.2299-1.5878 1.0073l-1.8943 3.5587v-3.1645c0-.9417-.4489-1.4015-1.2811-1.4015-.6569 0-1.1825.2846-1.5877 1.073l-1.78478 3.493v-3.1316c0-1.0074-.41609-1.4344-1.42346-1.4344h-2.05854c-.77743 0-1.17162.3613-1.17162 1.0292 0 .668.41609 1.0512 1.17162 1.0512h.84312v3.9966c0 1.1279.75553 1.7958 1.86145 1.7958z"/><path d="m22.353 15.9727c-2.2447 0-3.9638 1.6753-3.9638 3.9419 0 2.2665 1.73 3.9309 3.9638 3.9309 2.2337 0 3.9419-1.6753 3.9528-3.9309 0-2.2666-1.7191-3.9419-3.9528-3.9419zm0 5.4529c-.8432 0-1.4235-.6351-1.4235-1.511 0-.876.5803-1.5221 1.4235-1.5221.8431 0 1.4234.6461 1.4234 1.5221 0 .8759-.5694 1.511-1.4234 1.511z"/><path d="m30.8175 15.9727c-2.2337 0-3.9528 1.6753-3.9528 3.9419 0 2.2665 1.7191 3.9309 3.9528 3.9309s3.9528-1.6753 3.9528-3.9309c0-2.2557-1.7191-3.9419-3.9528-3.9419zm0 5.4529c-.8541 0-1.4125-.6351-1.4125-1.511 0-.876.5694-1.5221 1.4125-1.5221s1.4235.6461 1.4235 1.5221c0 .8759-.5804 1.511-1.4235 1.511z"/></g></svg>
