<svg width="56" height="64" viewBox="0 0 56 64" fill="none" xmlns="http://www.w3.org/2000/svg">
<path d="M28 4C21.375 4 16 9.375 16 16V24H40V16C40 9.375 34.625 4 28 4ZM12 16C12 7.25 19.125 0 28 0C36.75 0 44 7.25 44 16V24H46C51.5 24 56 28.5 56 34V54C56 59.625 51.5 64 46 64H10C4.375 64 0 59.625 0 54V34C0 28.5 4.375 24 10 24H12V16ZM10 28C6.625 28 4 30.75 4 34V54C4 57.375 6.625 60 10 60H46C49.25 60 52 57.375 52 54V34C52 30.75 49.25 28 46 28H10ZM30 39V49C30 50.125 29 51 28 51C26.875 51 26 50.125 26 49V39C26 38 26.875 37 28 37C29 37 30 38 30 39Z" fill="#777777"/>
</svg>
