<svg width="64" height="56" viewBox="0 0 64 56" fill="none" xmlns="http://www.w3.org/2000/svg">
<path id="triangle-exclamation" d="M4.25 48.625C4 49 4 49.375 4 49.75C4 51 5 52.125 6.25 52.125H57.625C58.875 52.125 60 51 60 49.75C60 49.375 59.875 49 59.625 48.625L34.5 5.5C34 4.625 33 4 32 4C30.875 4 29.875 4.625 29.375 5.5L4.25 48.625ZM0.75 46.625L25.875 3.5C27.125 1.375 29.5 0 32 0C34.375 0 36.75 1.375 38 3.5L63.125 46.625C63.625 47.5 64 48.625 64 49.75C64 53.25 61.125 56 57.625 56H6.25C2.75 56 0 53.25 0 49.75C0 48.625 0.25 47.5 0.75 46.625ZM32 16C33 16 34 17 34 18V34C34 35.125 33 36 32 36C30.875 36 30 35.125 30 34V18C30 17 30.875 16 32 16ZM29 44C29 42.375 30.25 41 32 41C33.625 41 35 42.375 35 44C35 45.75 33.625 47 32 47C30.25 47 29 45.75 29 44Z" fill="#777777"/>
</svg>
