<svg width="284" height="88" viewBox="0 0 284 88" fill="none" xmlns="http://www.w3.org/2000/svg">
<path d="M13.2402 54.3767C19.5221 55.22 25.0202 53.8022 29.4897 49.7933L36.9716 50.1844L32.8939 62.1744C28.3632 69.3489 21.7874 70.8767 15.0525 70.4244L13.2402 54.3767Z" fill="#7EAABA"/>
<path d="M16.0199 57.09L17.2444 68.09C22.8528 68.09 27.3223 66.22 30.7142 61.1355L33.6653 52.58L30.3836 52.4089C26.3688 55.721 21.2591 57.4167 16.0566 57.1633L16.0199 57.09Z" fill="#D3E8EF"/>
<path d="M16.0199 57.09L16.7546 63.58C24.4569 62.6755 30.4571 59.51 33.5674 52.5066L30.2857 52.3355C26.2949 55.6479 21.2039 57.3446 16.0199 57.09Z" fill="white"/>
<path d="M15.0526 44.99C17.5748 44.9876 20.0411 45.732 22.1393 47.1292C24.2374 48.5263 25.8732 50.5133 26.8395 52.8387C27.8058 55.1641 28.0593 57.7233 27.5678 60.1925C27.0764 62.6617 25.8621 64.93 24.0786 66.7101C22.2951 68.4902 20.0226 69.7022 17.5487 70.1928C15.0748 70.6833 12.5108 70.4303 10.181 69.4658C7.85122 68.5013 5.86049 66.8686 4.46072 64.7744C3.06096 62.6802 2.31509 60.2186 2.31751 57.7011C2.32398 54.3319 3.66779 51.1025 6.05468 48.7201C8.44158 46.3377 11.677 44.9965 15.0526 44.99Z" fill="#7EAABA"/>
<path d="M15.0525 47.4711C13.0346 47.4687 11.0613 48.0637 9.38221 49.181C7.70317 50.2982 6.39386 51.8874 5.61994 53.7476C4.84603 55.6077 4.64228 57.6552 5.03448 59.6309C5.42667 61.6067 6.39719 63.4219 7.82324 64.847C9.2493 66.2721 11.0668 67.2429 13.0458 67.6368C15.0248 68.0306 17.0764 67.8297 18.941 67.0595C20.8055 66.2892 22.3993 64.9843 23.5207 63.3098C24.6421 61.6352 25.2406 59.6663 25.2406 57.6522C25.2422 56.3158 24.9799 54.9921 24.4686 53.757C23.9573 52.5218 23.2071 51.3994 22.2609 50.4538C21.3147 49.5082 20.191 48.7581 18.9542 48.2463C17.7173 47.7345 16.3915 47.4711 15.0525 47.4711Z" fill="#D3E8EF"/>
<path d="M15.0526 47.4711C13.4074 47.4628 11.7849 47.8546 10.3255 48.6127C8.86615 49.3708 7.6138 50.4725 6.67682 51.8223C6.85014 54.4057 7.99734 56.8278 9.88758 58.6011C11.7778 60.3744 14.2708 61.3673 16.8649 61.38C18.5101 61.3884 20.1326 60.9966 21.592 60.2385C23.0513 59.4803 24.3037 58.3787 25.2407 57.0289C25.0787 54.4413 23.935 52.0126 22.0423 50.237C20.1496 48.4614 17.6501 47.4723 15.0526 47.4711Z" fill="white"/>
<path d="M13.7545 46.86C15.6389 46.86 17.4809 47.4185 19.0469 48.4648C20.6128 49.511 21.8323 50.9978 22.5506 52.7367C23.2689 54.4755 23.4537 56.3881 23.0816 58.2319C22.7095 60.0757 21.7972 61.7678 20.4604 63.0934C19.1236 64.4191 17.4226 65.3187 15.5729 65.6782C13.7233 66.0377 11.8083 65.8409 10.0708 65.1127C8.33337 64.3846 6.85167 63.1579 5.81359 61.5881C4.77551 60.0184 4.22782 58.1763 4.23994 56.2955C4.24967 53.7854 5.25717 51.3819 7.04115 49.6127C8.82513 47.8435 11.2397 46.8535 13.7545 46.86Z" fill="#7EAABA"/>
<path d="M13.0688 44.3056C14.96 44.308 16.8078 44.8708 18.3782 45.9225C19.9486 46.9742 21.1709 48.4676 21.8901 50.2134C22.6093 51.9591 22.793 53.8787 22.4181 55.7288C22.0432 57.579 21.1265 59.2764 19.7841 60.6059C18.4417 61.9355 16.7341 62.8374 14.8776 63.1973C13.0212 63.5572 11.0995 63.359 9.35601 62.6277C7.61255 61.8964 6.12584 60.665 5.08426 59.0895C4.04269 57.514 3.49314 55.6653 3.50526 53.7778C3.52461 51.2566 4.53996 48.8449 6.33069 47.0667C8.12141 45.2885 10.5428 44.2875 13.0688 44.2811" fill="#7F3E13"/>
<path d="M13.975 47.9233C12.4734 47.9233 11.0055 48.3678 9.75702 49.2004C8.50851 50.0331 7.53542 51.2166 6.96079 52.6012C6.38616 53.9859 6.23581 55.5095 6.52876 56.9795C6.8217 58.4494 7.54477 59.7996 8.60654 60.8594C9.66832 61.9192 11.0211 62.6409 12.4938 62.9333C13.9665 63.2257 15.493 63.0756 16.8803 62.5021C18.2676 61.9285 19.4533 60.9573 20.2875 59.7111C21.1218 58.4649 21.567 56.9999 21.567 55.5011C21.5638 53.4924 20.7629 51.5668 19.3398 50.1464C17.9167 48.726 15.9875 47.9266 13.975 47.9233Z" fill="#B85A1B"/>
<path d="M8.2564 36.6667C8.2564 35.5646 8.69504 34.5076 9.47583 33.7283C10.2566 32.949 11.3156 32.5112 12.4198 32.5112C13.524 32.5112 14.583 32.949 15.3638 33.7283C16.1446 34.5076 16.5832 35.5646 16.5832 36.6667C18.8976 32.7556 26.208 34.9067 23.9304 41.0178C24.0548 41.5004 24.1489 41.9902 24.212 42.4845C28.1795 42.7045 29.4775 48.8645 24.0406 50.7956C23.6359 52.3785 22.9061 53.8601 21.8976 55.1467C17.2444 59.1556 15.775 55.8801 13.228 53.1667C10.7789 53.1667 4.16648 51.5289 6.04001 57.7378C1.80314 55.0001 -0.915315 49.5123 1.1174 41.4823C-1.71126 34.9801 5.81959 32.5601 8.2564 36.5934V36.6667Z" fill="#7F3E13"/>
<path d="M3.67673 42.3867C2.70936 46.2856 2.64813 50.6978 5.42781 53.8633C9.33405 58.3245 17.2568 58.1045 20.3181 52.5067C21.9589 49.4511 21.8487 45.6622 21.163 42.3378C15.3923 41.1766 9.44744 41.1766 3.67673 42.3378V42.3867Z" fill="#B85A1B"/>
<path d="M3.67673 42.3867C2.70936 46.2856 2.64813 50.6978 5.42781 53.8633C6.31725 54.8388 7.40051 55.6186 8.60855 56.1531C9.8166 56.6876 11.1229 56.965 12.4444 56.9678V41.4822C9.49966 41.5049 6.56383 41.8077 3.67673 42.3867Z" fill="#E1762F"/>
<path d="M7.52167 45.3812C7.14851 46.4475 7.04603 47.5895 7.2234 48.705C7.40077 49.8205 7.85245 50.8748 8.53803 51.7734C9.07315 52.3815 9.74536 52.854 10.4993 53.152C11.2532 53.4501 12.0673 53.565 12.8745 53.4874C13.6817 53.4098 14.4588 53.1419 15.1419 52.7058C15.8251 52.2697 16.3946 51.6778 16.8036 50.9789C17.6074 49.2064 17.7676 47.2099 17.2567 45.3323C14.0447 44.6784 10.7336 44.6784 7.52167 45.3323" fill="#7F3E13"/>
<path d="M12.3953 39.3922C12.9531 39.3507 13.4746 39.1003 13.8551 38.6912C14.2356 38.282 14.4471 37.7444 14.4471 37.1861C14.4471 36.6278 14.2356 36.0902 13.8551 35.681C13.4746 35.2719 12.9531 35.0214 12.3953 34.98V39.3922ZM20.3793 36.6666C20.8147 36.6691 21.2396 36.8001 21.6005 37.0433C21.9613 37.2865 22.2419 37.631 22.4069 38.0332C22.5718 38.4354 22.6137 38.8773 22.5273 39.3033C22.4409 39.7292 22.23 40.1201 21.9213 40.4265C21.6125 40.733 21.2198 40.9413 20.7925 41.0252C20.3653 41.1091 19.9228 41.0648 19.5207 40.898C19.1187 40.7311 18.7751 40.4491 18.5335 40.0876C18.2918 39.7261 18.1629 39.3012 18.1629 38.8666C18.1661 38.282 18.401 37.7225 18.8163 37.3103C19.2316 36.898 19.7935 36.6666 20.3793 36.6666Z" fill="#B85A1B"/>
<path d="M4.86447 36.85C5.42225 36.8914 5.9437 37.1419 6.32423 37.551C6.70476 37.9602 6.91623 38.4978 6.91623 39.0561C6.91623 39.6143 6.70476 40.152 6.32423 40.5611C5.9437 40.9703 5.42225 41.2207 4.86447 41.2622C4.29077 41.2505 3.74291 41.0219 3.33152 40.6226C2.92012 40.2234 2.67587 39.6831 2.64807 39.1111C2.65131 38.5265 2.88625 37.9669 3.30155 37.5547C3.71686 37.1425 4.27876 36.9111 4.86447 36.9111V36.85ZM12.3953 39.4533V35.0411C11.8211 35.0628 11.2769 35.3026 10.874 35.7116C10.4711 36.1205 10.24 36.6677 10.2279 37.2411C10.2295 37.5283 10.2883 37.8123 10.401 38.0766C10.5137 38.3409 10.678 38.5801 10.8843 38.7804C11.0906 38.9806 11.3348 39.1378 11.6027 39.2429C11.8705 39.3479 12.1566 39.3987 12.4443 39.3922L12.3953 39.4533Z" fill="#E1762F"/>
<path d="M22.8651 44.5988C23.301 44.5988 23.7271 44.7279 24.0896 44.9696C24.4521 45.2113 24.7346 45.5549 24.9014 45.9569C25.0682 46.3589 25.1119 46.8013 25.0269 47.228C24.9418 47.6548 24.7319 48.0468 24.4236 48.3545C24.1154 48.6621 23.7226 48.8717 23.2951 48.9566C22.8675 49.0414 22.4243 48.9979 22.0216 48.8314C21.6188 48.6648 21.2746 48.3829 21.0324 48.0211C20.7902 47.6593 20.6609 47.2339 20.6609 46.7988C20.6559 46.5086 20.7095 46.2202 20.8186 45.9511C20.9276 45.6819 21.0897 45.4374 21.2954 45.2321C21.5011 45.0268 21.746 44.865 22.0157 44.7562C22.2854 44.6474 22.5742 44.5939 22.8651 44.5988Z" fill="#B85A1B"/>
<path d="M98.6266 70.5955C98.1245 63.9833 95.1244 59.2289 89.2344 56.6867L90.459 52.1155L99.9736 49.5611C108.239 52.0055 111.411 57.3711 112.99 63.9833L98.6633 70.5955H98.6266Z" fill="#7EAABA"/>
<path d="M100.61 66.9778L110.076 62.5656C108.423 57.0289 105.655 53.4722 99.8267 52.0544L92.406 54.0344L92.0632 55.2567C94.2414 56.4879 96.1323 58.1676 97.6102 60.1843C99.088 62.2009 100.119 64.5084 100.635 66.9533L100.61 66.9778Z" fill="white"/>
<path d="M89.4549 71.72C88.6905 69.4019 88.6317 66.9096 89.2858 64.5581C89.94 62.2065 91.2778 60.1013 93.1302 58.5084C94.9827 56.9155 97.2666 55.9064 99.6934 55.6086C102.12 55.3107 104.581 55.7376 106.765 56.8351C108.949 57.9327 110.758 59.6517 111.963 61.775C113.168 63.8983 113.716 66.3306 113.537 68.7645C113.358 71.1984 112.46 73.5248 110.957 75.4496C109.454 77.3745 107.413 78.8114 105.092 79.5789C103.549 80.0927 101.919 80.2968 100.296 80.1795C98.6728 80.0622 97.0892 79.6259 95.636 78.8955C94.1827 78.1651 92.8885 77.1552 91.8277 75.9237C90.7669 74.6923 89.9605 73.2636 89.4549 71.72Z" fill="#7EAABA"/>
<path d="M91.4999 71.0478C92.1338 72.964 93.3226 74.6496 94.9161 75.8916C96.5096 77.1336 98.4362 77.8762 100.452 78.0255C102.469 78.1749 104.484 77.7242 106.244 76.7306C108.003 75.737 109.429 74.2449 110.339 72.4431C111.249 70.6412 111.604 68.6105 111.358 66.6075C111.112 64.6045 110.277 62.7191 108.958 61.1898C107.639 59.6604 105.896 58.5557 103.948 58.0152C102 57.4748 99.9349 57.5228 98.0144 58.1533C96.737 58.571 95.5548 59.2363 94.5355 60.111C93.5163 60.9857 92.6801 62.0526 92.0749 63.2505C91.4696 64.4485 91.1073 65.7539 91.0086 67.092C90.91 68.43 91.0769 69.7743 91.4999 71.0478Z" fill="#D3E8EF"/>
<path d="M111.313 66.4645C111.241 65.8503 111.11 65.2445 110.921 64.6556C110.502 63.382 109.836 62.2033 108.961 61.187C108.085 60.1706 107.018 59.3366 105.819 58.7326C104.62 58.1287 103.314 57.7666 101.974 57.6672C100.635 57.5678 99.2895 57.733 98.0143 58.1534C96.4368 58.6966 95.0015 59.5863 93.8142 60.7567C93.8961 61.3702 94.0313 61.9754 94.2183 62.5656C95.0691 65.1339 96.9056 67.2606 99.325 68.4795C101.744 69.6984 104.549 69.9099 107.125 69.0678C108.724 68.5795 110.168 67.682 111.313 66.4645Z" fill="white"/>
<path d="M87.1405 74.8856C86.4164 72.6992 86.3586 70.3475 86.9744 68.1283C87.5902 65.909 88.8519 63.9221 90.5997 62.419C92.3475 60.9159 94.5029 59.9642 96.7929 59.6844C99.0829 59.4047 101.405 59.8095 103.464 60.8475C105.523 61.8856 107.228 63.5102 108.362 65.5157C109.496 67.5212 110.008 69.8174 109.833 72.1136C109.659 74.4098 108.806 76.6026 107.382 78.4146C105.958 80.2265 104.028 81.576 101.835 82.2923C100.383 82.7716 98.8504 82.9602 97.3253 82.8472C95.8001 82.7342 94.3123 82.3218 92.9472 81.6337C91.582 80.9456 90.3664 79.9953 89.37 78.8373C88.3735 77.6793 87.6159 76.3364 87.1405 74.8856Z" fill="#7F3E13"/>
<path d="M89.5161 74.1522C88.9448 72.4313 88.8977 70.58 89.3805 68.8323C89.8634 67.0847 90.8546 65.5191 92.2288 64.3337C93.603 63.1483 95.2986 62.3962 97.101 62.1726C98.9035 61.9489 100.732 62.2637 102.355 63.0772C103.978 63.8907 105.323 65.1663 106.22 66.7428C107.117 68.3193 107.526 70.1258 107.394 71.9339C107.262 73.742 106.596 75.4706 105.48 76.901C104.364 78.3314 102.849 79.3994 101.125 79.97C98.8122 80.7319 96.2915 80.5473 94.1152 79.4567C91.939 78.3661 90.285 76.4584 89.5161 74.1522Z" fill="#B85A1B"/>
<path d="M89.1243 69.8011C89.3954 68.1298 90.1179 66.564 91.2139 65.2719C92.3099 63.9798 93.7381 63.0103 95.3449 62.4677C96.4938 62.0897 97.7061 61.9416 98.9124 62.032C100.119 62.1223 101.295 62.4494 102.375 62.9943C103.454 63.5393 104.416 64.2915 105.203 65.2079C105.991 66.1242 106.59 67.1867 106.966 68.3344C107.204 69.0679 107.357 69.8267 107.419 70.5955C104.655 72.3425 101.421 73.2029 98.1528 73.0609C94.8843 72.9188 91.7379 71.7812 89.1365 69.8011H89.1243Z" fill="#E1762F"/>
<path d="M46.7679 0C49.0621 0.0703549 51.2357 1.04211 52.8157 2.70386C54.3957 4.36561 55.2544 6.5829 55.2049 8.87333C55.2375 10.0096 55.0448 11.1411 54.6379 12.2029C54.2311 13.2646 53.618 14.2356 52.834 15.0602C52.05 15.8847 51.1105 16.5465 50.0695 17.0075C49.0285 17.4686 47.9065 17.7198 46.7679 17.7467C44.4834 17.6637 42.3235 16.6861 40.7559 15.0253C39.1883 13.3646 38.3391 11.1544 38.3921 8.87333C38.3391 6.59224 39.1883 4.38208 40.7559 2.72134C42.3235 1.06061 44.4834 0.0829416 46.7679 0" fill="#7F3E13"/>
<path d="M46.7678 2.44446C45.1306 2.52065 43.5897 3.23867 42.4799 4.44246C41.3702 5.64626 40.7812 7.23857 40.8411 8.87335C40.7845 10.5125 41.3775 12.1079 42.4915 13.3136C43.6056 14.5194 45.1508 15.2382 46.7923 15.3145C48.435 15.2446 49.9828 14.5272 51.0962 13.3197C52.2096 12.1121 52.7976 10.5131 52.7312 8.87335C52.778 7.23593 52.1797 5.64548 51.0647 4.44348C49.9498 3.24148 48.407 2.52378 46.7678 2.44446Z" fill="#B85A1B"/>
<path d="M46.7679 4.88885C46.2732 4.92595 45.7906 5.0601 45.348 5.28362C44.9053 5.50714 44.5111 5.81563 44.1881 6.19143C43.865 6.56723 43.6194 7.00296 43.4654 7.47364C43.3113 7.94433 43.2518 8.44073 43.2902 8.93441C43.2422 9.9267 43.5817 10.8989 44.2371 11.6465C44.8925 12.3942 45.8129 12.859 46.8046 12.9433C47.7959 12.8682 48.7171 12.4043 49.3666 11.653C50.016 10.9017 50.3409 9.92419 50.27 8.93441C50.3312 7.93716 49.999 6.95562 49.3445 6.19962C48.6901 5.44362 47.7653 4.97318 46.7679 4.88885Z" fill="#63300F"/>
<path d="M82.5485 0C84.8535 0.0544972 87.0427 1.01932 88.6358 2.6828C90.229 4.34629 91.0961 6.5726 91.0468 8.87333C91.1085 10.0174 90.9361 11.162 90.54 12.2373C90.1439 13.3126 89.5325 14.2961 88.7429 15.1278C87.9534 15.9594 87.0024 16.6218 85.9479 17.0744C84.8935 17.5271 83.7576 17.7605 82.6098 17.7605C81.4619 17.7605 80.3261 17.5271 79.2716 17.0744C78.2171 16.6218 77.2661 15.9594 76.4766 15.1278C75.6871 14.2961 75.0756 13.3126 74.6795 12.2373C74.2834 11.162 74.111 10.0174 74.1728 8.87333C74.1229 6.59313 74.9732 4.38477 76.5402 2.72473C78.1071 1.0647 80.2651 0.0860682 82.5485 0" fill="#7F3E13"/>
<path d="M82.5486 2.44446C80.9059 2.51433 79.3581 3.23173 78.2447 4.43926C77.1313 5.64679 76.5433 7.24584 76.6096 8.88557C76.5451 9.70404 76.6509 10.527 76.9204 11.3026C77.19 12.0783 77.6173 12.79 78.1757 13.3928C78.734 13.9957 79.4113 14.4767 80.1649 14.8058C80.9185 15.1348 81.7322 15.3046 82.5547 15.3046C83.3772 15.3046 84.1909 15.1348 84.9445 14.8058C85.6981 14.4767 86.3754 13.9957 86.9337 13.3928C87.4921 12.79 87.9194 12.0783 88.189 11.3026C88.4585 10.527 88.5643 9.70404 88.4998 8.88557C88.5468 7.24894 87.9505 5.65889 86.8385 4.45527C85.7264 3.25165 84.1867 2.52996 82.5486 2.44446Z" fill="#B85A1B"/>
<path d="M82.5486 4.88885C82.0529 4.92143 81.5685 5.05143 81.1233 5.27138C80.6781 5.49133 80.2808 5.7969 79.9543 6.17054C79.6277 6.54418 79.3783 6.97852 79.2204 7.44864C79.0625 7.91875 78.9992 8.41537 79.0342 8.90997C78.9862 9.90226 79.3256 10.8745 79.9811 11.6221C80.6365 12.3698 81.5568 12.8346 82.5486 12.9189C83.0437 12.8878 83.5278 12.7593 83.973 12.5406C84.4181 12.322 84.8155 12.0175 85.1422 11.6449C85.4689 11.2722 85.7184 10.8387 85.8765 10.3693C86.0345 9.8999 86.0979 9.40392 86.063 8.90997C86.1142 7.91562 85.7763 6.94032 85.1205 6.19002C84.4648 5.43972 83.5425 4.97316 82.5486 4.88885Z" fill="#4F2800"/>
<path d="M95.9449 31.8755H95.7857V15.2655C95.7857 10.2666 84.0302 7.45553 70.7441 6.79553C70.7537 6.44884 70.6949 6.10365 70.5708 5.77966C70.4468 5.45568 70.2601 5.15924 70.0213 4.90729C69.7825 4.65533 69.4964 4.45279 69.1792 4.31122C68.8619 4.16965 68.5199 4.09183 68.1726 4.0822C67.8252 4.07256 67.4794 4.13131 67.1548 4.25509C66.8302 4.37886 66.5332 4.56524 66.2808 4.80358C65.7709 5.28492 65.4736 5.94869 65.4541 6.64886H63.899C63.8384 5.97661 63.5233 5.3527 63.0179 4.90425C62.5125 4.4558 61.8548 4.21655 61.1788 4.23525C60.5028 4.25395 59.8594 4.52918 59.3797 5.00489C58.8999 5.48059 58.6199 6.12096 58.5967 6.79553C45.3229 7.43108 33.5674 10.2422 33.5674 15.2044V31.7778H33.396C32.2247 32.2202 31.2176 33.0105 30.5103 34.042C29.8031 35.0735 29.4298 36.2967 29.4407 37.5466V49.6955L64.6582 61.1111L99.8756 49.5244V37.6444C99.8884 36.3974 99.5187 35.1763 98.8161 34.1451C98.1134 33.1139 97.1115 32.3219 95.9449 31.8755Z" fill="#7F3E13"/>
<path d="M36.3961 15.8889V33.7455L34.9266 34.3078C34.1399 34.5939 33.4617 35.1168 32.9857 35.8043C32.5097 36.4918 32.2594 37.3099 32.2694 38.1455V50.6978L64.7071 61.1111L97.1694 50.4655V38.1455C97.1778 37.3169 96.9325 36.5054 96.4665 35.8196C96.0004 35.1338 95.3356 34.6064 94.5611 34.3078L93.0917 33.7455V15.8889C93.0305 7.41888 36.5185 7.41888 36.4573 15.8889H36.3961Z" fill="#B85A1B"/>
<path d="M36.3961 15.8889V33.7456L34.9266 34.3078C34.1399 34.5939 33.4617 35.1168 32.9857 35.8043C32.5097 36.4918 32.2594 37.3099 32.2694 38.1456V50.6978L64.7071 61.1111V54.3156C53.5027 54.3767 42.286 46.9822 45.2371 32.4989H64.7071V9.5578C50.5516 9.5578 36.3961 11.6967 36.3961 15.8889Z" fill="#E1762F"/>
<path d="M43.7065 28.71H85.7813C91.7203 60.2434 37.2532 60.0234 43.7065 28.71Z" fill="#E5895B"/>
<path d="M45.7393 31.2033C45.176 36.0922 46.1923 40.7489 49.8169 44.4278C53.6742 48.2655 59.4417 49.9033 64.7684 49.8544C70.0951 49.8055 75.3606 48.2166 79.1566 44.5989C80.9095 42.8674 82.228 40.7472 83.0047 38.4109C83.7813 36.0747 83.9943 33.5884 83.6262 31.1544L45.7393 31.2033Z" fill="#E5895B"/>
<path d="M71.7359 45.8944C74.5646 49.5611 82.8301 48.0455 80.3076 40.2966L71.7359 45.8944Z" fill="#FAD395"/>
<path d="M69.1277 45.1C72.2992 49.17 82.5975 46.7378 80.2342 37.9255L69.1277 45.1Z" fill="#4F2800"/>
<path d="M78.6423 38.3167C78.9572 38.2431 79.2885 38.297 79.5639 38.4665C79.8392 38.6359 80.0361 38.9072 80.1117 39.2211C80.2119 39.3826 80.273 39.5651 80.2902 39.7543C80.3074 39.9434 80.2802 40.134 80.2107 40.3108C80.1413 40.4876 80.0315 40.6458 79.8901 40.7729C79.7487 40.9 79.5796 40.9925 79.3961 41.0429C79.2127 41.0934 79.02 41.1005 78.8333 41.0637C78.6466 41.0269 78.4711 40.9472 78.3207 40.8308C78.1703 40.7145 78.0491 40.5648 77.9668 40.3936C77.8844 40.2224 77.8432 40.0343 77.8463 39.8444C77.7502 39.5365 77.7799 39.2031 77.929 38.9169C78.0781 38.6307 78.3345 38.4149 78.6423 38.3167ZM71.9074 43.01C72.2223 42.9365 72.5536 42.9903 72.8289 43.1598C73.1043 43.3292 73.3012 43.6005 73.3768 43.9144C73.473 44.2224 73.4433 44.5558 73.2942 44.842C73.1451 45.1282 72.8887 45.3439 72.5809 45.4422C72.2659 45.5157 71.9346 45.4619 71.6593 45.2924C71.384 45.123 71.187 44.8517 71.1114 44.5378C71.0153 44.2298 71.045 43.8964 71.1941 43.6102C71.3432 43.324 71.5996 43.1083 71.9074 43.01Z" fill="white"/>
<path d="M76.034 46.6889C77.2432 46.3346 78.3195 45.6295 79.1262 44.6633C79.933 43.697 80.4337 42.5132 80.5648 41.2622C78.7525 40.9811 75.5809 43.7066 76.034 46.6889Z" fill="#AD6151"/>
<path d="M48.0046 28.71H81.3607C86.1119 51.26 42.9105 51.04 48.0046 28.71Z" fill="#FAD395"/>
<path d="M64.6582 41.5555C64.8699 40.2023 65.4124 38.9219 66.2378 37.8278C70.2665 37.2044 73.7197 34.1611 72.6421 28.7222C70.0922 27.8286 67.4097 27.37 64.7072 27.3655L63.0663 32.5111L64.6582 41.5555Z" fill="#4F2800"/>
<path d="M64.6582 41.5555C64.4419 40.2014 63.8952 38.9212 63.0663 37.8278C59.0499 37.2044 55.5967 34.1611 56.6743 28.7222C59.2203 27.8298 61.8985 27.3712 64.597 27.3655L64.6582 41.5555Z" fill="#63300F"/>
<path d="M58.7682 29.5045C62.6454 28.4873 66.72 28.4873 70.5972 29.5045C72.2503 33.6233 56.9559 33.5745 58.7682 29.5045Z" fill="#AD6151"/>
<path d="M58.3151 18.0277C59.2026 18.0253 60.0708 18.2859 60.8097 18.7765C61.5486 19.2671 62.1249 19.9656 62.4656 20.7835C62.8064 21.6014 62.8961 22.5019 62.7236 23.3708C62.5511 24.2396 62.124 25.0378 61.4964 25.6642C60.8689 26.2905 60.0692 26.7168 59.1987 26.889C58.3282 27.0612 57.426 26.9716 56.6066 26.6315C55.7872 26.2914 55.0873 25.7162 54.5958 24.9787C54.1043 24.2412 53.8432 23.3746 53.8456 22.4888C53.8488 21.3067 54.3208 20.1738 55.1583 19.3379C55.9958 18.502 57.1307 18.031 58.3151 18.0277Z" fill="white"/>
<path d="M58.6581 19.6167C59.3198 19.6167 59.9666 19.8127 60.5166 20.1799C61.0666 20.5471 61.495 21.0689 61.7477 21.6793C62.0004 22.2897 62.0658 22.9613 61.9359 23.6088C61.8059 24.2564 61.4863 24.8509 61.0175 25.3171C60.5488 25.7832 59.952 26.1001 59.3027 26.2274C58.6534 26.3548 57.9809 26.287 57.3703 26.0325C56.7596 25.7781 56.2384 25.3486 55.8725 24.7982C55.5067 24.2479 55.3127 23.6016 55.3151 22.9412C55.3118 22.5026 55.3961 22.0679 55.5631 21.6623C55.7301 21.2566 55.9764 20.8883 56.2877 20.5788C56.5989 20.2693 56.9688 20.0248 57.3758 19.8596C57.7828 19.6944 58.2187 19.6118 58.6581 19.6167Z" fill="#1B1D23"/>
<path d="M71.1114 18.0277C70.224 18.0253 69.3558 18.2859 68.6169 18.7765C67.878 19.2671 67.3017 19.9656 66.9609 20.7835C66.6202 21.6014 66.5304 22.5019 66.703 23.3708C66.8755 24.2396 67.3026 25.0378 67.9301 25.6642C68.5576 26.2905 69.3573 26.7168 70.2279 26.889C71.0984 27.0612 72.0005 26.9716 72.82 26.6315C73.6394 26.2914 74.3392 25.7162 74.8308 24.9787C75.3223 24.2412 75.5834 23.3746 75.581 22.4888C75.5777 21.3067 75.1058 20.1738 74.2683 19.3379C73.4308 18.502 72.2958 18.031 71.1114 18.0277Z" fill="white"/>
<path d="M70.8298 19.6166C70.1681 19.6166 69.5213 19.8126 68.9713 20.1798C68.4213 20.547 67.9928 21.0688 67.7402 21.6793C67.4875 22.2897 67.422 22.9612 67.552 23.6088C67.682 24.2563 68.0016 24.8509 68.4704 25.317C68.9391 25.7832 69.5359 26.1 70.1852 26.2273C70.8345 26.3547 71.507 26.2869 72.1176 26.0325C72.7283 25.778 73.2495 25.3485 73.6154 24.7982C73.9812 24.2478 74.1752 23.6015 74.1728 22.9411C74.1601 22.0612 73.8034 21.2212 73.1789 20.6001C72.5543 19.979 71.7114 19.6261 70.8298 19.6166Z" fill="#1B1D23"/>
<path d="M61.5479 16.6223C59.9771 16.2696 58.3516 16.2328 56.7664 16.514C55.1811 16.7952 53.6679 17.3887 52.315 18.26C51.3476 12.7723 60.5806 11.1345 61.5479 16.6223Z" fill="#63300F"/>
<path d="M66.9725 13.8478C68.5434 13.4951 70.1688 13.4583 71.7541 13.7395C73.3393 14.0207 74.8526 14.6143 76.2055 15.4856C77.1728 9.99779 68.0011 8.42112 66.9725 13.8478Z" fill="#4F2800"/>
<path d="M99.8267 49.5611V83.7833C99.8267 84.8974 99.385 85.9663 98.598 86.7563C97.811 87.5464 96.7428 87.9935 95.6266 88H33.5675C32.4588 87.9936 31.3973 87.5511 30.6133 86.7686C29.8293 85.9861 29.386 84.9266 29.3796 83.82V49.9033L64.597 58.3244L99.8267 49.5611Z" fill="#7EAABA"/>
<path d="M97.0469 53.13L64.6582 61.1111L32.2694 53.4111V83.1111C32.2644 83.387 32.3152 83.661 32.4186 83.9168C32.5221 84.1726 32.6761 84.405 32.8716 84.6C33.067 84.7951 33.2998 84.9489 33.5561 85.0522C33.8124 85.1554 34.087 85.2061 34.3633 85.2011H95.002C95.2844 85.2163 95.5669 85.1732 95.8318 85.0745C96.0968 84.9758 96.3385 84.8236 96.5419 84.6275C96.7453 84.4314 96.906 84.1955 97.014 83.9346C97.1219 83.6737 97.1748 83.3933 97.1694 83.1111V53.13H97.0469Z" fill="#D3E8EF"/>
<path d="M64.6582 61.1111L32.2694 53.4111V83.1111C32.2643 83.388 32.3155 83.663 32.4197 83.9196C32.5239 84.1763 32.6791 84.4092 32.8758 84.6045C33.0726 84.7997 33.3069 84.9532 33.5646 85.0558C33.8224 85.1583 34.0982 85.2077 34.3756 85.2011H64.7071V61.1111H64.6582Z" fill="white"/>
<path d="M64.7072 77H91.8427V80.6667H64.7194V77H64.7072ZM64.7072 69.4833H91.8427V73.15H64.7194V69.4833H64.7072Z" fill="#036AAB"/>
<path d="M64.7071 80.6667V77H37.4736V80.6667H64.7071ZM37.4736 69.52H64.7071V73.1867H37.4736V69.52Z" fill="#0399ED"/>
<path d="M48.5189 67.1489H51.9108V83.7589H48.5189V67.1489Z" fill="white"/>
<path d="M38.9431 52.1155C47.5148 54.1444 56.0865 56.2344 64.6582 58.2267L55.5355 66.9167C49.5843 63.4089 43.6943 59.5833 38.9921 52.1155" fill="#7EAABA"/>
<path d="M46.1923 56.7478C48.8796 59.3132 51.8641 61.5494 55.0823 63.4089L58.9396 59.7422C54.7517 58.7767 50.4414 57.7011 46.1923 56.7478Z" fill="white"/>
<path d="M90.361 52.1155C81.7893 54.1444 73.2176 56.2344 64.6459 58.2267L73.8177 66.8678C79.7689 63.36 85.6466 59.5344 90.3488 52.0667" fill="#7EAABA"/>
<path d="M83.1118 56.7478C80.4292 59.3189 77.4441 61.5556 74.2217 63.4089L70.3767 59.7422C74.6258 58.7767 78.8749 57.7011 83.1118 56.7478Z" fill="white"/>
<path d="M141.508 46.4725C139.633 44.7225 138.57 42.2225 138.57 39.5975V39.285C138.57 34.91 141.695 31.16 146.008 30.4725C148.883 29.9725 151.758 30.91 153.82 32.91L154.57 33.66L155.32 32.91C157.32 30.91 160.258 29.9725 163.07 30.4725C167.383 31.16 170.57 34.91 170.57 39.285V39.5975C170.57 42.2225 169.445 44.7225 167.57 46.4725L156.258 57.035C155.82 57.4725 155.195 57.66 154.57 57.66C153.883 57.66 153.258 57.4725 152.82 57.035L141.508 46.4725Z" fill="#D63638"/>
<g clip-path="url(#clip0_2_373)">
<path d="M230.055 16.1451C230.055 14.7019 228.905 13.5403 227.462 13.4933H212.267C211.317 13.4933 210.437 14.0096 209.979 14.8309L197.964 36.1621C196.978 37.9104 198.246 40.0811 200.252 40.0811H215.423C216.374 40.0693 217.242 39.5531 217.711 38.7317L229.679 17.5179C229.679 17.5179 229.679 17.5179 229.668 17.5179C229.914 17.1189 230.055 16.6496 230.055 16.1451Z" fill="#0065FF"/>
<path d="M283.136 43.8123C283.136 43.3195 282.995 42.8619 282.761 42.4747L268.54 17.2245L257.921 36.0096L261.629 42.5803C261.84 42.9558 261.946 43.3899 261.946 43.8592C261.946 44.2816 261.829 44.6805 261.653 45.0325L247.643 69.9072C247.326 70.3414 247.138 70.8694 247.138 71.456C247.138 72.911 248.312 74.096 249.767 74.1195H264.914C265.865 74.1195 266.745 73.6032 267.202 72.7819L282.878 44.9621C282.878 44.9621 282.866 44.9504 282.855 44.9504C283.019 44.5984 283.125 44.2229 283.125 43.8123H283.136Z" fill="#0065FF"/>
<path d="M268.54 17.2245L266.44 13.4933L256.091 31.6917L255.798 32.208L253.498 36.256C253.956 35.4581 254.812 34.9301 255.798 34.9301C256.678 34.9301 257.464 35.3643 257.945 36.0213L268.54 17.2245Z" fill="#004CBA"/>
<path d="M246.915 13.4933C246.88 13.4933 246.857 13.4933 246.822 13.4933C245.777 13.4933 244.874 14.1035 244.451 14.9835L223.836 51.4155C223.378 52.2251 222.498 52.7883 221.501 52.7883C220.504 52.7883 219.577 52.2016 219.131 51.3568L215.634 45.1616C215.165 44.3285 214.285 43.824 213.335 43.824L198.199 43.8709C196.192 43.8709 194.925 46.0416 195.911 47.7899L210.002 72.7936C210.472 73.6149 211.34 74.1312 212.29 74.1312H230.313C230.336 74.1312 230.36 74.1312 230.383 74.1312C231.392 74.1312 232.249 73.568 232.706 72.7349L245.636 50.0309L253.474 36.256L255.774 32.208L256.067 31.6917L266.428 13.4933H246.915Z" fill="#0065FF"/>
</g>
<defs>
<clipPath id="clip0_2_373">
<rect width="88" height="61.0133" fill="white" transform="translate(195.57 13.4933)"/>
</clipPath>
</defs>
</svg>
