<svg width="64" height="70" viewBox="0 0 64 70" fill="none" xmlns="http://www.w3.org/2000/svg">
<g clip-path="url(#clip0_1767_52816)">
<path d="M9.22525 69.1892H61.6937C62.9675 69.1892 64 68.1566 64 66.8829V12.1081L52.7568 0H9.22525C7.95151 0 6.91895 1.03257 6.91895 2.3063V66.8829C6.91895 68.1566 7.95151 69.1892 9.22525 69.1892Z" fill="#E6EAED"/>
<path d="M52.7567 0L64 12.1081H54.7863C53.6654 12.1081 52.7567 11.1994 52.7567 10.0786V0Z" fill="#AAB5BC"/>
<rect y="39.5947" width="41.5135" height="20.7568" rx="3.45946" fill="#E65054"/>
<path d="M10.968 51.9978H9.65209V55.1648H6.91895V44.7817H10.968C13.6867 44.7817 15.3208 45.9965 15.3208 48.3247C15.3208 50.6674 13.6867 51.9978 10.968 51.9978ZM10.9536 47.0811H9.65209V49.6985H10.9536C12.0382 49.6985 12.6021 49.149 12.6021 48.3536C12.6021 47.5438 12.0382 47.0811 10.9536 47.0811Z" fill="white"/>
<path d="M20.7547 55.1648H16.7056V44.7817H20.7547C24.0374 44.7817 26.1053 46.8931 26.1053 49.9154C26.1053 52.9378 23.9651 55.1648 20.7547 55.1648ZM19.4387 47.1389V52.8076H20.5956C22.4033 52.8076 23.2998 51.8677 23.2998 49.9154C23.2998 48.0789 22.3743 47.1389 20.5956 47.1389H19.4387Z" fill="white"/>
<path d="M30.2563 55.1648H27.5232V44.7817H34.5946V47.1534H30.2563V49.0767H33.886V51.4483H30.2563V55.1648Z" fill="white"/>
<rect x="15.5676" y="8.64844" width="27.6757" height="3.45946" rx="1.72973" fill="#AAB5BC"/>
<rect x="15.5676" y="14.9907" width="38.0541" height="3.45946" rx="1.72973" fill="#AAB5BC"/>
<rect x="15.5676" y="21.333" width="38.0541" height="3.45946" rx="1.72973" fill="#AAB5BC"/>
<rect x="15.5676" y="27.6758" width="38.0541" height="3.45946" rx="1.72973" fill="#AAB5BC"/>
</g>
<defs>
<clipPath id="clip0_1767_52816">
<rect width="64" height="69.1892" rx="3.19581" fill="white"/>
</clipPath>
</defs>
</svg>
