<svg width="32" height="32" viewBox="0 0 32 32" fill="none" xmlns="http://www.w3.org/2000/svg">
<rect x="0.5" y="0.5" width="31" height="31" rx="15.5" fill="white"/>
<rect x="0.5" y="0.5" width="31" height="31" rx="15.5" stroke="#FACFD2"/>
<path d="M18.1399 20.2856V22.7856C18.1399 23.1763 17.8162 23.4999 17.4256 23.4999H14.5684C14.1778 23.4999 13.8542 23.1763 13.8542 22.7856V20.2856C13.8542 19.895 14.1778 19.5714 14.5684 19.5714H17.4256C17.8162 19.5714 18.1399 19.895 18.1399 20.2856ZM18.4747 8.49993L18.1622 17.0714C18.151 17.462 17.8162 17.7856 17.4256 17.7856H14.5684C14.1778 17.7856 13.843 17.462 13.8318 17.0714L13.5193 8.49993C13.5082 8.1093 13.8207 7.78564 14.2113 7.78564H17.7827C18.1734 7.78564 18.4859 8.1093 18.4747 8.49993Z" fill="#D63638"/>
</svg>
