<svg width="568" height="284" viewBox="0 0 568 284" fill="none" xmlns="http://www.w3.org/2000/svg">
<path opacity="0.6" d="M156.378 4.15869L101.579 4.15869C100.707 4.15869 100 3.45165 100 2.57947C100 1.70728 100.707 1.00024 101.579 1.00024L156.378 1.00024C157.25 1.00024 157.957 1.70728 157.957 2.57947C157.957 3.45165 157.25 4.15869 156.378 4.15869Z" fill="#BBBBBB"/>
<rect x="100.64" y="14.7984" width="365.72" height="31.8785" rx="5.36001" fill="white"/>
<rect x="100.64" y="14.7984" width="365.72" height="31.8785" rx="5.36001" stroke="#DDDDDD" stroke-width="1.27997"/>
<path opacity="0.3" d="M263.698 32.3169L116.579 32.3169C115.707 32.3169 115 31.6099 115 30.7377C115 29.8655 115.707 29.1584 116.579 29.1584L263.698 29.1584C264.57 29.1584 265.277 29.8655 265.277 30.7377C265.277 31.6099 264.57 32.3169 263.698 32.3169Z" fill="#BBBBBB"/>
<path opacity="0.6" d="M176.378 70.4756L101.579 70.4756C100.707 70.4756 100 69.7685 100 68.8964C100 68.0242 100.707 67.3171 101.579 67.3171L176.378 67.3171C177.25 67.3171 177.957 68.0242 177.957 68.8964C177.957 69.7685 177.25 70.4756 176.378 70.4756Z" fill="#BBBBBB"/>
<rect x="100.64" y="81.1153" width="365.72" height="31.8785" rx="5.36001" fill="white"/>
<rect x="100.64" y="81.1153" width="365.72" height="31.8785" rx="5.36001" stroke="#DDDDDD" stroke-width="1.27997"/>
<path opacity="0.3" d="M233.698 98.6338L116.579 98.6338C115.707 98.6338 115 97.9267 115 97.0546C115 96.1824 115.707 95.4753 116.579 95.4753L233.698 95.4753C234.57 95.4753 235.277 96.1824 235.277 97.0546C235.277 97.9267 234.57 98.6338 233.698 98.6338Z" fill="#BBBBBB"/>
<g opacity="0.75">
<rect x="100" y="133.634" width="367" height="93.1584" rx="6" fill="#EBF3FC"/>
</g>
<path d="M448.088 146.396L436.924 153.37L438.835 167.512L445.965 166.841L442.441 156.537L453.29 147.346L448.088 146.396Z" fill="#172554"/>
<g filter="url(#filter0_d_720_15395)">
<path d="M123.097 181.962C122.938 178.652 125.492 175.84 128.802 175.681L483.393 158.648C486.703 158.489 489.515 161.044 489.674 164.354L493.56 245.26C493.719 248.57 491.165 251.382 487.855 251.541L133.264 268.574C129.954 268.733 127.142 266.178 126.983 262.868L123.097 181.962Z" fill="white"/>
</g>
<g filter="url(#filter1_d_720_15395)">
<path fill-rule="evenodd" clip-rule="evenodd" d="M483.454 159.927L128.863 176.959C126.259 177.084 124.25 179.296 124.375 181.9L128.261 262.807C128.386 265.411 130.599 267.42 133.202 267.295L487.793 250.263C490.397 250.138 492.407 247.926 492.282 245.322L488.395 164.415C488.27 161.811 486.058 159.802 483.454 159.927ZM128.802 175.681C125.492 175.84 122.938 178.652 123.097 181.962L126.983 262.868C127.142 266.178 129.954 268.733 133.264 268.574L487.855 251.541C491.165 251.382 493.719 248.57 493.56 245.26L489.674 164.354C489.515 161.044 486.703 158.489 483.393 158.648L128.802 175.681Z" fill="#CCCCCC"/>
</g>
<path opacity="0.3" d="M266.38 186.894L139.407 192.996C138.536 193.038 137.796 192.366 137.754 191.495C137.712 190.624 138.385 189.883 139.256 189.842L266.228 183.739C267.099 183.697 267.839 184.37 267.881 185.241C267.923 186.112 267.251 186.852 266.38 186.894Z" fill="#BBBBBB"/>
<g clip-path="url(#clip0_720_15395)">
<path d="M514.72 128.25C510.53 125.2 505.48 123.61 500.35 123.19C494.6 122.72 488.8 123.52 483.21 124.85C477.27 126.26 471.52 128.44 466.12 131.29C465.45 131.64 464.78 132.01 464.12 132.38C463.34 132.82 464.14 133.97 464.91 133.53C470.04 130.62 475.53 128.36 481.22 126.79C486.57 125.32 492.17 124.36 497.73 124.44C502.76 124.52 507.8 125.62 512.15 128.21C516.12 130.57 519.29 134.17 520.68 138.61C522.02 142.89 521.76 147.69 519.86 151.77C519.62 152.28 519.36 152.78 519.07 153.26C518.61 154.04 519.87 154.64 520.33 153.87C522.74 149.77 523.46 144.77 522.51 140.13C521.52 135.3 518.69 131.14 514.72 128.24V128.25Z" fill="#6EB0F5"/>
<path d="M529.57 226.77C524.89 226.16 520.38 224.44 516.43 221.88C512.41 219.28 509 215.78 506.55 211.66C504 207.38 502.48 202.48 502.13 197.51C501.77 192.32 502.79 187.22 504.69 182.4C506.65 177.43 509.45 172.83 512.29 168.32C512.65 167.75 513 167.19 513.36 166.63C513.84 165.87 512.63 165.17 512.15 165.93C509.2 170.58 506.25 175.26 504.05 180.32C501.89 185.28 500.53 190.57 500.66 196.01C500.78 201.19 502.11 206.34 504.53 210.93C506.87 215.37 510.25 219.19 514.31 222.13C518.27 225 522.89 227 527.69 227.89C528.31 228 528.94 228.1 529.57 228.18C529.94 228.23 530.27 227.82 530.27 227.48C530.27 227.06 529.95 226.83 529.57 226.78V226.77Z" fill="#BBCACC"/>
<path d="M539.77 190.52C537.31 184.47 533.55 178.99 528.8 174.52C526.2 172.07 523.3 169.92 520.2 168.14C519.42 167.69 518.72 168.9 519.5 169.35C524.85 172.42 529.55 176.6 533.19 181.58C537.12 186.94 539.78 193.15 540.98 199.68C541.68 203.46 541.87 207.34 541.57 211.17C541.5 212.07 542.9 212.06 542.97 211.17C543.51 204.17 542.41 197.03 539.76 190.53L539.77 190.52Z" fill="#BBCACC"/>
<path d="M515.32 169.86L458.63 143.21L460.29 138.76L516.84 162.89L515.32 169.86Z" fill="#475569"/>
<path d="M518.32 161.73L461.64 135.07L463.3 130.62L519.85 154.76L518.32 161.73Z" fill="#475569"/>
<path d="M513.81 165.74L529.81 221.7L541.02 218.65L522.53 163.64L513.81 165.74Z" fill="#475569"/>
<path d="M538.08 205.38C528.5 205.41 520.54 212.77 519.77 222.32L515.43 276.46L560.15 276.34L556.5 222.54C555.84 212.86 547.78 205.35 538.08 205.37V205.38Z" fill="#3B82F6"/>
<path d="M508.94 279.54H567.73L567.72 274.16L508.03 272.89L508.94 279.54Z" fill="#475569"/>
<path d="M533.21 162.14C533.23 170.8 526.23 177.84 517.57 177.86C508.91 177.88 501.87 170.88 501.85 162.22C501.83 153.56 508.83 146.52 517.49 146.5C526.15 146.48 533.19 153.48 533.21 162.14Z" fill="#CBD5E1"/>
<path d="M526.98 162.16C526.99 167.37 522.78 171.61 517.56 171.63C512.35 171.64 508.11 167.43 508.09 162.21C508.08 157 512.29 152.76 517.51 152.74C522.72 152.73 526.96 156.94 526.98 162.16Z" fill="#64748B"/>
<path d="M459.83 149.79L465.99 161.42L457.26 172.71L451.42 168.56L459.64 161.4L454.85 148.01L459.83 149.79Z" fill="#172554"/>
<path d="M459.65 151.89L462.44 145.54L448.3 141.49L447.3 148.36C446.85 151.43 448.64 154.38 451.56 155.41C454.76 156.54 458.29 155 459.65 151.9V151.89Z" fill="#3B82F6"/>
<path d="M470.23 131.4C472.51 137.93 469.07 145.08 462.54 147.36C456.01 149.64 448.86 146.2 446.58 139.67C444.3 133.14 447.74 125.99 454.27 123.71C460.8 121.43 467.95 124.87 470.23 131.4Z" fill="#CBD5E1"/>
<path d="M465.53 133.04C466.9 136.97 464.83 141.28 460.9 142.65C456.97 144.02 452.66 141.95 451.29 138.02C449.92 134.09 451.99 129.78 455.92 128.41C459.85 127.04 464.16 129.11 465.53 133.04Z" fill="#64748B"/>
<path d="M556.57 268.54C556.74 268.54 556.89 268.4 556.89 268.22C556.89 268.04 556.75 267.9 556.58 267.89L518.9 267.28C518.73 267.26 518.58 267.42 518.57 267.6C518.57 267.78 518.71 267.92 518.88 267.93L556.56 268.54H556.57Z" fill="#334155"/>
<path d="M556.02 263.29C556.19 263.29 556.33 263.15 556.34 262.98C556.34 262.8 556.21 262.65 556.03 262.65L520.22 261.41H520.21C520.04 261.41 519.9 261.55 519.89 261.72C519.89 261.9 520.02 262.05 520.2 262.05L556.01 263.29H556.02Z" fill="#334155"/>
<path d="M553.79 229.35C553.97 229.35 554.11 229.21 554.11 229.03C554.11 228.85 553.97 228.71 553.79 228.71L523.5 228.52C523.32 228.52 523.18 228.66 523.18 228.84C523.18 229.02 523.32 229.16 523.5 229.16L553.79 229.35Z" fill="#334155"/>
<path d="M531.13 214.96C526.42 214.97 526.43 222.3 531.15 222.29C535.86 222.28 535.85 214.95 531.13 214.96Z" fill="white"/>
<path d="M544.84 214.84C540.13 214.85 540.14 222.18 544.86 222.17C549.57 222.16 549.56 214.83 544.84 214.84Z" fill="white"/>
<g style="mix-blend-mode:soft-light" opacity="0.4">
<path d="M522.63 253.81C522.48 255.37 522.45 257.22 523.69 258.19C525.02 259.23 527.11 258.5 528.09 257.12C529.07 255.75 529.24 253.98 529.38 252.3C529.94 245.48 530.5 238.66 531.06 231.84C531.17 230.55 531.27 229.25 531.01 227.99C530.76 226.73 530.09 225.49 528.98 224.83C526.45 223.35 525.32 225.29 525.13 227.4C524.86 230.3 524.58 233.2 524.31 236.1C523.75 242 523.2 247.9 522.64 253.81H522.63Z" fill="white"/>
</g>
<g style="mix-blend-mode:soft-light" opacity="0.4">
<path d="M522.02 263.36C521.63 264.48 521.95 265.87 522.94 266.51C523.63 266.95 524.5 266.98 525.31 266.98C525.97 266.98 526.66 266.97 527.23 266.63C527.74 266.33 528.08 265.79 528.26 265.23C528.6 264.16 528.37 262.91 527.63 262.06C525.86 260.05 522.84 260.98 522.02 263.35V263.36Z" fill="white"/>
</g>
</g>
<defs>
<filter id="filter0_d_720_15395" x="109.089" y="153.641" width="390.478" height="129.939" filterUnits="userSpaceOnUse" color-interpolation-filters="sRGB">
<feFlood flood-opacity="0" result="BackgroundImageFix"/>
<feColorMatrix in="SourceAlpha" type="matrix" values="0 0 0 0 0 0 0 0 0 0 0 0 0 0 0 0 0 0 127 0" result="hardAlpha"/>
<feOffset dx="-4" dy="5"/>
<feGaussianBlur stdDeviation="5"/>
<feComposite in2="hardAlpha" operator="out"/>
<feColorMatrix type="matrix" values="0 0 0 0 0 0 0 0 0 0 0 0 0 0 0 0 0 0 0.07 0"/>
<feBlend mode="normal" in2="BackgroundImageFix" result="effect1_dropShadow_720_15395"/>
<feBlend mode="normal" in="SourceGraphic" in2="effect1_dropShadow_720_15395" result="shape"/>
</filter>
<filter id="filter1_d_720_15395" x="109.089" y="153.641" width="390.478" height="129.939" filterUnits="userSpaceOnUse" color-interpolation-filters="sRGB">
<feFlood flood-opacity="0" result="BackgroundImageFix"/>
<feColorMatrix in="SourceAlpha" type="matrix" values="0 0 0 0 0 0 0 0 0 0 0 0 0 0 0 0 0 0 127 0" result="hardAlpha"/>
<feOffset dx="-4" dy="5"/>
<feGaussianBlur stdDeviation="5"/>
<feComposite in2="hardAlpha" operator="out"/>
<feColorMatrix type="matrix" values="0 0 0 0 0 0 0 0 0 0 0 0 0 0 0 0 0 0 0.07 0"/>
<feBlend mode="normal" in2="BackgroundImageFix" result="effect1_dropShadow_720_15395"/>
<feBlend mode="normal" in="SourceGraphic" in2="effect1_dropShadow_720_15395" result="shape"/>
</filter>
<clipPath id="clip0_720_15395">
<rect width="130.73" height="156.54" fill="white" transform="matrix(-1 0 0 1 567.73 123)"/>
</clipPath>
</defs>
</svg>
