<svg xmlns="http://www.w3.org/2000/svg" width="50" height="49" viewBox="0 0 50 49">
	<path fill="#7a30e2" d="M27.582 38.223c5.164 1.554 6.797 3.16 8.387 8.218.125.407.715.407.84 0 1.59-5.058 3.222-6.664 8.386-8.218.414-.121.414-.7 0-.825-5.164-1.554-6.797-3.16-8.386-8.218-.125-.407-.715-.407-.84 0-1.59 5.062-3.227 6.664-8.387 8.218-.414.125-.414.704 0 .825ZM4.082 23.5c9.367-2.82 12.336-5.73 15.215-14.91.23-.738 1.297-.738 1.527 0 2.883 9.18 5.848 12.09 15.219 14.91a.78.78 0 0 1 0 1.5c-9.371 2.824-12.34 5.73-15.219 14.914-.23.738-1.297.738-1.527 0C16.418 30.73 13.449 27.82 4.082 25a.78.78 0 0 1 0-1.5Zm23.5-13.508c5.164-1.555 6.797-3.156 8.387-8.215.125-.41.715-.41.84 0 1.59 5.059 3.222 6.66 8.386 8.215a.431.431 0 0 1 0 .828c-5.164 1.555-6.797 3.157-8.386 8.215-.125.41-.715.41-.84 0-1.59-5.058-3.227-6.66-8.387-8.215a.431.431 0 0 1 0-.828Zm0 0"/>
</svg>
