<svg width="14" height="21" fill="none" xmlns="http://www.w3.org/2000/svg"><path d="M3.875 18.469V16.75h6.21v1.719c0 .117-.038.234-.077.351l-.977 1.407a.57.57 0 0 1-.508.273H5.438a.57.57 0 0 1-.508-.273l-.977-1.407c-.078-.117-.078-.234-.078-.351ZM7 13c-.703 0-1.25-.547-1.25-1.25 0-.664.547-1.25 1.25-1.25.664 0 1.25.586 1.25 1.25C8.25 12.453 7.664 13 7 13ZM7 .5c3.79 0 6.875 3.086 6.875 6.875 0 1.758-.664 3.32-1.719 4.531-.664.742-1.68 2.305-2.031 3.594H8.25c0-.195 0-.352.078-.547.195-.703.899-2.539 2.422-4.258.781-.937 1.25-2.11 1.25-3.32 0-2.734-2.266-5-5-5-2.695 0-5.04 2.148-5 5 0 1.21.43 2.383 1.21 3.32 1.563 1.758 2.228 3.555 2.423 4.258.078.195.078.39.078.547H3.836c-.352-1.29-1.367-2.852-2.031-3.594a6.82 6.82 0 0 1-1.68-4.531C.125 3.742 2.977.5 7 .5Zm-.39 8.75a.632.632 0 0 1-.626-.547l-.507-3.75c-.04-.351.273-.703.625-.703h1.757c.352 0 .664.352.625.703l-.507 3.75a.632.632 0 0 1-.625.547h-.743Z" fill="#E6A700"/></svg>
