<svg width="13" height="13" viewBox="0 0 13 13" fill="none" xmlns="http://www.w3.org/2000/svg">
<path id="times" d="M8.10547 6.23047L12.3242 2.05078C12.5586 1.81641 12.5586 1.38672 12.3242 1.15234L11.3477 0.175781C11.1133 -0.0585938 10.6836 -0.0585938 10.4492 0.175781L6.26953 4.39453L2.05078 0.175781C1.81641 -0.0585938 1.38672 -0.0585938 1.15234 0.175781L0.175781 1.15234C-0.0585938 1.38672 -0.0585938 1.81641 0.175781 2.05078L4.39453 6.23047L0.175781 10.4492C-0.0585938 10.6836 -0.0585938 11.1133 0.175781 11.3477L1.15234 12.3242C1.38672 12.5586 1.81641 12.5586 2.05078 12.3242L6.26953 8.10547L10.4492 12.3242C10.6836 12.5586 11.1133 12.5586 11.3477 12.3242L12.3242 11.3477C12.5586 11.1133 12.5586 10.6836 12.3242 10.4492L8.10547 6.23047Z" fill="#bbb"/>
</svg>
