<svg width="16" height="19" viewBox="0 0 16 19" fill="none" xmlns="http://www.w3.org/2000/svg">
	<path opacity="0.75" d="M1 2.83337C1.53125 2.83337 2 3.30212 2 3.83337V18.3334C2 18.6146 1.75 18.8334 1.5 18.8334H0.5C0.21875 18.8334 0 18.6146 0 18.3334V3.83337C0 3.30212 0.4375 2.83337 1 2.83337ZM9.34375 12.3334C10.3438 12.5834 11.3125 12.8646 12.4688 12.8646C13.4688 12.8646 14.625 12.6459 16 12.1146V13.2396C16 13.6146 15.75 13.9584 15.4062 14.1146C9.90625 16.5209 8.78125 11.9584 3 14.8334V12.6771C5.875 11.4271 7.5625 11.8646 9.34375 12.3334ZM9.34375 9.33337C10.3438 9.58337 11.3125 9.86462 12.4688 9.86462C13.4688 9.86462 14.625 9.64587 16 9.08337V11.0209C13.0938 12.2709 11.4062 11.8334 9.625 11.3646C7.8125 10.8959 5.9375 10.4271 3 11.6146V9.67712C5.875 8.42712 7.5625 8.86462 9.34375 9.33337ZM9.65625 5.39587C9.4375 5.33337 9.21875 5.27087 9 5.20837V6.23962C9.125 6.27087 9.25 6.30212 9.375 6.36462C10.1875 6.61462 11.0312 6.86462 12.0312 6.86462C13.0625 6.86462 14.3125 6.61462 16 5.86462V8.02087C13.0938 9.27087 11.4062 8.83337 9.625 8.36462C7.8125 7.89587 5.9375 7.42712 3 8.61462V3.86462C9.53125 0.895874 9.09375 5.70837 14.4375 2.98962C15.1562 2.61462 16 3.02087 16 3.80212V4.77087C12.6875 6.30212 11.2812 5.89587 9.65625 5.39587ZM5 6.86462C5.25 6.86462 5.5 6.61462 5.5 6.36462C5.5 6.08337 5.25 5.86462 5 5.86462C4.71875 5.86462 4.5 6.08337 4.5 6.36462C4.5 6.61462 4.71875 6.86462 5 6.86462ZM5 5.11462C5.25 5.11462 5.5 4.89587 5.5 4.61462C5.5 4.33337 5.25 4.11462 5 4.11462C4.71875 4.11462 4.5 4.33337 4.5 4.61462C4.5 4.89587 4.71875 5.11462 5 5.11462ZM7 6.61462C7.25 6.61462 7.5 6.36462 7.5 6.11462C7.5 5.83337 7.25 5.61462 7 5.61462C6.71875 5.61462 6.5 5.83337 6.5 6.11462C6.5 6.39587 6.71875 6.61462 7 6.61462ZM7 4.86462C7.25 4.86462 7.5 4.64587 7.5 4.36462C7.5 4.08337 7.25 3.86462 7 3.86462C6.71875 3.86462 6.5 4.08337 6.5 4.36462C6.5 4.64587 6.71875 4.86462 7 4.86462Z" fill="#9B64E8"/>
</svg>
