<svg width="17" height="17" fill="none" xmlns="http://www.w3.org/2000/svg"><path d="M4.938 1.031c5.687.532 10.375 5.157 11.03 10.781.063.532-.25 1-.718 1.126l-1.781.5c-.25-5.813-4.219-9.72-10.094-9.907l.469-1.75a.994.994 0 0 1 1.094-.75Zm-1.813 3.5c5.5.063 9.219 3.719 9.344 9.188L.625 17H.5a.494.494 0 0 1-.5-.5v-.125L3.125 4.531ZM4 14c.531 0 1-.438 1-1 0-.531-.469-1-1-1-.563 0-1 .469-1 1 0 .563.438 1 1 1Zm1.5-4.75c.531 0 1-.438 1-1 0-.531-.469-1-1-1-.563 0-1 .469-1 1 0 .563.438 1 1 1Zm3.25 3.25c.531 0 1-.438 1-1 0-.531-.469-1-1-1-.563 0-1 .469-1 1 0 .563.438 1 1 1Z" fill="#30ABF0"/></svg>