<svg width="17" height="19" fill="none" xmlns="http://www.w3.org/2000/svg"><path d="M7.375 1.823C12.5.854 16.969 4.729 17 9.635c-.031 1.125-.938 2.031-2.031 2.031h-2.5a2.127 2.127 0 0 0-1.906 3.094c.593 1.156-.032 2.656-1.313 2.875-4 .594-9.25-3.75-8.094-9.594.594-3.093 3.094-5.593 6.219-6.218ZM4 11.667c.531 0 1-.438 1-1 0-.532-.469-1-1-1-.563 0-1 .468-1 1 0 .562.438 1 1 1Zm1-4c.531 0 1-.438 1-1 0-.532-.469-1-1-1-.563 0-1 .468-1 1 0 .562.438 1 1 1Zm4-2c.531 0 1-.438 1-1 0-.532-.469-1-1-1-.563 0-1 .468-1 1 0 .562.438 1 1 1Zm4 2c.531 0 1-.438 1-1 0-.532-.469-1-1-1-.563 0-1 .468-1 1 0 .562.438 1 1 1Z" fill="#30ABF0"/></svg>