<svg width="21" height="17" fill="none" xmlns="http://www.w3.org/2000/svg"><path d="M11 5.833c0 .282-.25.5-.5.5H.5a.494.494 0 0 1-.5-.5v-1c0-.25.219-.5.5-.5h4.406l.75-3.03c.157-.563.625-.97 1.219-.97H8.5c.25 0 .5.25.5.5v.5c0 .282-.25.5-.5.5H7.062l-.625 2.5H10.5c.25 0 .5.25.5.5v1Zm-2.781 4.47c.125.218.25.405.437.562-.406.343-.656.875-.656 1.5 0 .5.188.968.531 1.343A1.437 1.437 0 0 0 8 14.833v.032c0 .5.156.968.406 1.375a.962.962 0 0 1-.406.093H2.969A.962.962 0 0 1 2 15.427l-.813-8.094h7.907a6.542 6.542 0 0 0-.75.875A1.993 1.993 0 0 0 8 9.333c0 .344.063.688.219.97Zm11.281 4.03c.25 0 .5.25.5.5a1.5 1.5 0 0 1-1.5 1.5h-8a1.48 1.48 0 0 1-1.5-1.5c0-.25.219-.5.5-.5h10Zm-.5-3c.531 0 1 .47 1 1 0 .563-.469 1-1 1h-9c-.563 0-1-.437-1-1 0-.53.438-1 1-1h9ZM9.156 8.771c.938-1.344 2.969-2.438 5.344-2.438 2.344.032 4.375 1.094 5.313 2.438.437.656 0 1.562-.813 1.562H9.969c-.813 0-1.25-.906-.813-1.562ZM17 7.833c-.281 0-.5.25-.5.5 0 .282.219.5.5.5.25 0 .5-.218.5-.5 0-.25-.25-.5-.5-.5Zm-2.5-.5c-.281 0-.5.25-.5.5 0 .282.219.5.5.5.25 0 .5-.218.5-.5 0-.25-.25-.5-.5-.5Zm-2.5.5c-.281 0-.5.25-.5.5 0 .282.219.5.5.5.25 0 .5-.218.5-.5 0-.25-.25-.5-.5-.5Z" fill="#30ABF0"/></svg>