<svg width="16" height="16" viewBox="0 0 16 15" fill="none" xmlns="http://www.w3.org/2000/svg">
	<path d="M15.2731 6.72028L9.96584 4.37138C8.99689 3.94261 7.41104 3.24086 6.44209 2.81189L1.13478 0.462989C0.165623 0.0342267 -0.267532 0.427642 0.171814 1.33729C0.171814 1.33729 2.37274 5.90669 2.8031 6.3742C2.90175 6.48144 3.58494 6.57689 3.98374 6.62622L9.29125 7.28225C9.77573 7.34216 10.018 7.42104 10.018 7.49992C10.018 7.5788 9.77573 7.65769 9.29125 7.7176L3.98374 8.37362C3.58494 8.42295 2.90195 8.51841 2.8031 8.62565C2.37254 9.09295 0.171814 13.6626 0.171814 13.6626C-0.267732 14.5722 0.165623 14.9658 1.13478 14.5369L6.44229 12.1879C7.41124 11.7592 8.99689 11.0574 9.96604 10.6285L15.2733 8.27956C15.7578 8.06508 16.0001 7.7825 16.0001 7.49992C16.0001 7.21734 15.7578 6.93456 15.2733 6.72028H15.2731Z" fill="#7A30E2"/>
</svg>
