<svg xmlns="http://www.w3.org/2000/svg" width="32" height="32" fill="none"><g clip-path="url(#a)"><rect width="32" height="32" fill="#fff" rx="16"/><path fill="#7F3E13" d="M9.806 5.714c1.617 0 2.91 1.381 2.91 3.085 0 1.703-1.293 3.084-2.91 3.084-1.616 0-2.91-1.38-2.91-3.084 0-1.704 1.294-3.085 2.91-3.085Z"/><path fill="#B85A1B" d="M9.807 6.566c-1.19 0-2.057 1.072-2.057 2.233 0 1.145.867 2.232 2.057 2.232S11.865 9.96 11.865 8.8c0-1.16-.852-2.233-2.058-2.233Z"/><path fill="#63300F" d="M9.807 7.418c-.735 0-1.205.69-1.205 1.38 0 .676.485 1.381 1.205 1.381.734 0 1.205-.69 1.205-1.38.014-.676-.485-1.38-1.205-1.38Z"/><path fill="#7F3E13" d="M22.195 5.714c1.617 0 2.91 1.381 2.91 3.085 0 1.703-1.293 3.084-2.91 3.084-1.617 0-2.91-1.38-2.91-3.084 0-1.704 1.293-3.085 2.91-3.085Z"/><path fill="#B85A1B" d="M22.194 6.566c-1.19 0-2.057 1.072-2.057 2.233 0 1.145.867 2.232 2.057 2.232S24.252 9.96 24.252 8.8c0-1.16-.867-2.233-2.058-2.233Z"/><path fill="#4F2800" d="M22.195 7.418c-.735 0-1.205.69-1.205 1.38 0 .676.485 1.381 1.205 1.381.735 0 1.205-.69 1.205-1.38 0-.676-.485-1.381-1.205-1.381Z"/><path fill="#7F3E13" d="M14.834 7.154c.5 0 .926.411.926.925 0 .5-.412.925-.926.925a.922.922 0 0 1-.926-.925c0-.5.412-.925.926-.925Zm2.337 0c.5 0 .926.411.926.925 0 .5-.412.925-.926.925a.931.931 0 0 1-.926-.925c.015-.5.426-.925.926-.925Z"/><path fill="#7F3E13" d="M26.767 11.002v5.728l.059.015c.837.337 1.366 1.101 1.366 1.997v4.127L16.01 26.894 3.826 22.972v-4.215a2.1 2.1 0 0 1 1.367-1.998l.059-.014v-5.758c0-3.965 21.515-3.965 21.515.015Z"/><path fill="#B85A1B" d="M6.221 11.222v6.184l-.5.19c-.558.221-.91.735-.91 1.337v4.348l11.198 3.613 11.198-3.687v-4.26c0-.601-.352-1.115-.91-1.336l-.5-.205v-6.184c0-2.937-19.56-2.937-19.576 0Z"/><path fill="#E1762F" d="M6.221 11.222v6.184l-.5.19c-.558.221-.91.735-.91 1.337v4.348l11.198 3.613v-2.365c-3.88.015-7.76-2.526-6.73-7.55h6.73V9.035c-4.894 0-9.788.734-9.788 2.188Z"/><path fill="#E5895B" d="M8.749 15.672h14.564c2.057 10.928-16.798 10.84-14.564 0Z"/><path fill="#E5895B" d="M9.47 16.524c-.206 1.69.161 3.32 1.41 4.583C12.204 22.429 14.218 23 16.055 23c1.778-.014 3.659-.573 4.967-1.836 1.308-1.263 1.72-2.908 1.543-4.64H9.47Z"/><path fill="#FAD395" d="M18.45 21.62c.984 1.264 3.835.75 2.983-1.923l-2.984 1.924Z"/><path fill="#4F2800" d="M17.55 21.341c1.103 1.41 4.674.573 3.851-2.482l-3.85 2.482Z"/><path fill="#fff" d="M18.507 20.607c.22-.058.426.088.5.323.059.235-.059.47-.28.53-.22.058-.426-.089-.5-.324-.058-.22.06-.47.28-.529Zm2.337-1.6c.22-.06.44.087.5.322.058.235-.06.47-.28.53-.22.058-.44-.089-.5-.324-.058-.235.06-.485.28-.529Z"/><path fill="#AD6151" d="M19.946 21.885c.779-.264 1.455-.881 1.572-1.88-.632-.088-1.734.837-1.572 1.88Z"/><path fill="#FAD395" d="M10.249 15.672h11.55c1.617 7.8-13.314 7.726-11.55 0Z"/><path fill="#4F2800" d="M16.01 20.108c.074-.47.25-.91.544-1.293 1.382-.22 2.587-1.263 2.205-3.157a8.172 8.172 0 0 0-2.734-.47l-.558 1.792.544 3.128Z"/><path fill="#63300F" d="M16.01 20.108c-.074-.47-.25-.91-.544-1.293-1.382-.22-2.587-1.263-2.205-3.157a8.173 8.173 0 0 1 2.734-.47l.014 4.92Z"/><path fill="#AD6151" d="M13.966 15.937a7.769 7.769 0 0 1 4.1 0c.574 1.424-4.731 1.41-4.1 0Z"/><path fill="#fff" d="M13.8 11.971a1.542 1.542 0 1 1 .002 3.085 1.542 1.542 0 0 1-.001-3.085Z"/><path fill="#1B1D23" d="M13.918 12.5c.632 0 1.146.514 1.146 1.146a1.147 1.147 0 0 1-2.292 0c-.015-.632.514-1.146 1.146-1.146Z"/><path fill="#fff" d="M18.242 11.971a1.542 1.542 0 1 0-.001 3.085 1.542 1.542 0 0 0 .001-3.085Z"/><path fill="#1B1D23" d="M18.125 12.5c-.632 0-1.146.514-1.146 1.146a1.147 1.147 0 0 0 2.292 0c.015-.632-.514-1.146-1.146-1.146Z"/><path fill="#63300F" d="M14.921 11.457c-1.22-.22-2.278-.015-3.189.573-.338-1.895 2.851-2.453 3.19-.573Z"/><path fill="#4F2800" d="M16.803 10.517c1.22-.235 2.278-.015 3.203.558.324-1.894-2.865-2.453-3.203-.558Z"/><path fill="#7EAABA" d="M28.179 22.884v11.852c0 .794-.647 1.44-1.44 1.44H5.252c-.794 0-1.44-.646-1.44-1.44V22.973l12.183 2.908 12.183-2.996Z"/><path fill="#D3E8EF" d="M27.209 24.132 16.01 26.893 4.797 24.22v10.281c0 .397.323.72.72.72h20.971c.397 0 .72-.323.72-.72V24.132Z"/><path fill="#fff" d="M16.011 26.894 4.813 24.22V34.5c0 .397.323.72.72.72H16.01v-8.327Z"/><path fill="#036AAB" d="M16.01 29.802h9.42v1.263h-9.42V29.8Zm0 2.614h9.42v1.263h-9.42v-1.263Z"/><path fill="#0399ED" d="M6.59 29.802h9.42v1.263H6.59v-1.263Zm9.42 3.877v-1.263H6.59v1.263h9.42Z"/><path fill="#fff" d="M10.412 28.979h1.19v5.757h-1.19V28.98Z"/><path fill="#7EAABA" d="M7.102 23.765c2.968.705 5.937 1.425 8.89 2.13l-3.174 2.996c-2.057-1.205-4.085-2.541-5.716-5.126Z"/><path fill="#fff" d="M9.615 25.366c.911.896 1.91 1.615 3.072 2.32l1.337-1.263c-1.455-.352-2.94-.705-4.409-1.057Z"/><path fill="#7EAABA" d="M24.899 23.765c-2.969.705-5.937 1.425-8.891 2.13l3.174 2.996c2.058-1.205 4.086-2.541 5.717-5.126Z"/><path fill="#fff" d="M22.385 25.366c-.91.896-1.91 1.615-3.071 2.32l-1.337-1.263c1.454-.352 2.939-.705 4.408-1.057Z"/></g><rect width="31" height="31" x=".5" y=".5" stroke="#fff" rx="15.5"/><defs><clipPath id="a"><rect width="32" height="32" fill="#fff" rx="16"/></clipPath></defs></svg>