<svg width="21" height="17" fill="none" xmlns="http://www.w3.org/2000/svg"><path d="M19.813 4.385c1.03 1.688.093 4-1.844 4.25-.157.031-.282.031-.438.031-.937 0-1.75-.406-2.312-1.03a3.088 3.088 0 0 1-2.313 1.03c-.906 0-1.75-.406-2.312-1.03a3.07 3.07 0 0 1-4.594 0 3.087 3.087 0 0 1-2.313 1.03c-.156 0-.28 0-.437-.03-1.938-.25-2.875-2.563-1.813-4.25l2-3.25c.188-.282.532-.47.876-.47h12.625c.343 0 .656.188.843.47l2.032 3.25ZM17.53 9.666c.188 0 .375 0 .563-.03.187 0 .343-.063.531-.095v6.125c0 .563-.469 1-1 1h-14c-.563 0-1-.437-1-1V9.541c.156.032.313.063.5.094.188.031.375.031.563.031.312 0 .624-.03.937-.093v3.093h12V9.573c.281.062.594.093.906.093Z" fill="#30ABF0"/></svg>