<svg width="12" height="14" viewBox="0 0 12 14" fill="none" xmlns="http://www.w3.org/2000/svg">
<path d="M11.25 14H0.75C0.3125 14 0 13.6875 0 13.25V13.5C0 13.0938 0.3125 12.75 0.75 12.75H11.25C11.6562 12.75 12 13.0938 12 13.5V13.25C12 13.6875 11.6562 14 11.25 14ZM4 0.75C4 0.34375 4.3125 0 4.75 0H7.25C7.65625 0 8 0.34375 8 0.75V5H10.7188C11.2812 5 11.5625 5.6875 11.1562 6.09375L6.40625 10.8438C6.1875 11.0625 5.78125 11.0625 5.5625 10.8438L0.8125 6.09375C0.40625 5.6875 0.6875 5 1.25 5H4V0.75Z" fill="white"/>
</svg>
