<svg width="21" height="17" viewBox="0 0 21 17" fill="none" xmlns="http://www.w3.org/2000/svg">
	<path opacity="0.75" d="M19.8125 3.8855C20.8438 5.573 19.9062 7.8855 17.9688 8.1355C17.8125 8.16675 17.6875 8.16675 17.5312 8.16675C16.5938 8.16675 15.7812 7.7605 15.2188 7.1355C14.6562 7.7605 13.8438 8.16675 12.9062 8.16675C12 8.16675 11.1562 7.7605 10.5938 7.1355C10.0312 7.7605 9.21875 8.16675 8.3125 8.16675C7.375 8.16675 6.5625 7.7605 6 7.1355C5.4375 7.7605 4.625 8.16675 3.6875 8.16675C3.53125 8.16675 3.40625 8.16675 3.25 8.1355C1.3125 7.8855 0.375 5.573 1.4375 3.8855L3.4375 0.635498C3.625 0.354248 3.96875 0.166748 4.3125 0.166748H16.9375C17.2812 0.166748 17.5938 0.354248 17.7812 0.635498L19.8125 3.8855ZM17.5312 9.16675C17.7188 9.16675 17.9062 9.16675 18.0938 9.1355C18.2812 9.1355 18.4375 9.073 18.625 9.04175V15.1667C18.625 15.7292 18.1562 16.1667 17.625 16.1667H3.625C3.0625 16.1667 2.625 15.7292 2.625 15.1667V9.04175C2.78125 9.073 2.9375 9.10425 3.125 9.1355C3.3125 9.16675 3.5 9.16675 3.6875 9.16675C4 9.16675 4.3125 9.1355 4.625 9.073V12.1667H16.625V9.073C16.9062 9.1355 17.2188 9.16675 17.5312 9.16675Z" fill="#9B64E8"/>
</svg>
