<svg width="17" height="14" viewBox="0 0 17 14" fill="none" xmlns="http://www.w3.org/2000/svg">
<path d="M6.55225 13.9827C7.36475 14.1389 8.146 13.6079 8.3335 12.7959L8.396 12.4211C8.5835 11.3903 9.17725 10.4533 9.98975 9.79741L10.2085 9.61001C10.9272 9.0478 11.3335 8.20449 11.3335 7.26747V3.80052C11.3335 2.80103 10.8335 1.86402 10.021 1.30181L8.80225 0.520965C8.30225 0.177393 7.73975 -0.0100098 7.146 -0.0100098H4.0835C3.271 -0.0100098 2.5835 0.677134 2.5835 1.48921C2.5835 1.61415 2.61475 1.73908 2.646 1.83279C2.021 2.02019 1.5835 2.5824 1.5835 3.23831C1.5835 3.55065 1.67725 3.80052 1.80225 4.01915C1.11475 4.17532 0.583496 4.76876 0.583496 5.48714C0.583496 5.98688 0.802246 6.39292 1.146 6.67403C0.677246 6.9239 0.333496 7.42364 0.333496 7.98585C0.333496 8.82916 1.021 9.48507 1.8335 9.48507H6.3335C5.92725 10.2347 5.61475 11.0155 5.4585 11.8588L5.36475 12.2024C5.2085 13.0145 5.73975 13.7953 6.55225 13.9827ZM15.3335 10.9843C15.896 10.9843 16.3335 10.547 16.3335 9.98481V2.98844C16.3335 2.45746 15.896 1.98895 15.3335 1.98895H13.3335C12.8022 1.98895 12.3335 2.45746 12.3335 2.98844V9.98481C12.3335 10.547 12.8022 10.9843 13.3335 10.9843H15.3335Z" fill="#777777"/>
</svg>
