<svg xmlns="http://www.w3.org/2000/svg" width="16" height="16" fill="none">
<circle cx="8" cy="8" r="7" fill="#873EFF"/>
<path fill="#fff" d="M5.909 10.9c.608 0 1.096-.3 1.464-.991l.819-1.533v1.3c0 .766.496 1.224 1.262 1.224.6 0 1.044-.263 1.472-.991l1.885-3.185c.413-.698.12-1.224-.789-1.224-.488 0-.803.158-1.089.691l-1.3 2.44v-2.17c0-.646-.307-.961-.878-.961-.45 0-.811.195-1.089.736L6.442 8.632V6.484c0-.691-.285-.984-.976-.984H4.054c-.534 0-.804.248-.804.706 0 .458.285.721.804.721h.578v2.741c0 .774.518 1.232 1.277 1.232Z"/>
</svg>
