<svg width="24" height="24" viewBox="0 0 24 24" fill="none" xmlns="http://www.w3.org/2000/svg">
<path d="M18 5.5H6C5.86739 5.5 5.74021 5.55268 5.64645 5.64645C5.55268 5.74021 5.5 5.86739 5.5 6V18C5.5 18.1326 5.55268 18.2598 5.64645 18.3536C5.74021 18.4473 5.86739 18.5 6 18.5H18C18.1326 18.5 18.2598 18.4473 18.3536 18.3536C18.4473 18.2598 18.5 18.1326 18.5 18V6C18.5 5.86739 18.4473 5.74021 18.3536 5.64645C18.2598 5.55268 18.1326 5.5 18 5.5ZM6 4H18C18.5304 4 19.0391 4.21071 19.4142 4.58579C19.7893 4.96086 20 5.46957 20 6V18C20 18.5304 19.7893 19.0391 19.4142 19.4142C19.0391 19.7893 18.5304 20 18 20H6C5.46957 20 4.96086 19.7893 4.58579 19.4142C4.21071 19.0391 4 18.5304 4 18V6C4 5.46957 4.21071 4.96086 4.58579 4.58579C4.96086 4.21071 5.46957 4 6 4Z" fill="#1E1E1E"/>
<path d="M13 14H17V15.5H13V14Z" fill="#1E1E1E"/>
<path d="M17 9H13V10.5H17V9Z" fill="#1E1E1E"/>
<path d="M7 9.5L9 11.5L12 8.5L11 7.5L9 9.5L8 8.5L7 9.5Z" fill="#1E1E1E"/>
<path d="M7 14.5L9 16.5L12 13.5L11 12.5L9 14.5L8 13.5L7 14.5Z" fill="#1E1E1E"/>
</svg>
