<svg width="20" height="20" viewBox="0 0 20 20" fill="none" xmlns="http://www.w3.org/2000/svg">
    <path fill-rule="evenodd" clip-rule="evenodd" d="M16.1706 10C16.1706 8.27943 15.5693 6.81987 14.3665 5.62134C13.1637 4.4228 11.699 3.82353 9.97238 3.82353C9.00516 3.82353 8.09873 4.03765 7.25311 4.46589C6.40734 4.89398 5.67905 5.48303 5.06822 6.23303H6.96549V7.55656H2.88865L2.88865 3.49167H4.21685V5.16736C4.9354 4.32236 5.79593 3.66655 6.79843 3.19993C7.80077 2.73331 8.85876 2.5 9.97238 2.5C11.0168 2.5 11.9954 2.69684 12.9081 3.09052C13.8208 3.4842 14.6165 4.01927 15.2954 4.69574C15.9742 5.37222 16.5112 6.16524 16.9062 7.0748C17.3013 7.98421 17.4988 8.95929 17.4988 10H16.1706ZM3.8282 10C3.8282 11.7206 4.42958 13.1802 5.63234 14.3787C6.8351 15.5772 8.29981 16.1765 10.0265 16.1765C10.9937 16.1765 11.9001 15.9624 12.7457 15.5341C13.5915 15.106 14.3198 14.517 14.9306 13.767H13.0334V12.4435H17.1102V16.5084H15.782V14.8327C15.0634 15.6777 14.2029 16.3335 13.2004 16.8001C12.1981 17.2667 11.1401 17.5 10.0265 17.5C8.98206 17.5 8.00347 17.3032 7.0907 16.9095C6.17808 16.5158 5.38234 15.9808 4.70348 15.3043C4.02463 14.6278 3.48766 13.8348 3.0926 12.9252C2.69753 12.0158 2.5 11.0407 2.5 10L3.8282 10Z" fill="#1E1E1E"/>
    <path d="M12.3667 7.5L13.3148 8.44812L9.26297 12.5L7 10.237L7.94812 9.28891L9.26297 10.6038L12.3667 7.5Z" fill="#1E1E1E"/>
</svg>
