<svg viewBox="0 0 155 180" xmlns="http://www.w3.org/2000/svg"><path fill="#dcdcde" d="M0 0h155v180H0z"/><path fill="#ffffff" d="M10 37h135v135H10z"/><rect x="20" y="47" width="50" height="6" rx="3" fill="#8c8f94"/><rect x="20" y="58" width="85" height="6" rx="3" fill="#c3c4C7"/><path fill-rule="evenodd" clip-rule="evenodd" d="M135 75H20v-1h115v1Z" fill="#dcdcde"/><rect x="20" y="85" width="50" height="6" rx="3" fill="#8c8f94"/><rect x="20" y="96" width="85" height="6" rx="3" fill="#c3c4C7"/><path fill-rule="evenodd" clip-rule="evenodd" d="M135 113H20v-1h115v1Z" fill="#dcdcde"/><rect x="20" y="123" width="50" height="6" rx="3" fill="#8c8f94"/><rect x="20" y="134" width="115" height="6" rx="3" fill="#c3c4C7"/><rect x="20" y="145" width="100" height="6" rx="3" fill="#c3c4C7"/><rect x="20" y="156" width="85" height="6" rx="3" fill="#c3c4C7"/><rect x="65" y="9" width="26" height="20" rx="2.5" fill="#fff"/><ellipse cx="70.688" cy="14.82" rx="2.818" ry="2.9" fill="#c3c4C7"/><path d="M87.74 25.667h-19.5v-2.508l3.63-3.737a.61.61 0 0 1 .432-.185.596.596 0 0 1 .432.185l2.818 2.9 6.881-7.08a.61.61 0 0 1 .432-.185.596.596 0 0 1 .432.184l4.443 4.573v5.853Z" fill="#8c8f94"/></svg>
