<svg viewBox="0 0 155 180" xmlns="http://www.w3.org/2000/svg"><path fill="#dcdcde" d="M0 0h155v180H0z"/><path fill="#ffffff" d="M10 9.774h135v163H10z"/><rect x="64.5" y="19.774" width="26" height="20" rx="2.5" fill="#ffffff"/><rect x="64.5" y="19.774" width="26" height="20" rx="2.5" fill="#dcdcde"/><ellipse cx="70.188" cy="25.594" rx="2.818" ry="2.9" fill="#c3c4C7"/><path d="M87.24 36.441h-19.5v-2.508l3.63-3.737a.608.608 0 0 1 .432-.185.594.594 0 0 1 .432.185l2.818 2.9 6.881-7.08a.608.608 0 0 1 .432-.185.594.594 0 0 1 .432.185l4.443 4.573v5.852Z" fill="#8c8f94"/><path fill-rule="evenodd" clip-rule="evenodd" d="M130 50.774H25v-1h105v1Z" fill="#dcdcde"/><rect x="25" y="65.774" width="50" height="6" rx="3" fill="#8c8f94"/><rect x="25" y="76.774" width="75" height="6" rx="3" fill="#c3c4C7"/><rect x="25" y="97.774" width="50" height="6" rx="3" fill="#8c8f94"/><rect x="25" y="108.774" width="75" height="6" rx="3" fill="#c3c4C7"/><rect x="25" y="129.774" width="50" height="6" rx="3" fill="#8c8f94"/><rect x="25" y="140.774" width="105" height="6" rx="3" fill="#c3c4C7"/><rect x="25" y="151.774" width="90" height="6" rx="3" fill="#c3c4C7"/></svg>
