<svg viewBox="0 0 155 180" xmlns="http://www.w3.org/2000/svg"><path fill="#ffffff" d="M0 0h155v180H0z"/><path fill-rule="evenodd" clip-rule="evenodd" d="M20 22.774a3 3 0 0 1 3-3h109a3 3 0 1 1 0 6H23a3 3 0 0 1-3-3Zm0 11.417a3 3 0 0 1 3-3h84a3 3 0 1 1 0 6H23a3 3 0 0 1-3-3Zm3 8.417a3 3 0 0 0 0 6h94a3 3 0 1 0 0-6H23Zm-3 14.416a3 3 0 0 1 3-3h109a3 3 0 1 1 0 6H23a3 3 0 0 1-3-3Zm3 8.417a3 3 0 1 0 0 6h84a3 3 0 1 0 0-6H23Zm-3 14.417a3 3 0 0 1 3-3h94a3 3 0 1 1 0 6H23a3 3 0 0 1-3-3Zm3 8.416a3 3 0 0 0 0 6h109a3 3 0 1 0 0-6H23Zm-3 14.417a3 3 0 0 1 3-3h84a3 3 0 1 1 0 6H23a3 3 0 0 1-3-3Zm3 8.417a3 3 0 1 0 0 6h94a3 3 0 1 0 0-6H23Zm-3 14.416a3 3 0 0 1 3-3h109a3 3 0 0 1 0 6H23a3 3 0 0 1-3-3Zm3 8.417a3 3 0 1 0 0 6h84a3 3 0 1 0 0-6H23Zm-3 14.417a3 3 0 0 1 3-3h94a3 3 0 1 1 0 6H23a3 3 0 0 1-3-3Zm3 8.416a3 3 0 0 0 0 6h109a3 3 0 1 0 0-6H23Z" fill="#c3c4C7"/></svg>
