<svg viewBox="0 0 155 180" xmlns="http://www.w3.org/2000/svg"><path fill="#dcdcde" d="M0 0h155v180H0z"/><path d="M10 40.592a4 4 0 0 1 4-4h127a4 4 0 0 1 4 4v125a4 4 0 0 1-4 4H14a4 4 0 0 1-4-4v-125Z" fill="#ffffff"/><rect x="25" y="51.592" width="50" height="6" rx="3" fill="#8c8f94"/><rect x="25" y="62.592" width="75" height="6" rx="3" fill="#c3c4C7"/><rect x="25" y="83.592" width="50" height="6" rx="3" fill="#8c8f94"/><rect x="25" y="94.592" width="75" height="6" rx="3" fill="#c3c4C7"/><rect x="25" y="115.592" width="50" height="6" rx="3" fill="#8c8f94"/><rect x="25" y="126.592" width="105" height="6" rx="3" fill="#c3c4C7"/><rect x="25" y="137.592" width="90" height="6" rx="3" fill="#c3c4C7"/><rect x="25" y="148.592" width="75" height="6" rx="3" fill="#c3c4C7"/><rect x="65" y="9" width="26" height="20" rx="2.5" fill="#ffffff"/><ellipse cx="70.688" cy="14.82" rx="2.818" ry="2.9" fill="#c3c4C7"/><path d="M87.74 25.667h-19.5v-2.509l3.63-3.737a.609.609 0 0 1 .432-.184.594.594 0 0 1 .432.184l2.818 2.902 6.881-7.082a.609.609 0 0 1 .432-.184.594.594 0 0 1 .432.184l4.443 4.573v5.853Z" fill="#8c8f94"/></svg>
