<svg xmlns="http://www.w3.org/2000/svg" xmlns:xlink="http://www.w3.org/1999/xlink" width="1056" height="896" preserveAspectRatio="xMidYMid meet" viewBox="0 0 1056 896" style="-ms-transform: rotate(360deg); -webkit-transform: rotate(360deg); transform: rotate(360deg);"><path d="M531 257q-39 0-74.5 15.5t-61 41t-41 61T339 449t15.5 75t41 61.5t61 40.5t74.5 15q53 0 97-25.5t69.5-69.5t25.5-97q0-79-56-135.5T531 257zm0 320q-34 0-64-17.5t-47.5-47T402 448q0-26 10-49.5t27.5-41t41-27.5t49.5-10q53 0 90.5 37.5T658 448t-37 91t-90 38zm509-136q0-1-.5-2.5t-.5-2.5t-.5-1.5l-.5-.5v-1l-1-2q-68-157-206-246.5T530 95q-107 0-206 39T144.5 249.5T18 431v2.5l-1 1.5v3l-1 2q-1 6-1 9q0 2 .5 4t.5 4q0 1 1 3v2l.5 1.5l.5.5v3q69 157 207.5 245.5T528 801q107 0 205.5-38.5T912 648t125-181q1 0 1-1v-1.5l.5-1l.5-.5v-3l1-2q1-6 1-9q0-2-.5-4t-.5-4zM528 737q-142 0-263-74.5T81 449q63-139 185-214.5T530 159q92 0 176.5 32T862 289.5T975 449q-63 139-184 213.5T528 737z"/><rect x="0" y="0" width="1056" height="896" fill="rgba(0, 0, 0, 0)" /></svg>