<svg width="80" height="80" viewBox="0 0 80 80" fill="none" xmlns="http://www.w3.org/2000/svg">
<g clip-path="url(#clip0_957_1184)">
<path d="M24.5141 14.2857C28.5555 14.2857 31.7887 17.7372 31.7887 21.9966C31.7887 26.2559 28.5555 29.7074 24.5141 29.7074C20.4726 29.7074 17.2395 26.2559 17.2395 21.9966C17.2395 17.7372 20.4726 14.2857 24.5141 14.2857Z" fill="#7F3E13"/>
<path d="M24.5141 16.4153C21.5381 16.4153 19.3704 19.0958 19.3704 21.9965C19.3704 24.8606 21.5381 27.5777 24.5141 27.5777C27.4901 27.5777 29.6578 24.8973 29.6578 21.9965C29.6578 19.0958 27.5268 16.4153 24.5141 16.4153Z" fill="#B85A1B"/>
<path d="M24.5142 18.545C22.6772 18.545 21.5015 20.2708 21.5015 21.9966C21.5015 23.6856 22.7139 25.4481 24.5142 25.4481C26.3512 25.4481 27.5269 23.7223 27.5269 21.9966C27.5636 20.3075 26.3145 18.545 24.5142 18.545Z" fill="#63300F"/>
<path d="M55.4862 14.2857C59.5276 14.2857 62.7608 17.7372 62.7608 21.9966C62.7608 26.2559 59.5276 29.7074 55.4862 29.7074C51.4447 29.7074 48.2116 26.2559 48.2116 21.9966C48.2116 17.7372 51.4447 14.2857 55.4862 14.2857Z" fill="#7F3E13"/>
<path d="M55.4863 16.4153C52.5103 16.4153 50.3426 19.0958 50.3426 21.9965C50.3426 24.8606 52.5103 27.5777 55.4863 27.5777C58.4622 27.5777 60.6299 24.8973 60.6299 21.9965C60.6299 19.0958 58.4622 16.4153 55.4863 16.4153Z" fill="#B85A1B"/>
<path d="M55.4863 18.545C53.6493 18.545 52.4736 20.2708 52.4736 21.9966C52.4736 23.6856 53.6861 25.4481 55.4863 25.4481C57.3234 25.4481 58.4991 23.7223 58.4991 21.9966C58.4991 20.3075 57.2866 18.545 55.4863 18.545Z" fill="#4F2800"/>
<path d="M37.0791 17.8841C38.3283 17.8841 39.3938 18.9122 39.3938 20.1973C39.3938 21.4458 38.365 22.5106 37.0791 22.5106C35.7932 22.5106 34.7645 21.4825 34.7645 20.1973C34.7645 18.9489 35.7932 17.8841 37.0791 17.8841ZM42.9209 17.8841C44.17 17.8841 45.2355 18.9122 45.2355 20.1973C45.2355 21.4458 44.2068 22.5106 42.9209 22.5106C41.6717 22.5106 40.6062 21.4825 40.6062 20.1973C40.643 18.9489 41.6717 17.8841 42.9209 17.8841Z" fill="#7F3E13"/>
<path d="M66.9125 27.5043V41.8244L67.0595 41.8611C69.1537 42.7057 70.4763 44.615 70.4763 46.8548V57.1727L40.0185 67.2335L9.5607 57.4297V46.8916C9.5607 44.615 10.8834 42.7057 12.9776 41.8979L13.1245 41.8611V27.4676C13.1245 17.5536 66.9125 17.5536 66.9125 27.5043Z" fill="#7F3E13"/>
<path d="M15.5493 28.055V43.5135L14.3002 43.9908C12.904 44.5416 12.0222 45.8267 12.0222 47.3322V58.2008L40.0185 67.2335L68.0147 58.0172V47.3689C68.0147 45.8634 67.1329 44.5783 65.7368 44.0275L64.4876 43.5135V28.055C64.4876 20.7114 15.5861 20.7114 15.5493 28.055Z" fill="#B85A1B"/>
<path d="M15.5493 28.0551V43.5135L14.3002 43.9908C12.904 44.5416 12.0222 45.8267 12.0222 47.3322V58.2008L40.0185 67.2335V61.3219C30.319 61.3586 20.6195 55.0063 23.1913 42.4486H40.0185V22.584C27.7839 22.584 15.5493 24.42 15.5493 28.0551Z" fill="#E1762F"/>
<path d="M21.8687 39.1807H58.2785C63.4221 66.4991 16.2842 66.2788 21.8687 39.1807Z" fill="#E5895B"/>
<path d="M23.6689 41.3104C23.1545 45.533 24.073 49.6087 27.1959 52.7665C30.5026 56.0711 35.536 57.5031 40.1286 57.5031C44.5742 57.4664 49.277 56.0711 52.5469 52.9133C55.8168 49.7556 56.8455 45.6431 56.4046 41.3104H23.6689Z" fill="#E5895B"/>
<path d="M46.1174 54.0517C48.579 57.2094 55.7067 55.9243 53.5757 49.2416L46.1174 54.0517Z" fill="#FAD395"/>
<path d="M43.8762 53.354C46.6317 56.879 55.5596 54.786 53.5022 47.1486L43.8762 53.354Z" fill="#4F2800"/>
<path d="M46.2644 51.5181C46.8155 51.3712 47.3299 51.7384 47.5136 52.3259C47.6605 52.9134 47.3666 53.5009 46.8155 53.6477C46.2644 53.7946 45.75 53.4274 45.5663 52.8399C45.4194 52.2892 45.7133 51.665 46.2644 51.5181ZM52.1061 47.5158C52.6572 47.3689 53.2083 47.7361 53.3553 48.3236C53.5023 48.9111 53.2083 49.4986 52.6572 49.6455C52.1061 49.7923 51.555 49.4251 51.4081 48.8376C51.2611 48.2502 51.555 47.6259 52.1061 47.5158Z" fill="white"/>
<path d="M49.8647 54.7126C51.812 54.0517 53.502 52.5095 53.796 50.0127C52.2161 49.7924 49.4606 52.1056 49.8647 54.7126Z" fill="#AD6151"/>
<path d="M25.6162 39.1807H54.4942C58.5357 58.6782 21.2074 58.4946 25.6162 39.1807Z" fill="#FAD395"/>
<path d="M40.0186 50.2696C40.2023 49.0946 40.6432 47.9931 41.378 47.0384C44.8316 46.4876 47.8443 43.8806 46.889 39.144C44.6111 38.3362 42.2965 37.969 40.0553 37.969L38.6592 42.4486L40.0186 50.2696Z" fill="#4F2800"/>
<path d="M40.0186 50.2696C39.8349 49.0946 39.394 47.9931 38.6592 47.0384C35.2056 46.4876 32.1929 43.8806 33.1481 39.144C35.426 38.3362 37.7407 37.969 39.9819 37.969L40.0186 50.2696Z" fill="#63300F"/>
<path d="M34.9116 39.8417C38.3284 38.9237 41.7085 38.9237 45.1621 39.8417C46.595 43.4033 33.3317 43.3666 34.9116 39.8417Z" fill="#AD6151"/>
<path d="M34.5075 29.9277C36.6385 29.9277 38.3653 31.6535 38.3653 33.7832C38.3653 35.9128 36.6385 37.6386 34.5075 37.6386C32.3766 37.6386 30.6498 35.9128 30.6498 33.7832C30.6498 31.6535 32.3766 29.9277 34.5075 29.9277Z" fill="white"/>
<path d="M34.8014 31.2496C36.3813 31.2496 37.6672 32.5347 37.6672 34.1136C37.6672 35.6925 36.3813 36.9776 34.8014 36.9776C33.2216 36.9776 31.9357 35.6925 31.9357 34.1136C31.8989 32.5347 33.2216 31.2496 34.8014 31.2496Z" fill="#1B1D23"/>
<path d="M45.6031 29.9277C43.4721 29.9277 41.7453 31.6535 41.7453 33.7832C41.7453 35.9128 43.4721 37.6386 45.6031 37.6386C47.734 37.6386 49.4608 35.9128 49.4608 33.7832C49.4608 31.6535 47.734 29.9277 45.6031 29.9277Z" fill="white"/>
<path d="M45.3091 31.2496C43.7293 31.2496 42.4434 32.5347 42.4434 34.1136C42.4434 35.6925 43.7293 36.9776 45.3091 36.9776C46.889 36.9776 48.1749 35.6925 48.1749 34.1136C48.2116 32.5347 46.889 31.2496 45.3091 31.2496Z" fill="#1B1D23"/>
<path d="M37.2998 28.6426C34.2504 28.0918 31.605 28.6059 29.3271 30.0746C28.4821 25.3379 36.4548 23.9426 37.2998 28.6426Z" fill="#63300F"/>
<path d="M42.0025 26.2926C45.0519 25.7051 47.6973 26.2559 50.0119 27.6879C50.8202 22.9512 42.8475 21.5559 42.0025 26.2926Z" fill="#4F2800"/>
<path d="M70.4397 57.2094V86.8411C70.4397 88.8239 68.8231 90.4395 66.8391 90.4395H13.1246C11.1406 90.4395 9.52402 88.8239 9.52402 86.8411V57.4297L39.9818 64.7L70.4397 57.2094Z" fill="#7EAABA"/>
<path d="M68.0148 60.3304L40.0186 67.2335L11.9856 60.5508V86.2536C11.9856 87.245 12.7939 88.0528 13.7859 88.0528H66.2145C67.2065 88.0528 68.0148 87.245 68.0148 86.2536V60.3304Z" fill="#D3E8EF"/>
<path d="M40.0186 67.2335L12.0224 60.5508V86.2536C12.0224 87.245 12.8307 88.0528 13.8227 88.0528H40.0186V67.2335Z" fill="white"/>
<path d="M40.0184 74.5037H63.5691V76.0826V77.6615H40.0184V74.5037ZM40.0184 81.0396H63.5691V82.6185V84.1973H40.0184V81.0396Z" fill="#036AAB"/>
<path d="M16.468 74.5037H40.0186V77.6615H16.468V76.0826V74.5037ZM40.0186 84.1973V81.0396H16.468V82.6185V84.1973H40.0186Z" fill="#0399ED"/>
<path d="M26.0204 72.4475H28.9963V86.8411H26.0204V72.4475Z" fill="white"/>
<path d="M17.7539 59.4125C25.1754 61.175 32.597 62.9741 39.9818 64.7366L32.0459 72.2272C26.9022 69.2163 21.8321 65.8749 17.7539 59.4125Z" fill="#7EAABA"/>
<path d="M24.0364 63.4148C26.3143 65.6546 28.8127 67.4538 31.7152 69.2163L35.0585 66.0585C31.4212 65.1773 27.7105 64.296 24.0364 63.4148Z" fill="white"/>
<path d="M62.2465 59.4125C54.8249 61.175 47.4034 62.9741 40.0185 64.7366L47.9545 72.2272C53.0981 69.2163 58.1683 65.8749 62.2465 59.4125Z" fill="#7EAABA"/>
<path d="M55.964 63.4148C53.6861 65.6546 51.1877 67.4538 48.2852 69.2163L44.9419 66.0585C48.5792 65.1773 52.2899 64.296 55.964 63.4148Z" fill="white"/>
</g>
<defs>
<clipPath id="clip0_957_1184">
<rect width="80" height="80" fill="white"/>
</clipPath>
</defs>
</svg>
