<svg fill="none" xmlns="http://www.w3.org/2000/svg" viewBox="0 0 438 200"><g clip-path="url(#a)"><path fill-rule="evenodd" clip-rule="evenodd" d="M219 146.776c120.616 0 218.391 11.915 218.391 26.611 0 14.696-97.775 26.61-218.391 26.61C98.383 199.997.61 188.088.61 173.39c0-14.699 97.776-26.611 218.39-26.611" fill="#DDD"/><path fill-rule="evenodd" clip-rule="evenodd" d="M50.766 172.947c-.094 1.665-5.995 1.09-6.94.592-.364-.193-.516-.565-.546-1.018-.046-.718.223-1.637.453-2.356.377-1.171.326-1.151.587-1.951 0 0-.068-1.303 1.865-1.802 1.934-.498 2.642 2.749 2.971 3.371.304.572 1.478 1.354 1.6 2.761.012.129.012.263.005.403" fill="#222"/><path fill-rule="evenodd" clip-rule="evenodd" d="M41.845 126.065v7.02c0 7.785 1.374 24.88 1.87 34.325l5.223-.102 4.287-34.068 7.327 1.047.362-9.297c.086-32.143-16.38-24.657-14.937-6.433.16 2.006-4.902 5.306-4.132 7.508Z" fill="#025A91"/><path fill-rule="evenodd" clip-rule="evenodd" d="M55.84 101.927c1.792 3.933 2.958 5.183 8.088 5.945 4.16.62 12.077-8.734 12.676-10.012.6-1.275-1.675-4.613-2.409-4.226-.734.387-9.267 6.909-9.852 6.866-.592-.043-2.604-.962-7.17-3.928-.432-.278-2.596 3.455-1.333 5.355Z" fill="#80C2EA"/><path fill-rule="evenodd" clip-rule="evenodd" d="M74.402 94.084c-.192 1.208.934 3.154 1.79 3.5.096-.17.668-.906 1.045-1.472.812-1.218-1.106-3.759-1.67-3.194l-1.165 1.166Z" fill="#fff"/><path fill-rule="evenodd" clip-rule="evenodd" d="M76.736 92.267c.119-.556.625-2.745 1.032-3.115.208-.187.259-.104.35.015.08.104.149.388.126.582-.048.408-.078.777-.141.997 1.237-.647 2.421-2.166 3.325-3.203.367-.423.951-.378.6.377-.289.615-1.433 1.996-1.433 1.996l1.562-1.004c.432-.236.43.298.225.521-.34.367-1.382 1.349-1.382 1.349l1.139-.415c.435-.157.208.377.094.473-.266.215-1.213.82-1.213.82l.522-.172c.592-.195.16.564-.013.62-.035.013-2.078 1.306-2.434 1.518-.889.532-1.309 1.412-1.939 2.151-.342-.26-1.2-1.257-1.321-2.485l.9-1.022v-.003Z" fill="#F4B1B0"/><path fill-rule="evenodd" clip-rule="evenodd" d="M73.453 173.703H62.045a1.057 1.057 0 0 1-1.055-1.139l.463-5.992s.475-.22 1.139-.377a1.155 1.155 0 0 0 .868-.853c.263-1.154 1.923-1.519 2.232-.392a7.732 7.732 0 0 1 .124.526c.048.243.086.466.108.66v.013c.064.496.059.815.059.815.151.192.296.38.438.564.073.094.141.185.21.276a43.535 43.535 0 0 0 .637.818c.16.197.314.387.471.561.07.079.142.157.213.231.587.62 1.181 1.042 1.882 1.139 1.238.169 3.257.306 4.234 2.12a.704.704 0 0 1-.622 1.033" fill="#222"/><path fill-rule="evenodd" clip-rule="evenodd" d="m61.486 126.599-12.408 2.667 8.95 20.325 3.359 17.3 5.51.144c-.145-8.387-.808-16.824-1.21-21.653-.21-2.531-2.731-11.487-4.199-18.783" fill="#025A91"/><path fill-rule="evenodd" clip-rule="evenodd" d="M39.208 98.31c-1.709 2.547 3.436 17.394 2.012 30.334 7.986 1.372 16.386.379 21.159-1.139-.01-9.789-.911-21.458-2.938-28.767-.476-1.186-1.42-2.03-3.756-2.685-5.684-1.591-14.139-1.23-16.477 2.26" fill="#7DBF8C"/><path fill-rule="evenodd" clip-rule="evenodd" d="M53.941 91.296c-.561 1.118-1.584 2.12-2.46 2.54l.03 1.625.236.2c.926.992.018 3.343-.941 4.158-1.57-.182-4.902-3.247-4.1-4.434l.347-.387.076-2.3c-.137-.008-1.14-.577-1.438-.668-.298-.091-.736-.666-.764-1.273-.028-.608.909-.41.909-.41-1.134-1.554-2.42-2.822-.755-4.222 1.666-1.397 5.494-2.214 5.494-2.214l2.303-.8c-.293.795.32 3.073.912 4.728.531 1.485.906 1.95.151 3.452" fill="#BE7C45"/><path fill-rule="evenodd" clip-rule="evenodd" d="M48.215 93.019s1.303 2.235 2.373 2.437c1.07.203.524.053.922.005l-.03-1.624c-.74.118-1.461.06-3.265-.818Z" fill="#444" fill-opacity=".25"/><path fill-rule="evenodd" clip-rule="evenodd" d="M44.575 99.55c-.104-2.193-1.885-3.137-3.639-2.861-4.4 1.12-2.528 14.326-1.369 17.803.812 2.354 13.37 5.158 14.97 4.659.67-.21 1.796-.896 2.13-1.655.197-.45.4-1.149-.567-1.579-2.574-1.139-10.965-3.52-11.112-4.221-1.228-5.839-.248-8.678-.41-12.148" fill="#98D3A7"/><path fill-rule="evenodd" clip-rule="evenodd" d="M54.099 81.563c.678 2.135.076 3.882-2.033 4.484-1.571.448-3.712.326-4.828 1.64-.552.65-.496 1.59.121 3.037.182.427.425.741-.296.407-.331-.152-.876-.367-1.063-.218-.415.337-.205 1.038.127 1.266.147.101.427.253.427.253s-.832.319-1.695-.228c-.86-.546-3.376-2.21-3.237-5.02.208-4.171 4.272-5.594 7.901-7.78 1.594-.962 4.04.47 4.573 2.159" fill="#444"/><path fill-rule="evenodd" clip-rule="evenodd" d="M128.704 98.538c.24.937-.504 2.551-1.152 2.886-.088-.127-.592-.666-.931-1.084-.729-.898.597-3.039 1.081-2.637l1.002.835Z" fill="#80C2EA"/><path fill-rule="evenodd" clip-rule="evenodd" d="m128.704 74.881-64.632 5.915c-4.072.372-7.098 4.008-6.726 8.08l3.123 34.109c.371 4.072 4.008 7.099 8.08 6.724l64.703-5.921-4.545-48.91-.003.003Z" fill="#FE920D"/><path fill-rule="evenodd" clip-rule="evenodd" d="m131.015 99.763-72.07 6.595.754 8.258 72.085-6.597-.769-8.256Z" fill="#F36E21"/><path fill-rule="evenodd" clip-rule="evenodd" d="m132.06 111.412-2.068.188a4.016 4.016 0 0 0-3.621 4.35 4.012 4.012 0 0 0 4.35 3.619l2.068-.187.05-.006-.741-7.969h-.038v.005ZM129.916 87.94l-13.999 1.28a1.35 1.35 0 0 0-1.218 1.463l.329 3.599a1.35 1.35 0 0 0 1.463 1.217l14.01-1.283-.582-6.279-.003.003Z" fill="#FFD113"/><path fill-rule="evenodd" clip-rule="evenodd" d="m110.999 89.663-22.668 2.083a1.35 1.35 0 0 0-1.217 1.463l.33 3.599a1.348 1.348 0 0 0 1.462 1.217l22.668-2.083a1.35 1.35 0 0 0 1.217-1.463l-.329-3.599a1.35 1.35 0 0 0-1.463-1.217Z" fill="#FEB05C"/><path fill-rule="evenodd" clip-rule="evenodd" d="m120.618 112.116-2.067.19a4.014 4.014 0 0 0-3.622 4.35 4.015 4.015 0 0 0 4.351 3.621l2.067-.189a4.016 4.016 0 0 0 3.622-4.351 4.014 4.014 0 0 0-4.351-3.621Z" fill="#FFD113"/><path fill-rule="evenodd" clip-rule="evenodd" d="m63.768 88.61 9.784-.908a1.314 1.314 0 0 1 1.425 1.184l.939 10.11a1.313 1.313 0 0 1-1.182 1.425l-9.784.909a1.314 1.314 0 0 1-1.425-1.184l-.939-10.11a1.314 1.314 0 0 1 1.182-1.425Z" fill="#DE6426"/><path fill-rule="evenodd" clip-rule="evenodd" d="m73.94 97.03-4.047.377.131 1.412 4.047-.377-.132-1.412Zm-.246-2.637-1.412.132.187 2.022 1.412-.132-.187-2.022Zm-1.658-2.505.188 2.022 1.412-.132-.188-2.022-1.412.132Zm-5.64 3.183-1.413.132.188 2.022 1.412-.132-.188-2.022Zm-.246-2.637-1.412.132.187 2.022 1.412-.132-.187-2.022Zm.615-.055.433 4.656 4.659-.432-.433-4.66-4.66.433v.003Zm-1.536 5.461.131 1.412 4.047-.377-.132-1.412-4.046.377Zm3.368-7.673-4.046.377.131 1.412 4.047-.374-.132-1.413v-.002Zm4.662-.433-4.047.375.132 1.412 4.046-.377-.131-1.412v.002Zm-9.382.253 9.938-.923.924 9.938-9.938.923-.924-9.938Z" fill="#FEB05C"/><path d="m86.212 116.621-19.585 1.821.304 3.263 19.584-1.82-.303-3.264Z" fill="#FEB05C"/><path fill-rule="evenodd" clip-rule="evenodd" d="m55.913 116.405 1.101.357 2.46-.43c.276-.124 2.065-.542 1.59.048-.335.415-1.365 1.098-1.34 1.144.33.6 3.662 1.498 3.695 1.554.463.759-1.685.311-2.055.25-.096-.015 1.41.638 1.342.701-.084.076-.297.286-.701.21-.497-.093-1.319-.387-1.418-.316-.103.073 1.364.696 1.263.759-.078.048-.233.15-.544.084-.511-.112-1.255-.433-1.38-.382-.128.053.95.435.826.473-.096.028-.12.2-.218.187-2.573-.339-2.533-1.66-5.489-1.971-1.645-.172.299-2.412.863-2.668" fill="#BE7C45"/><path fill-rule="evenodd" clip-rule="evenodd" d="M115.671 0h221.207c3.983 0 7.243 3.26 7.243 7.245V142.48c0 3.986-3.26 7.246-7.243 7.246H115.671c-3.986 0-7.246-3.26-7.246-7.246V7.245c0-3.985 3.26-7.245 7.246-7.245Z" fill="#0A2540"/><mask id="b" style="mask-type:luminance" maskUnits="userSpaceOnUse" x="115" y="6" width="223" height="137"><path d="M115.433 142.75v-.005h-.008a.085.085 0 0 1-.038-.071V7.051a.09.09 0 0 1 .092-.089h221.594c.048 0 .089.04.091.089v135.623s0 .015-.002.023v.008a.092.092 0 0 1-.084.058H115.476a.083.083 0 0 1-.043-.013Z" fill="#fff"/></mask><g mask="url(#b)"><path d="M337.162 6.962H115.387v135.801h221.775V6.962Z" fill="#EAF6FD"/><path fill-rule="evenodd" clip-rule="evenodd" d="M295.154 94.73c0-9.845-4.769-17.615-13.885-17.615-9.154 0-14.692 7.77-14.692 17.539 0 11.577 6.538 17.423 15.923 17.423 4.577 0 8.039-1.039 10.654-2.5v-7.692c-2.615 1.307-5.615 2.115-9.423 2.115-3.731 0-7.039-1.308-7.462-5.846h18.808c0-.5.077-2.5.077-3.423Zm-19-3.653c0-4.346 2.654-6.154 5.077-6.154 2.346 0 4.846 1.808 4.846 6.154h-9.923ZM251.731 77.115c-3.769 0-6.192 1.77-7.539 3l-.5-2.384h-8.461v44.846l9.615-2.039.039-10.884c1.384 1 3.423 2.423 6.807 2.423 6.885 0 13.154-5.539 13.154-17.73-.038-11.155-6.384-17.232-13.115-17.232Zm-2.308 26.5c-2.269 0-3.615-.807-4.538-1.807l-.039-14.27c1-1.115 2.385-1.884 4.577-1.884 3.5 0 5.923 3.923 5.923 8.961 0 5.154-2.384 9-5.923 9ZM222 74.846l9.654-2.077v-7.808L222 67v7.846Z" fill="#0A2540"/><path d="M231.654 77.77H222v33.653h9.654V77.769Z" fill="#0A2540"/><path fill-rule="evenodd" clip-rule="evenodd" d="m211.654 80.615-.615-2.846h-8.308v33.654h9.615V88.615c2.27-2.961 6.116-2.423 7.308-2V77.77c-1.231-.461-5.731-1.307-8 2.846ZM192.423 69.423l-9.385 2-.038 30.808c0 5.692 4.269 9.884 9.962 9.884 3.153 0 5.461-.577 6.73-1.269v-7.808c-1.23.5-7.307 2.27-7.307-3.423V85.962h7.307v-8.193h-7.307l.038-8.346ZM166.423 87.538c0-1.5 1.231-2.076 3.269-2.076 2.923 0 6.616.884 9.539 2.461v-9.038c-3.192-1.27-6.346-1.77-9.539-1.77-7.807 0-13 4.077-13 10.885 0 10.615 14.616 8.923 14.616 13.5 0 1.769-1.539 2.346-3.693 2.346-3.192 0-7.269-1.308-10.5-3.077v9.154c3.577 1.539 7.193 2.192 10.5 2.192 8 0 13.5-3.961 13.5-10.846-.038-11.461-14.692-9.423-14.692-13.73Z" fill="#0A2540"/></g><path fill-rule="evenodd" clip-rule="evenodd" d="M104.756 158.453h242.789l34.818 16.802c.977.47.42 7.539-.124 8.381-1.043 1.628-4.039 3.28-6.139 3.28H78.323c-2.058 0-4.958-1.587-5.965-3.176-.587-.929-.309-6.952-.256-8.098l32.652-17.189h.002Z" fill="#CCC"/><path fill-rule="evenodd" clip-rule="evenodd" d="M104.756 158.453h242.789l34.555 16.531c1.516.726.87 6 .607 6.408-1.048 1.624-4.507 3.472-6.608 3.472H78.323c-2.058 0-5.295-1.713-6.302-3.305-.235-.37-.18-1.377-.207-2.736.022-1.405.106-2.683.286-3.181l32.651-17.189h.005Z" fill="#CCC"/><path fill-rule="evenodd" clip-rule="evenodd" d="m114.436 149.654 224.54.041c2.979-.162 5.606.086 7.727 1.505l35.21 23.64c2.611 1.753-2.617 5.555-5.813 5.555H78.323c-3.11 0-8.144-3.619-5.659-5.409l32.56-23.442c3.022-2.173 5.737-1.898 9.21-1.89" fill="#fff"/><path fill-rule="evenodd" clip-rule="evenodd" d="M128.517 155.221h193.949l13.086 12.558H115.431l13.086-12.558ZM193.592 170.608h62.984l4.163 7.124h-70.495l3.348-7.124Z" fill="#CCC"/><mask id="c" style="mask-type:luminance" maskUnits="userSpaceOnUse" x="361" y="60" width="44" height="43"><path d="M382.897 60.406c11.73 0 21.238 9.508 21.238 21.237 0 11.73-9.508 21.241-21.238 21.241s-21.24-9.51-21.24-21.24c0-11.73 9.507-21.238 21.24-21.238Z" fill="#fff"/></mask><g mask="url(#c)"><path d="M404.135 60.406h-42.478v42.478h42.478V60.406Z" fill="#7DBF8C"/></g><path d="m376.357 91.351 11.887-20.562h2.544l-11.971 20.562h-2.46Zm19.32-5.484c0 1.673-.463 3.007-1.384 3.999-.924.99-2.162 1.485-3.71 1.485-1.549 0-2.812-.496-3.736-1.485-.921-.995-1.384-2.326-1.384-3.999s.463-2.991 1.384-3.973c.924-.985 2.169-1.475 3.736-1.475 1.566 0 2.794.49 3.715 1.475.921.98 1.379 2.303 1.379 3.973Zm-5.107 3.404c.607 0 1.045-.263 1.316-.795.271-.531.407-1.402.407-2.609s-.134-2.062-.407-2.586c-.271-.522-.709-.782-1.316-.782-.607 0-1.045.258-1.313.782-.274.521-.41 1.387-.41 2.586 0 1.2.134 2.078.41 2.61.268.53.706.794 1.313.794Zm-8.658-13.01c0 1.665-.463 2.988-1.386 3.978-.927.99-2.164 1.485-3.721 1.485-1.556 0-2.801-.49-3.722-1.475-.921-.984-1.385-2.313-1.385-3.986s.464-2.996 1.385-3.986c.921-.99 2.161-1.485 3.722-1.485 1.562 0 2.804.496 3.723 1.485.921.99 1.384 2.318 1.384 3.986v-.002Zm-5.107 3.38c.608 0 1.046-.263 1.314-.791.273-.527.407-1.392.407-2.594 0-1.203-.131-2.068-.407-2.594-.268-.527-.706-.79-1.314-.79-.607 0-1.045.263-1.313.79-.271.526-.407 1.391-.407 2.593 0 1.203.134 2.068.407 2.595.271.526.709.792 1.313.792Z" fill="#fff"/><path fill-rule="evenodd" clip-rule="evenodd" d="M212.562 6.456h-26.003c-1.627 5.517-3.25 11.036-4.869 16.548-1.622 5.515-3.257 11.029-4.872 16.543h33.373l2.371-33.091Z" fill="#fff"/><path fill-rule="evenodd" clip-rule="evenodd" d="M186.559 6.456h-23.632c-3.242 5.517-6.479 11.036-9.726 16.548-3.249 5.515-6.499 11.029-9.74 16.543h33.357c1.615-5.514 3.249-11.028 4.872-16.543 1.619-5.512 3.241-11.031 4.869-16.548Z" fill="#FF5665"/><path fill-rule="evenodd" clip-rule="evenodd" d="M162.927 6.456h-23.604c-4.872 5.517-9.731 11.039-14.597 16.548l-14.613 16.543h33.345a17691.23 17691.23 0 0 1 9.741-16.543c3.247-5.512 6.484-11.031 9.725-16.548" fill="#fff"/><path fill-rule="evenodd" clip-rule="evenodd" d="M139.323 6.456h-23.617a23353.722 23353.722 0 0 1-19.468 16.548c-6.494 5.515-12.983 11.029-19.482 16.543h33.357l14.613-16.543c4.866-5.51 9.725-11.031 14.597-16.548Z" fill="#FF5665"/><path fill-rule="evenodd" clip-rule="evenodd" d="M176.816 39.548h33.372v4.049c0 5.203-9.505 6.405-16.766 6.352-9.492-.071-16.606-1.486-16.606-6.15V39.548Z" fill="#C6E6F9"/><path fill-rule="evenodd" clip-rule="evenodd" d="M143.445 39.548h33.37v4.049c0 5.203-9.505 6.405-16.766 6.352-9.49-.071-16.606-1.486-16.606-6.15V39.55l.002-.002Z" fill="#FF5665"/><path fill-rule="evenodd" clip-rule="evenodd" d="M110.073 39.548h33.372v4.049c0 5.203-9.505 6.405-16.766 6.352-9.492-.071-16.606-1.486-16.606-6.15V39.548Z" fill="#C6E6F9"/><path fill-rule="evenodd" clip-rule="evenodd" d="M76.703 39.548h33.372v4.049c0 5.203-9.505 6.405-16.766 6.352-9.492-.071-16.606-1.486-16.606-6.15V39.548ZM242.014 39.548h-31.826v4.049c0 5.203 9.065 6.405 15.989 6.352 9.053-.071 15.837-1.486 15.837-6.15V39.548ZM210.188 39.547h31.826V6.456h-29.452l-2.374 33.091Z" fill="#FF5665"/><path fill-rule="evenodd" clip-rule="evenodd" d="M239.643 6.456h26.003c1.628 5.517 3.25 11.036 4.869 16.548 1.623 5.515 3.257 11.029 4.872 16.543h-33.373l-2.371-33.091Z" fill="#fff"/><path fill-rule="evenodd" clip-rule="evenodd" d="M265.646 6.456h23.632c3.242 5.517 6.479 11.036 9.726 16.548 3.249 5.515 6.499 11.029 9.74 16.543h-33.357c-1.615-5.514-3.249-11.028-4.872-16.543-1.619-5.512-3.241-11.031-4.869-16.548Z" fill="#FF5665"/><path fill-rule="evenodd" clip-rule="evenodd" d="M289.278 6.456h23.604c4.872 5.517 9.731 11.039 14.597 16.548l14.613 16.543h-33.345a17691.23 17691.23 0 0 0-9.741-16.543c-3.247-5.512-6.484-11.031-9.725-16.548" fill="#fff"/><path fill-rule="evenodd" clip-rule="evenodd" d="M312.88 6.456h23.616c6.484 5.517 12.978 11.036 19.469 16.548 6.494 5.515 12.983 11.029 19.481 16.543h-33.357c-4.869-5.514-9.738-11.026-14.612-16.543-4.867-5.51-9.726-11.031-14.597-16.548Z" fill="#FF5665"/><path fill-rule="evenodd" clip-rule="evenodd" d="M275.387 39.548h-33.372v4.049c0 5.203 9.505 6.405 16.766 6.352 9.492-.071 16.606-1.486 16.606-6.15V39.548Z" fill="#C6E6F9"/><path fill-rule="evenodd" clip-rule="evenodd" d="M308.759 39.548h-33.37v4.049c0 5.203 9.506 6.405 16.766 6.352 9.491-.071 16.607-1.486 16.607-6.15V39.55l-.003-.002Z" fill="#FF5665"/><path fill-rule="evenodd" clip-rule="evenodd" d="M342.13 39.548h-33.373v4.049c0 5.203 9.503 6.405 16.766 6.352 9.493-.071 16.607-1.486 16.607-6.15V39.548Z" fill="#C6E6F9"/><path fill-rule="evenodd" clip-rule="evenodd" d="M375.502 39.548h-33.373v4.049c0 5.203 9.506 6.405 16.766 6.352 9.493-.071 16.607-1.486 16.607-6.15V39.548Z" fill="#FF5665"/><path d="m325.755 118.68.065-10.364a9.297 9.297 0 0 1 2.723-6.526 9.13 9.13 0 0 1 6.489-2.69 9.045 9.045 0 0 1 6.454 2.726 9.239 9.239 0 0 1 2.637 6.541l-.07 10.364a.688.688 0 0 0 .683.695.696.696 0 0 0 .691-.691l.07-10.364c.038-5.869-4.641-10.64-10.453-10.655-5.814-.017-10.556 4.727-10.596 10.598l-.07 10.364a.688.688 0 0 0 .683.695.698.698 0 0 0 .694-.691" fill="#B83330"/><mask id="d" style="mask-type:luminance" maskUnits="userSpaceOnUse" x="300" y="113" width="48" height="60"><path d="M333.733 172.503h-.021l-9.59-.026h-.019l-9.564-.027h-.028l-9.558-.025h-.036l-4.199-.013.04-.44v-.002l.028-.29v-.006l.158-1.772v-.002l.028-.292v-.002l.025-.289v-.007l.161-1.771.025-.292v-.004l.026-.288h.002v-.008l.158-1.772.026-.292h.002v-.004l.184-2.066h.002v-.002l.025-.289v-.005l.186-2.067v-.002l.026-.29h.002v-.004l.184-2.068.027-.292v-.004l.186-2.065v-.003l.212-2.361v-.002l.213-2.362v-.002l3.358-37.366 34.076.095h.013l7.588.019-5.284 58.785-8.662-.025Z" fill="#fff"/></mask><g mask="url(#d)"><path d="M347.679 113.629h-46.961v58.899h46.961v-58.899Z" fill="#FF5665"/></g><path d="m354.991 113.764-7.313-.021-5.283 58.785 17.1.047-4.504-58.811Z" fill="#DD4845"/><path d="m342.395 172.528 8.603-7.71 8.497 7.757-17.1-.047Z" fill="#D96927"/><path d="M315.226 119.439a1.723 1.723 0 0 1 1.716-1.719 1.707 1.707 0 0 1 1.696 1.727 1.728 1.728 0 0 1-1.721 1.719 1.705 1.705 0 0 1-1.694-1.727M334.899 119.494a1.724 1.724 0 0 1 1.721-1.719c.94.002 1.701.776 1.695 1.727a1.727 1.727 0 0 1-1.721 1.719 1.705 1.705 0 0 1-1.695-1.727Z" fill="#B83330"/><path d="m317.623 118.657.072-10.364a9.282 9.282 0 0 1 2.721-6.527 9.123 9.123 0 0 1 6.489-2.689 9.049 9.049 0 0 1 6.454 2.725 9.23 9.23 0 0 1 2.637 6.542l-.07 10.363a.688.688 0 0 0 .683.696.694.694 0 0 0 .689-.691l.07-10.364c.038-5.869-4.641-10.639-10.455-10.656-5.812-.017-10.554 4.728-10.59 10.599l-.072 10.363c0 .383.305.694.683.696a.69.69 0 0 0 .689-.691" fill="#B83330"/><path d="m347.518 143.061.038-5.675a5.083 5.083 0 0 1 1.488-3.573 4.993 4.993 0 0 1 3.554-1.471 4.953 4.953 0 0 1 3.533 1.492 5.048 5.048 0 0 1 1.444 3.582l-.038 5.674a.375.375 0 0 0 .372.381.385.385 0 0 0 .381-.379l.038-5.676c.021-3.214-2.544-5.825-5.723-5.835-3.184-.009-5.781 2.589-5.804 5.803l-.038 5.675c0 .209.167.38.374.38a.384.384 0 0 0 .381-.378Z" fill="#025A91"/><mask id="e" style="mask-type:luminance" maskUnits="userSpaceOnUse" x="333" y="140" width="27" height="33"><path d="M349.769 172.53h-.031l-9.446-.027h-.034l-6.451-.017 1.227-13.656v-.002l.211-2.361h.002v-.002l.184-2.068h.002v-.002l.026-.29v-.006l.158-1.774.028-.292v-.002l.025-.29h.002v-.006l.159-1.772v-.002l.025-.289v-.007l.027-.287v-.009l.159-1.769v-.004l.028-.288v-.006l.025-.286v-.01l.133-1.476v-.002l.028-.292v-.004l.025-.288v-.008l.161-1.77v-.004l.025-.287v-.009l.025-.283h.002v-.011l.134-1.478.025-.291v-.005l.025-.287h.003v-.009l.019-.207 1.228.005h.03l9.687.025h.038l9.679.027h.029l2.131.007-2.892 32.19-6.861-.019Z" fill="#fff"/></mask><g mask="url(#e)"><path d="M359.522 140.295h-25.715v32.254h25.715v-32.254Z" fill="#6BA6CB"/></g><path d="m363.527 140.369-4.005-.01-2.892 32.19 9.36.026-2.463-32.206Z" fill="#146FA8"/><path d="m356.63 172.549 4.708-4.222 4.652 4.248-9.36-.026ZM341.75 143.477a.945.945 0 0 1 .941-.941c.518 0 .933.425.931.945a.945.945 0 0 1-.941.943.936.936 0 0 1-.931-.947ZM352.524 143.507a.942.942 0 0 1 .943-.941.93.93 0 0 1 .926.945.945.945 0 0 1-.941.943.934.934 0 0 1-.93-.947" fill="#025A91"/><path d="m343.065 143.048.038-5.675a5.102 5.102 0 0 1 1.493-3.575 4.985 4.985 0 0 1 3.552-1.471 4.946 4.946 0 0 1 3.533 1.492c.9.92 1.452 2.182 1.444 3.582l-.038 5.674a.375.375 0 0 0 .372.381.382.382 0 0 0 .38-.376l.038-5.677c.021-3.216-2.541-5.827-5.727-5.835-3.18-.009-5.778 2.59-5.799 5.803l-.038 5.675a.374.374 0 0 0 .374.38.377.377 0 0 0 .376-.378" fill="#025A91"/></g><defs><clipPath id="a"><path fill="#fff" d="M.61 0h436.78v200H.61z"/></clipPath></defs></svg>