<svg width="210" height="212" fill="none" xmlns="http://www.w3.org/2000/svg"><mask id="a" fill="#fff"><path fill-rule="evenodd" clip-rule="evenodd" d="M183.675 63.43c-4.858 10.017-19.763 13.5-37.192 10.053 5.255 7.122 7.578 14.69 6.116 21.992-1.074 5.359-4.086 10.07-8.615 14.003 36.622 11.24 61.316 33.824 58.215 56.085-3.782 27.156-47.496 43.546-97.636 36.609-50.14-6.937-87.72-34.575-83.938-61.731 1.674-12.016 11.166-21.925 25.574-28.637C21.323 100.77 5.787 83.181 9.046 66.912c4.315-21.542 39.949-32.61 79.59-24.723 3.058.608 6.05 1.312 8.967 2.102-6.464-8.74-8.753-17.764-5.304-24.876 6.712-13.84 32.608-15.206 57.841-3.052 25.232 12.155 40.246 33.228 33.535 47.068z"/></mask><path d="M146.483 73.483l.194-.981-2.53-.5 1.531 2.075.805-.594zm37.192-10.052l.899.436-.899-.436zm-31.076 32.044l-.981-.196.981.196zm-8.615 14.003l-.656-.756-1.361 1.182 1.723.53.294-.956zm58.215 56.085l.991.138-.991-.138zm-97.636 36.609l.137-.991-.137.991zm-83.938-61.731l-.99-.138.99.138zM46.2 111.804l.422.907 1.994-.929-2.011-.892-.405.914zM9.046 66.912l.98.196-.98-.196zm79.59-24.723l-.196.98.195-.98zm8.967 2.102l-.261.965 2.775.752-1.71-2.312-.804.595zM92.3 19.415l.9.436-.9-.436zm57.841-3.052l-.434.901.434-.9zm-3.851 58.1c8.819 1.745 17.061 1.75 23.756.01 6.694-1.739 11.933-5.253 14.529-10.606l-1.799-.873c-2.262 4.664-6.904 7.9-13.233 9.544-6.33 1.644-14.255 1.667-22.865-.036l-.388 1.962zm7.29 21.209c1.534-7.658-.924-15.508-6.292-22.783l-1.609 1.188c5.142 6.969 7.332 14.255 5.94 21.202l1.961.393zm-8.94 14.561c4.665-4.05 7.815-8.947 8.94-14.561l-1.961-.393c-1.022 5.103-3.895 9.628-8.29 13.443l1.311 1.511zm-.949.201c18.204 5.587 33.385 13.977 43.609 23.679 10.234 9.71 15.399 20.621 13.91 31.312l1.981.276c1.611-11.569-4.02-23.081-14.514-33.039-10.503-9.966-25.98-18.487-44.399-24.14l-.587 1.912zm57.519 54.991c-1.817 13.042-13.268 23.719-30.795 30.291-17.485 6.556-40.776 8.916-65.714 5.465l-.274 1.982c25.202 3.487 48.838 1.12 66.69-5.574 17.811-6.678 30.108-17.774 32.074-31.888l-1.981-.276zM104.7 201.181c-24.938-3.45-46.703-12.044-61.735-23.098-15.067-11.081-23.166-24.463-21.35-37.504l-1.98-.276c-1.966 14.114 6.833 28.13 22.146 39.391 15.348 11.288 37.443 19.982 62.645 23.469l.274-1.982zm-83.085-60.602c1.608-11.542 10.753-21.228 25.006-27.868l-.845-1.813c-14.562 6.784-24.402 16.915-26.141 29.405l1.98.276zM8.065 66.716c-1.709 8.532 1.536 17.297 8.242 25.25 6.709 7.955 16.95 15.192 29.486 20.752l.811-1.828c-12.34-5.473-22.305-12.549-28.768-20.213-6.466-7.668-9.36-15.832-7.81-23.569l-1.96-.392zm80.766-25.508c-19.952-3.97-38.943-3.181-53.534 1.351-14.549 4.52-24.968 12.857-27.232 24.157l1.961.392c2.052-10.242 11.607-18.21 25.864-22.639 14.215-4.415 32.861-5.217 52.55-1.3l.39-1.961zm9.034 2.118a136.308 136.308 0 0 0-9.034-2.118l-.39 1.962c3.035.603 6.006 1.302 8.9 2.086l.524-1.93zM91.4 18.979c-3.69 7.607-1.156 17.043 5.4 25.907l1.607-1.19C92.033 35.078 89.99 26.47 93.2 19.851l-1.8-.872zm59.174-3.517c-12.739-6.136-25.688-8.882-36.352-8.32-10.623.561-19.234 4.437-22.822 11.837l1.8.872c3.122-6.44 10.816-10.167 21.127-10.711 10.269-.542 22.885 2.106 35.379 8.124l.868-1.802zm34 48.405c3.59-7.401 1.287-16.536-4.873-25.182-6.184-8.68-16.389-17.087-29.127-23.223l-.868 1.802c12.494 6.019 22.413 14.226 28.366 22.581 5.977 8.39 7.825 16.71 4.703 23.15l1.799.872z" fill="#D1C1FF" mask="url(#a)"/><ellipse cx="18.107" cy="18.052" rx="18.107" ry="18.052" transform="rotate(-13.159 259.865 -188.5) skewX(.086)" fill="#B999FF"/><path d="M73.774 79.528l-.568-2.416c-2.747.555-5.153-.157-6.801-1.48l.567-.8c1.385 1.067 3.507 1.932 6.04 1.456l-2.055-8.731c-2.964-.118-5.912-.298-6.65-3.428-.678-2.883 1.511-5.19 4.44-5.962l-.582-2.471.881-.206.589 2.498c2.374-.41 4.363.139 5.89 1.317l-.54.792c-1.506-1.212-3.278-1.58-5.156-1.285l1.841 7.825c3.032.16 6.136.506 6.95 3.966.465 1.977-.1 5.006-4.54 6.275l.576 2.444-.882.206zm3.882-8.7c-.64-2.718-3.106-3.069-5.76-3.23l1.997 8.484c3.695-1.096 4.15-3.606 3.763-5.254zm-12.384-6.925c.543 2.307 2.866 2.546 5.459 2.693l-1.79-7.606c-2.543.682-4.18 2.744-3.669 4.913zm107.15 42.905l-49.237-48.973c-3.782-3.763-8.041-3.792-11.819-.034L83.362 85.658c-3.773 3.753-3.749 7.995.034 11.757l49.236 48.978c3.783 3.763 8.042 3.792 11.82.034l28.004-27.857c3.773-3.753 3.749-7.995-.034-11.757v-.005z" fill="#6108CE"/><path d="M89.676 103.658l58.626 38.934 24.154-24.027c3.773-3.753 3.749-7.994-.034-11.757l-18.297-18.201-64.882 14.62.438.436-.005-.005z" fill="#3C087E"/><path d="M149.452 102.504H79.82c-5.351 0-8.378 2.978-8.378 8.287v39.399c0 5.309 3.032 8.287 8.383 8.287h69.627c5.352 0 8.379-2.978 8.379-8.287v-39.399c0-5.309-3.032-8.287-8.384-8.287h.005z" fill="#B999FF"/><path d="M157.831 115.521h-86.39v8.99h86.39v-8.99zm-33.928 16.803h-43.37v4.308h43.37v-4.308zm-21.56 8.77H80.658v4.308h21.685v-4.308z" fill="#6108CE"/><path d="M179.575 164.045c0 9.968-8.108 18.049-18.11 18.049-10.002 0-18.11-8.081-18.11-18.049s8.108-18.049 18.11-18.049c10.002 0 18.11 8.081 18.11 18.049z" fill="#E1D7FF"/><path d="M159.186 172.663c-3.857-.917-6.383-4.159-6.373-8.235l9.585 2.278.205-.831-9.751-2.318c.04-.519.142-1.052.272-1.579.136-.554.293-1.075.505-1.582l9.75 2.318.205-.832-9.585-2.278c1.883-3.632 5.65-5.319 9.478-4.409 2.287.544 4.149 2.102 5.041 4.045l.839-.446c-1.162-2.272-3.086-3.815-5.675-4.43-4.324-1.028-8.621.914-10.648 5.01l-1.542-.366-.204.832 1.377.327a10.582 10.582 0 0 0-.505 1.582 9.814 9.814 0 0 0-.272 1.579l-1.377-.328-.204.832 1.515.36c-.106 4.582 2.807 8.268 7.159 9.302 2.589.616 4.921.143 7.14-1.413l-.573-.752c-1.697 1.328-4.076 1.877-6.362 1.334z" fill="#6108CE"/><path d="M17.314 53.626a3.995 3.995 0 0 1 3.242-4.63l13.722-2.413a4.005 4.005 0 0 1 4.636 3.247l2.415 13.653a3.995 3.995 0 0 1-3.242 4.63l-13.722 2.412a4.005 4.005 0 0 1-4.636-3.246l-2.415-13.653z" fill="#873EFF"/><g clip-path="url(#clip0_5305_189230)"><path d="M23.614 61.73c.477-.085.818-.386 1.01-.977l.43-1.31.18 1.016c.106.598.558.887 1.158.782.47-.083.782-.35 1.017-.977l1.037-2.747c.227-.603-.075-.973-.787-.848-.383.068-.608.234-.758.69l-.681 2.085-.3-1.695c-.09-.504-.374-.708-.821-.63-.354.062-.61.264-.752.725l-.628 2.04-.297-1.678c-.096-.54-.36-.729-.901-.634l-1.107.195c-.418.073-.595.304-.532.662.063.358.323.524.73.452l.453-.08.378 2.142c.107.604.577.89 1.171.786zm6.822-5.549c-1.207.212-1.972 1.272-1.757 2.487.215 1.214 1.302 1.942 2.503 1.731 1.2-.21 1.96-1.27 1.752-2.48-.215-1.214-1.298-1.949-2.498-1.738zm.517 2.922c-.454.08-.826-.206-.909-.675-.083-.47.168-.87.621-.95.453-.08.826.211.91.68.082.47-.163.864-.622.945zm4.033-3.721c-1.2.21-1.966 1.27-1.751 2.485.215 1.214 1.297 1.944 2.497 1.732 1.2-.21 1.966-1.27 1.752-2.479-.214-1.209-1.297-1.95-2.498-1.738zm.517 2.92c-.46.082-.82-.206-.903-.675-.083-.47.162-.87.615-.95.454-.079.827.213.91.682.083.47-.169.864-.622.944z" fill="#fff"/></g><defs><clipPath id="clip0_5305_189230"><path fill="#fff" transform="rotate(-9.968 342.227 -90.226) skewX(.064)" d="M0 0H16.577V4.289H0z"/></clipPath></defs></svg>