<svg xmlns="http://www.w3.org/2000/svg" width="122" height="14" fill="none"><path fill="#576062" d="m.01 10.791 1.692-9.493C1.732 1.1 1.86 1 2.057 1H7.97c.227 0 .342.141.298.354l-.242 1.334c-.03.185-.157.298-.354.298H3.735l-.37 2.058h3.582c.227 0 .342.142.298.354l-.227 1.305c-.029.198-.156.298-.354.298h-3.64l-.682 3.847c-.03.197-.157.297-.355.297H.307c-.227 0-.342-.14-.298-.353m6.98-1.49c0-1.844 1.962-2.468 4.022-2.71.242-.029.428-.041 1.337-.112.029-.186.041-.342.041-.498 0-.653-.354-1.022-1.094-1.022-.64 0-1.066.269-1.266.795-.071.186-.186.27-.37.27H8.213c-.186 0-.313-.084-.313-.24 0-.044.014-.086.029-.128.454-1.334 1.72-2.186 3.611-2.186s2.928.71 2.928 2.428c0 .326-.042.739-.115 1.122l-.383 2.07c-.086.483-.213 1.22-.213 1.718 0 .256-.114.341-.327.341h-1.322c-.198 0-.313-.1-.313-.283 0-.17.041-.368.071-.553-.54.539-1.236.978-2.473.978-1.463 0-2.401-.725-2.401-1.986zm5.186-1.205.056-.256-.383.041c-.768.085-2.446.2-2.446 1.205 0 .524.383.78.994.78 1.137 0 1.55-.78 1.777-1.773zm2.518 1.36a1.8 1.8 0 0 1-.07-.438c0-.242.127-.313.326-.313h1.635c.198 0 .298.1.342.298.157.554.626.795 1.322.795.797 0 1.222-.326 1.222-.751 0-.369-.428-.54-1.137-.752l-.838-.256c-1.207-.369-2.203-.795-2.203-2.115 0-1.603 1.52-2.483 3.525-2.483 1.564 0 2.844.412 3.213 1.986.015.07.03.141.03.226 0 .142-.128.198-.328.198h-1.55c-.185 0-.282-.085-.369-.27-.17-.37-.554-.596-1.165-.596-.711 0-1.065.27-1.065.653s.341.554 1.321.852l.555.17c1.28.398 2.346.866 2.346 2.059 0 1.732-1.564 2.639-3.697 2.639-1.65 0-3.084-.468-3.412-1.902zm8.018.455c0-.269.041-.483.085-.725l.697-3.888h-.767c-.227 0-.343-.141-.299-.354l.171-.951c.03-.185.157-.298.355-.298h.823l.299-1.717c.029-.198.156-.298.354-.298h1.564c.227 0 .342.142.298.354l-.298 1.661h.994c.228 0 .342.142.298.356l-.17.951c-.03.186-.157.298-.355.298h-1.05l-.455 2.54c-.086.482-.157.851-.157 1.149 0 .468.157.624.484.624.127 0 .242-.015.327-.015.227 0 .298.17.257.383l-.157.922c-.056.355-.27.412-.782.412-1.336 0-2.516-.071-2.516-1.405m4.114.88 1.678-9.493c.03-.198.157-.298.355-.298h1.563c.228 0 .342.141.298.354l-1.69 9.493c-.03.198-.157.298-.355.298h-1.55c-.227 0-.341-.141-.298-.354zm3.24-1.49c0-1.844 1.962-2.468 4.022-2.71.242-.029.428-.041 1.337-.112.029-.186.041-.342.041-.498 0-.653-.354-1.022-1.094-1.022-.64 0-1.065.269-1.266.795-.071.186-.186.27-.37.27h-1.448c-.186 0-.313-.084-.313-.24 0-.044.014-.086.029-.128.454-1.334 1.72-2.186 3.611-2.186s2.928.71 2.928 2.428c0 .326-.042.739-.115 1.122l-.384 2.07c-.085.483-.212 1.22-.212 1.718 0 .256-.115.341-.328.341h-1.322c-.198 0-.312-.1-.312-.283 0-.17.04-.368.07-.553-.54.539-1.236.978-2.473.978-1.464 0-2.402-.725-2.402-1.986V9.3zm5.06-1.205.056-.256-.383.041c-.767.085-2.446.2-2.446 1.205 0 .524.384.78.995.78 1.136 0 1.55-.78 1.776-1.773zm2.549 2.695 1.194-6.798c.029-.2.156-.298.354-.298h1.464c.227 0 .327.142.283.356l-.114.666c.368-.524 1.165-1.193 2.472-1.193 1.422 0 2.246.88 2.246 2.256 0 .269-.029.54-.085.866l-.753 4.2c-.029.198-.156.298-.354.298h-1.564c-.227 0-.342-.141-.298-.354l.582-3.249c.086-.482.115-.851.115-1.122 0-.765-.284-1.178-.98-1.178-.924 0-1.479.725-1.72 2.086l-.626 3.52c-.03.197-.157.297-.355.297h-1.563c-.228 0-.342-.141-.298-.354zm8.303-2.824c0-2.384 1.634-4.456 4.478-4.456 2.204 0 3.553 1.22 3.553 3.42 0 .256-.014.483-.041.71-.03.2-.157.297-.355.297h-5.388c.03 1.051.511 1.689 1.605 1.689.555 0 .939-.198 1.252-.51a.49.49 0 0 1 .398-.186h1.72c.198 0 .313.056.313.2 0 .042-.015.1-.07.198-.726 1.25-1.891 2.07-3.78 2.07-2.16 0-3.683-1.177-3.683-3.433zm5.756-1.406c0-.907-.498-1.475-1.463-1.475-1.039 0-1.664.71-1.833 1.475h3.299zm35.311-.61-1.548 2.6-.787-2.58a.2.2 0 0 0-.19-.141h-1.396a.15.15 0 0 0-.144.196l1.408 4.342-1.273 2.046a.149.149 0 0 0 .127.228h1.505a.25.25 0 0 0 .213-.12l3.93-6.466a.148.148 0 0 0-.13-.225h-1.504a.24.24 0 0 0-.21.12M64.804 13c-.138 0-.211-.063-.211-.168a.28.28 0 0 1 .031-.116l.68-1.613-2.005-5.209c-.032-.084-.054-.126-.054-.19 0-.104.085-.136.223-.136h.72c.14 0 .234.073.276.2l.965 2.817c.18.527.308.886.445 1.328h.022c.18-.517.276-.823.466-1.36l.987-2.784c.053-.137.147-.201.286-.201h.647c.138 0 .234.042.234.148a.5.5 0 0 1-.054.168l-2.778 6.928c-.054.126-.139.19-.276.19h-.605zm-4.202-1.772c-.955 0-1.57-.422-1.888-.906v.537c0 .158-.085.243-.244.243h-.52c-.159 0-.244-.085-.244-.243V3.803c0-.158.085-.242.244-.242h.594c.159 0 .244.084.244.242v1.382c0 .379 0 .696-.01 1.085.318-.453.933-.874 1.814-.874 1.58 0 2.598 1.244 2.598 2.92 0 1.678-1.061 2.911-2.588 2.911m-.211-.875c1.038 0 1.643-.802 1.643-2.025 0-1.224-.615-2.035-1.654-2.035s-1.654.854-1.654 2.035c0 1.18.616 2.025 1.666 2.025zm13.201-1.666a2.91 2.91 0 0 0 2.879-2.454c.224-1.425-.896-2.666-2.48-2.67h-2.556a.2.2 0 0 0-.197.169l-1.14 7.19a.182.182 0 0 0 .183.213h1.354a.2.2 0 0 0 .197-.17l.335-2.111c.016-.097.1-.17.197-.17h1.228zm1.131-2.52c-.084.527-.492.914-1.275.914h-1.002l.303-1.916h.984c.81 0 1.074.475.99 1zm7.606-.337h-1.282a.2.2 0 0 0-.197.17l-.043.265s-.997-1.081-2.76-.351c-1.011.419-1.499 1.286-1.705 1.917 0 0-.657 1.93.827 2.989 0 0 1.376 1.018 2.926-.064l-.026.17a.182.182 0 0 0 .183.212h1.283a.2.2 0 0 0 .197-.17l.782-4.924a.184.184 0 0 0-.183-.214zm-1.885 2.72a1.434 1.434 0 0 1-1.442 1.226q-.222 0-.404-.058a1.133 1.133 0 0 1-.78-1.281 1.436 1.436 0 0 1 1.445-1.226q.222 0 .404.06c.555.178.868.707.777 1.28m11.636.137a2.91 2.91 0 0 0 2.878-2.454c.224-1.425-.895-2.666-2.48-2.67h-2.554a.2.2 0 0 0-.197.169l-1.14 7.19a.182.182 0 0 0 .184.213h1.353a.2.2 0 0 0 .197-.17l.335-2.111c.017-.097.1-.17.197-.17h1.226v.003m1.134-2.52c-.084.527-.492.914-1.276.914h-1.002l.304-1.916h.983c.81 0 1.074.475.99 1zm7.606-.337h-1.283a.2.2 0 0 0-.197.17l-.043.265s-.996-1.081-2.76-.351c-1.011.419-1.498 1.286-1.704 1.917 0 0-.657 1.93.827 2.989 0 0 1.376 1.018 2.927-.064l-.028.17a.183.183 0 0 0 .184.212h1.282a.2.2 0 0 0 .197-.17l.781-4.924a.184.184 0 0 0-.183-.214m-1.886 2.72a1.435 1.435 0 0 1-1.441 1.226q-.222 0-.403-.058a1.13 1.13 0 0 1-.78-1.281 1.436 1.436 0 0 1 1.444-1.226q.222 0 .403.06c.553.178.868.707.778 1.28m3.33-4.82-1.141 7.192a.183.183 0 0 0 .184.212h1.353a.2.2 0 0 0 .197-.17l1.14-7.19a.18.18 0 0 0-.183-.212h-1.354a.2.2 0 0 0-.196.169"/><circle cx="115" cy="7" r="7" fill="#576062"/><rect width="1.546" height="4.974" x="114.227" y="5.96" fill="#fff" rx=".2"/><circle cx="115" cy="3.507" r="1.042" fill="#fff"/></svg>