<svg fill="none" xmlns="http://www.w3.org/2000/svg" viewBox="0 0 35 24"><rect x=".5" y=".5" width="34" height="23" rx="3.5" fill="#fff" stroke="#CCC"/><path d="M20.095 12.127c0 3.812-3.055 6.903-6.824 6.903-3.769 0-6.824-3.09-6.824-6.903 0-3.812 3.055-6.903 6.824-6.903 3.769 0 6.824 3.09 6.824 6.903Z" fill="#ED0006"/><path d="M28.947 12.127c0 3.812-3.055 6.903-6.823 6.903-3.769 0-6.824-3.09-6.824-6.903 0-3.812 3.055-6.903 6.824-6.903 3.768 0 6.823 3.09 6.823 6.903Z" fill="#0099DF"/><path fill-rule="evenodd" clip-rule="evenodd" d="M17.697 6.873a6.92 6.92 0 0 1 2.398 5.254 6.92 6.92 0 0 1-2.398 5.254 6.92 6.92 0 0 1-2.397-5.254 6.92 6.92 0 0 1 2.397-5.254Z" fill="#6C6BBD"/></svg>