<svg fill="none" xmlns="http://www.w3.org/2000/svg" viewBox="0 0 35 24"><rect x=".5" y=".5" width="34" height="23" rx="3.5" fill="#fff" stroke="#CCC"/><path fill-rule="evenodd" clip-rule="evenodd" d="M17.75 17.157a6.75 6.75 0 0 1-4.426 1.649c-3.769 0-6.824-3.09-6.824-6.903C6.5 8.091 9.555 5 13.324 5a6.75 6.75 0 0 1 4.426 1.649A6.75 6.75 0 0 1 22.176 5C25.945 5 29 8.09 29 11.903c0 3.812-3.055 6.903-6.824 6.903a6.75 6.75 0 0 1-4.426-1.65Z" fill="#ED0006"/><path fill-rule="evenodd" clip-rule="evenodd" d="M17.75 17.157a6.92 6.92 0 0 0 2.398-5.254 6.92 6.92 0 0 0-2.398-5.254A6.75 6.75 0 0 1 22.176 5C25.945 5 29 8.09 29 11.903c0 3.812-3.055 6.903-6.824 6.903a6.75 6.75 0 0 1-4.426-1.65Z" fill="#F9A000"/><path fill-rule="evenodd" clip-rule="evenodd" d="M17.75 6.649a6.92 6.92 0 0 1 2.398 5.254 6.92 6.92 0 0 1-2.398 5.254 6.92 6.92 0 0 1-2.398-5.254 6.92 6.92 0 0 1 2.398-5.254Z" fill="#FF5E00"/></svg>