<svg xmlns="http://www.w3.org/2000/svg" viewBox="0 0 69 22"><path style="stroke:none;fill-rule:nonzero;fill:#003087;fill-opacity:1" d="M8.36 1.926H3.03a.798.798 0 0 0-.75.617l-2.12 13.75c-.067.277.136.48.41.48h2.527a.803.803 0 0 0 .754-.617l.546-3.71a.743.743 0 0 1 .75-.622h1.707c3.485 0 5.536-1.719 6.082-5.086.204-1.445 0-2.613-.683-3.437-.75-.895-2.117-1.375-3.895-1.375Zm.617 5.02c-.274 1.921-1.778 1.921-3.145 1.921h-.82l.547-3.574c0-.207.207-.344.41-.344h.34c.957 0 1.847 0 2.324.551.344.273.48.758.344 1.445ZM24.21 6.875h-2.526c-.207 0-.41.137-.41.344l-.137.687-.207-.273c-.547-.828-1.778-1.102-3.004-1.102-2.801 0-5.196 2.133-5.672 5.157-.274 1.511.07 2.957.957 3.917.75.895 1.914 1.31 3.21 1.31 2.255 0 3.552-1.446 3.552-1.446l-.137.687c-.066.274.137.551.41.551h2.324c.34 0 .684-.277.75-.621l1.367-8.797c.07-.14-.203-.414-.476-.414Zm-3.483 4.95c-.274 1.445-1.368 2.476-2.872 2.476-.75 0-1.296-.207-1.707-.688-.41-.48-.546-1.101-.41-1.789.203-1.441 1.434-2.472 2.871-2.472.75 0 1.297.273 1.707.687.34.48.477 1.098.41 1.785ZM37.805 6.875h-2.528a.719.719 0 0 0-.617.344l-3.55 5.226-1.505-5.02c-.066-.343-.41-.55-.683-.55h-2.527a.443.443 0 0 0-.41.617l2.8 8.32-2.664 3.711c-.203.278 0 .688.344.688h2.527a.712.712 0 0 0 .613-.344l8.54-12.375c.207-.203 0-.617-.34-.617Zm0 0"/><path style="stroke:none;fill-rule:nonzero;fill:#009cde;fill-opacity:1" d="M46.277 1.926h-5.332c-.34 0-.68.273-.75.617l-2.117 13.684c-.07.273.137.48.41.48h2.73c.274 0 .481-.207.481-.414l.614-3.918a.747.747 0 0 1 .753-.617h1.707c3.485 0 5.532-1.719 6.079-5.09.207-1.441 0-2.613-.684-3.438-.816-.824-2.117-1.304-3.89-1.304Zm.614 5.02c-.274 1.921-1.778 1.921-3.141 1.921h-.82l.547-3.574c0-.207.203-.344.406-.344h.344c.957 0 1.843 0 2.324.551.34.273.406.758.34 1.445ZM62.125 6.875h-2.527c-.203 0-.41.137-.41.344l-.137.687-.203-.273C58.3 6.805 57.07 6.53 55.84 6.53c-2.8 0-5.192 2.133-5.672 5.157-.27 1.511.07 2.957.957 3.917.754.895 1.914 1.31 3.21 1.31 2.255 0 3.556-1.446 3.556-1.446l-.137.687c-.07.274.137.551.41.551h2.32a.807.807 0 0 0 .754-.621l1.364-8.797c0-.14-.204-.414-.477-.414Zm-3.55 4.95C58.3 13.27 57.206 14.3 55.702 14.3c-.75 0-1.297-.207-1.707-.688-.41-.48-.547-1.101-.41-1.789a2.877 2.877 0 0 1 2.867-2.472c.754 0 1.3.273 1.711.687.41.48.547 1.098.41 1.785ZM65.133 2.27l-2.188 13.957c-.07.273.137.48.41.48h2.188c.34 0 .68-.277.75-.621l2.187-13.68c.067-.273-.136-.48-.41-.48h-2.46c-.274 0-.41.137-.477.344Zm0 0"/></svg>