<svg viewBox="0 0 49 48" xmlns="http://www.w3.org/2000/svg"><path d="M48.25 24c0-13.255-10.745-24-24-24s-24 10.745-24 24 10.745 24 24 24 24-10.745 24-24Z" fill="#FCF1EA"/><path d="M24.25 18.75c-2.484 0-4.5 2.39-4.5 5.25 0 2.906 2.016 5.25 4.5 5.25s4.5-2.344 4.5-5.25c0-2.86-2.016-5.25-4.5-5.25Zm0 9c-1.688 0-3-1.64-3-3.75 0-2.063 1.313-3.75 3-3.75 1.64 0 3 1.688 3 3.75 0 2.11-1.36 3.75-3 3.75ZM37.75 15h-27c-.844 0-1.5.703-1.5 1.5v15c0 .844.656 1.5 1.5 1.5h27c.797 0 1.5-.656 1.5-1.5v-15c0-.797-.703-1.5-1.5-1.5Zm-27 1.5h3c0 1.688-1.36 3-3 3v-3Zm0 15v-3c1.64 0 3 1.36 3 3h-3Zm27 0h-3c0-1.64 1.313-3 3-3v3Zm0-4.5c-2.484 0-4.5 2.063-4.5 4.5h-18c0-2.438-2.063-4.5-4.5-4.5v-6c2.438 0 4.5-2.016 4.5-4.5h18c0 2.484 2.016 4.5 4.5 4.5v6Zm0-7.5c-1.688 0-3-1.313-3-3h3v3Z" fill="#E27730"/></svg>