<svg viewBox="0 0 48 48" xmlns="http://www.w3.org/2000/svg"><path d="M48.333 24c0-13.255-10.745-24-24-24s-24 10.745-24 24 10.745 24 24 24 24-10.745 24-24Z" fill="#e6f0f7"/><path d="M35.25 13.5H12.75C11.4844 13.5 10.5 14.5312 10.5 15.75V32.25C10.5 33.5156 11.4844 34.5 12.75 34.5H35.25C36.4688 34.5 37.5 33.5156 37.5 32.25V15.75C37.5 14.5312 36.4688 13.5 35.25 13.5ZM12.75 15H35.25C35.625 15 36 15.375 36 15.75V18H12V15.75C12 15.375 12.3281 15 12.75 15ZM35.25 33H12.75C12.3281 33 12 32.6719 12 32.25V22.5H36V32.25C36 32.6719 35.625 33 35.25 33ZM19.5 29.0625C19.5 28.7812 19.2188 28.5 18.9375 28.5H15.5625C15.2344 28.5 15 28.7812 15 29.0625V29.4375C15 29.7656 15.2344 30 15.5625 30H18.9375C19.2188 30 19.5 29.7656 19.5 29.4375V29.0625ZM28.5 29.0625C28.5 28.7812 28.2188 28.5 27.9375 28.5H21.5625C21.2344 28.5 21 28.7812 21 29.0625V29.4375C21 29.7656 21.2344 30 21.5625 30H27.9375C28.2188 30 28.5 29.7656 28.5 29.4375V29.0625Z" fill="#056aab"/></svg>
