<svg viewBox="0 0 48 49" xmlns="http://www.w3.org/2000/svg"><path d="M48 24.5c0-13.255-10.745-24-24-24S0 11.245 0 24.5s10.745 24 24 24 24-10.745 24-24Z" fill="#e6f0f7"/><path d="M35.156 20.234c-.093-.093-1.031-.843-2.156-1.78V17c0-.797-.703-1.5-1.5-1.5h-2.203a5.38 5.38 0 0 1-.469-.375C27.797 14.328 26.016 12.5 24 12.5c-2.063 0-3.797 1.781-4.875 2.625a5.364 5.364 0 0 1-.469.375H16.5c-.844 0-1.5.703-1.5 1.5v1.453c-1.172.938-2.11 1.688-2.203 1.781-.516.422-.797 1.032-.797 1.735V34.25a2.22 2.22 0 0 0 2.25 2.25h19.5A2.25 2.25 0 0 0 36 34.25V21.969c0-.657-.328-1.313-.844-1.735ZM24 14c.984 0 2.063.797 2.953 1.5H21c.89-.703 1.969-1.5 3-1.5Zm-7.5 3h15v8.156c-1.547 1.219-3.094 2.438-4.078 3.235-.797.656-2.344 2.156-3.422 2.109-1.125.047-2.672-1.453-3.469-2.11-.984-.796-2.531-2.015-4.031-3.234V17Zm-3 4.969a.78.78 0 0 1 .234-.563c.094-.047.563-.468 1.266-.984v3.515a23.766 23.766 0 0 1-1.5-1.218v-.75Zm21 12.281c0 .422-.375.75-.75.75h-19.5a.74.74 0 0 1-.75-.75v-9.61c1.969 1.641 4.64 3.75 6.094 4.922.984.797 2.672 2.485 4.406 2.438 1.688.047 3.375-1.64 4.36-2.438 1.453-1.171 4.124-3.28 6.14-4.921v9.609Zm0-11.531c-.469.375-.984.797-1.5 1.218v-3.515c.656.515 1.125.937 1.219.984.14.14.281.328.281.563v.75Zm-11.813 1.078 2.11.656c.281.047.422.281.422.563 0 .375-.235.609-.563.609h-1.312c-.188 0-.422-.047-.61-.14a.36.36 0 0 0-.468.046l-.516.516a.352.352 0 0 0 0 .562c.422.328.938.516 1.5.516v.75c0 .234.14.375.375.375h.75a.37.37 0 0 0 .375-.375v-.75c1.078 0 1.969-.938 1.969-2.11 0-.937-.61-1.78-1.453-2.015l-2.11-.656c-.281-.047-.422-.282-.422-.563 0-.375.235-.656.563-.656h1.312c.188 0 .422.094.61.188a.36.36 0 0 0 .468-.047l.516-.516a.352.352 0 0 0 0-.563 2.39 2.39 0 0 0-1.453-.515v-.797a.403.403 0 0 0-.375-.375h-.75a.37.37 0 0 0-.375.375v.797c-1.125 0-2.016.937-2.016 2.11 0 .937.61 1.734 1.453 2.015Z" fill="#056aab"/></svg>