<svg viewBox="0 0 15 15" xmlns="http://www.w3.org/2000/svg"><path d="M7.5.5c-3.867 0-7 3.161-7 7 0 3.867 3.133 7 7 7 3.839 0 7-3.133 7-7 0-3.839-3.161-7-7-7Zm0 12.645A5.626 5.626 0 0 1 1.855 7.5 5.644 5.644 0 0 1 7.5 1.855c3.105 0 5.645 2.54 5.645 5.645A5.644 5.644 0 0 1 7.5 13.145Zm0-9.54c-.677 0-1.185.536-1.185 1.185 0 .678.508 1.186 1.185 1.186.65 0 1.185-.508 1.185-1.186 0-.649-.536-1.185-1.185-1.185Zm1.58 7.17v-.678c0-.17-.169-.339-.338-.339h-.339V6.935c0-.169-.17-.338-.338-.338H6.258a.343.343 0 0 0-.339.338v.678c0 .197.141.339.34.339h.338v1.806h-.339a.343.343 0 0 0-.339.339v.677c0 .198.141.339.34.339h2.483c.17 0 .339-.141.339-.339Z" fill="#a7aaad"/></svg>
