<svg width="52" height="59" viewBox="0 0 52 59" fill="none" xmlns="http://www.w3.org/2000/svg">
<path d="M42.594 19.6875L34.8127 11.8125C33.969 10.9688 32.7502 10.5 31.6252 10.5H12.5002C9.96899 10.5 8.00024 12.5625 8.00024 15V54C8.00024 56.5312 9.96899 58.5 12.5002 58.5H39.5002C41.9377 58.5 44.0002 56.5312 44.0002 54V22.875C44.0002 21.75 43.4377 20.5312 42.594 19.6875ZM40.5315 21.8438C40.719 22.0312 40.8127 22.3125 40.9065 22.5H32.0002V13.5938C32.1877 13.6875 32.469 13.7812 32.6565 13.9688L40.5315 21.8438ZM39.5002 55.5H12.5002C11.6565 55.5 11.0002 54.8438 11.0002 54V15C11.0002 14.25 11.6565 13.5 12.5002 13.5H29.0002V23.25C29.0002 24.5625 29.9377 25.5 31.2502 25.5H41.0002V54C41.0002 54.8438 40.2502 55.5 39.5002 55.5Z" fill="#E27730"/>
<g opacity="0.25">
<path d="M7.53996 8.81469C7.66645 8.81469 7.79294 8.76228 7.88929 8.65799C8.08248 8.44942 8.08248 8.11035 7.88929 7.90177L4.65147 4.39715C4.45828 4.18858 4.14552 4.18858 3.95283 4.39715C3.75964 4.60573 3.75964 4.9448 3.95283 5.15338L7.19063 8.65799C7.28698 8.76228 7.41347 8.81469 7.53996 8.81469V8.81469Z" fill="#E27730"/>
<path d="M7.54034 8.94842C7.70537 8.94842 7.86052 8.87889 7.97712 8.75268C8.09373 8.62646 8.15796 8.45853 8.15796 8.2799C8.15796 8.10128 8.09373 7.93335 7.97712 7.80713L4.73931 4.30252C4.49819 4.04206 4.10638 4.04206 3.86575 4.30252C3.74915 4.42873 3.68491 4.59666 3.68491 4.77529C3.68491 4.95392 3.74915 5.12185 3.86575 5.24806L7.10357 8.75268C7.22017 8.87889 7.37531 8.94842 7.54034 8.94842V8.94842ZM4.30253 4.37418C4.39739 4.37418 4.49226 4.41322 4.56489 4.49131L7.80271 7.99592C7.87287 8.07186 7.91141 8.17241 7.91141 8.27937C7.91141 8.38633 7.87287 8.48741 7.80271 8.56282C7.73255 8.63876 7.63965 8.68048 7.54083 8.68048C7.44201 8.68048 7.34863 8.63876 7.27896 8.56282L4.04115 5.05821C3.97099 4.98226 3.93245 4.88172 3.93245 4.77476C3.93245 4.66779 3.97099 4.56672 4.04115 4.49131C4.11131 4.4159 4.20816 4.37418 4.30302 4.37418H4.30253Z" fill="#E27730"/>
<path d="M0.617178 13.8302C0.641389 13.8302 0.666093 13.8281 0.691292 13.8244L6.07989 12.9483C6.34967 12.9045 6.53546 12.6323 6.49494 12.3403C6.45443 12.0482 6.20292 11.8472 5.93315 11.891L0.544547 12.767C0.274771 12.8109 0.0889838 13.0831 0.1295 13.3751C0.166063 13.6404 0.377048 13.8308 0.617672 13.8308L0.617178 13.8302Z" fill="#E27730"/>
<path d="M0.617235 13.9638C0.647869 13.9638 0.678991 13.9612 0.709625 13.9564L6.09824 13.0803C6.43521 13.0258 6.66793 12.6846 6.61704 12.3198C6.56664 11.9556 6.25141 11.7032 5.91444 11.7583L0.525822 12.6343C0.188849 12.6889 -0.0438703 13.0301 0.00702154 13.3948C0.0519843 13.7194 0.314354 13.9638 0.617235 13.9638ZM6.00633 12.0182C6.18668 12.0182 6.34529 12.161 6.37246 12.3599C6.4026 12.5787 6.26327 12.7835 6.06118 12.8161L0.672567 13.6922C0.654286 13.6954 0.635516 13.6964 0.61674 13.6964C0.435407 13.6964 0.277783 13.5494 0.251102 13.3547C0.220962 13.136 0.3603 12.9311 0.562385 12.8985L5.951 12.0225C5.96977 12.0193 5.98805 12.0182 6.00633 12.0182V12.0182Z" fill="#E27730"/>
<path d="M11.3652 7.1541C11.6058 7.1541 11.8163 6.96371 11.8533 6.69844L12.6627 0.865796C12.7032 0.573789 12.5174 0.301568 12.2476 0.257713C11.9783 0.213859 11.7264 0.414949 11.6858 0.706956L10.8765 6.5396C10.836 6.83161 11.0218 7.10383 11.2915 7.14768C11.3163 7.15196 11.341 7.15356 11.3657 7.15356L11.3652 7.1541Z" fill="#E27730"/>
<path d="M11.3651 7.28776C11.668 7.28776 11.9304 7.04282 11.9753 6.71818L12.7847 0.885539C12.8094 0.709052 12.7689 0.532563 12.6705 0.389233C12.5727 0.245904 12.4289 0.151778 12.2654 0.125572C12.1023 0.0988315 11.9398 0.142686 11.8069 0.249113C11.6739 0.355006 11.5875 0.511171 11.5628 0.687659L10.7534 6.5203C10.7287 6.69679 10.7693 6.87328 10.8676 7.01661C10.9654 7.16047 11.1092 7.25406 11.2727 7.28027C11.3034 7.28508 11.3345 7.28776 11.3651 7.28776V7.28776ZM12.1735 0.385489C12.1918 0.385489 12.2105 0.387095 12.2293 0.389769C12.3271 0.405813 12.4136 0.461969 12.4724 0.548074C12.5312 0.634178 12.5554 0.740068 12.5406 0.845961L11.7313 6.67861C11.7041 6.87328 11.547 7.02035 11.3656 7.02035C11.3468 7.02035 11.3286 7.01875 11.3098 7.01607C11.212 7.00003 11.1255 6.94387 11.0667 6.85777C11.0079 6.77167 10.9837 6.66577 10.9985 6.55988L11.8079 0.727234C11.8227 0.621342 11.8746 0.527751 11.9541 0.464108C12.0188 0.412766 12.0949 0.385489 12.1735 0.385489V0.385489Z" fill="#E27730"/>
</g>
</svg>
