<svg width="42" height="43" viewBox="0 0 42 43" fill="none" xmlns="http://www.w3.org/2000/svg">
<path d="M42 4.625C42 2.28125 40.125 0.5 37.875 0.5H4.03125C1.6875 0.5 0 2.375 0 4.625V38.4688C0 40.8125 1.78125 42.5 4.03125 42.5938H37.875C40.2188 42.5938 42 40.8125 42 38.4688V4.625ZM38.4375 38.4688C38.4375 38.75 38.25 39.0312 37.875 39.0312H4.03125C3.75 39.0312 3.46875 38.75 3.46875 38.4688V4.625C3.46875 4.34375 3.75 4.0625 4.03125 4.0625H4.875L15.1875 11L21 6.40625L26.7188 11L37.0312 4.0625H37.875C38.25 4.0625 38.4375 4.34375 38.4375 4.625V38.4688ZM14.0625 14.9375H7.125V18.4062H14.0625V14.9375ZM14.0625 21.9688H7.125V25.4375H14.0625V21.9688ZM15.0938 8.1875L9 4.0625H20.1562L15.0938 8.1875ZM34.7812 14.9375H16.4062V18.4062H34.7812V14.9375ZM34.7812 21.9688H16.4062V25.4375H34.7812V21.9688ZM26.8125 8.1875L21.75 4.0625H32.9062L26.8125 8.1875ZM34.7812 28.9062H25.4062V32.4688H34.7812V28.9062Z" fill="#E27730"/>
</svg>
