<svg width="14" height="15" fill="none" xmlns="http://www.w3.org/2000/svg"><g clip-path="url(#a)"><path opacity=".15" d="M7 .406c-3.868 0-7 3.133-7 7 0 3.868 3.132 7 7 7 3.867 0 7-3.132 7-7 0-3.867-3.133-7-7-7Zm0 12.6a5.594 5.594 0 0 1-5.6-5.6c0-3.097 2.502-5.6 5.6-5.6s5.6 2.503 5.6 5.6c0 3.098-2.502 5.6-5.6 5.6Z" fill="#000"/><path d="M13.265 8.701h-.07a.706.706 0 0 1-.63-.77c.017-.175.017-.35.017-.525.018-3.08-2.502-5.6-5.582-5.6a.702.702 0 0 1-.7-.7c0-.385.315-.7.7-.7 3.867 0 7 3.133 7 7 0 .228-.018.438-.035.665a.69.69 0 0 1-.7.63Z" fill="#056AAB"/></g><defs><clipPath id="a"><path fill="#fff" transform="translate(0 .406)" d="M0 0h14v14H0z"/></clipPath></defs></svg>
