<svg width="284" height="88" viewBox="0 0 284 88" fill="none" xmlns="http://www.w3.org/2000/svg">
<path d="M13.2402 54.3767C19.5221 55.22 25.0202 53.8022 29.4897 49.7933L36.9716 50.1844L32.8939 62.1744C28.3632 69.3489 21.7874 70.8767 15.0525 70.4244L13.2402 54.3767Z" fill="#7EAABA"/>
<path d="M16.0198 57.09L17.2443 68.09C22.8526 68.09 27.3222 66.22 30.7141 61.1355L33.6652 52.58L30.3835 52.4089C26.3687 55.721 21.259 57.4167 16.0565 57.1633L16.0198 57.09Z" fill="#D3E8EF"/>
<path d="M16.0198 57.09L16.7545 63.58C24.4568 62.6755 30.457 59.51 33.5673 52.5066L30.2855 52.3355C26.2948 55.6479 21.2038 57.3446 16.0198 57.09Z" fill="white"/>
<path d="M15.0525 44.99C17.5747 44.9876 20.041 45.732 22.1391 47.1292C24.2373 48.5263 25.8731 50.5133 26.8394 52.8387C27.8057 55.1641 28.0592 57.7233 27.5677 60.1925C27.0763 62.6617 25.8619 64.93 24.0785 66.7101C22.295 68.4902 20.0225 69.7022 17.5486 70.1928C15.0747 70.6833 12.5106 70.4303 10.1809 69.4658C7.8511 68.5013 5.86036 66.8686 4.4606 64.7744C3.06084 62.6802 2.31497 60.2186 2.31739 57.7011C2.32386 54.3319 3.66767 51.1025 6.05456 48.7201C8.44145 46.3377 11.6769 44.9965 15.0525 44.99" fill="#7EAABA"/>
<path d="M15.0524 47.4711C13.0345 47.4687 11.0611 48.0637 9.38209 49.181C7.70304 50.2982 6.39374 51.8874 5.61982 53.7476C4.8459 55.6077 4.64216 57.6552 5.03435 59.6309C5.42655 61.6067 6.39707 63.4219 7.82312 64.847C9.24917 66.2721 11.0667 67.2429 13.0457 67.6368C15.0247 68.0306 17.0763 67.8297 18.9408 67.0595C20.8054 66.2892 22.3992 64.9843 23.5206 63.3098C24.6419 61.6352 25.2405 59.6663 25.2405 57.6522C25.2421 56.3158 24.9798 54.9921 24.4685 53.757C23.9572 52.5218 23.207 51.3994 22.2608 50.4538C21.3146 49.5082 20.1909 48.7581 18.9541 48.2463C17.7172 47.7345 16.3914 47.4711 15.0524 47.4711" fill="#D3E8EF"/>
<path d="M15.0525 47.4711C13.4073 47.4628 11.7849 47.8546 10.3255 48.6127C8.86609 49.3708 7.61374 50.4725 6.67676 51.8223C6.85008 54.4057 7.99728 56.8278 9.88752 58.6011C11.7778 60.3744 14.2707 61.3673 16.8648 61.38C18.51 61.3884 20.1325 60.9966 21.5919 60.2385C23.0513 59.4803 24.3036 58.3787 25.2406 57.0289C25.0787 54.4413 23.9349 52.0126 22.0422 50.237C20.1495 48.4614 17.65 47.4723 15.0525 47.4711" fill="white"/>
<path d="M13.7545 46.86C15.6389 46.86 17.4809 47.4185 19.0469 48.4648C20.6128 49.511 21.8323 50.9978 22.5506 52.7367C23.2689 54.4755 23.4537 56.3881 23.0816 58.2319C22.7095 60.0757 21.7972 61.7678 20.4604 63.0934C19.1236 64.4191 17.4226 65.3187 15.5729 65.6782C13.7233 66.0377 11.8083 65.8409 10.0708 65.1127C8.33337 64.3846 6.85167 63.1579 5.81359 61.5881C4.77551 60.0184 4.22782 58.1763 4.23994 56.2955C4.24967 53.7854 5.25717 51.3819 7.04115 49.6127C8.82513 47.8435 11.2397 46.8535 13.7545 46.86Z" fill="#7EAABA"/>
<path d="M13.0689 44.3056C14.96 44.308 16.8079 44.8708 18.3783 45.9225C19.9487 46.9742 21.1709 48.4676 21.8901 50.2134C22.6093 51.9591 22.7931 53.8787 22.4182 55.7288C22.0433 57.579 21.1265 59.2764 19.7842 60.6059C18.4418 61.9355 16.7341 62.8374 14.8777 63.1973C13.0212 63.5572 11.0995 63.359 9.35607 62.6277C7.61261 61.8964 6.1259 60.665 5.08432 59.0895C4.04275 57.514 3.4932 55.6653 3.50532 53.7778C3.52467 51.2566 4.54002 48.8449 6.33075 47.0667C8.12148 45.2885 10.5429 44.2875 13.0689 44.2811" fill="#7F3E13"/>
<path d="M13.9749 47.9233C12.4733 47.9233 11.0055 48.3678 9.75696 49.2004C8.50845 50.0331 7.53535 51.2166 6.96073 52.6012C6.3861 53.9859 6.23575 55.5095 6.5287 56.9795C6.82164 58.4494 7.54471 59.7996 8.60648 60.8594C9.66825 61.9192 11.021 62.6409 12.4938 62.9333C13.9665 63.2257 15.493 63.0756 16.8803 62.5021C18.2675 61.9285 19.4532 60.9573 20.2875 59.7111C21.1217 58.4649 21.567 56.9999 21.567 55.5011C21.5637 53.4924 20.7628 51.5668 19.3397 50.1464C17.9166 48.726 15.9874 47.9266 13.9749 47.9233" fill="#B85A1B"/>
<path d="M8.2564 36.6667C8.2564 35.5646 8.69504 34.5076 9.47583 33.7283C10.2566 32.949 11.3156 32.5112 12.4198 32.5112C13.524 32.5112 14.583 32.949 15.3638 33.7283C16.1446 34.5076 16.5832 35.5646 16.5832 36.6667C18.8976 32.7556 26.208 34.9067 23.9304 41.0178C24.0548 41.5004 24.1489 41.9902 24.212 42.4845C28.1795 42.7045 29.4775 48.8645 24.0406 50.7956C23.6359 52.3785 22.9061 53.8601 21.8976 55.1467C17.2444 59.1556 15.775 55.8801 13.228 53.1667C10.7789 53.1667 4.16648 51.5289 6.04001 57.7378C1.80314 55.0001 -0.915315 49.5123 1.1174 41.4823C-1.71126 34.9801 5.81959 32.5601 8.2564 36.5934V36.6667Z" fill="#7F3E13"/>
<path d="M3.67661 42.3867C2.70923 46.2856 2.64801 50.6978 5.42769 53.8633C9.33393 58.3245 17.2566 58.1045 20.3179 52.5067C21.9588 49.4511 21.8486 45.6622 21.1629 42.3378C15.3922 41.1766 9.44732 41.1766 3.67661 42.3378V42.3867Z" fill="#B85A1B"/>
<path d="M3.67661 42.3867C2.70923 46.2856 2.64801 50.6978 5.42769 53.8633C6.31713 54.8388 7.40038 55.6186 8.60843 56.1531C9.81648 56.6876 11.1228 56.965 12.4442 56.9678V41.4822C9.49953 41.5049 6.56371 41.8077 3.67661 42.3867" fill="#E1762F"/>
<path d="M7.52155 45.3812C7.14839 46.4475 7.04591 47.5895 7.22328 48.705C7.40065 49.8205 7.85233 50.8748 8.53791 51.7734C9.07302 52.3815 9.74524 52.854 10.4992 53.152C11.2531 53.4501 12.0672 53.565 12.8744 53.4874C13.6816 53.4098 14.4587 53.1419 15.1418 52.7058C15.8249 52.2697 16.3945 51.6778 16.8035 50.9789C17.6073 49.2064 17.7675 47.2099 17.2566 45.3323C14.0446 44.6784 10.7335 44.6784 7.52155 45.3323" fill="#7F3E13"/>
<path d="M12.3953 39.3922C12.953 39.3507 13.4745 39.1003 13.855 38.6912C14.2356 38.282 14.447 37.7444 14.447 37.1861C14.447 36.6278 14.2356 36.0902 13.855 35.681C13.4745 35.2719 12.953 35.0214 12.3953 34.98V39.3922ZM20.3792 36.6666C20.8146 36.6691 21.2395 36.8001 21.6004 37.0433C21.9613 37.2865 22.2419 37.631 22.4068 38.0332C22.5718 38.4354 22.6137 38.8773 22.5272 39.3033C22.4408 39.7292 22.2299 40.1201 21.9212 40.4265C21.6125 40.733 21.2197 40.9413 20.7925 41.0252C20.3652 41.1091 19.9227 41.0648 19.5206 40.898C19.1186 40.7311 18.7751 40.4491 18.5334 40.0876C18.2918 39.7261 18.1628 39.3012 18.1628 38.8666C18.166 38.282 18.401 37.7225 18.8163 37.3103C19.2316 36.898 19.7935 36.6666 20.3792 36.6666" fill="#B85A1B"/>
<path d="M4.86435 36.85C5.42213 36.8914 5.94358 37.1419 6.32411 37.551C6.70464 37.9602 6.91611 38.4978 6.91611 39.0561C6.91611 39.6143 6.70464 40.152 6.32411 40.5611C5.94358 40.9703 5.42213 41.2207 4.86435 41.2622C4.29065 41.2505 3.74278 41.0219 3.33139 40.6226C2.92 40.2234 2.67574 39.6831 2.64795 39.1111C2.65119 38.5265 2.88613 37.9669 3.30143 37.5547C3.71673 37.1425 4.27864 36.9111 4.86435 36.9111V36.85ZM12.3952 39.4533V35.0411C11.821 35.0628 11.2768 35.3026 10.8739 35.7116C10.471 36.1205 10.2399 36.6677 10.2278 37.2411C10.2293 37.5283 10.2882 37.8123 10.4009 38.0766C10.5136 38.3409 10.6779 38.5801 10.8842 38.7804C11.0905 38.9806 11.3347 39.1378 11.6025 39.2429C11.8704 39.3479 12.1565 39.3987 12.4442 39.3922L12.3952 39.4533Z" fill="#E1762F"/>
<path d="M22.8651 44.5988C23.3011 44.5988 23.7272 44.7279 24.0897 44.9696C24.4521 45.2113 24.7347 45.5549 24.9015 45.9569C25.0683 46.3589 25.112 46.8013 25.0269 47.228C24.9419 47.6548 24.7319 48.0468 24.4237 48.3545C24.1154 48.6621 23.7227 48.8717 23.2951 48.9566C22.8676 49.0414 22.4244 48.9979 22.0216 48.8314C21.6189 48.6648 21.2746 48.3829 21.0324 48.0211C20.7902 47.6593 20.661 47.2339 20.661 46.7988C20.656 46.5086 20.7096 46.2202 20.8186 45.9511C20.9276 45.6819 21.0898 45.4374 21.2955 45.2321C21.5011 45.0268 21.7461 44.865 22.0158 44.7562C22.2854 44.6474 22.5743 44.5939 22.8651 44.5988Z" fill="#B85A1B"/>
<path d="M98.6265 70.5955C98.1245 63.9833 95.1244 59.2289 89.2344 56.6867L90.4589 52.1155L99.9735 49.5611C108.239 52.0055 111.411 57.3711 112.99 63.9833L98.6633 70.5955H98.6265Z" fill="#7EAABA"/>
<path d="M100.61 66.9778L110.076 62.5656C108.423 57.0289 105.655 53.4722 99.8265 52.0544L92.4059 54.0344L92.063 55.2567C94.2412 56.4879 96.1321 58.1676 97.61 60.1843C99.0879 62.2009 100.119 64.5084 100.635 66.9533L100.61 66.9778Z" fill="white"/>
<path d="M89.4549 71.72C88.6905 69.4019 88.6317 66.9096 89.2858 64.5581C89.94 62.2065 91.2778 60.1013 93.1302 58.5084C94.9827 56.9155 97.2666 55.9064 99.6934 55.6086C102.12 55.3107 104.581 55.7376 106.765 56.8351C108.949 57.9327 110.758 59.6517 111.963 61.775C113.168 63.8983 113.716 66.3306 113.537 68.7645C113.358 71.1984 112.46 73.5248 110.957 75.4496C109.454 77.3745 107.413 78.8114 105.092 79.5789C103.549 80.0927 101.919 80.2968 100.296 80.1795C98.6728 80.0622 97.0892 79.6259 95.636 78.8955C94.1827 78.1651 92.8885 77.1552 91.8277 75.9237C90.7669 74.6923 89.9605 73.2636 89.4549 71.72" fill="#7EAABA"/>
<path d="M91.4998 71.0478C92.1337 72.964 93.3225 74.6496 94.916 75.8916C96.5095 77.1336 98.4361 77.8762 100.452 78.0255C102.469 78.1749 104.484 77.7242 106.244 76.7306C108.003 75.737 109.428 74.2449 110.339 72.4431C111.249 70.6412 111.604 68.6105 111.358 66.6075C111.112 64.6045 110.277 62.7191 108.958 61.1898C107.639 59.6604 105.895 58.5557 103.947 58.0152C102 57.4748 99.9348 57.5228 98.0143 58.1533C96.7369 58.571 95.5547 59.2363 94.5354 60.111C93.5162 60.9857 92.68 62.0526 92.0747 63.2505C91.4695 64.4485 91.1072 65.7539 91.0085 67.092C90.9098 68.43 91.0768 69.7743 91.4998 71.0478" fill="#D3E8EF"/>
<path d="M111.313 66.4645C111.241 65.8503 111.11 65.2445 110.921 64.6556C110.502 63.382 109.836 62.2033 108.961 61.187C108.085 60.1706 107.018 59.3366 105.819 58.7326C104.62 58.1287 103.314 57.7666 101.974 57.6672C100.635 57.5678 99.2895 57.733 98.0143 58.1534C96.4368 58.6966 95.0015 59.5863 93.8142 60.7567C93.8961 61.3702 94.0313 61.9754 94.2183 62.5656C95.0691 65.1339 96.9056 67.2606 99.325 68.4795C101.744 69.6984 104.549 69.9099 107.125 69.0678C108.724 68.5795 110.168 67.682 111.313 66.4645" fill="white"/>
<path d="M87.1405 74.8856C86.4164 72.6992 86.3586 70.3475 86.9744 68.1283C87.5902 65.909 88.8519 63.9221 90.5997 62.419C92.3475 60.9159 94.5029 59.9642 96.7929 59.6844C99.0829 59.4047 101.405 59.8095 103.464 60.8475C105.523 61.8856 107.228 63.5102 108.362 65.5157C109.496 67.5212 110.008 69.8174 109.833 72.1136C109.659 74.4098 108.806 76.6026 107.382 78.4146C105.958 80.2265 104.028 81.576 101.835 82.2923C100.383 82.7716 98.8504 82.9602 97.3253 82.8472C95.8001 82.7342 94.3123 82.3218 92.9472 81.6337C91.582 80.9456 90.3664 79.9953 89.37 78.8373C88.3735 77.6793 87.6159 76.3364 87.1405 74.8856" fill="#7F3E13"/>
<path d="M89.5161 74.1522C88.9448 72.4313 88.8977 70.58 89.3805 68.8323C89.8634 67.0847 90.8546 65.5191 92.2288 64.3337C93.603 63.1483 95.2986 62.3962 97.101 62.1726C98.9035 61.9489 100.732 62.2637 102.355 63.0772C103.978 63.8907 105.323 65.1663 106.22 66.7428C107.117 68.3193 107.526 70.1258 107.394 71.9339C107.262 73.742 106.596 75.4706 105.48 76.901C104.364 78.3314 102.849 79.3994 101.125 79.97C98.8122 80.7319 96.2915 80.5473 94.1152 79.4567C91.939 78.3661 90.285 76.4584 89.5161 74.1522" fill="#B85A1B"/>
<path d="M89.1243 69.8011C89.3954 68.1298 90.1179 66.564 91.2139 65.2719C92.3099 63.9798 93.7381 63.0103 95.3449 62.4677C96.4938 62.0897 97.7061 61.9416 98.9124 62.032C100.119 62.1223 101.295 62.4494 102.375 62.9943C103.454 63.5393 104.416 64.2915 105.203 65.2079C105.991 66.1242 106.59 67.1867 106.966 68.3344C107.204 69.0679 107.357 69.8267 107.419 70.5955C104.655 72.3425 101.421 73.2029 98.1528 73.0609C94.8843 72.9188 91.7379 71.7812 89.1365 69.8011H89.1243Z" fill="#E1762F"/>
<path d="M46.7678 0C49.062 0.0703549 51.2355 1.04211 52.8156 2.70386C54.3956 4.36561 55.2543 6.5829 55.2048 8.87333C55.2373 10.0096 55.0447 11.1411 54.6378 12.2029C54.2309 13.2646 53.6179 14.2356 52.8339 15.0602C52.0499 15.8847 51.1104 16.5465 50.0694 17.0075C49.0284 17.4686 47.9063 17.7198 46.7678 17.7467C44.4833 17.6637 42.3234 16.6861 40.7558 15.0253C39.1882 13.3646 38.339 11.1544 38.392 8.87333C38.339 6.59224 39.1882 4.38208 40.7558 2.72134C42.3234 1.06061 44.4833 0.0829416 46.7678 0" fill="#7F3E13"/>
<path d="M46.7678 2.44446C45.1306 2.52065 43.5897 3.23867 42.4799 4.44246C41.3702 5.64626 40.7812 7.23857 40.8411 8.87335C40.7845 10.5125 41.3775 12.1079 42.4915 13.3136C43.6056 14.5194 45.1508 15.2382 46.7923 15.3145C48.435 15.2446 49.9828 14.5272 51.0962 13.3197C52.2096 12.1121 52.7976 10.5131 52.7312 8.87335C52.778 7.23593 52.1797 5.64548 51.0647 4.44348C49.9498 3.24148 48.407 2.52378 46.7678 2.44446" fill="#B85A1B"/>
<path d="M46.7678 4.88885C46.2731 4.92595 45.7906 5.0601 45.3479 5.28362C44.9052 5.50714 44.5111 5.81563 44.188 6.19143C43.865 6.56723 43.6194 7.00296 43.4653 7.47364C43.3112 7.94433 43.2517 8.44073 43.2901 8.93441C43.2422 9.92671 43.5816 10.8989 44.237 11.6465C44.8925 12.3942 45.8128 12.859 46.8045 12.9433C47.7959 12.8682 48.7171 12.4043 49.3665 11.653C50.016 10.9017 50.3408 9.92419 50.27 8.93441C50.3311 7.93716 49.9989 6.95562 49.3445 6.19962C48.69 5.44362 47.7652 4.97318 46.7678 4.88885" fill="#63300F"/>
<path d="M82.5484 0C84.8534 0.0544972 87.0426 1.01932 88.6357 2.6828C90.2289 4.34629 91.0959 6.5726 91.0466 8.87333C91.1084 10.0174 90.936 11.162 90.5399 12.2373C90.1438 13.3126 89.5323 14.2961 88.7428 15.1278C87.9533 15.9594 87.0023 16.6218 85.9478 17.0744C84.8933 17.5271 83.7575 17.7605 82.6096 17.7605C81.4618 17.7605 80.326 17.5271 79.2715 17.0744C78.217 16.6218 77.266 15.9594 76.4765 15.1278C75.6869 14.2961 75.0755 13.3126 74.6794 12.2373C74.2833 11.162 74.1109 10.0174 74.1726 8.87333C74.1228 6.59313 74.9731 4.38477 76.5401 2.72473C78.107 1.0647 80.265 0.0860682 82.5484 0" fill="#7F3E13"/>
<path d="M82.5484 2.44446C80.9057 2.51433 79.3579 3.23173 78.2445 4.43926C77.1311 5.64679 76.5431 7.24584 76.6094 8.88557C76.5449 9.70404 76.6508 10.527 76.9203 11.3026C77.1898 12.0783 77.6171 12.79 78.1755 13.3928C78.7338 13.9957 79.4111 14.4767 80.1647 14.8058C80.9183 15.1348 81.732 15.3046 82.5545 15.3046C83.3771 15.3046 84.1907 15.1348 84.9443 14.8058C85.6979 14.4767 86.3752 13.9957 86.9335 13.3928C87.4919 12.79 87.9193 12.0783 88.1888 11.3026C88.4583 10.527 88.5641 9.70404 88.4996 8.88557C88.5466 7.24894 87.9503 5.65889 86.8383 4.45527C85.7262 3.25165 84.1865 2.52996 82.5484 2.44446" fill="#B85A1B"/>
<path d="M82.5484 4.88885C82.0527 4.92143 81.5684 5.05143 81.1231 5.27138C80.6779 5.49133 80.2806 5.7969 79.9541 6.17054C79.6275 6.54418 79.3781 6.97852 79.2202 7.44864C79.0623 7.91875 78.9991 8.41537 79.034 8.90997C78.986 9.90226 79.3255 10.8745 79.9809 11.6221C80.6363 12.3698 81.5567 12.8346 82.5484 12.9189C83.0435 12.8878 83.5276 12.7593 83.9728 12.5406C84.4179 12.322 84.8153 12.0175 85.142 11.6449C85.4687 11.2722 85.7182 10.8387 85.8763 10.3693C86.0343 9.8999 86.0977 9.40392 86.0628 8.90997C86.114 7.91562 85.7761 6.94032 85.1203 6.19002C84.4646 5.43972 83.5424 4.97316 82.5484 4.88885" fill="#4F2800"/>
<path d="M95.9448 31.8755H95.7856V15.2655C95.7856 10.2666 84.0301 7.45553 70.744 6.79553C70.7537 6.44884 70.6948 6.10365 70.5708 5.77966C70.4468 5.45568 70.26 5.15924 70.0213 4.90729C69.7825 4.65533 69.4963 4.45279 69.1791 4.31122C68.8619 4.16965 68.5198 4.09183 68.1725 4.0822C67.8251 4.07256 67.4793 4.13131 67.1547 4.25509C66.8301 4.37886 66.5331 4.56524 66.2807 4.80358C65.7709 5.28492 65.4735 5.94869 65.454 6.64886H63.8989C63.8383 5.97661 63.5232 5.3527 63.0178 4.90425C62.5124 4.4558 61.8547 4.21655 61.1787 4.23525C60.5028 4.25395 59.8593 4.52918 59.3796 5.00489C58.8999 5.48059 58.6199 6.12096 58.5967 6.79553C45.3228 7.43108 33.5673 10.2422 33.5673 15.2044V31.7778H33.3959C32.2247 32.2202 31.2175 33.0105 30.5103 34.042C29.803 35.0735 29.4297 36.2967 29.4407 37.5466V49.6955L64.6581 61.1111L99.8755 49.5244V37.6444C99.8883 36.3974 99.5186 35.1763 98.816 34.1451C98.1134 33.1139 97.1115 32.3219 95.9448 31.8755V31.8755Z" fill="#7F3E13"/>
<path d="M36.396 15.8889V33.7455L34.9266 34.3078C34.1399 34.5939 33.4617 35.1168 32.9856 35.8043C32.5096 36.4918 32.2593 37.3099 32.2693 38.1455V50.6978L64.7071 61.1111L97.1693 50.4655V38.1455C97.1777 37.3169 96.9325 36.5054 96.4664 35.8196C96.0003 35.1338 95.3356 34.6064 94.5611 34.3078L93.0916 33.7455V15.8889C93.0304 7.41888 36.5184 7.41888 36.4572 15.8889H36.396Z" fill="#B85A1B"/>
<path d="M36.396 15.8889V33.7456L34.9266 34.3078C34.1399 34.5939 33.4617 35.1168 32.9856 35.8043C32.5096 36.4918 32.2593 37.3099 32.2693 38.1456V50.6978L64.7071 61.1111V54.3156C53.5027 54.3767 42.286 46.9822 45.2371 32.4989H64.7071V9.5578C50.5515 9.5578 36.396 11.6967 36.396 15.8889Z" fill="#E1762F"/>
<path d="M43.7064 28.71H85.7812C91.7201 60.2434 37.2531 60.0234 43.7064 28.71Z" fill="#E5895B"/>
<path d="M45.7393 31.2033C45.176 36.0922 46.1923 40.7489 49.8169 44.4278C53.6742 48.2655 59.4417 49.9033 64.7684 49.8544C70.0951 49.8055 75.3606 48.2166 79.1566 44.5989C80.9095 42.8674 82.228 40.7472 83.0047 38.4109C83.7813 36.0747 83.9943 33.5884 83.6262 31.1544L45.7393 31.2033Z" fill="#E5895B"/>
<path d="M71.7358 45.8944C74.5645 49.5611 82.8301 48.0455 80.3075 40.2966L71.7358 45.8944V45.8944Z" fill="#FAD395"/>
<path d="M69.1277 45.1C72.2992 49.17 82.5975 46.7378 80.2342 37.9255L69.1277 45.1Z" fill="#4F2800"/>
<path d="M78.6422 38.3167C78.9572 38.2431 79.2885 38.297 79.5638 38.4665C79.8391 38.6359 80.0361 38.9072 80.1117 39.2211C80.2119 39.3826 80.273 39.5651 80.2902 39.7543C80.3074 39.9434 80.2801 40.134 80.2107 40.3108C80.1412 40.4876 80.0314 40.6458 79.89 40.7729C79.7486 40.9 79.5795 40.9925 79.3961 41.0429C79.2126 41.0934 79.0199 41.1005 78.8333 41.0637C78.6466 41.0269 78.4711 40.9472 78.3207 40.8308C78.1702 40.7145 78.049 40.5648 77.9667 40.3936C77.8844 40.2224 77.8431 40.0343 77.8463 39.8444C77.7501 39.5365 77.7798 39.2031 77.9289 38.9169C78.078 38.6307 78.3344 38.4149 78.6422 38.3167V38.3167ZM71.9073 43.01C72.2223 42.9365 72.5536 42.9903 72.8289 43.1598C73.1042 43.3292 73.3012 43.6005 73.3768 43.9144C73.4729 44.2224 73.4432 44.5558 73.2941 44.842C73.145 45.1282 72.8886 45.3439 72.5808 45.4422C72.2659 45.5157 71.9346 45.4619 71.6592 45.2924C71.3839 45.123 71.187 44.8517 71.1114 44.5378C71.0152 44.2298 71.0449 43.8964 71.194 43.6102C71.3431 43.324 71.5995 43.1083 71.9073 43.01" fill="white"/>
<path d="M76.034 46.6889C77.2432 46.3346 78.3195 45.6295 79.1262 44.6633C79.933 43.697 80.4337 42.5132 80.5648 41.2622C78.7525 40.9811 75.5809 43.7066 76.034 46.6889" fill="#AD6151"/>
<path d="M48.0045 28.71H81.3607C86.1118 51.26 42.9105 51.04 48.0045 28.71" fill="#FAD395"/>
<path d="M64.658 41.5555C64.8698 40.2023 65.4123 38.9219 66.2377 37.8278C70.2664 37.2044 73.7196 34.1611 72.642 28.7222C70.092 27.8286 67.4096 27.37 64.707 27.3655L63.0662 32.5111L64.658 41.5555V41.5555Z" fill="#4F2800"/>
<path d="M64.6582 41.5555C64.4419 40.2014 63.8953 38.9212 63.0664 37.8278C59.0499 37.2044 55.5967 34.1611 56.6743 28.7222C59.2203 27.8298 61.8986 27.3712 64.597 27.3655L64.6582 41.5555Z" fill="#63300F"/>
<path d="M58.7682 29.5045C62.6453 28.4873 66.72 28.4873 70.5971 29.5045C72.2502 33.6233 56.9559 33.5745 58.7682 29.5045Z" fill="#AD6151"/>
<path d="M58.315 18.0277C59.2025 18.0253 60.0706 18.2859 60.8095 18.7765C61.5484 19.2671 62.1248 19.9656 62.4655 20.7835C62.8062 21.6014 62.896 22.5019 62.7235 23.3708C62.5509 24.2396 62.1238 25.0378 61.4963 25.6642C60.8688 26.2905 60.0691 26.7168 59.1986 26.889C58.3281 27.0612 57.4259 26.9716 56.6065 26.6315C55.787 26.2914 55.0872 25.7162 54.5957 24.9787C54.1042 24.2412 53.8431 23.3746 53.8455 22.4888C53.8487 21.3067 54.3206 20.1738 55.1581 19.3379C55.9956 18.502 57.1306 18.031 58.315 18.0277" fill="white"/>
<path d="M58.658 19.6167C59.3197 19.6167 59.9665 19.8127 60.5165 20.1799C61.0665 20.5471 61.495 21.0689 61.7476 21.6793C62.0003 22.2897 62.0658 22.9613 61.9358 23.6088C61.8058 24.2564 61.4862 24.8509 61.0175 25.3171C60.5487 25.7832 59.9519 26.1001 59.3026 26.2274C58.6534 26.3548 57.9808 26.287 57.3702 26.0325C56.7596 25.7781 56.2383 25.3486 55.8725 24.7982C55.5066 24.2479 55.3126 23.6016 55.315 22.9412C55.3118 22.5026 55.3961 22.0679 55.5631 21.6623C55.7301 21.2566 55.9764 20.8883 56.2876 20.5788C56.5988 20.2693 56.9688 20.0248 57.3758 19.8596C57.7828 19.6944 58.2187 19.6118 58.658 19.6167" fill="#1B1D23"/>
<path d="M71.1114 18.0277C70.224 18.0253 69.3558 18.2859 68.6169 18.7765C67.878 19.2671 67.3017 19.9656 66.9609 20.7835C66.6202 21.6014 66.5304 22.5019 66.703 23.3708C66.8755 24.2396 67.3026 25.0378 67.9301 25.6642C68.5576 26.2905 69.3573 26.7168 70.2279 26.889C71.0984 27.0612 72.0005 26.9716 72.82 26.6315C73.6394 26.2914 74.3392 25.7162 74.8308 24.9787C75.3223 24.2412 75.5834 23.3746 75.581 22.4888C75.5777 21.3067 75.1058 20.1738 74.2683 19.3379C73.4308 18.502 72.2958 18.031 71.1114 18.0277" fill="white"/>
<path d="M70.8298 19.6166C70.1681 19.6166 69.5213 19.8126 68.9712 20.1798C68.4212 20.547 67.9928 21.0688 67.7401 21.6793C67.4875 22.2897 67.422 22.9612 67.552 23.6088C67.6819 24.2563 68.0015 24.8509 68.4703 25.317C68.939 25.7832 69.5358 26.1 70.1851 26.2273C70.8344 26.3547 71.5069 26.2869 72.1176 26.0325C72.7282 25.778 73.2494 25.3485 73.6153 24.7982C73.9811 24.2478 74.1751 23.6015 74.1727 22.9411C74.16 22.0612 73.8033 21.2212 73.1788 20.6001C72.5543 19.979 71.7113 19.6261 70.8298 19.6166Z" fill="#1B1D23"/>
<path d="M61.5478 16.6223C59.9769 16.2696 58.3514 16.2328 56.7662 16.514C55.181 16.7952 53.6677 17.3887 52.3148 18.26C51.3474 12.7723 60.5804 11.1345 61.5478 16.6223Z" fill="#63300F"/>
<path d="M66.9724 13.8478C68.5432 13.4951 70.1687 13.4583 71.754 13.7395C73.3392 14.0207 74.8524 14.6143 76.2054 15.4856C77.1727 9.99779 68.001 8.42112 66.9724 13.8478Z" fill="#4F2800"/>
<path d="M99.8265 49.5611V83.7833C99.8265 84.8974 99.3848 85.9663 98.5978 86.7563C97.8108 87.5464 96.7426 87.9935 95.6264 88H33.5673C32.4586 87.9936 31.3971 87.5511 30.6131 86.7686C29.8291 85.9861 29.3858 84.9266 29.3794 83.82V49.9033L64.5968 58.3244L99.8265 49.5611Z" fill="#7EAABA"/>
<path d="M97.0469 53.13L64.6582 61.1111L32.2694 53.4111V83.1111C32.2644 83.387 32.3152 83.661 32.4186 83.9168C32.5221 84.1726 32.6761 84.405 32.8716 84.6001C33.067 84.7951 33.2998 84.9489 33.5561 85.0522C33.8124 85.1554 34.087 85.2061 34.3633 85.2011H95.002C95.2844 85.2163 95.5669 85.1732 95.8318 85.0745C96.0968 84.9758 96.3385 84.8236 96.5419 84.6275C96.7453 84.4314 96.906 84.1955 97.014 83.9346C97.1219 83.6737 97.1748 83.3933 97.1694 83.1111V53.13H97.0469Z" fill="#D3E8EF"/>
<path d="M64.6582 61.1111L32.2694 53.4111V83.1111C32.2643 83.388 32.3155 83.663 32.4197 83.9196C32.5239 84.1763 32.6791 84.4092 32.8758 84.6045C33.0726 84.7997 33.3069 84.9532 33.5646 85.0558C33.8224 85.1583 34.0982 85.2077 34.3756 85.2011H64.7071V61.1111H64.6582Z" fill="white"/>
<path d="M64.707 77H91.8426V80.6667H64.7193V77H64.707ZM64.707 69.4833H91.8426V73.15H64.7193V69.4833H64.707Z" fill="#036AAB"/>
<path d="M64.7071 80.6667V77H37.4736V80.6667H64.7071ZM37.4736 69.52H64.7071V73.1867H37.4736V69.52Z" fill="#0399ED"/>
<path d="M48.5188 67.1489H51.9107V83.7589H48.5188V67.1489Z" fill="white"/>
<path d="M38.9431 52.1155C47.5148 54.1444 56.0865 56.2344 64.6582 58.2267L55.5355 66.9167C49.5843 63.4089 43.6943 59.5833 38.9921 52.1155" fill="#7EAABA"/>
<path d="M46.1921 56.7478C48.8795 59.3132 51.8639 61.5494 55.0822 63.4089L58.9395 59.7422C54.7516 58.7767 50.4413 57.7011 46.1921 56.7478" fill="white"/>
<path d="M90.3609 52.1155C81.7892 54.1444 73.2175 56.2344 64.6458 58.2267L73.8175 66.8678C79.7687 63.36 85.6464 59.5344 90.3486 52.0667" fill="#7EAABA"/>
<path d="M83.1118 56.7478C80.4292 59.3189 77.4441 61.5556 74.2217 63.4089L70.3767 59.7422C74.6258 58.7767 78.8749 57.7011 83.1118 56.7478Z" fill="white"/>
<path d="M141.508 46.4725C139.633 44.7225 138.57 42.2225 138.57 39.5975V39.285C138.57 34.91 141.695 31.16 146.008 30.4725C148.883 29.9725 151.758 30.91 153.82 32.91L154.57 33.66L155.32 32.91C157.32 30.91 160.258 29.9725 163.07 30.4725C167.383 31.16 170.57 34.91 170.57 39.285V39.5975C170.57 42.2225 169.445 44.7225 167.57 46.4725L156.258 57.035C155.82 57.4725 155.195 57.66 154.57 57.66C153.883 57.66 153.258 57.4725 152.82 57.035L141.508 46.4725Z" fill="#D63638"/>
<g clip-path="url(#clip0_8_321)">
<path d="M280.2 36.7826H277.727C277.507 36.7826 277.287 36.7094 276.976 36.7094C276.005 36.4895 275.107 36.1049 274.21 35.6652C273.99 35.5187 273.77 35.4454 273.605 35.2989C273.532 35.2256 273.385 35.1523 273.312 35.079C273.166 35.0058 273.092 34.9325 272.946 34.786C272.579 34.4929 272.268 34.1815 271.902 33.8151L271.828 33.7418C271.609 33.522 271.462 33.3022 271.297 33.0641C271.077 32.771 270.931 32.4596 270.693 32.1665C270.473 31.7268 270.253 31.2689 270.015 30.7377C269.942 30.4446 269.795 30.1332 269.722 29.8401C269.649 29.6203 269.649 29.4004 269.575 29.2356C269.649 29.0158 269.575 28.7044 269.575 28.4113V28.1915C269.575 27.2939 269.649 26.4696 269.868 25.6452C270.235 24.3813 270.839 23.1723 271.517 22.0549C271.664 21.9084 271.81 21.7618 271.883 21.5237L273.221 20.0949C274.338 18.9775 274.411 17.109 273.367 15.9C272.03 14.2514 270.528 12.676 268.879 11.2656L223.615 55.9983C222.864 56.676 221.674 56.2181 221.674 55.174C221.747 47.3155 221.893 33.9433 221.967 27.2023C221.967 26.0849 223.469 25.7002 224.055 26.6711L228.763 34.8959C229.129 35.5736 230.027 35.6469 230.558 35.1157L251.569 14.1049C251.569 14.1049 251.495 14.1049 251.495 14.0316C251.202 13.885 250.964 13.7385 250.671 13.592C250.525 13.4454 250.305 13.3721 250.14 13.2256C249.92 13.079 249.7 12.8592 249.462 12.6944C249.462 12.6944 249.413 12.6455 249.316 12.5478C248.638 11.8701 248.198 11.2106 247.74 10.4596C247.062 9.19562 246.623 7.84008 246.403 6.50286C246.33 6.28304 246.33 5.97164 246.256 5.75182V3.35215C246.256 1.63025 244.992 0.293036 243.344 0.128173C242.08 0.0549007 240.798 -0.0183716 239.534 -0.0183716C238.343 -0.0183716 237.061 0.0549007 235.87 0.128173C234.221 0.274717 232.957 1.63025 232.957 3.26056C232.957 4.23142 232.884 5.34882 232.664 6.48454C232.445 7.82176 231.987 9.1773 231.327 10.4412C230.961 11.1923 230.43 11.8701 229.752 12.4562C229.752 12.4562 229.703 12.5051 229.605 12.6028C229.385 12.8226 229.166 12.9691 228.928 13.134C228.781 13.2805 228.561 13.3538 228.396 13.5004C228.103 13.6469 227.865 13.7935 227.572 13.94C227.132 14.1598 226.601 14.3796 226.143 14.4712C225.777 14.6178 225.465 14.691 225.099 14.691C224.806 14.7643 224.568 14.7643 224.275 14.7643H222.773C222.626 14.7643 222.48 14.7643 222.333 14.691C222.186 14.691 222.04 14.6178 221.967 14.6178C221.747 14.5445 221.527 14.5445 221.289 14.4712C220.318 14.1781 219.42 13.7935 218.596 13.3538C218.156 13.134 217.772 12.8226 217.405 12.5295C217.259 12.383 217.112 12.3097 216.966 12.1631L215.464 10.5878C214.346 9.39712 212.405 9.25057 211.122 10.2947C209.107 12.0166 207.239 13.885 205.59 15.9C204.546 17.164 204.693 18.9591 205.737 20.0949L207.074 21.5237C207.221 21.6702 207.367 21.8168 207.44 22.0549C208.118 23.099 208.778 24.3813 209.089 25.6452C209.309 26.4696 209.382 27.2939 209.382 28.1915V28.4113C209.382 28.7044 209.309 28.9425 209.309 29.2356C209.309 29.4554 209.236 29.6752 209.162 29.8401C209.089 30.1332 209.016 30.4446 208.869 30.7377C208.723 31.2689 208.503 31.7085 208.191 32.1665C208.045 32.4596 207.825 32.771 207.587 33.0641C207.44 33.2839 207.221 33.5037 207.056 33.7418L206.982 33.8151C206.689 34.1815 206.305 34.4929 205.938 34.786C205.792 34.8592 205.719 35.0058 205.572 35.079C205.499 35.1523 205.352 35.2256 205.279 35.2989C205.059 35.4454 204.839 35.5187 204.674 35.6652C203.777 36.1049 202.879 36.4895 201.908 36.7094C201.689 36.7094 201.469 36.7826 201.157 36.7826H198.684C197.109 36.7826 195.699 37.9733 195.552 39.6219C195.625 41.0507 195.552 42.5345 195.552 43.9633C195.552 45.154 195.625 46.363 195.699 47.5536C195.845 49.2023 197.127 50.4662 198.758 50.4662L200.992 50.5395C201.212 50.5395 201.432 50.5395 201.67 50.6128C202.568 50.8326 203.392 51.144 204.216 51.5104C204.967 51.8767 205.645 52.4079 206.305 53.0124C206.305 53.0124 206.354 53.0613 206.451 53.159C206.671 53.3788 206.818 53.5986 206.982 53.7635C207.129 53.91 207.276 54.0566 207.349 54.2947C207.495 54.5878 207.715 54.8259 207.88 55.119C208.1 55.5586 208.32 56.0166 208.485 56.5478C208.631 56.9142 208.704 57.2256 208.778 57.592C208.851 57.885 208.851 58.1232 208.924 58.4163V58.4895C208.997 58.9292 208.997 59.4604 208.924 59.9183V60.358C208.924 60.5045 208.924 60.6511 208.851 60.7243C208.778 60.9442 208.778 61.164 208.704 61.4021C208.485 62.373 208.1 63.2706 207.66 64.0949C207.514 64.388 207.367 64.6994 207.129 64.9192C206.982 65.0657 206.909 65.2855 206.689 65.4504L205.261 67.0258C204.143 68.1432 203.997 69.9383 204.967 71.2206C206.543 73.2356 208.338 75.104 210.206 76.7527L256.258 31.5253C257.009 30.8476 258.2 31.3055 258.2 32.3497C258.127 40.2081 257.98 53.5803 257.907 60.3213C257.907 61.4387 256.405 61.8234 255.818 60.8526L251.111 52.6278C250.744 51.95 249.847 51.8767 249.316 52.4079L227.407 74.3163C227.407 74.3163 227.48 74.3163 227.48 74.3896C227.7 74.5362 227.92 74.6827 228.158 74.9208L228.231 74.9941C228.598 75.2872 228.909 75.5986 229.202 75.965C229.276 76.1115 229.422 76.1848 229.495 76.3313C229.569 76.4046 229.642 76.5512 229.715 76.6244C229.862 76.8442 229.935 76.9908 230.082 77.2289C230.613 78.0532 230.979 78.9508 231.199 79.9217C231.639 81.5703 231.803 83.2189 231.803 84.6294C231.803 86.278 233.067 87.6153 234.643 87.7618C236.218 87.9084 237.867 88.0549 239.497 88.0549C241.127 88.0549 242.721 87.9816 244.351 87.7618C245.927 87.6153 247.191 86.2597 247.191 84.6294C247.191 83.2006 247.337 81.497 247.795 79.9217C248.015 79.0241 248.4 78.1265 248.913 77.2289C249.059 77.0091 249.132 76.8626 249.279 76.6244C249.352 76.5512 249.425 76.4046 249.499 76.3313C249.572 76.1848 249.719 76.1115 249.792 75.965C250.085 75.5986 250.396 75.2872 250.763 74.9941L250.836 74.9208C251.056 74.7743 251.276 74.5545 251.514 74.3896C251.807 74.1698 252.118 74.0233 252.485 73.8584C252.924 73.6386 253.382 73.4188 253.913 73.2539C254.206 73.1806 254.518 73.1073 254.811 73.0341C255.031 72.9608 255.251 72.9608 255.489 72.9608C255.782 72.9608 256.02 72.8875 256.313 72.8875H256.533C257.43 72.8875 258.255 73.0341 259.079 73.2539C260.196 73.6203 261.241 74.1515 262.211 74.8292C262.358 74.9758 262.578 75.1223 262.743 75.2689L264.318 76.9175C265.509 78.1082 267.377 78.1815 268.659 77.1373C270.674 75.3422 272.47 73.4737 274.118 71.3855C275.089 70.1215 274.943 68.3263 273.825 67.1906L272.396 65.7618C272.25 65.6153 272.103 65.4687 271.957 65.2306C271.81 64.9375 271.59 64.6994 271.425 64.4063C270.986 63.582 270.601 62.6844 270.381 61.7135C270.308 61.4937 270.235 61.2739 270.235 61.0357C270.235 60.8892 270.161 60.7427 270.161 60.6694V58.7277C270.161 58.4346 270.235 58.1964 270.308 57.9034C270.381 57.537 270.455 57.2256 270.601 56.8592C270.748 56.4196 270.967 55.8884 271.206 55.4304C271.352 55.1373 271.499 54.8992 271.737 54.6061C271.883 54.4596 271.957 54.2397 272.103 54.0749C272.25 53.8551 272.47 53.6353 272.634 53.4704C272.634 53.4704 272.683 53.4215 272.781 53.3238C273.385 52.7193 274.118 52.2064 274.869 51.8218C275.694 51.3821 276.518 51.0707 277.415 50.9242C277.635 50.8509 277.855 50.8509 278.093 50.8509L280.328 50.7776C281.977 50.7044 283.241 49.4404 283.387 47.8651C283.46 46.6744 283.534 45.4654 283.534 44.2747C283.534 42.7726 283.46 41.3621 283.314 39.9333C283.094 38.0649 281.739 36.8742 280.181 36.8009L280.2 36.7826Z" fill="#FE4715"/>
</g>
<defs>
<clipPath id="clip0_8_321">
<rect width="88" height="88" fill="white" transform="translate(195.57)"/>
</clipPath>
</defs>
</svg>
