<svg width="25" height="25" viewBox="0 0 25 25" fill="none" xmlns="http://www.w3.org/2000/svg">
	<path d="M16.1875 4.875C16.0469 4.78125 15.9531 4.6875 15.9531 4.54688C15.9531 4.35938 16.0469 4.26562 16.1875 4.17188L19 3L20.125 0.234375C20.2188 0.09375 20.3125 0 20.4531 0C20.6406 0 20.7344 0.09375 20.8281 0.234375L22 3L24.7656 4.17188C24.9062 4.26562 25 4.35938 25 4.5C25 4.6875 24.9062 4.78125 24.7656 4.875L22 6L20.8281 8.8125C20.7344 8.95312 20.6406 9.04688 20.5 9.04688C20.3125 9.04688 20.2188 8.95312 20.125 8.8125L19 6L16.1875 4.875ZM24.7656 19.1719C24.9062 19.2656 25 19.3594 25 19.5C25 19.6875 24.9062 19.7812 24.7656 19.875L22 21L20.8281 23.8125C20.7344 23.9531 20.6406 24.0469 20.5 24.0469C20.3125 24.0469 20.2188 23.9531 20.125 23.8125L19 21L16.1875 19.875C16.0469 19.7812 15.9531 19.6875 15.9531 19.5469C15.9531 19.3594 16.0469 19.2656 16.1875 19.1719L19 18L20.125 15.2344C20.2188 15.0938 20.3125 15 20.4531 15C20.6406 15 20.7344 15.0938 20.8281 15.2344L22 18L24.7656 19.1719ZM19 12C18.9531 12.4688 18.7188 12.8438 18.3438 13.0312L13.4219 15.4688L10.9844 20.3906C10.7969 20.7656 10.4219 21.0469 10 21.0469C9.53125 21.0469 9.15625 20.7656 8.96875 20.3906L6.53125 15.4688L1.60938 13.0312C1.23438 12.8438 0.953125 12.4688 0.953125 12.0469C0.953125 11.5781 1.23438 11.2031 1.60938 11.0156L6.53125 8.57812L8.96875 3.65625C9.34375 2.90625 10.6094 2.90625 10.9844 3.65625L13.4219 8.57812L18.3438 11.0156C18.7188 11.2031 18.9531 11.5781 19 12ZM12.1094 13.6406L15.3438 12L12.1094 10.4062C11.875 10.3125 11.6875 10.125 11.5938 9.89062L10 6.65625L8.35938 9.89062C8.26562 10.125 8.07812 10.3125 7.84375 10.4062L4.60938 12L7.84375 13.6406C8.07812 13.7344 8.26562 13.9219 8.35938 14.1562L10 17.3906L11.5938 14.1562C11.6875 13.9219 11.875 13.7344 12.1094 13.6406Z" fill="#777777"/>
</svg>
