<svg width="39" height="25" fill="none" xmlns="http://www.w3.org/2000/svg">
	<g clip-path="url(#a)">
		<rect x=".8" y=".224" width="38" height="24" rx="2" fill="#fff"/>
		<path d="m34.697 6.124.768-2.087 3.335-.016V.224L.8.24v23.984l38-.016v-3.79l-3.135.016-1.224-1.43-1.27 1.43h-9.402v-7.619h-3.102l3.877-8.778h3.774l.911 1.99v-1.99h4.685l.783 2.087Zm-2.646 1.383-.008-.84.32.84 1.559 4.165h1.55l1.568-4.165.304-.832v4.997l1.456-.016V5.26l-2.536.016-1.23 3.246-.329.88-.335-.88-1.24-3.246h-2.71v6.396h1.631V7.507Zm-3.51 4.165h1.88l-2.815-6.396h-2.182l-2.83 6.396h1.854l.496-1.231h3.102l.495 1.231Zm-2.366-4.23.32-.799.32.8.663 1.615h-1.966l.663-1.615Zm-1.095 5.381v6.372h5.34v-1.383h-3.71V16.7h3.638v-1.375h-3.637v-1.12h3.71v-1.383H25.08Zm11.28 6.372h2.119l-2.99-3.198 2.99-3.174h-2.087l-1.927 2.07-1.918-2.07H30.42l2.982 3.198-2.982 3.174h2.063l1.943-2.079 1.934 2.079Zm.808-3.206 1.632 1.823v-3.654l-1.632 1.831Z" fill="#006FCF"/>
	</g>
	<rect x="1.3" y=".724" width="37" height="23" rx="1.5" stroke="#000" stroke-opacity=".07"/>
	<defs>
		<clipPath id="a">
			<rect x=".8" y=".224" width="38" height="24" rx="2" fill="#fff"/>
		</clipPath>
	</defs>
</svg>
