<svg width="39" height="25" fill="none" xmlns="http://www.w3.org/2000/svg">
	<g clip-path="url(#a)">
		<rect x=".8" y=".224" width="38" height="24" rx="2" fill="#fff"/>
		<path fill="url(#b)" d="M.8.224h38v24H.8z"/>
		<path d="M.8 1.077v23.147h24.171c3.137 0 6.145-1.264 8.363-3.514a12.092 12.092 0 0 0 3.466-8.484c0-1.576-.306-3.137-.9-4.593a12.016 12.016 0 0 0-2.565-3.894 11.82 11.82 0 0 0-3.837-2.602A11.681 11.681 0 0 0 24.97.224H.8v.853Z" fill="#fff"/>
		<path d="M5.157 10.364H3.8v4.718h1.334a2.472 2.472 0 0 0 1.69-.545 2.364 2.364 0 0 0 .872-1.81c0-1.39-1.032-2.363-2.539-2.363Zm1.079 3.544c-.356.288-.81.425-1.266.382h-.245v-3.125h.245a1.726 1.726 0 0 1 1.266.38 1.604 1.604 0 0 1 .512 1.174 1.618 1.618 0 0 1-.512 1.19ZM9.046 10.365h-.922v4.718h.922v-4.718ZM11.302 12.175c-.554-.202-.715-.34-.715-.59 0-.252.29-.527.688-.527a.948.948 0 0 1 .742.382l.486-.633a2.072 2.072 0 0 0-1.392-.522 1.396 1.396 0 0 0-1.353.812c-.077.17-.119.354-.123.54 0 .649.298.984 1.166 1.293.22.069.433.16.635.27a.557.557 0 0 1 .279.488.669.669 0 0 1-.45.626.675.675 0 0 1-.269.037 1.089 1.089 0 0 1-1.006-.629l-.596.572a1.833 1.833 0 0 0 1.636.9 1.533 1.533 0 0 0 1.515-.933 1.52 1.52 0 0 0 .118-.615c0-.747-.31-1.086-1.361-1.471ZM12.957 12.727a2.432 2.432 0 0 0 .728 1.759 2.448 2.448 0 0 0 1.773.703c.4-.005.793-.104 1.147-.29v-1.066a1.481 1.481 0 0 1-1.116.514 1.532 1.532 0 0 1-1.5-.997 1.52 1.52 0 0 1-.09-.63 1.566 1.566 0 0 1 .947-1.502 1.58 1.58 0 0 1 .612-.13 1.533 1.533 0 0 1 1.147.534v-1.07a2.357 2.357 0 0 0-1.147-.294 2.497 2.497 0 0 0-1.763.718 2.481 2.481 0 0 0-.738 1.751ZM23.931 13.536l-1.262-3.171H21.66l2.011 4.84h.497l2.042-4.84h-.998l-1.28 3.17ZM26.63 15.083h2.616v-.797h-1.694v-1.273h1.633v-.8h-1.633v-1.048h1.694v-.8h-2.615v4.718ZM32.905 11.76c0-.885-.611-1.395-1.678-1.395h-1.37v4.718h.922v-1.906h.123l1.277 1.906h1.147l-1.491-1.986a1.263 1.263 0 0 0 1.07-1.337Zm-1.854.762h-.272v-1.414h.287c.574 0 .887.24.887.701 0 .461-.313.728-.902.728v-.015ZM33.639 10.612c0-.08-.057-.125-.157-.125h-.133v.415h.1v-.16l.114.16h.122l-.138-.172a.115.115 0 0 0 .092-.118Zm-.176.057v-.106c.05 0 .077 0 .077.053s-.027.053-.077.053Z" fill="#261F20"/>
		<path d="M33.502 10.327a.382.382 0 0 0-.19.585.382.382 0 0 0 .19.139.382.382 0 0 0 0-.724Zm0 .659a.299.299 0 0 1-.299-.297.297.297 0 0 1 .299-.298.3.3 0 0 1 .298.298.297.297 0 0 1-.298.297Z" fill="#261F20"/>
		<path d="M21.924 12.72a2.495 2.495 0 0 1-1.547 2.313 2.516 2.516 0 0 1-2.735-.542 2.498 2.498 0 0 1-.543-2.726 2.501 2.501 0 0 1 2.32-1.541c.664 0 1.3.264 1.77.732.47.468.734 1.102.735 1.764Z" fill="url(#c)"/>
		<path style="mix-blend-mode:multiply" opacity=".65" d="M21.924 12.72a2.495 2.495 0 0 1-1.547 2.313 2.516 2.516 0 0 1-2.735-.542 2.498 2.498 0 0 1-.543-2.726 2.501 2.501 0 0 1 2.32-1.541c.664 0 1.3.264 1.77.732.47.468.734 1.102.735 1.764Z" fill="url(#d)"/>
	</g>
	<rect x="1.3" y=".724" width="37" height="23" rx="1.5" stroke="#000" stroke-opacity=".07"/>
	<defs>
		<linearGradient id="b" x1="19.8" y1=".224" x2="19.8" y2="24.224" gradientUnits="userSpaceOnUse">
			<stop stop-color="#E96418"/>
			<stop offset="1" stop-color="#F9A020"/>
		</linearGradient>
		<linearGradient id="c" x1="20.7" y1="14.721" x2="18.973" y2="12.01" gradientUnits="userSpaceOnUse">
			<stop stop-color="#FF9200"/>
			<stop offset=".21" stop-color="#FF8D00"/>
			<stop offset=".45" stop-color="#FF8000"/>
			<stop offset=".62" stop-color="#FF7100"/>
			<stop offset=".82" stop-color="#FF5E00"/>
			<stop offset="1" stop-color="#FF5200"/>
		</linearGradient>
		<linearGradient id="d" x1="20.425" y1="14.686" x2="17.903" y2="9.737" gradientUnits="userSpaceOnUse">
			<stop stop-color="#FF7100" stop-opacity="0"/>
			<stop offset=".03" stop-color="#FF6E00" stop-opacity=".03"/>
			<stop offset=".21" stop-color="#FF5A00" stop-opacity=".25"/>
			<stop offset=".39" stop-color="#FF4900" stop-opacity=".42"/>
			<stop offset=".56" stop-color="#FF3C00" stop-opacity=".56"/>
			<stop offset=".72" stop-color="#F30" stop-opacity=".66"/>
			<stop offset=".86" stop-color="#FF2D00" stop-opacity=".72"/>
			<stop offset=".98" stop-color="#FF2B00" stop-opacity=".74"/>
		</linearGradient>
		<clipPath id="a">
			<rect x=".8" y=".224" width="38" height="24" rx="2" fill="#fff"/>
		</clipPath>
	</defs>
</svg>
