<svg
    xmlns="http://www.w3.org/2000/svg"
    width="22"
    height="18"
    fill="none"
    viewBox="-6 -2 34 22"
    style="background: rgba(14, 76, 150, 1)"
>
    <path
        fill="#fff"
        fill-rule="evenodd"
        d="M21.66 13.865a3.39 3.39 0 0 1-.973 2.372 3.291 3.291 0 0 1-2.348.983H.314V3.956a3.39 3.39 0 0 1 .972-2.373A3.32 3.32 0 0 1 3.633.6H21.66z"
        clip-rule="evenodd"
    ></path>
    <path
        fill="url(#paint0_linear_10440_1167)"
        fill-rule="evenodd"
        d="M15.782 9.2c.515.012 1.033-.022 1.546.019.52.098.644.893.183 1.153-.315.17-.689.063-1.03.094h-.699zm1.843-1.43c.115.408-.274.775-.663.718h-1.18c.008-.385-.016-.802.012-1.167.473.014.95-.027 1.42.021a.56.56 0 0 1 .412.428m2.84-6.051c.021.779.003 1.6.009 2.394-.002 3.233.003 6.466-.003 9.698-.02 1.21-1.082 2.264-2.273 2.288-1.192.004-2.384 0-3.575.002v-4.887c1.298-.007 2.598.014 3.895-.01.603-.039 1.262-.44 1.29-1.11.07-.672-.557-1.137-1.152-1.21-.23-.007-.222-.068 0-.095.568-.124 1.014-.718.847-1.313-.143-.627-.828-.869-1.397-.867-1.16-.008-2.322-.002-3.483-.004.007-.912-.016-1.826.012-2.737.092-1.19 1.18-2.17 2.355-2.15z"
        clip-rule="evenodd"
    ></path>
    <path
        fill="url(#paint1_linear_10440_1167)"
        fill-rule="evenodd"
        d="M1.501 3.992c.03-1.21 1.097-2.254 2.286-2.271 1.187-.004 2.375-.001 3.562-.002-.003 4.047.006 8.094-.005 12.14-.046 1.195-1.101 2.22-2.277 2.24-1.19.005-2.38.001-3.57.002V11.05c1.156.275 2.368.393 3.547.21.705-.115 1.475-.464 1.714-1.203.176-.632.077-1.297.103-1.946V6.605H4.82c-.009.996.019 1.994-.015 2.99-.055.61-.654 1-1.225.979-.708.007-2.11-.519-2.11-.519-.004-1.866.02-4.203.03-6.063"
        clip-rule="evenodd"
    ></path>
    <path
        fill="url(#paint2_linear_10440_1167)"
        fill-rule="evenodd"
        d="M8.11 7.213c-.107.023-.022-.37-.049-.519.007-.942-.015-1.884.012-2.825.092-1.195 1.19-2.178 2.368-2.15h3.47c-.002 4.047.007 8.093-.004 12.14-.046 1.195-1.101 2.22-2.277 2.24-1.19.005-2.38.001-3.57.002v-5.535c.814.674 1.917.78 2.93.78.763 0 1.521-.118 2.262-.296v-1.014c-.835.421-1.817.688-2.742.447-.646-.163-1.115-.794-1.104-1.467-.075-.7.331-1.44 1.012-1.648.846-.268 1.767-.063 2.56.285.17.09.342.201.274-.086V6.77c-1.325-.319-2.736-.436-4.068-.089-.385.11-.76.276-1.074.532"
        clip-rule="evenodd"
    ></path>
    <defs>
        <linearGradient
            id="paint0_linear_10440_1167"
            x1="14.622"
            x2="20.474"
            y1="8.91"
            y2="8.91"
            gradientUnits="userSpaceOnUse"
        >
            <stop stop-color="#007B40"></stop>
            <stop offset="1" stop-color="#55B330"></stop>
        </linearGradient>
        <linearGradient
            id="paint1_linear_10440_1167"
            x1="1.498"
            x2="7.349"
            y1="8.91"
            y2="8.91"
            gradientUnits="userSpaceOnUse"
        >
            <stop stop-color="#1D2970"></stop>
            <stop offset="1" stop-color="#006DBA"></stop>
        </linearGradient>
        <linearGradient
            id="paint2_linear_10440_1167"
            x1="8.061"
            x2="13.912"
            y1="8.91"
            y2="8.91"
            gradientUnits="userSpaceOnUse"
        >
            <stop stop-color="#6E2B2F"></stop>
            <stop offset="1" stop-color="#E30138"></stop>
        </linearGradient>
    </defs>
</svg>