<svg width="39" height="25" fill="none" xmlns="http://www.w3.org/2000/svg">
	<rect x=".9" y=".724" width="37.4" height="23" rx="1.5" fill="#fff"/>
	<rect x=".9" y=".724" width="37.4" height="23" rx="1.5" stroke="#DDD"/>
	<path fill-rule="evenodd" clip-rule="evenodd" d="M31.4 16.144v-.254h-.066l-.076.175-.077-.175h-.066v.254h.047v-.192l.072.166h.048l.072-.166v.192h.047Zm-.42 0v-.21h.085v-.044h-.217v.043h.086v.211h.046Zm.434-3.785c0 3.94-3.186 7.135-7.117 7.135-3.93 0-7.117-3.195-7.117-7.135s3.187-7.135 7.117-7.135 7.117 3.194 7.117 7.135Z" fill="#F79F1A"/>
	<path fill-rule="evenodd" clip-rule="evenodd" d="M22.634 12.359c0 3.94-3.186 7.135-7.117 7.135-3.93 0-7.117-3.195-7.117-7.135s3.186-7.135 7.117-7.135c3.93 0 7.117 3.194 7.117 7.135Z" fill="#EA001B"/>
	<path fill-rule="evenodd" clip-rule="evenodd" d="M19.907 6.742a7.126 7.126 0 0 0-2.726 5.616 7.13 7.13 0 0 0 2.726 5.617 7.13 7.13 0 0 0 2.726-5.617 7.128 7.128 0 0 0-2.726-5.616Z" fill="#FF5F01"/>
</svg>
