<svg width="39" height="25" fill="none" xmlns="http://www.w3.org/2000/svg">
	<rect x=".5" y=".724" width="37.4" height="23" rx="1.5" fill="#fff"/>
	<rect x=".5" y=".724" width="37.4" height="23" rx="1.5" stroke="#DDD"/>
	<path d="M17.425 16.108H15.29l1.336-7.744h2.135l-1.335 7.744ZM25.168 8.553a5.573 5.573 0 0 0-1.916-.33c-2.11 0-3.594 1.055-3.604 2.563-.017 1.112 1.064 1.73 1.872 2.1.827.38 1.108.627 1.108.965-.009.519-.668.758-1.283.758-.853 0-1.31-.124-2.004-.412l-.281-.124-.3 1.739c.502.213 1.425.403 2.383.412 2.241 0 3.7-1.039 3.717-2.645.009-.882-.562-1.557-1.793-2.11-.747-.353-1.204-.592-1.204-.955.009-.33.387-.667 1.23-.667a3.835 3.835 0 0 1 1.591.296l.193.083.29-1.673Z" fill="#1A1F71"/>
	<path fill-rule="evenodd" clip-rule="evenodd" d="M28.992 8.364h1.652l1.723 7.744h-1.978s-.193-.89-.255-1.162h-2.742l-.448 1.162h-2.241l3.172-7.102c.22-.502.607-.642 1.117-.642Zm-.132 2.834-.853 2.167h1.775c-.087-.387-.492-2.241-.492-2.241l-.15-.667a41.81 41.81 0 0 1-.28.741ZM6.035 8.364h3.437c.465.016.843.156.966.65l.747 3.56.229 1.07 2.092-5.28h2.258L12.407 16.1h-2.259L8.245 9.37A9.046 9.046 0 0 0 6 8.52l.035-.156Z" fill="#1A1F71"/>
</svg>
