<svg fill="#bd8600" viewBox="0 0 14 14" xmlns="http://www.w3.org/2000/svg"><path fill-rule="evenodd" d="M7 12.5a5.5 5.5 0 1 0 0-11 5.5 5.5 0 0 0 0 11ZM7 14A7 7 0 1 0 7 0a7 7 0 0 0 0 14Z"/><path d="M8 7.125A1.14 1.14 0 0 0 6.875 6 1.13 1.13 0 0 0 5.75 7.125c0 .625.5 1.125 1.125 1.125.61 0 1.125-.5 1.125-1.125ZM9.625 6A1.13 1.13 0 0 0 8.5 7.125c0 .625.5 1.125 1.125 1.125.61 0 1.125-.5 1.125-1.125A1.14 1.14 0 0 0 9.625 6Zm-5.5 0A1.13 1.13 0 0 0 3 7.125c0 .625.5 1.125 1.125 1.125.61 0 1.125-.5 1.125-1.125A1.14 1.14 0 0 0 4.125 6Z"/></svg>
