<svg fill="#787c82" viewBox="0 0 14 14" xmlns="http://www.w3.org/2000/svg"><path fill-rule="evenodd" d="M7 12.5a5.5 5.5 0 1 0 0-11 5.5 5.5 0 0 0 0 11ZM7 14A7 7 0 1 0 7 0a7 7 0 0 0 0 14Z"/><path d="M6.986 3.5a3.607 3.607 0 0 0-2.413.974l-.508-.508c-.212-.212-.565-.057-.565.24v1.89c0 .198.141.34.339.34h1.89c.297 0 .452-.353.24-.565l-.592-.593a2.326 2.326 0 0 1 1.595-.635 2.356 2.356 0 0 1 2.385 2.385A2.349 2.349 0 0 1 7 9.371a2.338 2.338 0 0 1-1.567-.579c-.07-.056-.169-.056-.225 0l-.565.565a.179.179 0 0 0 0 .254c.621.55 1.454.889 2.357.889 1.92 0 3.486-1.567 3.5-3.486A3.524 3.524 0 0 0 6.986 3.5Z"/></svg>
