<svg fill="#d63638" viewBox="0 0 14 14" xmlns="http://www.w3.org/2000/svg"><path fill-rule="evenodd" d="M7 12.5a5.5 5.5 0 1 0 0-11 5.5 5.5 0 0 0 0 11ZM7 14A7 7 0 1 0 7 0a7 7 0 0 0 0 14Z"/><path d="m8.1 6.992 1.655-1.655a.491.491 0 0 0 0-.728l-.364-.364a.491.491 0 0 0-.728 0L7.008 5.9 5.337 4.245a.491.491 0 0 0-.728 0l-.364.364a.491.491 0 0 0 0 .728L5.9 6.992 4.245 8.663a.491.491 0 0 0 0 .728l.364.364c.198.215.53.215.728 0L7.008 8.1l1.655 1.655c.199.215.53.215.728 0l.364-.364a.491.491 0 0 0 0-.728L8.101 6.992Z"/></svg>
