<svg fill="#008a20" viewBox="0 0 14 14" xmlns="http://www.w3.org/2000/svg"><path fill-rule="evenodd" d="M7 12.5a5.5 5.5 0 1 0 0-11 5.5 5.5 0 0 0 0 11ZM7 14A7 7 0 1 0 7 0a7 7 0 0 0 0 14Z"/><path d="m8.559 5.207-.575.574c-.205.205-.054.547.233.547h1.845a.324.324 0 0 0 .33-.328V4.168c0-.287-.356-.438-.56-.232l-.493.492A3.43 3.43 0 0 0 7 3.484a3.38 3.38 0 0 0-3.336 2.762c-.027.11.055.191.164.191h.78a.172.172 0 0 0 .163-.123c.247-.998 1.163-1.722 2.215-1.736.588 0 1.149.233 1.573.629ZM3.938 7.422a.324.324 0 0 0-.329.328v1.846c0 .287.342.437.547.232l.492-.492a3.43 3.43 0 0 0 2.352.93 3.365 3.365 0 0 0 3.322-2.748c.028-.11-.054-.192-.164-.192h-.78a.172.172 0 0 0-.163.123C8.969 8.447 8.053 9.172 7 9.186a2.308 2.308 0 0 1-1.572-.63l.574-.574c.205-.205.055-.56-.232-.56H3.938Z"/></svg>
