<?xml version="1.0" encoding="UTF-8"?><svg xmlns="http://www.w3.org/2000/svg" viewBox="0 0 500 500"><defs><linearGradient id="GradientFill_1" x1="358.3" x2="122.4" y1="93.8" y2="237.8" data-name="GradientFill 1" gradientUnits="userSpaceOnUse"><stop offset="0" stop-color="#ffcb05"/><stop offset=".4" stop-color="#f58220"/><stop offset="1" stop-color="#9d2720"/></linearGradient><style>.st1,.st3{fill-rule:evenodd}.st1{fill:#a7a9ac;mix-blend-mode:multiply;opacity:.5}.st3{fill:#414042}</style></defs><g style="isolation:isolate"><g id="mascot"><path d="M385.5 296.2c-7.5.6-14.8.4-21.8-.6 11.5-6.1 20.9-12.8 28.3-20 16.8-16.5 22.5-35.3 19.1-54.4-10.4-2.1-21-1.8-31.8 1 9.8-4.3 20.1-6.2 30.8-5.6-.8-3.1-1.8-6.2-3-9.3-11.7 0-22.1 2.3-31.4 7.2 7.5-6.5 17.2-10.7 29-12.6-1.4-2.9-3-5.8-4.8-8.7-12.2-19.8-29.4-32.4-46.2-47.6-3.7-3.3-7.6-7-10.6-11 .8-1.5 1.3-3.2 1.4-4.9 2.7-.2 5.2 1 6.7 3.4.1.3.3.6.4 1 6.2 15.1 20.2 8.7 17.2-4.3-2.6-11.6-14.9-19-26.1-20.2-25.4-2.8-32.3 26.8-18.7 44.7 15.4 20.1 52.2 36 40.5 69.5-3.4 9.6-12.7 17.7-22.9 19 4.2 30.2 2.6 43.1-16.6 63.2 16.1-19.5 7.3-29.1 7.6-50.2-14.5 46.5-47.9 71.5-132.1 70.8h-.1c32.8 15.9 74.9 13.2 105.5 3-50.2 21.5-91.2 24.6-122.9 9.3-16.8 14.3-21.7 28.2-33 44.3-6.7 9.5-16.1 16.8-30.3 20.2-8.6 2-19.5-.7-27.4-4.2-9.5-4.3-22-13.1-22.8-24.5-.3-4.1 1.5-8.3 4.4-11.1.3-.3.9-.8 1.3-1 2.6 1.7 3.5 4.1 5.9 5.2 5.8 2.7 13.5-3.2 15-8.8 1.9-7.4-4.1-13.5-10.3-16.4-14-6.5-33.5 1.7-40.8 14.6-7.2 12.7-4.6 28.6 1.1 41.3 11.8 26.5 38 46.3 66.5 52.1 5.2-13 6.3-27.6 3.4-43.6 5.4 14.1 6.3 28.9 2.7 44.6 3.4.4 6.8.7 10.3.7 2.7-14.7 1.6-29.3-3.3-44 7.2 13.6 10.4 28.2 9.5 43.8 1.7-.1 3.4-.3 5.1-.5 2.2-.3 4.3-.7 6.4-1.1.4-18.2-3.6-34-11.8-47.3 10.8 10.7 17.4 25.8 20 45.2 35.7-11 64.3-42.9 80.6-75.4 1.9 41.2 30.3 63.1 70.3 64.5 8.1.3 16.1-.6 24.1-1.5 7.8-.9 17.1-2.1 24.2 2 6.6 3.8.3 11.5-4.2 14.4-.9.6-1.9 1.1-2.9 1.5-4.8 2.3-9.5 6.1-11.3 11.3-3.7 10.9 6.7 18.4 17.2 13.3 17.2-8.4 27.3-23.7 29.9-42.5 4.6-34.2-30.4-47.9-58.9-49.8-11.4-.7-19.1-1.3-17.7-15 1.6-15.6 11.4-18.7 9.3-34.7 2.3 5.1 2.9 8.5 1.9 18.5 46.6 13.6 85.6 2.1 109.1-42.9 8.9-17 10.6-10 16.9-3.5 8.9 9.3 24.3 9.4 34.6 2.5 7.9-5.2 13.7-14.2 14.8-23.6.6-5 0-10.4-3-14.6-5.9-8.1-19.9-5.9-24.6 2.3-2 3.5-1.4 8.4 2 10.8 3 2.1 6.3 1.1 9-.8 0 .7-.1 1.4-.2 2-1 6.3-8.3 10.5-14.3 8.5-9.1-3.1-13-40.6-48-12.2-6.6 5.4-14.5 11.2-28.2 12.8ZM156 319.1c7.9 8.1 16.7 14.6 26.3 19.3l.3-.2c-14.2 9.4-26 20.8-35.5 34-17.1-2.4-33-10.8-45-23.8-21.9-23.7-28-57.3-26.2-88.5.5-8.2-1.1-17.3-5.8-24.2-2.4-3.5-7.1-8.3-11.8-7.1-7.3 1.9-5.6 13.5-5.9 18.8-.4 7.8-3.9 15.5-10.5 19.9-4.4 3-9.6 3.9-14.9 3-7.9-1.3-16.3-7.9-19.5-15.3-2.3-5.3-2.4-13.7 4.7-15 3.6-.7 6.7 1.6 8.3 4.7 1.5 3 1.5 6.1 4.8 8 1.2.7 2.6 1 3.9.7 3.4-1 3.4-5.7 3-8.5-.3-2.2-1-4.4-1.7-6.5-4.2-13.7-1.2-24.8 10.9-32.9 7.6-5.1 16.2-7.6 25.4-7.1 28.2 1.7 50.5 30 53 56.9 1.3 13.5.6 30.1 5.9 42.5 3.7 8.6 10.5 17.5 19.7 20.3 3.8 1.2 7.3 1.4 10.6 1Z" class="st3"/><path d="M399.5 216.7c3.5-.3 7-.4 10.6-.2-.8-3.1-1.8-6.2-3-9.3-2.7 0-5.4 0-8 .3.3 3.1.5 6.2.5 9.2Zm-35.8 78.8c11.5-6.1 20.9-12.7 28.2-20 16.8-16.5 22.5-35.3 19.1-54.4-3.8-.8-7.7-1.2-11.6-1.3-1.1 33-22 56.5-62.7 70.4 10 2.6 19 4.4 26.9 5.4Zm-55.6 65.9c-8.7 29-2.7 36.1 21.8 42.2 37.9 9.5 52.4 28.7 43.5 57.5 5-7.2 8.2-15.8 9.4-25.2 4.6-34.2-30.4-47.9-58.9-49.8-11.4-.7-19.1-1.3-17.7-15 .3-3.3 1.1-6.6 2-9.8Zm-152.4.1c-50-9.3-76.6-43.2-79.8-101.6-1.7 31.2 4.3 64.9 26.2 88.5 12.1 13 27.9 21.5 45 23.8 2.7-3.7 5.5-7.3 8.6-10.7Zm-43.2 88.9c1.1-2.8 2-5.6 2.8-8.5-11.9-.3-24.4-2.4-37.5-6.3 10.5 7.2 22.4 12.3 34.7 14.8Zm40.1-14c33.2-11.6 60.3-41 81.4-88.2-.4 1.3.1 9.6 1.5 24.7-16.3 32.5-44.9 64.4-80.6 75.4-.5-4.1-1.3-8.1-2.2-11.8Zm-17.6 4.3c.3 3.7.3 7.4 0 11.2 1.7-.1 3.4-.3 5.1-.5 2.2-.3 4.3-.7 6.4-1.1 0-4.1 0-8.1-.4-12-3.7 1-7.4 1.8-11.2 2.4Zm-14.7 1.3c-.4 3.1-.9 6.3-1.6 9.5 3.4.4 6.8.7 10.3.7.7-3.6 1.1-7.2 1.3-10.8-3.3.3-6.6.6-10 .6Zm361.8-164.2c-.5 2.6-2.4 5-5.9 7.3 0 .7-.1 1.4-.2 2-.8 5-5.6 8.7-10.5 9 10.1.6 15.6-5.5 16.7-18.3ZM430 306c-1 1.5-2.2 3.5-3.5 6-23.6 45-62.6 56.5-109.1 42.9 1.9-12-1.1-21.1-7.7-27.3 52.4 21.2 96.5 12.8 120.3-21.6Zm-31.6-103c2-.5 4.1-.9 6.2-1.2-1.4-2.9-3-5.8-4.8-8.7-1.7-2.8-3.6-5.5-5.5-8.1 1.9 6.2 3.2 12.2 4.1 18Z" class="st1"/><path d="M290.6 133.1c1-.1 2-.1 3.1 0 10.4 1.1 16.1 12.1 18.8 20.8 2.1 6.9 3 14.3 2.9 21.5-.1 5.5-.9 11-2.6 16.2-2.9 9.1-8.3 17-15.2 23.6 5 18.8 13.7 37.3 25.1 53.1-.8-1.9-1.5-3.7-2.2-5.6-2.6-6.8-5.1-13.7-7.3-20.7-1.6-5.1-3.2-10.3-4.6-15.5-.1-.4 0-.9.3-1.2.3-.3.7-.4 1.2-.3 2.9.8 5.8 1.3 8.8 1.3h.4c2.1.8 4 1.8 5.8 3.1 9.3 6.6 13.3 18.5 14.7 29.3 1.7 13.7-.3 28.5-4.5 41.7-4.8 15-13.2 29.7-25.3 39.9-.1.1-.3.2-.4.2-1.2.4-2.4.7-3.6 1-.2 0-.3 0-.5.1-9.3 2.5-18.8 4.3-28.4 5.5-10.6 1.3-21.3 1.9-31.9 1.6-21.6-.7-45.2-5.4-62.5-19.1-8.7-6.8-15.3-15.5-19.5-25.7-1.1-2.7.5-5.2 1.9-7.4.5-.8 1.1-1.6 1.6-2.4 8.7-14.8 15.7-31.6 16.3-49 0-.6.5-1.1 1.1-1.2 8-1 16.1-2.6 23.8-5.1-31.2 3.3-59.1-10.2-68.1-41.9-9.6-34.3-67.9-54.1-74.1-92.4-1.6-9.9.7-19.4 5.9-27.8 8.9-14.4 21.3-27 35.3-36.6.2-.2.5-.2.7-.2l15.5.6c12.1-7.1 24.9-11.3 38.8-13-12.6.5-29 4.5-40.3 9.8-.2 0-.4.1-.6.1l-13.8-1C94.3 43.6 86.7 53.9 77 64.5c-.9 1-1.8 2-2.7 3.1-.4.5-1.1.5-1.6.2s-.7-1-.4-1.5c23.9-52.1 94-56.1 140.1-32.3.5.3.8.9.6 1.5-.2.6-.7.9-1.3.8-1.9-.3-3.9-.4-5.9-.6-3.1-.2-6.3-.2-9.4 0l-1.9 5c-.2.4-.5.7-1 .8-10.1 1.2-19.8 4.6-28.8 9.3-.2.1-.4.2-.7.1l-17.1-1.7c-20.6 8.5-43 30.1-51.2 51.4 11.2-18.7 33.4-37.5 52.6-47.1.2-.1.4-.1.7-.1l17.7 2.1c10.1-4.3 20.7-7.1 31.6-8.3l1.8-4.3c.2-.5.7-.8 1.2-.8 23.6 1.1 40.9 6.1 55.1 25.8.3.4.3 1 0 1.4-.3.4-.8.6-1.3.5-6.8-2-13-3.1-20.1-3.3l-1.7 4.6c-.2.4-.5.7-1 .8-9.9 1.2-22.3 4.1-31.5 8.3-.2 0-.4.1-.6.1l-19.5-2c-22.4 10.3-52.6 31.7-58.7 56.4 10.4-21 38-40.8 59.5-50.2.2 0 .4-.1.7 0l19.6 3c11.3-4.2 23.1-6.9 35-7.7l2.3-4.8c.2-.5.7-.7 1.2-.7 13.3 1.1 26.3 4.5 38.4 10.1.2 0 .4.2.5.4 9.7 13.8 17.8 29.6 21.3 46.1 0 .4 0 .8-.3 1.1-.3.3-.6.4-1 .4-2.9-.3-5.9.1-8.7 1Zm10.6 34.6c0-.5-.4-.9-.8-1-.4 0-.8.3-.9.9-1.3 9.5-5.8 21.5-11.9 27.6-.2.2-.3.5-.3.8 0 .3.1.6.3.8 1.5 1.4 3.3 2.2 5.2 1.9 3.5-.6 5.6-4.8 6.7-8.6 2-6.8 2-15.4 1.6-22.4Zm-112.1 28.5c-.4-.3-.9-.2-1.3 0-.4.3-.5.8-.3 1.2 10.8 23.8 26.9 32.3 49.4 16 .4-.3.5-.7.4-1.1-.1-.4-.5-.7-.9-.8-14.3-.8-35.4-7.3-47.3-15.4Zm-2.2 111.9c.7 0 1.4-.4 1.9-.9l-7-11c-.5 1.3-.7 3-.5 4.8.5 4.1 3 7.3 5.5 7.1Zm2.8-2.2c.8-1.5 1.1-3.5.9-5.7-.5-4.1-3-7.3-5.5-7.1-1 0-1.8.6-2.5 1.5l7.1 11.3Zm3.3-5.6c-.1-4.4-2.3-10.5-7-11.5-.4 0-.9-.1-1.3-.1-1 0-1.9.3-2.7.8-1.7 1-2.9 2.6-3.7 4.4-1 2.1-1.4 4.6-1.3 6.9 0 2.7.8 5.4 2.1 7.6 1.1 1.8 2.8 3.4 4.9 3.8.4 0 .9.1 1.3.1.8 0 1.6-.2 2.4-.6 1.5-.7 2.7-2.1 3.5-3.6 1.3-2.4 1.9-5.2 1.8-7.9ZM95.9 121.6c-.1 0-.2-.1-.4 0-.1 0-.2.2-.2.3v2.6c0 .1 0 .2.1.3l14.2 12.4c.1 0 .2.1.4 0 .1 0 .2-.2.2-.3v-2.6c0-.1 0-.2-.1-.3l-14.2-12.4Zm0 12.9c-.1 0-.2-.1-.4 0-.1 0-.2.2-.2.3v2.6c0 .1 0 .2.1.3l14.2 12.4c.1 0 .2.1.4 0 .1 0 .2-.2.2-.3v-2.6c0-.1 0-.2-.1-.3l-14.2-12.4Zm0-5.9c-.1 0-.2-.1-.4 0-.1 0-.2.2-.2.3v2.6c0 .1 0 .2.1.3l14.2 12.4c.1 0 .2.1.4 0 .1 0 .2-.2.2-.3v-2.6c0-.1 0-.2-.1-.3l-14.2-12.4Z" style="fill:url(#GradientFill_1);fill-rule:evenodd"/><path d="M89.4 180.4c-2.6-7-3.6-15.2-2.8-24.9 2.2 13.9 6.3 25.2 12.1 33.9 2.1 1.7 4.3 3.4 6.6 5-1.1-5.4-1.2-12.1-.3-20.3 1.2 9.8 3.2 17.8 5.9 23.9 6.7 4.2 14 8.1 21.7 12 0-38.1-34.5-44.3-55.1-71.9-1.7 18.5 3.1 31.7 12 42.2Z" class="st3"/><path d="M86.7 155.9c16.8 13.5 33.6 24 35.2 48.5 3.5 1.9 7 3.8 10.7 5.7 0-38.1-34.5-44.3-55.1-71.9-.3 3.4-.4 6.5-.3 9.6 3.1 2.9 6.2 5.6 9.4 8.1v-.3.4Zm97.5 151.2c.8.7 1.7 1.1 2.7 1 .7 0 1.4-.4 1.9-.9l-7-11c0 .2-.2.5-.2.7l6.1 9.6c-.6.5-1.2.8-1.9.9-.5 0-1.1 0-1.6-.3Zm1.1 5.3c.3 0 .7 0 1-.1-.8.5-1.7.7-2.7.8-4.4.1-8.2-5.1-8.3-11.6-.2-6 2.7-11.1 6.6-12-3 1.8-5.1 6.2-5 11.3.2 6.5 3.9 11.7 8.3 11.6Zm3.6-7.8c.6-1.4.8-3.2.6-5.1-.3-2.6-1.4-4.9-2.8-6.1 1.9.9 3.6 3.5 4 6.8.3 2.2 0 4.2-.9 5.7l-.8-1.3Zm-42-255.5 17.1 1.7c.2 0 .5 0 .7-.1 9-4.6 18.7-8.1 28.8-9.3.5 0 .8-.3 1-.8l1.9-5c3.1 0 6.3-.1 9.4 0 1.2 0 2.3.2 3.5.3-4.5-1.2-9.5-2.1-15.1-2.7l-2.3 4.9c-8.9.4-18.4 3.1-28.5 8l-16.5-1.6c-17.8 8.6-32.5 22.8-44.2 42.6 10.6-16.5 28-31.4 44.3-38.1Zm33.7 29c-12.8 5.9-28.2 15.5-40.2 27.2 15.3-16.2 28.8-26.4 40.5-30.4l18.9 1.6c11.1-4.4 21.5-6.8 31.1-7.3l2-5.4c6.8.8 13.2 2.5 19.2 5-5.7-1.5-11.1-2.3-17.2-2.5l-1.7 4.6c-.2.4-.5.7-1 .8-9.9 1.2-22.3 4.1-31.5 8.3-.2 0-.4.1-.6.1l-19.5-2Z" class="st1"/></g></g></svg>