<svg width="40" height="40" fill="none" xmlns="http://www.w3.org/2000/svg"><rect width="40" height="40" rx="4" fill="#7F54B3"/><path fill-rule="evenodd" clip-rule="evenodd" d="M9.147 13.333h21.701a2.47 2.47 0 0 1 1.757.732c.467.472.729 1.108.728 1.772v8.35c.001.664-.26 1.3-.727 1.773a2.471 2.471 0 0 1-1.756.733h-7.783l1.065 2.64-4.701-2.64H9.147c-1.37 0-2.479-1.121-2.48-2.503v-8.353c.001-1.382 1.11-2.502 2.48-2.504z" fill="#fff"/><path d="M8.17 15.46a.873.873 0 0 1 .674-.34c.547-.04.862.223.943.79.338 2.296.7 4.245 1.084 5.847l2.363-4.59c.216-.414.484-.634.81-.66.473-.034.77.274.887.923a20.814 20.814 0 0 0 1.021 3.768c.283-2.793.756-4.812 1.421-6.054a.833.833 0 0 1 .711-.488.936.936 0 0 1 .682.22.858.858 0 0 1 .328.632.954.954 0 0 1-.108.525c-.42.797-.767 2.123-1.04 3.977-.268 1.789-.367 3.188-.297 4.197.024.248-.019.497-.125.722a.68.68 0 0 1-.575.389c-.287.02-.571-.117-.852-.409-1.002-1.05-1.796-2.611-2.382-4.685a501.556 501.556 0 0 0-1.558 3.176c-.632 1.248-1.174 1.886-1.627 1.915-.294.021-.546-.23-.754-.756-.55-1.44-1.14-4.227-1.773-8.358a.958.958 0 0 1 .168-.741z" fill="#7F54B3"/><path fill-rule="evenodd" clip-rule="evenodd" d="M29.731 16.052c.735.144 1.37.621 1.73 1.302.35.604.525 1.34.525 2.21a6.237 6.237 0 0 1-.841 3.181c-.645 1.124-1.492 1.686-2.539 1.686a2.74 2.74 0 0 1-.586-.066 2.513 2.513 0 0 1-1.73-1.303c-.35-.614-.525-1.356-.525-2.225a6.133 6.133 0 0 1 .841-3.165c.656-1.124 1.502-1.686 2.539-1.686.197.001.394.023.586.066zm-.459 6.083c.402-.373.677-.928.826-1.665v.003c.053-.271.08-.547.079-.824a2.985 2.985 0 0 0-.19-1.025c-.16-.43-.37-.671-.634-.726-.391-.088-.767.142-1.128.692a3.78 3.78 0 0 0-.57 1.335 4.21 4.21 0 0 0-.08.825c.003.35.068.696.19 1.022.16.426.371.668.636.726.264.057.555-.063.872-.363zm-6.206-6.083c.736.144 1.37.622 1.731 1.302.348.604.523 1.34.523 2.21a6.234 6.234 0 0 1-.84 3.181c-.646 1.124-1.492 1.686-2.54 1.686a2.756 2.756 0 0 1-.587-.066 2.517 2.517 0 0 1-1.731-1.303c-.35-.614-.524-1.356-.524-2.225a6.131 6.131 0 0 1 .842-3.165c.655-1.124 1.501-1.686 2.539-1.686.198.001.395.023.587.066zm-.458 6.083c.402-.373.677-.928.825-1.665v.003c.054-.271.08-.547.08-.824a3.01 3.01 0 0 0-.191-1.025c-.159-.43-.37-.671-.634-.726-.391-.088-.767.142-1.127.692-.275.404-.47.858-.572 1.335-.053.272-.08.548-.08.825.004.35.07.697.192 1.022.158.43.37.67.634.726.264.055.556-.066.873-.363z" fill="#7F54B3"/></svg>