<svg width="272" height="88" viewBox="0 0 272 88" fill="none" xmlns="http://www.w3.org/2000/svg">
<path d="M13.6226 54.3767C19.9044 55.22 25.4025 53.8022 29.8721 49.7933L37.3539 50.1844L33.2762 62.1744C28.7455 69.3489 22.1698 70.8767 15.4349 70.4244L13.6226 54.3767Z" fill="#7EAABA"/>
<path d="M16.4023 57.09L17.6269 68.09C23.2352 68.09 27.7047 66.22 31.0967 61.1355L34.0478 52.58L30.7661 52.4089C26.7512 55.721 21.6416 57.4167 16.4391 57.1633L16.4023 57.09Z" fill="#D3E8EF"/>
<path d="M16.4023 57.09L17.1371 63.58C24.8393 62.6755 30.8395 59.51 33.9498 52.5066L30.6681 52.3355C26.6773 55.6479 21.5864 57.3446 16.4023 57.09Z" fill="white"/>
<path d="M15.4353 44.99C17.9575 44.9876 20.4238 45.732 22.5219 47.1292C24.6201 48.5263 26.2559 50.5133 27.2222 52.8387C28.1885 55.1641 28.442 57.7233 27.9505 60.1925C27.4591 62.6617 26.2447 64.93 24.4613 66.7101C22.6778 68.4902 20.4053 69.7022 17.9314 70.1928C15.4575 70.6833 12.8935 70.4303 10.5637 69.4658C8.23392 68.5013 6.24318 66.8686 4.84341 64.7744C3.44365 62.6802 2.69778 60.2186 2.7002 57.7011C2.70667 54.3319 4.05048 51.1025 6.43737 48.7201C8.82427 46.3377 12.0597 44.9965 15.4353 44.99" fill="#7EAABA"/>
<path d="M15.4352 47.4711C13.4173 47.4687 11.4439 48.0637 9.7649 49.181C8.08586 50.2982 6.77655 51.8874 6.00263 53.7476C5.22872 55.6077 5.02497 57.6552 5.41717 59.6309C5.80936 61.6067 6.77988 63.4219 8.20593 64.847C9.63199 66.2721 11.4495 67.2429 13.4285 67.6368C15.4075 68.0306 17.4591 67.8297 19.3236 67.0595C21.1882 66.2892 22.782 64.9843 23.9034 63.3098C25.0248 61.6352 25.6233 59.6663 25.6233 57.6522C25.6249 56.3158 25.3626 54.9921 24.8513 53.757C24.34 52.5218 23.5898 51.3994 22.6436 50.4538C21.6974 49.5082 20.5737 48.7581 19.3369 48.2463C18.1 47.7345 16.7742 47.4711 15.4352 47.4711" fill="#D3E8EF"/>
<path d="M15.4349 47.4711C13.7897 47.4628 12.1672 47.8546 10.7078 48.6127C9.24841 49.3708 7.99606 50.4725 7.05908 51.8223C7.2324 54.4057 8.37961 56.8278 10.2698 58.6011C12.1601 60.3744 14.6531 61.3673 17.2472 61.38C18.8924 61.3884 20.5148 60.9966 21.9742 60.2385C23.4336 59.4803 24.686 58.3787 25.6229 57.0289C25.461 54.4413 24.3173 52.0126 22.4245 50.237C20.5318 48.4614 18.0324 47.4723 15.4349 47.4711" fill="white"/>
<path d="M14.1369 46.86C16.0213 46.86 17.8632 47.4185 19.4292 48.4648C20.9951 49.511 22.2146 50.9978 22.9329 52.7367C23.6512 54.4755 23.836 56.3881 23.4639 58.2319C23.0918 60.0757 22.1795 61.7678 20.8427 63.0934C19.506 64.4191 17.8049 65.3187 15.9552 65.6782C14.1056 66.0377 12.1906 65.8409 10.4532 65.1127C8.71569 64.3846 7.23399 63.1579 6.19592 61.5881C5.15784 60.0184 4.61014 58.1763 4.62227 56.2955C4.63199 53.7854 5.6395 51.3819 7.42348 49.6127C9.20746 47.8435 11.622 46.8535 14.1369 46.86Z" fill="#7EAABA"/>
<path d="M13.4515 44.3056C15.3426 44.308 17.1905 44.8708 18.7608 45.9225C20.3312 46.9742 21.5535 48.4676 22.2727 50.2134C22.9919 51.9591 23.1757 53.8787 22.8008 55.7288C22.4259 57.579 21.5091 59.2764 20.1667 60.6059C18.8243 61.9355 17.1167 62.8374 15.2603 63.1973C13.4038 63.5572 11.4821 63.359 9.73864 62.6277C7.99518 61.8964 6.50847 60.665 5.46689 59.0895C4.42532 57.514 3.87577 55.6653 3.88789 53.7778C3.90724 51.2566 4.92259 48.8449 6.71332 47.0667C8.50404 45.2885 10.9255 44.2875 13.4515 44.2811" fill="#7F3E13"/>
<path d="M14.3577 47.9233C12.8561 47.9233 11.3883 48.3678 10.1398 49.2004C8.89126 50.0331 7.91817 51.2166 7.34354 52.6012C6.76891 53.9859 6.61857 55.5095 6.91151 56.9795C7.20445 58.4494 7.92753 59.7996 8.9893 60.8594C10.0511 61.9192 11.4038 62.6409 12.8766 62.9333C14.3493 63.2257 15.8758 63.0756 17.2631 62.5021C18.6503 61.9285 19.8361 60.9573 20.6703 59.7111C21.5045 58.4649 21.9498 56.9999 21.9498 55.5011C21.9465 53.4924 21.1456 51.5668 19.7225 50.1464C18.2994 48.726 16.3703 47.9266 14.3577 47.9233" fill="#B85A1B"/>
<path d="M8.63897 36.6667C8.63897 35.5646 9.07761 34.5076 9.8584 33.7283C10.6392 32.949 11.6982 32.5112 12.8024 32.5112C13.9066 32.5112 14.9655 32.949 15.7463 33.7283C16.5271 34.5076 16.9658 35.5646 16.9658 36.6667C19.2801 32.7556 26.5906 34.9067 24.3129 41.0178C24.4374 41.5004 24.5314 41.9902 24.5946 42.4845C28.562 42.7045 29.86 48.8645 24.4231 50.7956C24.0184 52.3785 23.2887 53.8601 22.2802 55.1467C17.627 59.1556 16.1576 55.8801 13.6106 53.1667C11.1615 53.1667 4.54905 51.5289 6.42257 57.7378C2.18571 55.0001 -0.532746 49.5123 1.49997 41.4823C-1.32869 34.9801 6.20216 32.5601 8.63897 36.5934V36.6667Z" fill="#7F3E13"/>
<path d="M4.05918 42.3867C3.0918 46.2856 3.03058 50.6978 5.81026 53.8633C9.7165 58.3245 17.6392 58.1045 20.7005 52.5067C22.3414 49.4511 22.2312 45.6622 21.5454 42.3378C15.7747 41.1766 9.82989 41.1766 4.05918 42.3378V42.3867Z" fill="#B85A1B"/>
<path d="M4.05918 42.3867C3.0918 46.2856 3.03058 50.6978 5.81026 53.8633C6.6997 54.8388 7.78295 55.6186 8.991 56.1531C10.199 56.6876 11.5054 56.965 12.8268 56.9678V41.4822C9.8821 41.5049 6.94628 41.8077 4.05918 42.3867" fill="#E1762F"/>
<path d="M7.90436 45.3812C7.5312 46.4475 7.42872 47.5895 7.60609 48.705C7.78346 49.8205 8.23514 50.8748 8.92072 51.7734C9.45584 52.3815 10.1281 52.854 10.882 53.152C11.6359 53.4501 12.45 53.565 13.2572 53.4874C14.0644 53.4098 14.8415 53.1419 15.5246 52.7058C16.2078 52.2697 16.7773 51.6778 17.1863 50.9789C17.9901 49.2064 18.1503 47.2099 17.6394 45.3323C14.4274 44.6784 11.1163 44.6784 7.90436 45.3323" fill="#7F3E13"/>
<path d="M12.7778 39.3922C13.3356 39.3507 13.8571 39.1003 14.2376 38.6912C14.6181 38.282 14.8296 37.7444 14.8296 37.1861C14.8296 36.6278 14.6181 36.0902 14.2376 35.681C13.8571 35.2719 13.3356 35.0214 12.7778 34.98V39.3922ZM20.7618 36.6666C21.1972 36.6691 21.6221 36.8001 21.983 37.0433C22.3438 37.2865 22.6244 37.631 22.7894 38.0332C22.9543 38.4354 22.9962 38.8773 22.9098 39.3033C22.8234 39.7292 22.6125 40.1201 22.3038 40.4265C21.995 40.733 21.6023 40.9413 21.175 41.0252C20.7478 41.1091 20.3053 41.0648 19.9032 40.898C19.5012 40.7311 19.1577 40.4491 18.916 40.0876C18.6743 39.7261 18.5454 39.3012 18.5454 38.8666C18.5486 38.282 18.7835 37.7225 19.1988 37.3103C19.6141 36.898 20.176 36.6666 20.7618 36.6666" fill="#B85A1B"/>
<path d="M5.24716 36.85C5.80494 36.8914 6.32639 37.1419 6.70692 37.551C7.08745 37.9602 7.29892 38.4978 7.29892 39.0561C7.29892 39.6143 7.08745 40.152 6.70692 40.5611C6.32639 40.9703 5.80494 41.2207 5.24716 41.2622C4.67346 41.2505 4.1256 41.0219 3.71421 40.6226C3.30282 40.2234 3.05856 39.6831 3.03076 39.1111C3.034 38.5265 3.26894 37.9669 3.68424 37.5547C4.09955 37.1425 4.66145 36.9111 5.24716 36.9111V36.85ZM12.778 39.4533V35.0411C12.2038 35.0628 11.6596 35.3026 11.2567 35.7116C10.8538 36.1205 10.6227 36.6677 10.6106 37.2411C10.6121 37.5283 10.671 37.8123 10.7837 38.0766C10.8964 38.3409 11.0607 38.5801 11.267 38.7804C11.4733 38.9806 11.7175 39.1378 11.9853 39.2429C12.2532 39.3479 12.5393 39.3987 12.827 39.3922L12.778 39.4533Z" fill="#E1762F"/>
<path d="M23.2474 44.5988C23.6834 44.5988 24.1095 44.7279 24.472 44.9696C24.8345 45.2113 25.117 45.5549 25.2838 45.9569C25.4506 46.3589 25.4943 46.8013 25.4092 47.228C25.3242 47.6548 25.1143 48.0468 24.806 48.3545C24.4978 48.6621 24.105 48.8717 23.6774 48.9566C23.2499 49.0414 22.8067 48.9979 22.4039 48.8314C22.0012 48.6648 21.6569 48.3829 21.4148 48.0211C21.1726 47.6593 21.0433 47.2339 21.0433 46.7988C21.0383 46.5086 21.0919 46.2202 21.2009 45.9511C21.3099 45.6819 21.4721 45.4374 21.6778 45.2321C21.8835 45.0268 22.1284 44.865 22.3981 44.7562C22.6678 44.6474 22.9566 44.5939 23.2474 44.5988Z" fill="#B85A1B"/>
<path d="M99.0093 70.5955C98.5073 63.9833 95.5072 59.2289 89.6172 56.6867L90.8417 52.1155L100.356 49.5611C108.622 52.0055 111.793 57.3711 113.373 63.9833L99.0461 70.5955H99.0093Z" fill="#7EAABA"/>
<path d="M100.993 66.9778L110.459 62.5656C108.805 57.0289 106.038 53.4722 100.209 52.0544L92.7887 54.0344L92.4458 55.2567C94.6241 56.4879 96.5149 58.1676 97.9928 60.1843C99.4707 62.2009 100.502 64.5084 101.017 66.9533L100.993 66.9778Z" fill="white"/>
<path d="M89.8372 71.72C89.0728 69.4019 89.014 66.9096 89.6681 64.5581C90.3223 62.2065 91.6601 60.1013 93.5126 58.5084C95.365 56.9155 97.6489 55.9064 100.076 55.6086C102.503 55.3107 104.963 55.7376 107.147 56.8351C109.331 57.9327 111.14 59.6517 112.345 61.775C113.551 63.8983 114.099 66.3306 113.92 68.7645C113.741 71.1984 112.843 73.5248 111.34 75.4496C109.836 77.3745 107.795 78.8114 105.474 79.5789C103.931 80.0927 102.301 80.2968 100.678 80.1795C99.0552 80.0622 97.4716 79.6259 96.0183 78.8955C94.565 78.1651 93.2708 77.1552 92.21 75.9237C91.1492 74.6923 90.3428 73.2636 89.8372 71.72" fill="#7EAABA"/>
<path d="M91.8826 71.0478C92.5165 72.964 93.7053 74.6496 95.2988 75.8916C96.8923 77.1336 98.8189 77.8762 100.835 78.0255C102.851 78.1749 104.867 77.7242 106.626 76.7306C108.386 75.737 109.811 74.2449 110.722 72.4431C111.632 70.6412 111.987 68.6105 111.741 66.6075C111.495 64.6045 110.66 62.7191 109.341 61.1898C108.022 59.6604 106.278 58.5557 104.33 58.0152C102.382 57.4748 100.318 57.5228 98.3971 58.1533C97.1197 58.571 95.9375 59.2363 94.9182 60.111C93.899 60.9857 93.0628 62.0526 92.4575 63.2505C91.8523 64.4485 91.49 65.7539 91.3913 67.092C91.2927 68.43 91.4596 69.7743 91.8826 71.0478" fill="#D3E8EF"/>
<path d="M111.695 66.4645C111.623 65.8503 111.492 65.2445 111.303 64.6556C110.885 63.382 110.219 62.2033 109.343 61.187C108.468 60.1706 107.4 59.3366 106.201 58.7326C105.002 58.1287 103.696 57.7666 102.357 57.6672C101.018 57.5678 99.672 57.733 98.3969 58.1534C96.8194 58.6966 95.3841 59.5863 94.1968 60.7567C94.2787 61.3702 94.4139 61.9754 94.6009 62.5656C95.4517 65.1339 97.2881 67.2606 99.7076 68.4795C102.127 69.6984 104.932 69.9099 107.507 69.0678C109.107 68.5795 110.551 67.682 111.695 66.4645" fill="white"/>
<path d="M87.5231 74.8856C86.799 72.6992 86.7412 70.3475 87.357 68.1283C87.9728 65.909 89.2344 63.9221 90.9822 62.419C92.7301 60.9159 94.8854 59.9642 97.1755 59.6844C99.4655 59.4047 101.787 59.8095 103.847 60.8475C105.906 61.8856 107.61 63.5102 108.744 65.5157C109.878 67.5212 110.39 69.8174 110.216 72.1136C110.041 74.4098 109.188 76.6026 107.764 78.4146C106.341 80.2265 104.41 81.576 102.217 82.2923C100.765 82.7716 99.233 82.9602 97.7078 82.8472C96.1827 82.7342 94.6949 82.3218 93.3298 81.6337C91.9646 80.9456 90.749 79.9953 89.7525 78.8373C88.7561 77.6793 87.9985 76.3364 87.5231 74.8856" fill="#7F3E13"/>
<path d="M89.8987 74.1522C89.3274 72.4313 89.2802 70.58 89.7631 68.8323C90.2459 67.0847 91.2372 65.5191 92.6114 64.3337C93.9856 63.1483 95.6811 62.3962 97.4836 62.1726C99.286 61.9489 101.114 62.2637 102.738 63.0772C104.361 63.8907 105.706 65.1663 106.603 66.7428C107.5 68.3193 107.908 70.1258 107.776 71.9339C107.645 73.742 106.979 75.4706 105.863 76.901C104.747 78.3314 103.231 79.3994 101.507 79.97C99.1948 80.7319 96.674 80.5473 94.4978 79.4567C92.3216 78.3661 90.6676 76.4584 89.8987 74.1522" fill="#B85A1B"/>
<path d="M89.5068 69.8011C89.778 68.1298 90.5004 66.564 91.5965 65.2719C92.6925 63.9798 94.1207 63.0103 95.7274 62.4677C96.8763 62.0897 98.0887 61.9416 99.295 62.032C100.501 62.1223 101.678 62.4494 102.757 62.9943C103.837 63.5393 104.798 64.2915 105.586 65.2079C106.374 66.1242 106.973 67.1867 107.348 68.3344C107.587 69.0679 107.739 69.8267 107.801 70.5955C105.037 72.3425 101.804 73.2029 98.5353 73.0609C95.2669 72.9188 92.1204 71.7812 89.5191 69.8011H89.5068Z" fill="#E1762F"/>
<path d="M47.1506 0C49.4448 0.0703549 51.6183 1.04211 53.1984 2.70386C54.7784 4.36561 55.6371 6.5829 55.5876 8.87333C55.6202 10.0096 55.4275 11.1411 55.0206 12.2029C54.6137 13.2646 54.0007 14.2356 53.2167 15.0602C52.4327 15.8847 51.4932 16.5465 50.4522 17.0075C49.4112 17.4686 48.2892 17.7198 47.1506 17.7467C44.8661 17.6637 42.7062 16.6861 41.1386 15.0253C39.571 13.3646 38.7218 11.1544 38.7748 8.87333C38.7218 6.59224 39.571 4.38208 41.1386 2.72134C42.7062 1.06061 44.8661 0.0829416 47.1506 0" fill="#7F3E13"/>
<path d="M47.1501 2.44446C45.5129 2.52065 43.972 3.23867 42.8623 4.44246C41.7525 5.64626 41.1635 7.23857 41.2234 8.87335C41.1668 10.5125 41.7599 12.1079 42.8739 13.3136C43.9879 14.5194 45.5331 15.2382 47.1746 15.3145C48.8173 15.2446 50.3651 14.5272 51.4785 13.3197C52.5919 12.1121 53.1799 10.5131 53.1136 8.87335C53.1604 7.23593 52.562 5.64548 51.4471 4.44348C50.3321 3.24148 48.7894 2.52378 47.1501 2.44446" fill="#B85A1B"/>
<path d="M47.1501 4.88885C46.6554 4.92595 46.1729 5.0601 45.7302 5.28362C45.2875 5.50714 44.8934 5.81563 44.5703 6.19143C44.2473 6.56723 44.0017 7.00296 43.8476 7.47364C43.6935 7.94433 43.634 8.44073 43.6725 8.93441C43.6245 9.92671 43.9639 10.8989 44.6194 11.6465C45.2748 12.3942 46.1951 12.859 47.1869 12.9433C48.1782 12.8682 49.0994 12.4043 49.7488 11.653C50.3983 10.9017 50.7231 9.92419 50.6523 8.93441C50.7134 7.93716 50.3813 6.95562 49.7268 6.19962C49.0724 5.44362 48.1476 4.97318 47.1501 4.88885" fill="#63300F"/>
<path d="M82.931 0C85.2359 0.0544972 87.4251 1.01932 89.0183 2.6828C90.6115 4.34629 91.4785 6.5726 91.4292 8.87333C91.491 10.0174 91.3186 11.162 90.9225 12.2373C90.5264 13.3126 89.9149 14.2961 89.1254 15.1278C88.3359 15.9594 87.3849 16.6218 86.3304 17.0744C85.2759 17.5271 84.1401 17.7605 82.9922 17.7605C81.8444 17.7605 80.7085 17.5271 79.654 17.0744C78.5996 16.6218 77.6485 15.9594 76.859 15.1278C76.0695 14.2961 75.458 13.3126 75.062 12.2373C74.6659 11.162 74.4934 10.0174 74.5552 8.87333C74.5054 6.59313 75.3557 4.38477 76.9226 2.72473C78.4896 1.0647 80.6476 0.0860682 82.931 0" fill="#7F3E13"/>
<path d="M82.931 2.44446C81.2883 2.51433 79.7405 3.23173 78.6271 4.43926C77.5137 5.64679 76.9257 7.24584 76.992 8.88557C76.9275 9.70404 77.0333 10.527 77.3028 11.3026C77.5723 12.0783 77.9997 12.79 78.5581 13.3928C79.1164 13.9957 79.7937 14.4767 80.5473 14.8058C81.3009 15.1348 82.1145 15.3046 82.9371 15.3046C83.7596 15.3046 84.5733 15.1348 85.3269 14.8058C86.0805 14.4767 86.7578 13.9957 87.3161 13.3928C87.8745 12.79 88.3018 12.0783 88.5713 11.3026C88.8409 10.527 88.9467 9.70404 88.8822 8.88557C88.9292 7.24894 88.3329 5.65889 87.2208 4.45527C86.1088 3.25165 84.5691 2.52996 82.931 2.44446" fill="#B85A1B"/>
<path d="M82.931 4.88885C82.4353 4.92143 81.9509 5.05143 81.5057 5.27138C81.0605 5.49133 80.6632 5.7969 80.3366 6.17054C80.0101 6.54418 79.7607 6.97852 79.6028 7.44864C79.4449 7.91875 79.3816 8.41537 79.4166 8.90997C79.3686 9.90226 79.708 10.8745 80.3635 11.6221C81.0189 12.3698 81.9392 12.8346 82.931 12.9189C83.4261 12.8878 83.9102 12.7593 84.3553 12.5406C84.8005 12.322 85.1978 12.0175 85.5245 11.6449C85.8512 11.2722 86.1008 10.8387 86.2588 10.3693C86.4169 9.8999 86.4803 9.40392 86.4454 8.90997C86.4966 7.91562 86.1587 6.94032 85.5029 6.19002C84.8472 5.43972 83.9249 4.97316 82.931 4.88885" fill="#4F2800"/>
<path d="M96.3276 31.8755H96.1684V15.2655C96.1684 10.2666 84.4129 7.45553 71.1268 6.79553C71.1365 6.44884 71.0776 6.10365 70.9536 5.77966C70.8296 5.45568 70.6429 5.15924 70.4041 4.90729C70.1653 4.65533 69.8791 4.45279 69.5619 4.31122C69.2447 4.16965 68.9026 4.09183 68.5553 4.0822C68.208 4.07256 67.8621 4.13131 67.5375 4.25509C67.2129 4.37886 66.9159 4.56524 66.6635 4.80358C66.1537 5.28492 65.8563 5.94869 65.8369 6.64886H64.2817C64.2211 5.97661 63.906 5.3527 63.4006 4.90425C62.8952 4.4558 62.2375 4.21655 61.5615 4.23525C60.8856 4.25395 60.2422 4.52918 59.7624 5.00489C59.2827 5.48059 59.0027 6.12096 58.9795 6.79553C45.7056 7.43108 33.9501 10.2422 33.9501 15.2044V31.7778H33.7787C32.6075 32.2202 31.6003 33.0105 30.8931 34.042C30.1858 35.0735 29.8125 36.2967 29.8235 37.5466V49.6955L65.0409 61.1111L100.258 49.5244V37.6444C100.271 36.3974 99.9014 35.1763 99.1988 34.1451C98.4962 33.1139 97.4943 32.3219 96.3276 31.8755V31.8755Z" fill="#7F3E13"/>
<path d="M36.7788 15.8889V33.7455L35.3094 34.3078C34.5227 34.5939 33.8445 35.1168 33.3685 35.8043C32.8924 36.4918 32.6421 37.3099 32.6521 38.1455V50.6978L65.0899 61.1111L97.5521 50.4655V38.1455C97.5605 37.3169 97.3153 36.5054 96.8492 35.8196C96.3831 35.1338 95.7184 34.6064 94.9439 34.3078L93.4745 33.7455V15.8889C93.4132 7.41888 36.9013 7.41888 36.84 15.8889H36.7788Z" fill="#B85A1B"/>
<path d="M36.7788 15.8889V33.7456L35.3094 34.3078C34.5227 34.5939 33.8445 35.1168 33.3685 35.8043C32.8924 36.4918 32.6421 37.3099 32.6521 38.1456V50.6978L65.0899 61.1111V54.3156C53.8855 54.3767 42.6688 46.9822 45.6199 32.4989H65.0899V9.5578C50.9344 9.5578 36.7788 11.6967 36.7788 15.8889Z" fill="#E1762F"/>
<path d="M44.089 28.71H86.1638C92.1027 60.2434 37.6357 60.0234 44.089 28.71Z" fill="#E5895B"/>
<path d="M46.1218 31.2033C45.5586 36.0922 46.5749 40.7489 50.1995 44.4278C54.0568 48.2655 59.8243 49.9033 65.151 49.8544C70.4777 49.8055 75.7432 48.2166 79.5392 44.5989C81.2921 42.8674 82.6106 40.7472 83.3872 38.4109C84.1639 36.0747 84.3769 33.5884 84.0087 31.1544L46.1218 31.2033Z" fill="#E5895B"/>
<path d="M72.1187 45.8944C74.9473 49.5611 83.2129 48.0455 80.6904 40.2966L72.1187 45.8944V45.8944Z" fill="#FAD395"/>
<path d="M69.5103 45.1C72.6818 49.17 82.9801 46.7378 80.6167 37.9255L69.5103 45.1Z" fill="#4F2800"/>
<path d="M79.0248 38.3167C79.3397 38.2431 79.671 38.297 79.9464 38.4665C80.2217 38.6359 80.4186 38.9072 80.4942 39.2211C80.5944 39.3826 80.6555 39.5651 80.6727 39.7543C80.6899 39.9434 80.6627 40.134 80.5933 40.3108C80.5238 40.4876 80.414 40.6458 80.2726 40.7729C80.1312 40.9 79.9621 40.9925 79.7786 41.0429C79.5952 41.0934 79.4025 41.1005 79.2158 41.0637C79.0291 41.0269 78.8536 40.9472 78.7032 40.8308C78.5528 40.7145 78.4316 40.5648 78.3493 40.3936C78.2669 40.2224 78.2257 40.0343 78.2288 39.8444C78.1327 39.5365 78.1624 39.2031 78.3115 38.9169C78.4606 38.6307 78.717 38.4149 79.0248 38.3167V38.3167ZM72.2899 43.01C72.6048 42.9365 72.9361 42.9903 73.2115 43.1598C73.4868 43.3292 73.6837 43.6005 73.7593 43.9144C73.8555 44.2224 73.8258 44.5558 73.6767 44.842C73.5276 45.1282 73.2712 45.3439 72.9634 45.4422C72.6484 45.5157 72.3171 45.4619 72.0418 45.2924C71.7665 45.123 71.5695 44.8517 71.4939 44.5378C71.3978 44.2298 71.4275 43.8964 71.5766 43.6102C71.7257 43.324 71.9821 43.1083 72.2899 43.01" fill="white"/>
<path d="M76.4163 46.6889C77.6255 46.3346 78.7018 45.6295 79.5085 44.6633C80.3153 43.697 80.816 42.5132 80.9471 41.2622C79.1348 40.9811 75.9633 43.7066 76.4163 46.6889" fill="#AD6151"/>
<path d="M48.3871 28.71H81.7432C86.4944 51.26 43.2931 51.04 48.3871 28.71" fill="#FAD395"/>
<path d="M65.0406 41.5555C65.2523 40.2023 65.7949 38.9219 66.6203 37.8278C70.649 37.2044 74.1021 34.1611 73.0246 28.7222C70.4746 27.8286 67.7921 27.37 65.0896 27.3655L63.4487 32.5111L65.0406 41.5555V41.5555Z" fill="#4F2800"/>
<path d="M65.0408 41.5555C64.8245 40.2014 64.2778 38.9212 63.4489 37.8278C59.4325 37.2044 55.9793 34.1611 57.0569 28.7222C59.6029 27.8298 62.2812 27.3712 64.9796 27.3655L65.0408 41.5555Z" fill="#63300F"/>
<path d="M59.1505 29.5045C63.0276 28.4873 67.1023 28.4873 70.9794 29.5045C72.6325 33.6233 57.3382 33.5745 59.1505 29.5045Z" fill="#AD6151"/>
<path d="M58.6976 18.0277C59.585 18.0253 60.4532 18.2859 61.1921 18.7765C61.931 19.2671 62.5073 19.9656 62.8481 20.7835C63.1888 21.6014 63.2786 22.5019 63.1061 23.3708C62.9335 24.2396 62.5064 25.0378 61.8789 25.6642C61.2514 26.2905 60.4517 26.7168 59.5812 26.889C58.7106 27.0612 57.8085 26.9716 56.9891 26.6315C56.1696 26.2914 55.4698 25.7162 54.9783 24.9787C54.4867 24.2412 54.2256 23.3746 54.228 22.4888C54.2313 21.3067 54.7032 20.1738 55.5407 19.3379C56.3782 18.502 57.5132 18.031 58.6976 18.0277" fill="white"/>
<path d="M59.0403 19.6167C59.702 19.6167 60.3488 19.8127 60.8988 20.1799C61.4488 20.5471 61.8773 21.0689 62.13 21.6793C62.3826 22.2897 62.4481 22.9613 62.3181 23.6088C62.1881 24.2564 61.8685 24.8509 61.3998 25.3171C60.931 25.7832 60.3342 26.1001 59.685 26.2274C59.0357 26.3548 58.3631 26.287 57.7525 26.0325C57.1419 25.7781 56.6206 25.3486 56.2548 24.7982C55.8889 24.2479 55.6949 23.6016 55.6974 22.9412C55.6941 22.5026 55.7784 22.0679 55.9454 21.6623C56.1124 21.2566 56.3587 20.8883 56.6699 20.5788C56.9812 20.2693 57.3511 20.0248 57.7581 19.8596C58.1651 19.6944 58.601 19.6118 59.0403 19.6167" fill="#1B1D23"/>
<path d="M71.494 18.0277C70.6066 18.0253 69.7384 18.2859 68.9995 18.7765C68.2606 19.2671 67.6842 19.9656 67.3435 20.7835C67.0028 21.6014 66.913 22.5019 67.0855 23.3708C67.2581 24.2396 67.6852 25.0378 68.3127 25.6642C68.9402 26.2905 69.7399 26.7168 70.6104 26.889C71.4809 27.0612 72.3831 26.9716 73.2025 26.6315C74.022 26.2914 74.7218 25.7162 75.2133 24.9787C75.7049 24.2412 75.966 23.3746 75.9635 22.4888C75.9603 21.3067 75.4884 20.1738 74.6509 19.3379C73.8134 18.502 72.6784 18.031 71.494 18.0277" fill="white"/>
<path d="M71.2126 19.6166C70.5509 19.6166 69.9041 19.8126 69.3541 20.1798C68.804 20.547 68.3756 21.0688 68.1229 21.6793C67.8703 22.2897 67.8048 22.9612 67.9348 23.6088C68.0648 24.2563 68.3844 24.8509 68.8531 25.317C69.3219 25.7832 69.9187 26.1 70.5679 26.2273C71.2172 26.3547 71.8897 26.2869 72.5004 26.0325C73.111 25.778 73.6323 25.3485 73.9981 24.7982C74.364 24.2478 74.558 23.6015 74.5555 22.9411C74.5428 22.0612 74.1861 21.2212 73.5616 20.6001C72.9371 19.979 72.0941 19.6261 71.2126 19.6166Z" fill="#1B1D23"/>
<path d="M61.9303 16.6223C60.3595 16.2696 58.734 16.2328 57.1488 16.514C55.5635 16.7952 54.0503 17.3887 52.6974 18.26C51.73 12.7723 60.9629 11.1345 61.9303 16.6223Z" fill="#63300F"/>
<path d="M67.355 13.8478C68.9258 13.4951 70.5513 13.4583 72.1365 13.7395C73.7218 14.0207 75.235 14.6143 76.5879 15.4856C77.5553 9.99779 68.3836 8.42112 67.355 13.8478Z" fill="#4F2800"/>
<path d="M100.209 49.5611V83.7833C100.209 84.8974 99.7676 85.9663 98.9806 86.7563C98.1937 87.5464 97.1254 87.9935 96.0092 88H33.9501C32.8414 87.9936 31.7799 87.5511 30.9959 86.7686C30.2119 85.9861 29.7686 84.9266 29.7622 83.82V49.9033L64.9796 58.3244L100.209 49.5611Z" fill="#7EAABA"/>
<path d="M97.4293 53.13L65.0405 61.1111L32.6517 53.4111V83.1111C32.6467 83.387 32.6975 83.661 32.8009 83.9168C32.9044 84.1726 33.0585 84.405 33.2539 84.6001C33.4493 84.7951 33.6822 84.9489 33.9385 85.0522C34.1948 85.1554 34.4693 85.2061 34.7456 85.2011H95.3843C95.6667 85.2163 95.9492 85.1732 96.2142 85.0745C96.4791 84.9758 96.7209 84.8236 96.9242 84.6275C97.1276 84.4314 97.2883 84.1955 97.3963 83.9346C97.5043 83.6737 97.5572 83.3933 97.5517 83.1111V53.13H97.4293Z" fill="#D3E8EF"/>
<path d="M65.0405 61.1111L32.6517 53.4111V83.1111C32.6467 83.388 32.6978 83.663 32.802 83.9196C32.9062 84.1763 33.0614 84.4092 33.2582 84.6045C33.4549 84.7997 33.6892 84.9532 33.9469 85.0558C34.2047 85.1583 34.4805 85.2077 34.7579 85.2011H65.0895V61.1111H65.0405Z" fill="white"/>
<path d="M65.0898 77H92.2254V80.6667H65.1021V77H65.0898ZM65.0898 69.4833H92.2254V73.15H65.1021V69.4833H65.0898Z" fill="#036AAB"/>
<path d="M65.0895 80.6667V77H37.856V80.6667H65.0895ZM37.856 69.52H65.0895V73.1867H37.856V69.52Z" fill="#0399ED"/>
<path d="M48.9014 67.1489H52.2933V83.7589H48.9014V67.1489Z" fill="white"/>
<path d="M39.3257 52.1155C47.8974 54.1444 56.4691 56.2344 65.0408 58.2267L55.918 66.9167C49.9668 63.4089 44.0769 59.5833 39.3747 52.1155" fill="#7EAABA"/>
<path d="M46.5747 56.7478C49.262 59.3132 52.2465 61.5494 55.4648 63.4089L59.322 59.7422C55.1342 58.7767 50.8238 57.7011 46.5747 56.7478" fill="white"/>
<path d="M90.7434 52.1155C82.1717 54.1444 73.6 56.2344 65.0283 58.2267L74.2 66.8678C80.1513 63.36 86.029 59.5344 90.7312 52.0667" fill="#7EAABA"/>
<path d="M83.4944 56.7478C80.8118 59.3189 77.8266 61.5556 74.6043 63.4089L70.7593 59.7422C75.0084 58.7767 79.2575 57.7011 83.4944 56.7478Z" fill="white"/>
<path d="M141.891 46.4725C140.016 44.7225 138.953 42.2225 138.953 39.5975V39.285C138.953 34.91 142.078 31.16 146.391 30.4725C149.266 29.9725 152.141 30.91 154.203 32.91L154.953 33.66L155.703 32.91C157.703 30.91 160.641 29.9725 163.453 30.4725C167.766 31.16 170.953 34.91 170.953 39.285V39.5975C170.953 42.2225 169.828 44.7225 167.953 46.4725L156.641 57.035C156.203 57.4725 155.578 57.66 154.953 57.66C154.266 57.66 153.641 57.4725 153.203 57.035L141.891 46.4725Z" fill="#D63638"/>
<path fill-rule="evenodd" clip-rule="evenodd" d="M232.408 20.0588C251.171 20.0588 266.382 35.2695 266.375 54.033C266.375 72.7964 251.164 88.0071 232.401 88C213.666 88 198.469 72.839 198.434 54.1039C198.391 35.3404 213.566 20.1013 232.33 20.0588C232.358 20.0588 232.379 20.0588 232.408 20.0588Z" fill="#008BF6"/>
<path fill-rule="evenodd" clip-rule="evenodd" d="M216.856 83.0432C217.665 82.9298 218.495 83.029 219.26 83.3198C223.21 84.9153 227.43 85.745 231.691 85.745C240.754 85.745 249.405 81.9795 255.596 75.3634C256.277 74.7252 257.177 74.3706 258.113 74.3848C251.916 82.2845 242.449 86.908 232.408 86.9434C226.983 86.9647 221.636 85.6244 216.856 83.0432Z" fill="#57B6FF"/>
<path fill-rule="evenodd" clip-rule="evenodd" d="M232.407 20.0588C233.464 20.0588 234.485 20.0588 235.513 20.2077C234.705 20.3708 233.868 20.3708 233.06 20.2077C232.84 20.1722 232.62 20.1226 232.407 20.0588ZM212.523 81.7101C206.843 77.6468 202.546 71.9384 200.22 65.3506C200.454 65.3364 200.688 65.3364 200.922 65.3506H201.979C202.05 64.0458 202.574 62.8119 203.461 61.8546C203.922 61.5142 204.439 61.2731 204.993 61.1384C203.886 60.0818 203.184 58.6706 203.007 57.1531C203.007 56.6213 202.929 56.0681 202.929 55.4938L199.39 53.7209C199.022 53.5224 198.696 53.26 198.419 52.9409C198.575 47.8068 199.894 42.7791 202.284 38.2336L205.319 37.9571C205.971 35.4184 206.815 32.9223 207.836 30.5113C209.978 28.2846 212.41 26.3558 215.069 24.7745C215.899 24.6255 216.729 24.5263 217.459 24.4483C220.856 24.1788 224.267 24.2142 227.649 24.5759C228.904 24.6752 230.166 24.8028 231.337 24.9517C231.493 24.5475 231.67 24.1433 231.868 23.7533C232.726 22.1436 237.229 22.7251 239.421 23.0726C239.328 22.2429 239.137 21.4274 238.839 20.6474C239.619 20.7892 240.364 20.9594 241.094 21.1366C241.3 21.9096 241.42 22.7038 241.449 23.5051C243.704 24.0441 247.263 25.1503 247.441 26.7671C247.462 27.1855 247.462 27.6039 247.441 28.0222C248.625 28.3484 249.816 28.6746 251.001 29.0505C253.369 29.7596 255.695 30.5964 257.971 31.5679C266.488 41.2829 268.764 54.9832 263.857 66.9319L262.269 67.0596C262.056 67.5914 261.801 68.0807 261.574 68.5558C260.318 71.137 257.106 72.144 254.504 72.6191C250.894 73.1581 247.235 73.2857 243.597 72.995C239.257 72.6971 234.939 72.1156 230.677 71.2576C226.415 70.4492 222.21 69.3501 218.097 67.9744C215.644 67.1801 213.247 66.2228 210.928 65.0953V71.0307C212.006 71.7256 212.871 72.7042 213.445 73.8459C215.452 73.6686 217.36 72.8531 218.877 71.5342C219.735 70.8392 222.111 71.8604 221.118 74.7181C220.019 78.6112 216.594 81.3981 212.566 81.6888L212.531 81.7172L212.523 81.7101Z" fill="#006CBF"/>
<path fill-rule="evenodd" clip-rule="evenodd" d="M232.408 27.2138C247.235 27.2138 259.255 39.2335 259.255 54.0613C259.255 68.8891 247.235 80.9088 232.408 80.9088C217.594 80.9088 205.581 68.9104 205.56 54.0967C205.539 39.2689 217.544 27.228 232.372 27.2067C232.386 27.2067 232.4 27.2067 232.408 27.2067V27.2138Z" fill="white"/>
<path fill-rule="evenodd" clip-rule="evenodd" d="M220.012 66.9532C216.906 69.967 212.226 70.6832 208.361 68.726L204.525 76.3491C209.985 79.3558 219.814 79.76 222.593 70.1868C223.473 67.1021 220.892 66.1732 220.012 66.9532Z" fill="#385661"/>
<path fill-rule="evenodd" clip-rule="evenodd" d="M220.771 67.9459C217.623 70.9668 212.999 71.8887 208.929 70.3144L206.149 75.8243C208.106 76.6894 210.226 77.1149 212.361 77.0795C216.701 77.1291 220.48 74.1437 221.431 69.9102C221.657 69.3429 221.608 68.7047 221.303 68.1728C221.161 68.031 220.963 67.9459 220.764 67.9459H220.771Z" fill="#385661"/>
<path fill-rule="evenodd" clip-rule="evenodd" d="M217.133 70.2364C214.495 71.2646 211.567 71.2646 208.929 70.2364L207.787 72.541C210.872 73.8317 214.41 73.4629 217.162 71.5625C217.864 70.9597 217.715 70.2435 217.133 70.2435V70.2364Z" fill="#598291"/>
<path fill-rule="evenodd" clip-rule="evenodd" d="M240.534 71.527C242.981 73.5125 244.676 76.271 245.328 79.3557L251.824 77.5687C250.164 72.7112 245.279 67.9459 240.499 67.5062L240.534 71.5341V71.527Z" fill="#385661"/>
<path fill-rule="evenodd" clip-rule="evenodd" d="M241.74 70.9526C243.853 72.7893 245.413 75.179 246.243 77.8453L250.207 76.7533C248.632 73.392 245.725 69.8606 241.938 68.5487L241.74 70.9526Z" fill="#385661"/>
<path fill-rule="evenodd" clip-rule="evenodd" d="M248.334 77.278L250.207 76.7745C249.015 74.1507 247.179 71.8674 244.874 70.13C244.626 70.3569 244.725 70.8817 245.002 71.1724C246.625 72.8814 247.781 74.9804 248.334 77.278Z" fill="#598291"/>
<path fill-rule="evenodd" clip-rule="evenodd" d="M222.671 79.0792C222.671 78.5261 222.572 77.9446 222.544 77.3915C222.402 76.4767 222.813 75.5619 223.6 75.0655C225.295 74.2217 227.096 73.6331 228.961 73.314L230.394 72.9736H230.833L232.266 73.2786C234.124 73.6048 235.932 74.1933 237.627 75.0301C238.428 75.5265 238.854 76.4625 238.698 77.3986C238.698 78.051 238.62 78.6537 238.549 79.3345C238.549 79.6394 238.549 79.9372 238.449 80.2422C236.471 80.6889 234.443 80.9158 232.408 80.9087C229.075 80.9158 225.77 80.2989 222.671 79.0863V79.0792Z" fill="#598291"/>
<path fill-rule="evenodd" clip-rule="evenodd" d="M223.778 79.4834C223.7 78.7813 223.65 78.1006 223.601 77.3205C223.48 76.8029 223.7 76.2569 224.154 75.9732C226.203 75.0443 228.373 74.406 230.592 74.0728C232.812 74.406 234.975 75.0443 237.024 75.9732C237.464 76.264 237.677 76.8029 237.556 77.3205C237.478 78.4551 237.428 79.4125 237.28 80.4549C232.769 81.2987 228.125 80.9655 223.778 79.4834Z" fill="#D3E8EF"/>
<path fill-rule="evenodd" clip-rule="evenodd" d="M225.295 75.4201C227.025 74.8386 228.798 74.3919 230.592 74.0728V80.8307C228.933 80.7173 227.288 80.4478 225.671 80.0365C225.522 78.5048 225.394 76.9802 225.295 75.4201Z" fill="white"/>
<path fill-rule="evenodd" clip-rule="evenodd" d="M219.282 77.4908C219.006 76.0725 218.807 74.6118 218.651 73.1651C218.552 72.1865 218.502 71.2009 218.424 70.2365C218.169 68.8395 218.8 67.4283 220.013 66.6908C222.062 65.4357 225.7 64.6131 228.075 64.0883C228.806 63.9111 229.536 63.7621 230.267 63.6132L230.621 63.5352L230.933 63.6132C231.664 63.7621 232.394 63.9181 233.124 64.0883C235.5 64.6202 239.138 65.3435 241.187 66.6908C242.364 67.4425 242.988 68.8182 242.776 70.201C242.698 71.1725 242.648 72.1511 242.549 73.1297C242.343 75.2003 242.003 77.2639 241.542 79.292C238.613 80.3698 235.521 80.923 232.408 80.9301C227.813 80.9159 223.296 79.7316 219.282 77.4979V77.4908Z" fill="#598291"/>
<path fill-rule="evenodd" clip-rule="evenodd" d="M221.147 78.4268C220.544 75.6896 220.183 72.9098 220.062 70.1088C219.892 69.3216 220.218 68.5132 220.892 68.0736C222.764 66.9035 226.934 65.9746 230.621 65.1945C234.273 65.9746 238.457 66.9035 240.336 68.0736C241.116 68.5487 241.194 69.2294 241.166 70.1088C241.031 73.3211 240.577 76.5122 239.818 79.6323C239.818 79.6323 239.818 79.7812 239.719 79.8805C237.351 80.5329 234.904 80.8733 232.443 80.8733C228.543 80.9087 224.679 80.072 221.147 78.4197V78.4268Z" fill="#598291"/>
<path fill-rule="evenodd" clip-rule="evenodd" d="M223.423 79.3557C222.856 76.2994 222.522 73.2147 222.416 70.1088C222.26 69.3642 222.494 68.5983 223.047 68.0736C224.494 66.9035 227.727 65.9746 230.599 65.1945C233.429 65.9746 236.662 66.9035 238.152 68.0736C238.705 68.5983 238.946 69.3713 238.783 70.1088C238.676 73.3069 238.322 76.4909 237.726 79.6323C237.662 79.916 237.542 80.1854 237.371 80.4265C235.748 80.7314 234.095 80.8804 232.436 80.8804C229.365 80.9158 226.316 80.3982 223.43 79.3557H223.423Z" fill="#7EAABA"/>
<path fill-rule="evenodd" clip-rule="evenodd" d="M220.494 74.9166C220.268 73.2927 220.168 71.8319 220.041 70.1088C219.87 69.3216 220.197 68.5132 220.87 68.0736C222.742 66.9035 226.912 65.9746 230.6 65.1945C234.252 65.9746 238.435 66.9035 240.315 68.0736C241.095 68.5487 241.173 69.2294 241.144 70.1088C241.017 71.8319 240.917 73.2644 240.69 74.9166C239.003 75.2854 237.301 75.5548 235.585 75.725C235.407 75.7463 235.266 75.8739 235.23 76.0512C235.131 76.9518 234.677 77.7815 233.975 78.3559C233.011 79.0721 231.826 79.4267 230.628 79.3628C229.415 79.4267 228.224 79.0721 227.245 78.3559C226.55 77.7744 226.097 76.9518 225.99 76.0512C225.969 75.8739 225.82 75.7321 225.636 75.725C223.912 75.5619 222.196 75.2925 220.502 74.9166H220.494Z" fill="#D3E8EF"/>
<path fill-rule="evenodd" clip-rule="evenodd" d="M230.592 65.1874C233.422 65.9675 236.655 66.8964 238.144 68.0665C238.698 68.5912 238.939 69.3642 238.776 70.1017C238.676 71.9738 238.598 73.5338 238.4 75.335C237.52 75.4839 236.599 75.5832 235.592 75.6896C235.414 75.7109 235.273 75.8385 235.237 76.0158C234.847 78.3913 232.819 79.2636 230.592 79.2636C228.366 79.2636 226.302 78.3346 225.926 75.9803C225.905 75.803 225.756 75.6612 225.572 75.6541C224.593 75.5548 223.671 75.4556 222.764 75.2996C222.565 73.4984 222.459 71.9383 222.388 70.0662C222.232 69.3216 222.466 68.5558 223.019 68.031C224.515 66.9248 227.727 65.9958 230.592 65.1874Z" fill="white"/>
<path fill-rule="evenodd" clip-rule="evenodd" d="M227.373 71.4774H229.018C229.224 71.4774 229.387 71.6475 229.394 71.8532V75.1152C229.288 75.6612 229.642 76.193 230.188 76.2994C230.316 76.3278 230.45 76.3278 230.578 76.2994C230.89 76.3278 231.195 76.2356 231.443 76.0512C231.649 75.7888 231.741 75.4485 231.691 75.1223V71.8603C231.691 71.6546 231.862 71.4915 232.067 71.4844H233.727C233.925 71.4844 234.088 71.6475 234.088 71.8461C234.088 71.8461 234.088 71.8532 234.088 71.8603V75.2924C234.152 76.115 233.812 76.9234 233.166 77.4411C232.408 77.9942 231.472 78.2566 230.536 78.1928C229.585 78.2637 228.642 77.9942 227.869 77.4411C227.245 76.9093 226.905 76.1079 226.947 75.2924V71.8603C226.969 71.6546 227.139 71.4915 227.352 71.4844L227.373 71.4774Z" fill="#0B87E8"/>
<path fill-rule="evenodd" clip-rule="evenodd" d="M227.373 71.7184C227.266 71.7113 227.181 71.7893 227.174 71.8957V75.3279C227.124 76.0937 227.436 76.8383 228.018 77.3418C228.755 77.8453 229.642 78.0864 230.535 78.0367V76.4483C230.167 76.4696 229.798 76.349 229.507 76.1221C229.273 75.8172 229.16 75.4484 229.181 75.0655V71.8035C229.181 71.6972 229.082 71.6191 228.982 71.6262H227.387V71.7113L227.373 71.7184Z" fill="#57B6FF"/>
<path fill-rule="evenodd" clip-rule="evenodd" d="M231.464 64.9392L230.649 68.2721C231.344 69.4564 234.195 71.0519 235.584 71.5837C236.187 71.8319 236.691 71.8887 237.109 71.4348C238.116 70.3924 238.974 67.4566 239.144 64.918H231.472V64.9463L231.464 64.9392Z" fill="#3C942C"/>
<path fill-rule="evenodd" clip-rule="evenodd" d="M238.258 64.9392C238.258 65.4711 238.13 65.9674 238.06 66.4496C237.861 68.0097 237.329 69.5131 236.485 70.8391L236.386 70.9171C236.216 70.9171 236.053 70.8675 235.911 70.7895C234.337 70.1371 232.876 69.2223 231.592 68.0948L232.408 64.9392H238.258Z" fill="#3C942C"/>
<path fill-rule="evenodd" clip-rule="evenodd" d="M237.705 67.9459C237.499 68.9742 237.074 69.9457 236.45 70.7895L236.35 70.8675C236.18 70.8675 236.017 70.8179 235.875 70.7399C234.393 70.1017 233.003 69.2507 231.762 68.2225H232.415C233.095 68.6692 233.847 68.9883 234.641 69.1798C234.301 68.882 233.982 68.5487 233.698 68.2012C235.031 68.2012 236.393 68.1232 237.712 67.953L237.705 67.9459Z" fill="#82E371"/>
<path fill-rule="evenodd" clip-rule="evenodd" d="M229.586 64.9392L230.415 68.2721C229.713 69.4564 226.856 71.0519 225.473 71.5837C224.87 71.8319 224.381 71.8887 223.948 71.4348C222.941 70.3924 222.083 67.4566 221.913 64.918H229.586V64.9463V64.9392Z" fill="#3C942C"/>
<path fill-rule="evenodd" clip-rule="evenodd" d="M222.82 64.9392C222.82 65.4711 222.948 65.9674 223.019 66.4496C223.217 68.0097 223.749 69.5131 224.593 70.8391L224.692 70.9171C224.862 70.9171 225.025 70.8675 225.167 70.7895C226.742 70.1371 228.202 69.2223 229.486 68.0948L228.628 64.9392H222.813H222.82Z" fill="#3C942C"/>
<path fill-rule="evenodd" clip-rule="evenodd" d="M223.345 67.9459C223.551 68.9742 223.976 69.9457 224.6 70.7895L224.699 70.8675C224.87 70.8675 225.033 70.8179 225.175 70.7399C226.657 70.1017 228.046 69.2507 229.287 68.2225H228.621C227.94 68.6621 227.188 68.9883 226.394 69.1798C226.735 68.8749 227.054 68.5487 227.352 68.2012C226.018 68.2012 224.657 68.1232 223.338 67.953L223.345 67.9459Z" fill="#82E371"/>
<path fill-rule="evenodd" clip-rule="evenodd" d="M233.372 64.9392C233.323 66.4 233.11 67.8466 232.741 69.2578C231.408 70.1938 229.635 70.1938 228.302 69.2578C227.933 67.8466 227.721 66.4 227.671 64.9392H233.372Z" fill="#3C942C"/>
<path fill-rule="evenodd" clip-rule="evenodd" d="M228.43 65.2371C228.494 66.4568 228.671 67.6623 228.962 68.8466C229.94 69.3997 231.139 69.3997 232.117 68.8466C232.408 67.6623 232.585 66.4497 232.649 65.2371H228.437H228.43Z" fill="#3C942C"/>
<path fill-rule="evenodd" clip-rule="evenodd" d="M228.756 67.9459C228.756 68.2508 228.883 68.5274 228.954 68.8252C229.933 69.3783 231.131 69.3783 232.11 68.8252C232.188 68.5203 232.237 68.2225 232.308 67.9175H230.032C229.578 67.9459 229.174 67.9459 228.749 67.9459H228.756Z" fill="#82E371"/>
<path fill-rule="evenodd" clip-rule="evenodd" d="M200.739 33.4044L208.801 32.5605L206.071 53.3095L198.434 49.6221C197.604 49.2746 196.994 48.5513 196.796 47.672C196.03 43.2471 196.668 38.7016 198.632 34.6596C199.008 33.9646 199.427 33.5533 200.732 33.4044H200.739Z" fill="#598291"/>
<path fill-rule="evenodd" clip-rule="evenodd" d="M204.723 50.7852L206.822 34.5178C206.12 34.5958 200.532 35.1206 200.256 35.2979C200.206 35.3617 200.164 35.4255 200.128 35.4964C198.341 39.1768 197.752 43.3181 198.426 47.3459C198.511 47.6721 198.759 47.9416 199.079 48.0479L204.716 50.7781L204.723 50.7852Z" fill="#D3E8EF"/>
<path fill-rule="evenodd" clip-rule="evenodd" d="M204.724 50.7852L204.872 49.6293L199.086 47.275C198.661 47.0977 198.356 45.5234 198.157 43.7932C198.107 44.9845 198.2 46.1829 198.434 47.353C198.519 47.6792 198.767 47.9487 199.086 48.055L204.724 50.7852ZM205.617 43.9137L206.872 34.5178C206.17 34.5958 200.582 35.1206 200.306 35.2979C200.256 35.3617 200.214 35.4255 200.178 35.4964C199.327 37.2834 198.731 39.1768 198.427 41.134L205.61 43.9137H205.617Z" fill="white"/>
<path fill-rule="evenodd" clip-rule="evenodd" d="M199.015 38.4535L201.242 40.3752C201.554 40.6447 201.71 41.0489 201.667 41.4602C201.44 43.7648 201.164 45.9419 201.086 49.0124C200.76 46.4666 200.639 43.8925 200.731 41.3254C200.731 41.2262 200.731 41.1482 200.653 41.0985L199.129 39.7015L198.93 38.9073C198.93 38.7513 198.959 38.6024 199.008 38.4535H199.015Z" fill="#D3E8EF"/>
<path fill-rule="evenodd" clip-rule="evenodd" d="M198.887 38.9073L200.788 40.5808C201.1 40.8503 201.256 41.2545 201.213 41.6658C200.965 43.7932 200.88 45.9418 200.951 48.0834V49.0265L199.972 48.5585C199.986 48.4025 199.986 48.2394 199.972 48.0834C199.908 45.8922 200.008 43.701 200.263 41.5311C200.263 41.4318 200.263 41.3538 200.185 41.3041L198.639 39.9213C198.717 39.581 198.816 39.2406 198.887 38.9144V38.9073Z" fill="#7EAABA"/>
<path fill-rule="evenodd" clip-rule="evenodd" d="M235.982 6.7981C241.47 11.7336 241.846 18.1228 239.343 24.6893L237.442 23.9093C239.634 18.1228 239.478 12.6838 234.634 8.32271L235.982 6.7981Z" fill="#598291"/>
<path fill-rule="evenodd" clip-rule="evenodd" d="M234.216 0.103963C237.712 0.71381 240.052 4.0467 239.442 7.54268C238.832 11.0387 235.5 13.3788 232.004 12.7689C228.508 12.1591 226.167 8.8262 226.777 5.33021C226.777 5.33021 226.777 5.31603 226.777 5.30894C227.387 1.82005 230.72 -0.512976 234.209 0.0968716L234.216 0.103963Z" fill="#3C942C"/>
<path fill-rule="evenodd" clip-rule="evenodd" d="M233.989 1.38746C236.769 1.89094 238.612 4.54307 238.109 7.32284C237.605 10.1026 234.953 11.9463 232.173 11.4429C229.408 10.9465 227.564 8.30852 228.046 5.54294C228.543 2.75607 231.202 0.905258 233.982 1.38746H233.989Z" fill="#3C942C"/>
<path fill-rule="evenodd" clip-rule="evenodd" d="M237.606 3.99C238.953 6.47903 238.031 9.585 235.542 10.9323C233.053 12.2797 229.947 11.3578 228.6 8.86878C228.437 8.57095 228.302 8.25184 228.203 7.92564C228.933 9.30844 230.273 10.2728 231.812 10.5281C234.599 11.0032 237.244 9.14534 237.747 6.36557C237.875 5.57135 237.825 4.75586 237.599 3.99H237.606ZM232.748 1.81299C234.521 1.73498 235.755 2.83413 235.507 4.33038C235.024 5.96137 233.542 7.08888 231.848 7.11015C230.075 7.20943 228.841 6.08192 229.089 4.65658C229.55 3.00432 231.039 1.85554 232.748 1.81299Z" fill="#82E371"/>
<path fill-rule="evenodd" clip-rule="evenodd" d="M237.074 28.398C235.322 28.0718 229.522 26.8663 229.288 24.6255C229.153 21.8528 229.67 19.0801 230.784 16.5343C231.741 14.6197 237.606 15.5274 239.315 15.8323C241.024 16.1372 246.867 17.3144 247.051 19.4205C247.243 22.1932 246.782 24.9729 245.704 27.5329C244.746 29.561 238.832 28.7029 237.074 28.398Z" fill="#006CBF"/>
<path fill-rule="evenodd" clip-rule="evenodd" d="M245.576 19.5766C244.973 18.52 240.251 17.4634 239.031 17.2719C237.754 17.045 236.464 16.8961 235.166 16.8181C234.124 16.7401 233.074 16.8677 232.081 17.1939C231.096 19.4702 230.635 21.945 230.748 24.427C230.876 24.9588 233.039 25.8098 233.542 25.9587C236.06 26.8167 240.853 27.6819 243.435 27.1571C243.747 27.1146 244.044 27.0082 244.314 26.8451C245.278 24.5475 245.711 22.0585 245.569 19.5695L245.576 19.5766Z" fill="#006CBF"/>
<path fill-rule="evenodd" clip-rule="evenodd" d="M239.038 17.2506C237.762 17.0237 236.471 16.8748 235.173 16.7968C234.131 16.7188 233.082 16.8464 232.089 17.1726C231.103 19.4489 230.642 21.9237 230.756 24.4057C230.834 24.6042 231.309 24.9375 231.458 25.0368C233.287 25.9658 235.259 26.5898 237.294 26.8876L239.031 17.2506H239.038Z" fill="#57B6FF"/>
<path fill-rule="evenodd" clip-rule="evenodd" d="M269.488 45.5518L262.212 41.9919L257.681 62.4147L266.127 61.5567C267.027 61.5283 267.857 61.0532 268.339 60.3016C270.587 56.4155 271.545 51.9126 271.069 47.4451C270.97 46.6296 270.694 46.1474 269.481 45.5588L269.488 45.5518Z" fill="#598291"/>
<path fill-rule="evenodd" clip-rule="evenodd" d="M259.837 60.5072L263.396 44.4881C264.028 44.793 269.133 47.2182 269.282 47.4735V47.7004C269.672 51.7779 268.793 55.8696 266.765 59.4294C266.58 59.7201 266.254 59.8903 265.907 59.8832L259.83 60.5143L259.837 60.5072Z" fill="#D3E8EF"/>
<path fill-rule="evenodd" clip-rule="evenodd" d="M259.837 60.5072L260.085 59.3726L266.297 59.1315C266.772 59.1315 267.552 57.7346 268.389 56.1745C268.02 57.3091 267.509 58.394 266.878 59.4081C266.694 59.6988 266.368 59.869 266.02 59.8619L259.83 60.5001L259.837 60.5072ZM261.347 53.7635L263.396 44.4881C264.028 44.793 269.133 47.2182 269.282 47.4735V47.7004C269.474 49.6647 269.374 51.6503 268.977 53.5862L261.34 53.7635H261.347Z" fill="white"/>
<path fill-rule="evenodd" clip-rule="evenodd" d="M269.41 50.8844L266.68 51.941C266.304 52.0899 266.02 52.4161 265.928 52.8061C265.347 55.047 264.857 57.1956 263.879 60.103C265.063 57.8125 266.063 55.4299 266.864 52.9834C266.864 52.8841 266.864 52.8345 267.013 52.7849L268.9 51.9906L269.353 51.3099C269.389 51.1822 269.417 51.005 269.417 50.8844H269.41Z" fill="#D3E8EF"/>
<path fill-rule="evenodd" clip-rule="evenodd" d="M269.36 51.3383L267.006 52.2601C266.623 52.4161 266.347 52.7423 266.254 53.1394C265.744 55.2172 265.077 57.2524 264.255 59.2308L263.879 60.1101L264.964 59.9825C265.042 59.8336 265.092 59.6776 265.162 59.5287C265.992 57.4864 266.666 55.3803 267.191 53.2387C267.191 53.1607 267.191 53.0898 267.339 53.0614L269.261 52.3098C269.311 52.019 269.339 51.6928 269.36 51.3383Z" fill="#7EAABA"/>
<path fill-rule="evenodd" clip-rule="evenodd" d="M230.245 67.2298C225.948 66.4994 221.7 65.4782 217.537 64.1734C214.013 63.131 210.631 61.656 207.475 59.7839C205.22 58.387 202.582 56.1958 202.355 53.2174C201.689 44.5236 204.142 30.7311 207.978 22.8953C209.397 19.9098 213.616 19.0305 216.474 18.6831C219.871 18.3214 223.296 18.2647 226.699 18.5341C230.663 18.7965 234.613 19.2787 238.528 19.9949C242.456 20.6615 246.342 21.555 250.164 22.6613C253.462 23.5831 256.667 24.7957 259.738 26.2991C262.319 27.5542 265.949 29.8872 266.304 33.1918C267.212 41.8856 264.808 55.6356 261.198 63.6132C259.943 66.315 256.759 67.478 254.15 68.0169C250.554 68.6906 246.881 68.9246 243.229 68.6976C238.875 68.4991 234.535 68.0098 230.245 67.2368V67.2298Z" fill="#598291"/>
<path fill-rule="evenodd" clip-rule="evenodd" d="M230.592 65.1874C221.884 63.6628 213.396 61.0603 208.496 58.004C205.979 56.4156 204.433 54.7208 204.305 52.9692C203.717 44.9136 205.979 31.4544 209.751 23.7675C210.56 22.1081 213.134 21.1224 216.743 20.6757C222.303 19.9807 230.358 20.5622 238.244 21.9308C246.129 23.2994 253.781 25.5686 258.816 28.0931C262.049 29.7525 264.127 31.5536 264.325 33.3761C265.233 41.9069 262.716 55.3306 259.383 62.7055C258.73 64.2939 256.667 65.4215 253.781 65.9888C248.143 67.1943 239.272 66.6837 230.578 65.1804L230.592 65.1874Z" fill="#BDD6DE"/>
<path fill-rule="evenodd" clip-rule="evenodd" d="M204.83 41.836C205.568 35.6027 207.227 29.5114 209.766 23.7675C210.574 22.1081 213.148 21.1224 216.758 20.6757C222.317 19.9807 230.373 20.5622 238.258 21.9308C246.144 23.2994 253.895 25.5403 258.915 28.0718C262.149 29.7312 264.226 31.5324 264.425 33.3548C264.829 39.6164 264.29 45.9063 262.837 52.0119C261.61 52.3736 260.34 52.5934 259.064 52.6785C258.575 52.6785 258.043 52.7778 257.49 52.8061C258.965 48.4521 259.837 43.9208 260.078 39.3327C260.078 38.4747 259.525 38.1981 258.731 37.9216C254.511 36.3402 250.193 35.0496 245.796 34.0569C245.47 33.9789 245.137 34.1349 244.988 34.4327C244.102 36.4253 243.031 38.3329 241.783 40.1199C240.372 41.6516 229.479 39.7157 228.699 37.8152C228.153 35.702 227.799 33.5463 227.643 31.3764C227.607 31.0502 227.352 30.802 227.026 30.7736C222.565 30.1921 218.062 29.9227 213.567 29.9794C212.709 29.9794 212.035 29.9794 211.794 30.8232C210.439 35.2269 209.695 39.8008 209.581 44.4101L208.135 43.7577C206.965 43.2329 205.858 42.5876 204.823 41.836H204.83ZM230.6 65.1874C221.892 63.6628 213.403 61.0603 208.503 58.004C205.986 56.4156 204.44 54.7208 204.312 52.9692V52.0261C204.461 52.4799 204.681 52.9054 204.965 53.2812C205.887 54.7775 207.192 56.0043 208.737 56.841C213.63 59.8477 222.126 62.4006 230.82 63.9394C239.513 65.4711 248.434 65.9675 254.008 64.8045C255.76 64.5421 257.419 63.833 258.83 62.7551C259.213 62.4928 259.553 62.1808 259.851 61.8262C259.731 62.124 259.596 62.4219 259.447 62.7055C258.717 64.2939 256.653 65.4215 253.795 65.9888C248.158 67.1943 239.287 66.6837 230.593 65.1804L230.6 65.1874Z" fill="white"/>
<path fill-rule="evenodd" clip-rule="evenodd" d="M225.522 20.4842C226.09 21.8741 226.777 23.2143 227.586 24.4837C230.663 25.8806 233.925 26.838 237.272 27.3131C240.577 28.008 243.967 28.2278 247.335 27.9655C248.363 27.1358 249.64 25.8877 250.618 24.9091C249.944 26.5259 248.909 27.9726 247.583 29.1213C244.052 29.4263 240.499 29.2135 237.024 28.4902C233.542 27.9797 230.153 26.9656 226.962 25.4835C226.224 23.8951 225.735 22.2074 225.515 20.4771L225.522 20.4842Z" fill="#BDD6DE"/>
<path fill-rule="evenodd" clip-rule="evenodd" d="M225.522 20.4842C225.841 22.0726 226.402 23.5973 227.182 25.0155C230.366 26.4409 233.727 27.4124 237.173 27.9229C240.591 28.625 244.094 28.8519 247.576 28.6037C248.789 27.54 249.831 26.299 250.661 24.9162L251.795 25.2708C250.966 26.526 249.094 29.2561 247.86 29.7596C244.222 30.0574 240.563 29.8305 236.989 29.0788C233.379 28.547 229.855 27.5116 226.536 25.9941C225.529 25.0864 224.7 21.9521 224.359 20.4346C224.721 20.4629 225.125 20.4842 225.529 20.4842H225.522Z" fill="#7EAABA"/>
<path fill-rule="evenodd" clip-rule="evenodd" d="M234.649 42.1905C237.329 42.6585 241.088 42.8074 241.797 41.7367C243.038 39.3115 244.073 36.787 244.903 34.1845C244.995 33.8299 245.357 33.6172 245.711 33.7094C250.512 34.7943 255.214 36.3189 259.738 38.2549C260.567 38.6094 261.199 38.9073 261.149 40.0064C260.667 47.3458 259.043 54.5576 256.327 61.3936C255.951 62.2871 253.419 62.9891 252.654 63.1664C249.512 63.7905 246.3 64.0245 243.102 63.8472C239.045 63.7195 235.003 63.2941 231.011 62.592C227.026 61.8971 223.09 60.9256 219.233 59.6846C216.148 58.7557 213.191 57.4509 210.425 55.7986C209.759 55.3731 207.681 53.8485 207.631 52.8557C207.461 45.495 208.411 38.1485 210.461 31.0785C210.766 30.0361 211.468 29.9581 212.361 29.9085C217.282 29.6532 222.218 29.8375 227.104 30.4474C227.465 30.4899 227.728 30.8161 227.692 31.1778C227.579 33.9008 227.692 36.631 228.047 39.3327C228.373 40.5666 231.961 41.7225 234.642 42.2047L234.649 42.1905Z" fill="#1E2432"/>
<path fill-rule="evenodd" clip-rule="evenodd" d="M260.085 39.2547C259.858 43.2116 259.255 47.1402 258.284 50.9836C257.681 53.2103 256.547 53.0613 254.143 53.3592C244.08 54.6143 221.53 50.629 212.538 46.0126C210.39 44.9206 209.227 44.0129 209.454 42.389C209.964 38.4605 210.737 34.5745 211.765 30.7523C211.829 30.4757 212.184 30.3764 212.432 30.3481C217.332 30.107 222.239 30.2913 227.104 30.9012C227.231 30.9154 227.316 31.0288 227.302 31.1494C227.302 31.9791 227.224 32.8087 227.302 33.6668C227.338 35.6027 227.48 37.5457 227.721 39.4674C228.125 41.2899 232.989 42.3961 234.642 42.6656C236.287 42.928 241.237 43.5945 242.265 42.0274C242.392 41.8288 242.513 41.5735 242.619 41.375C243.733 39.1199 244.669 36.7798 245.427 34.383C245.449 34.2624 245.569 34.1773 245.69 34.2057C245.69 34.2057 245.697 34.2057 245.704 34.2057C250.476 35.2978 255.15 36.8082 259.66 38.7228C259.879 38.8221 260.043 39.0278 260.085 39.2618V39.2547ZM208.085 51.8417V52.7848C208.085 53.5152 210.113 54.9973 210.716 55.366C219.523 61.117 242.293 65.1165 252.526 62.7409C253.221 62.592 255.611 61.8829 255.901 61.2163C256.029 60.9397 256.149 60.6348 256.277 60.337C255.334 60.8263 254.334 61.195 253.292 61.4219C242.797 63.7975 219.537 59.7129 210.517 53.8697C209.617 53.3237 208.794 52.6501 208.092 51.87V51.8417H208.085Z" fill="#2D3956"/>
<path fill-rule="evenodd" clip-rule="evenodd" d="M217.658 40.8786C216.92 42.9706 216.53 45.1759 216.502 47.3955C216.502 50.6575 222.366 51.7353 223.295 48.6506C223.934 46.5304 224.317 44.3463 224.437 42.1338C224.636 38.8222 218.75 37.7443 217.658 40.8786ZM251.036 46.7644C251.015 48.9839 250.625 51.1893 249.88 53.2812C248.76 56.3659 242.896 55.359 243.101 52.0828C243.215 49.8703 243.598 47.6862 244.243 45.566C245.2 42.4316 251.086 43.5024 251.036 46.7644Z" fill="#82E371"/>
<path fill-rule="evenodd" clip-rule="evenodd" d="M237.223 55.125C235.968 60.5569 227.621 59.1032 228.33 53.5649C231.117 54.8343 234.173 55.3732 237.223 55.125Z" fill="#82E371"/>
<path fill-rule="evenodd" clip-rule="evenodd" d="M207.241 65.5633C211.34 65.542 214.68 68.8465 214.701 72.9453C214.723 77.044 211.418 80.384 207.319 80.4053C203.221 80.4265 199.881 77.122 199.859 73.0233C199.859 73.0091 199.859 72.9878 199.859 72.9736C199.859 68.8962 203.164 65.5845 207.241 65.5633Z" fill="#598291"/>
<path fill-rule="evenodd" clip-rule="evenodd" d="M207.241 66.8255C210.659 66.8042 213.446 69.5627 213.467 72.9807C213.489 76.3987 210.73 79.1856 207.312 79.2068C203.894 79.2281 201.107 76.4696 201.086 73.0516C201.086 73.0233 201.086 73.002 201.086 72.9736C201.107 69.584 203.852 66.8397 207.241 66.8184V66.8255Z" fill="#D3E8EF"/>
<path fill-rule="evenodd" clip-rule="evenodd" d="M207.241 66.8255C210.659 66.7688 213.474 69.4989 213.531 72.9169C213.531 72.9382 213.531 72.9594 213.531 72.9807C213.531 73.6898 213.41 74.3919 213.176 75.0585C211.971 75.5052 210.687 75.725 209.404 75.7108C205.631 75.7108 202.398 73.8388 201.362 71.2434C202.142 68.6409 204.525 66.8539 207.241 66.8255Z" fill="white"/>
<path fill-rule="evenodd" clip-rule="evenodd" d="M201.922 60.5568C202.007 59.2095 202.553 57.9331 203.468 56.9474C204.44 56.2737 205.596 55.9262 206.78 55.9404C208.588 55.9404 211.247 56.6425 211.297 58.8691C211.396 63.6628 211.297 68.4423 211.297 73.2147C211.34 74.1011 211.098 74.9804 210.616 75.7321C208.503 79.0792 201.667 79.2706 198.441 77.5404C197.859 77.2993 197.384 76.8525 197.107 76.2852C196.604 74.555 196.278 72.7821 196.136 70.9881C195.923 69.0309 195.895 67.0595 196.058 65.1023C196.171 63.6841 196.526 61.4787 198.136 61.0036C199.008 60.7625 199.908 60.6136 200.816 60.5781C201.185 60.5356 201.554 60.5356 201.922 60.5639V60.5568Z" fill="#598291"/>
<path fill-rule="evenodd" clip-rule="evenodd" d="M202.766 67.9459C201.795 65.4285 201.745 58.7202 203.674 57.2239C205.801 55.5646 210.822 56.0893 210.893 58.8195C210.992 63.6132 210.893 68.3927 210.893 73.1863C211.02 78.4693 202.412 79.2635 198.561 77.2284C198.058 77.0298 197.646 76.654 197.405 76.1718L202.766 67.9459Z" fill="#598291"/>
<path fill-rule="evenodd" clip-rule="evenodd" d="M204.099 68.1232C202.844 65.9958 203.071 59.174 204.404 58.16C205.95 56.9048 209.737 57.3799 209.765 58.9046C209.865 62.9182 209.765 68.2296 209.843 73.2502C209.943 77.5049 201.398 78.058 198.519 75.8526L204.106 68.1303L204.099 68.1232Z" fill="#D3E8EF"/>
<path fill-rule="evenodd" clip-rule="evenodd" d="M203.192 62.7623C203.27 60.7342 203.667 58.8479 204.298 58.3232C205.638 57.536 207.262 57.4155 208.702 57.9828C208.78 59.479 208.759 60.9682 208.638 62.4645C208.496 63.748 204.851 63.5494 203.192 62.7694V62.7623Z" fill="white"/>
<path fill-rule="evenodd" clip-rule="evenodd" d="M198.207 61.3369C199.044 61.0887 199.916 60.9539 200.788 60.9327C202.561 60.8547 207.305 61.2092 207.709 63.5352C208.262 66.868 208.262 70.2647 207.709 73.5976C207.241 76.4129 200.738 76.342 199.696 75.1293L198.498 75.8314L197.413 76.1859C196.923 74.4699 196.59 72.7183 196.434 70.9384C196.236 69.0096 196.207 67.0595 196.356 65.1236C196.498 63.9039 196.774 61.7411 198.207 61.3227V61.3369Z" fill="#598291"/>
<path fill-rule="evenodd" clip-rule="evenodd" d="M198.511 62.4361C201.773 61.493 206.376 62.5141 206.603 63.6912C207.142 66.9036 207.142 70.1797 206.603 73.3921C206.376 74.867 200.788 76.3988 198.511 75.8173C197.079 71.2221 197.001 62.9112 198.511 62.429V62.4361Z" fill="#D3E8EF"/>
<path fill-rule="evenodd" clip-rule="evenodd" d="M198.512 62.436C200.717 61.8687 203.043 61.9468 205.206 62.663C205.638 65.776 205.603 68.9316 205.107 72.0376C204.929 73.3708 200.816 74.6897 198.214 74.6897C197.079 69.9599 197.186 62.8403 198.519 62.436H198.512Z" fill="white"/>
<path fill-rule="evenodd" clip-rule="evenodd" d="M196.874 68.6267C200.448 67.6694 204.206 67.6694 207.78 68.6267L207.532 69.6549C204.142 68.726 200.568 68.726 197.178 69.6549L196.874 68.6267Z" fill="#598291"/>
<path fill-rule="evenodd" clip-rule="evenodd" d="M247.909 74.2359C251.157 74.2359 253.788 76.8525 253.795 80.1003C253.802 83.3481 251.178 85.979 247.931 85.9861C244.683 85.9861 242.052 83.3694 242.045 80.1216C242.045 80.1216 242.045 80.1145 242.045 80.1074C242.045 76.8667 244.655 74.2359 247.895 74.2288C247.895 74.2288 247.902 74.2288 247.909 74.2288V74.2359Z" fill="#598291"/>
<path fill-rule="evenodd" clip-rule="evenodd" d="M247.909 75.1649C250.611 75.1649 252.809 77.3419 252.816 80.0436C252.823 82.7454 250.639 84.9437 247.938 84.9508C245.236 84.9508 243.038 82.7738 243.03 80.072C243.03 80.072 243.03 80.0649 243.03 80.0578C243.009 77.3773 245.165 75.1861 247.852 75.1649C247.874 75.1649 247.895 75.1649 247.916 75.1649H247.909Z" fill="#D3E8EF"/>
<path fill-rule="evenodd" clip-rule="evenodd" d="M247.909 75.1648C250.589 75.1648 252.774 77.3276 252.781 80.0081C252.781 80.0223 252.781 80.0436 252.781 80.0578C252.781 80.3911 252.752 80.7243 252.681 81.0505C251.923 81.5115 251.05 81.7597 250.164 81.7526C247.476 81.7526 245.292 79.5827 245.285 76.8951C245.285 76.888 245.285 76.8809 245.285 76.8667C245.285 76.5263 245.314 76.193 245.384 75.8597C246.15 75.413 247.023 75.1719 247.916 75.1577L247.909 75.1648Z" fill="white"/>
<path fill-rule="evenodd" clip-rule="evenodd" d="M239.442 82.4405C238.535 82.2915 237.634 81.937 237.457 81.008C237.173 79.2849 237.088 77.5404 237.208 75.796C237.286 74.6117 238.62 74.1366 239.726 73.9239C240.619 72.8956 241.811 72.1652 243.137 71.832C245.243 71.761 247.342 72.1298 249.299 72.9169C251.249 73.5977 251.171 77.2709 251.121 78.9587C251.043 80.4053 250.817 83.5396 249.661 84.5182C247.583 86.2768 240.265 86.4328 239.747 83.8871C239.619 83.412 239.52 82.9298 239.442 82.4405Z" fill="#598291"/>
<path fill-rule="evenodd" clip-rule="evenodd" d="M243.463 75.0372C243.817 76.9944 243.817 78.9941 243.463 80.9513C243.2 82.0079 241.591 82.1355 240.683 82.1355C239.775 82.1355 238.052 82.0575 237.854 80.8804C237.57 79.1927 237.485 77.4766 237.605 75.7747C237.683 74.6401 239.47 74.2926 240.336 74.1366C241.201 73.9806 243.151 73.8459 243.47 75.0443L243.463 75.0372Z" fill="#598291"/>
<path fill-rule="evenodd" clip-rule="evenodd" d="M242.598 75.2925C242.42 74.5905 238.534 75.2925 238.485 75.874C238.364 77.5121 238.435 79.1572 238.697 80.7811C238.825 81.3839 242.385 81.4335 242.562 80.7811C242.91 78.9729 242.924 77.1079 242.598 75.2925Z" fill="#D3E8EF"/>
<path fill-rule="evenodd" clip-rule="evenodd" d="M249.143 73.2928C250.866 73.8743 250.788 77.5475 250.717 78.98C250.646 80.4124 250.441 83.3978 249.462 84.2629C248.207 85.043 246.753 85.4543 245.271 85.4472C244.016 85.4472 240.477 85.4472 240.137 83.8375C239.556 80.9584 239.385 78.0155 239.634 75.094C239.733 73.8388 242.151 72.4418 243.243 72.2645C245.264 72.1865 247.271 72.5411 249.143 73.2928Z" fill="#598291"/>
<path fill-rule="evenodd" clip-rule="evenodd" d="M248.76 74.1083C247.016 73.4133 245.144 73.0729 243.264 73.1155C242.087 73.3991 241.066 74.1224 240.407 75.1436C240.158 77.9801 240.322 80.845 240.882 83.6389C241.109 84.6955 247.023 85.0217 248.76 83.5609C249.881 82.639 250.434 74.5621 248.76 74.1154V74.1083Z" fill="#D3E8EF"/>
<path fill-rule="evenodd" clip-rule="evenodd" d="M248.76 74.1082C247.058 73.4417 245.242 73.0942 243.413 73.0871V82.9368C245.406 83.2134 247.441 83.0078 249.341 82.3341C250.022 79.8025 250.107 74.4557 248.76 74.1082ZM240.782 74.5337C240.605 74.6897 240.463 74.8883 240.378 75.1152C240.13 77.9517 240.293 80.8166 240.853 83.6105C241.08 84.6671 246.994 84.9933 248.731 83.5325C248.852 83.4332 248.944 83.3056 249.008 83.1709C247.171 84.5395 241.456 84.2133 241.208 83.1709C240.647 80.3698 240.484 77.512 240.732 74.6684C240.732 74.6684 240.81 74.5904 240.832 74.5408H240.782V74.5337Z" fill="white"/>
<path fill-rule="evenodd" clip-rule="evenodd" d="M239.868 78.7743C241.144 78.2637 242.499 77.973 243.867 77.9163C244.172 77.9163 244.115 78.8736 243.867 78.8736C242.569 78.9232 241.293 79.1927 240.095 79.682L239.868 78.7743Z" fill="#598291"/>
<path fill-rule="evenodd" clip-rule="evenodd" d="M249.37 82.3128C248.895 82.1143 248.413 81.9086 247.888 81.6605C247.768 81.6108 247.704 81.4832 247.739 81.3555C247.952 79.526 247.952 77.6752 247.739 75.8456C247.718 75.718 247.796 75.5903 247.917 75.5407C248.413 75.2925 248.931 75.0798 249.448 74.8883C249.576 75.0514 249.633 75.2571 249.611 75.4698C249.143 75.6187 248.718 75.8244 248.292 76.0016C248.484 77.7319 248.484 79.4763 248.292 81.2137C248.697 81.4123 249.101 81.5895 249.548 81.7668C249.569 81.9654 249.505 82.171 249.37 82.3199V82.3128Z" fill="#7EAABA"/>
</svg>
